<svg xmlns="http://www.w3.org/2000/svg" xmlns:xlink="http://www.w3.org/1999/xlink" id="body_195" preserveAspectRatio="xMinYMin meet" viewBox="0 0 793 1123"><defs><clipPath id="1"><path d="M0 842L0 -0.03997803L0 -0.03997803L595.32 -0.03997803L595.32 -0.03997803L595.32 842L595.32 842L0 842z" /></clipPath><clipPath id="2"><path d="M487.78 782.72L507.46 782.72L507.46 782.72L507.46 770.24L507.46 770.24L487.78 770.24z" /></clipPath><clipPath id="3"><path d="M487.78 782.72L507.46 782.72L507.46 782.72L507.46 770.24L507.46 770.24L487.78 770.24z" /></clipPath><clipPath id="4"><path d="M487.78 782.72L507.46 782.72L507.46 782.72L507.46 770.24L507.46 770.24L487.78 770.24z" /></clipPath></defs><g transform="matrix(1.333333 0 0 1.333333 0 0)"><g><g clip-path="url(#1)"><g clip-path="url(#2)"><g clip-path="url(#3)"></g><g clip-path="url(#4)"></g></g><path transform="matrix(1 0 0 -1 0 842)" d="M189.77 666.82L246.17 666.82L246.17 666.82L246.17 667.3L246.17 667.3L189.77 667.3z" stroke="none" fill="#C35454" fill-rule="evenodd" /><path transform="matrix(1 0 0 -1 0 842)" d="M354.07 666.82L415.054 666.82L415.054 666.82L415.054 667.3L415.054 667.3L354.07 667.3z" stroke="none" fill="#C35454" fill-rule="evenodd" /><path transform="matrix(1 0 0 -1 0 842)" d="M132.02 630.7L238.12 630.7L238.12 630.7L238.12 631.18L238.12 631.18L132.02 631.18z" stroke="none" fill="#C35454" fill-rule="evenodd" /><path transform="matrix(1 0 0 -1 0 842)" d="M346.15 630.7L407.11 630.7L407.11 630.7L407.11 631.18L407.11 631.18L346.15 631.18z" stroke="none" fill="#C35454" fill-rule="evenodd" /><path transform="matrix(1 0 0 -1 0 842)" d="M147.62 236.54L200.564 236.54L200.564 236.54L200.564 237.02L200.564 237.02L147.62 237.02z" stroke="none" fill="#C35454" fill-rule="evenodd" /><path transform="matrix(1 0 0 -1 0 842)" d="M272.09 236.54L321.554 236.54L321.554 236.54L321.554 237.02L321.554 237.02L272.09 237.02z" stroke="none" fill="#C35454" fill-rule="evenodd" /><path transform="matrix(1 0 0 -1 0 842)" d="M132.02 218.54L193.364 218.54L193.364 218.54L193.364 219.02L193.364 219.02L132.02 219.02z" stroke="none" fill="#C35454" fill-rule="evenodd" /><path transform="matrix(1 0 0 -1 0 842)" d="M264.53 218.54L313.994 218.54L313.994 218.54L313.994 219.02L313.994 219.02L264.53 219.02z" stroke="none" fill="#C35454" fill-rule="evenodd" /></g></g></g></svg>