<svg xmlns="http://www.w3.org/2000/svg" xmlns:xlink="http://www.w3.org/1999/xlink" id="body_399" preserveAspectRatio="xMinYMin meet" viewBox="0 0 793 1123"><defs><clipPath id="1"><path d="M0 842L0 -0.03997803L0 -0.03997803L595.32 -0.03997803L595.32 -0.03997803L595.32 842L595.32 842L0 842z" /></clipPath><clipPath id="2"><path d="M89.064 782.72L106.704 782.72L106.704 782.72L106.704 770.24L106.704 770.24L89.064 770.24z" /></clipPath><clipPath id="3"><path d="M89.064 782.72L106.704 782.72L106.704 782.72L106.704 770.24L106.704 770.24L89.064 770.24z" /></clipPath><clipPath id="4"><path d="M89.064 782.72L106.704 782.72L106.704 782.72L106.704 770.24L106.704 770.24L89.064 770.24z" /></clipPath></defs><g transform="matrix(1.333333 0 0 1.333333 0 0)"><g><g clip-path="url(#1)"><g clip-path="url(#2)"><g clip-path="url(#3)"></g><g clip-path="url(#4)"></g></g><path transform="matrix(1 0 0 -1 0 842)" d="M264.7 759.84L268.2 759.84" stroke="#C35454" stroke-width="0.64" stroke-linecap="round" fill="none" /><path transform="matrix(1 0 0 -1 0 842)" d="M269.1 531.74L272.55 531.74" stroke="#C35454" stroke-width="0.64" stroke-linecap="round" fill="none" /><path transform="matrix(1 0 0 -1 0 842)" d="M270.05 761.4L312.074 761.4L312.074 761.4L312.074 761.88L312.074 761.88L270.05 761.88z" stroke="none" fill="#C35454" fill-rule="evenodd" /><path transform="matrix(1 0 0 -1 0 842)" d="M273.89 533.11L315.794 533.11L315.794 533.11L315.794 533.59L315.794 533.59L273.89 533.59z" stroke="none" fill="#C35454" fill-rule="evenodd" /><path transform="matrix(1 0 0 -1 0 842)" d="M357.79 307.13L393.43 307.13L393.43 307.13L393.43 307.61L393.43 307.61L357.79 307.61z" stroke="none" fill="#C35454" fill-rule="evenodd" /></g></g></g></svg>