<svg xmlns="http://www.w3.org/2000/svg" xmlns:xlink="http://www.w3.org/1999/xlink" id="body_413" preserveAspectRatio="xMinYMin meet" viewBox="0 0 793 1123"><defs><clipPath id="1"><path d="M0 842L0 -0.03997803L0 -0.03997803L595.32 -0.03997803L595.32 -0.03997803L595.32 842L595.32 842L0 842z" /></clipPath><clipPath id="2"><path d="M487.78 782.72L507.46 782.72L507.46 782.72L507.46 770.24L507.46 770.24L487.78 770.24z" /></clipPath><clipPath id="3"><path d="M487.78 782.72L507.46 782.72L507.46 782.72L507.46 770.24L507.46 770.24L487.78 770.24z" /></clipPath><clipPath id="4"><path d="M487.78 782.72L507.46 782.72L507.46 782.72L507.46 770.24L507.46 770.24L487.78 770.24z" /></clipPath></defs><g transform="matrix(1.333333 0 0 1.333333 0 0)"><g><g clip-path="url(#1)"><g clip-path="url(#2)"><g clip-path="url(#3)"></g><g clip-path="url(#4)"></g></g><path transform="matrix(1 0 0 -1 0 842)" d="M169.22 761.4L185.804 761.4L185.804 761.4L185.804 761.88L185.804 761.88L169.22 761.88z" stroke="none" fill="#C35454" fill-rule="evenodd" /><path transform="matrix(1 0 0 -1 0 842)" d="M238.49 761.4L285.17 761.4L285.17 761.4L285.17 761.88L285.17 761.88L238.49 761.88z" stroke="none" fill="#C35454" fill-rule="evenodd" /><path transform="matrix(1 0 0 -1 0 842)" d="M169.22 663.7L185.804 663.7L185.804 663.7L185.804 664.18L185.804 664.18L169.22 664.18z" stroke="none" fill="#C35454" fill-rule="evenodd" /><path transform="matrix(1 0 0 -1 0 842)" d="M238.49 663.7L319.514 663.7L319.514 663.7L319.514 664.18L319.514 664.18L238.49 664.18z" stroke="none" fill="#C35454" fill-rule="evenodd" /><path transform="matrix(1 0 0 -1 0 842)" d="M218.81 503.11L230.81 503.11L230.81 503.11L230.81 503.59L230.81 503.59L218.81 503.59z" stroke="none" fill="#C35454" fill-rule="evenodd" /><path transform="matrix(1 0 0 -1 0 842)" d="M271.13 503.11L305.714 503.11L305.714 503.11L305.714 503.59L305.714 503.59L271.13 503.59z" stroke="none" fill="#C35454" fill-rule="evenodd" /><path transform="matrix(1 0 0 -1 0 842)" d="M218.81 405.41L230.81 405.41L230.81 405.41L230.81 405.89L230.81 405.89L218.81 405.89z" stroke="none" fill="#C35454" fill-rule="evenodd" /><path transform="matrix(1 0 0 -1 0 842)" d="M271.13 405.41L330.794 405.41L330.794 405.41L330.794 405.89L330.794 405.89L271.13 405.89z" stroke="none" fill="#C35454" fill-rule="evenodd" /><path transform="matrix(1 0 0 -1 0 842)" d="M219.17 172.7L241.01 172.7L241.01 172.7L241.01 173.18L241.01 173.18L219.17 173.18z" stroke="none" fill="#C35454" fill-rule="evenodd" /><path transform="matrix(1 0 0 -1 0 842)" d="M282.77 172.7L317.474 172.7L317.474 172.7L317.474 173.18L317.474 173.18L282.77 173.18z" stroke="none" fill="#C35454" fill-rule="evenodd" /></g></g></g></svg>