<svg xmlns="http://www.w3.org/2000/svg" xmlns:xlink="http://www.w3.org/1999/xlink" id="body_303" preserveAspectRatio="xMinYMin meet" viewBox="0 0 793 1123"><defs><clipPath id="1"><path d="M0 842L0 -0.03997803L0 -0.03997803L595.32 -0.03997803L595.32 -0.03997803L595.32 842L595.32 842L0 842z" /></clipPath><clipPath id="2"><path d="M487.78 782.72L507.46 782.72L507.46 782.72L507.46 770.24L507.46 770.24L487.78 770.24z" /></clipPath><clipPath id="3"><path d="M487.78 782.72L507.46 782.72L507.46 782.72L507.46 770.24L507.46 770.24L487.78 770.24z" /></clipPath><clipPath id="4"><path d="M487.78 782.72L507.46 782.72L507.46 782.72L507.46 770.24L507.46 770.24L487.78 770.24z" /></clipPath></defs><g transform="matrix(1.333333 0 0 1.333333 0 0)"><g><g clip-path="url(#1)"><g clip-path="url(#2)"><g clip-path="url(#3)"></g><g clip-path="url(#4)"></g></g><path transform="matrix(1 0 0 -1 0 842)" d="M180.29 761.4L319.87 761.4L319.87 761.4L319.87 761.88L319.87 761.88L180.29 761.88z" stroke="none" fill="#C35454" fill-rule="evenodd" /><path transform="matrix(1 0 0 -1 0 842)" d="M319.99 607.66L338.35 607.66L338.35 607.66L338.35 608.14L338.35 608.14L319.99 608.14z" stroke="none" fill="#C35454" fill-rule="evenodd" /><path transform="matrix(1 0 0 -1 0 842)" d="M132.02 291.17L425.85 291.17L425.85 291.17L425.85 291.65L425.85 291.65L132.02 291.65z" stroke="none" fill="#C35454" fill-rule="evenodd" /><path transform="matrix(1 0 0 -1 0 842)" d="M132.02 153.02L347.59 153.02L347.59 153.02L347.59 153.5L347.59 153.5L132.02 153.5z" stroke="none" fill="#C35454" fill-rule="evenodd" /></g></g></g></svg>