<svg xmlns="http://www.w3.org/2000/svg" xmlns:xlink="http://www.w3.org/1999/xlink" id="body_269" preserveAspectRatio="xMinYMin meet" viewBox="0 0 793 1123"><defs><clipPath id="1"><path d="M0 842L0 -0.03997803L0 -0.03997803L595.32 -0.03997803L595.32 -0.03997803L595.32 842L595.32 842L0 842z" /></clipPath><clipPath id="2"><path d="M487.78 782.72L507.46 782.72L507.46 782.72L507.46 770.24L507.46 770.24L487.78 770.24z" /></clipPath><clipPath id="3"><path d="M487.78 782.72L507.46 782.72L507.46 782.72L507.46 770.24L507.46 770.24L487.78 770.24z" /></clipPath><clipPath id="4"><path d="M487.78 782.72L507.46 782.72L507.46 782.72L507.46 770.24L507.46 770.24L487.78 770.24z" /></clipPath></defs><g transform="matrix(1.333333 0 0 1.333333 0 0)"><g><g clip-path="url(#1)"><g clip-path="url(#2)"><g clip-path="url(#3)"></g><g clip-path="url(#4)"></g></g><path transform="matrix(1 0 0 -1 0 842)" d="M180.89 702.7L216.17 702.7L216.17 702.7L216.17 703.18L216.17 703.18L180.89 703.18z" stroke="none" fill="#C35454" fill-rule="evenodd" /><path transform="matrix(1 0 0 -1 0 842)" d="M317.95 702.7L427.41 702.7L427.41 702.7L427.41 703.18L427.41 703.18L317.95 703.18z" stroke="none" fill="#C35454" fill-rule="evenodd" /><path transform="matrix(1 0 0 -1 0 842)" d="M132.02 684.7L154.22 684.7L154.22 684.7L154.22 685.18L154.22 685.18L132.02 685.18z" stroke="none" fill="#C35454" fill-rule="evenodd" /><path transform="matrix(1 0 0 -1 0 842)" d="M159.98 543.91L326.95 543.91L326.95 543.91L326.95 544.39L326.95 544.39L159.98 544.39z" stroke="none" fill="#C35454" fill-rule="evenodd" /><path transform="matrix(1 0 0 -1 0 842)" d="M159.98 385.73L339.31 385.73L339.31 385.73L339.31 386.21L339.31 386.21L159.98 386.21z" stroke="none" fill="#C35454" fill-rule="evenodd" /><path transform="matrix(1 0 0 -1 0 842)" d="M132.02 227.06L322.51 227.06L322.51 227.06L322.51 227.54L322.51 227.54L132.02 227.54z" stroke="none" fill="#C35454" fill-rule="evenodd" /><path transform="matrix(1 0 0 -1 0 842)" d="M356.11 227.06L384.79 227.06L384.79 227.06L384.79 227.54L384.79 227.54L356.11 227.54z" stroke="none" fill="#C35454" fill-rule="evenodd" /><path transform="matrix(1 0 0 -1 0 842)" d="M403.03 227.06L413.374 227.06L413.374 227.06L413.374 227.54L413.374 227.54L403.03 227.54z" stroke="none" fill="#C35454" fill-rule="evenodd" /></g></g></g></svg>