<svg xmlns="http://www.w3.org/2000/svg" xmlns:xlink="http://www.w3.org/1999/xlink" id="body_74" preserveAspectRatio="xMinYMin meet" viewBox="0 0 793 1123"><defs><clipPath id="1"><path d="M0 842L0 -0.03997803L0 -0.03997803L595.32 -0.03997803L595.32 -0.03997803L595.32 842L595.32 842L0 842z" /></clipPath><clipPath id="2"><path d="M87.984 782.72L102.504 782.72L102.504 782.72L102.504 770.24L102.504 770.24L87.984 770.24z" /></clipPath><clipPath id="3"><path d="M87.984 782.72L102.504 782.72L102.504 782.72L102.504 770.24L102.504 770.24L87.984 770.24z" /></clipPath><clipPath id="4"><path d="M87.984 782.72L102.504 782.72L102.504 782.72L102.504 770.24L102.504 770.24L87.984 770.24z" /></clipPath></defs><g transform="matrix(1.333333 0 0 1.333333 0 0)"><g><g clip-path="url(#1)"><g clip-path="url(#2)"><g clip-path="url(#3)"></g><g clip-path="url(#4)"></g></g><path transform="matrix(1 0 0 -1 0 842)" d="M132.02 759.84L217.844 759.84L217.844 759.84L217.844 760.32L217.844 760.32L132.02 760.32z" stroke="none" fill="#C35454" fill-rule="evenodd" /><path transform="matrix(1 0 0 -1 0 842)" d="M146.9 629.86L185.444 629.86L185.444 629.86L185.444 630.34L185.444 630.34L146.9 630.34z" stroke="none" fill="#C35454" fill-rule="evenodd" /><path transform="matrix(1 0 0 -1 0 842)" d="M217.85 629.86L246.53 629.86L246.53 629.86L246.53 630.34L246.53 630.34L217.85 630.34z" stroke="none" fill="#C35454" fill-rule="evenodd" /><path transform="matrix(1 0 0 -1 0 842)" d="M306.07 629.86L334.27 629.86L334.27 629.86L334.27 630.34L334.27 630.34L306.07 630.34z" stroke="none" fill="#C35454" fill-rule="evenodd" /><path transform="matrix(1 0 0 -1 0 842)" d="M217.85 539.95L277.73 539.95L277.73 539.95L277.73 540.43L277.73 540.43L217.85 540.43z" stroke="none" fill="#C35454" fill-rule="evenodd" /><path transform="matrix(1 0 0 -1 0 842)" d="M147.02 449.95L216.524 449.95L216.524 449.95L216.524 450.43L216.524 450.43L147.02 450.43z" stroke="none" fill="#C35454" fill-rule="evenodd" /><path transform="matrix(1 0 0 -1 0 842)" d="M132.02 343.85L295.15 343.85L295.15 343.85L295.15 344.33L295.15 344.33L132.02 344.33z" stroke="none" fill="#C35454" fill-rule="evenodd" /><path transform="matrix(1 0 0 -1 0 842)" d="M132.02 225.02L336.67 225.02L336.67 225.02L336.67 225.5L336.67 225.5L132.02 225.5z" stroke="none" fill="#C35454" fill-rule="evenodd" /></g></g></g></svg>