<svg xmlns="http://www.w3.org/2000/svg" xmlns:xlink="http://www.w3.org/1999/xlink" id="body_369" preserveAspectRatio="xMinYMin meet" viewBox="0 0 793 1123"><defs><clipPath id="1"><path d="M0 842L0 -0.03997803L0 -0.03997803L595.32 -0.03997803L595.32 -0.03997803L595.32 842L595.32 842L0 842z" /></clipPath><clipPath id="2"><path d="M487.78 782.72L507.46 782.72L507.46 782.72L507.46 770.24L507.46 770.24L487.78 770.24z" /></clipPath><clipPath id="3"><path d="M487.78 782.72L507.46 782.72L507.46 782.72L507.46 770.24L507.46 770.24L487.78 770.24z" /></clipPath><clipPath id="4"><path d="M487.78 782.72L507.46 782.72L507.46 782.72L507.46 770.24L507.46 770.24L487.78 770.24z" /></clipPath></defs><g transform="matrix(1.333333 0 0 1.333333 0 0)"><g><g clip-path="url(#1)"><g clip-path="url(#2)"><g clip-path="url(#3)"></g><g clip-path="url(#4)"></g></g><path transform="matrix(1 0 0 -1 0 842)" d="M132.02 701.86L208.124 701.86L208.124 701.86L208.124 702.34L208.124 702.34L132.02 702.34z" stroke="none" fill="#C35454" fill-rule="evenodd" /><path transform="matrix(1 0 0 -1 0 842)" d="M277.97 701.86L324.074 701.86L324.074 701.86L324.074 702.34L324.074 702.34L277.97 702.34z" stroke="none" fill="#C35454" fill-rule="evenodd" /><path transform="matrix(1 0 0 -1 0 842)" d="M132.02 595.3L243.88 595.3L243.88 595.3L243.88 595.78L243.88 595.78L132.02 595.78z" stroke="none" fill="#C35454" fill-rule="evenodd" /><path transform="matrix(1 0 0 -1 0 842)" d="M298.75 595.3L338.59 595.3L338.59 595.3L338.59 595.78L338.59 595.78L298.75 595.78z" stroke="none" fill="#C35454" fill-rule="evenodd" /><path transform="matrix(1 0 0 -1 0 842)" d="M132.02 457.15L243.88 457.15L243.88 457.15L243.88 457.63L243.88 457.63L132.02 457.63z" stroke="none" fill="#C35454" fill-rule="evenodd" /><path transform="matrix(1 0 0 -1 0 842)" d="M298.75 457.15L338.59 457.15L338.59 457.15L338.59 457.63L338.59 457.63L298.75 457.63z" stroke="none" fill="#C35454" fill-rule="evenodd" /><path transform="matrix(1 0 0 -1 0 842)" d="M176.21 350.69L197.33 350.69L197.33 350.69L197.33 351.17L197.33 351.17L176.21 351.17z" stroke="none" fill="#C35454" fill-rule="evenodd" /><path transform="matrix(1 0 0 -1 0 842)" d="M176.21 212.42L197.33 212.42L197.33 212.42L197.33 212.9L197.33 212.9L176.21 212.9z" stroke="none" fill="#C35454" fill-rule="evenodd" /><path transform="matrix(1 0 0 -1 0 842)" d="M190.37 105.86L225.65 105.86L225.65 105.86L225.65 106.34L225.65 106.34L190.37 106.34z" stroke="none" fill="#C35454" fill-rule="evenodd" /></g></g></g></svg>