<svg xmlns="http://www.w3.org/2000/svg" xmlns:xlink="http://www.w3.org/1999/xlink" id="body_218" preserveAspectRatio="xMinYMin meet" viewBox="0 0 793 1123"><defs><clipPath id="1"><path d="M0 842L0 -0.03997803L0 -0.03997803L595.32 -0.03997803L595.32 -0.03997803L595.32 842L595.32 842L0 842z" /></clipPath><clipPath id="2"><path d="M87.984 782.72L161.304 782.72L161.304 782.72L161.304 770.24L161.304 770.24L87.984 770.24z" /></clipPath><clipPath id="3"><path d="M87.984 782.72L161.304 782.72L161.304 782.72L161.304 770.24L161.304 770.24L87.984 770.24z" /></clipPath><clipPath id="4"><path d="M87.984 782.72L161.304 782.72L161.304 782.72L161.304 770.24L161.304 770.24L87.984 770.24z" /></clipPath><clipPath id="5"><path d="M87.984 782.72L161.304 782.72L161.304 782.72L161.304 770.24L161.304 770.24L87.984 770.24z" /></clipPath><clipPath id="6"><path d="M87.984 782.72L161.304 782.72L161.304 782.72L161.304 770.24L161.304 770.24L87.984 770.24z" /></clipPath><clipPath id="7"><path d="M87.984 782.72L161.304 782.72L161.304 782.72L161.304 770.24L161.304 770.24L87.984 770.24z" /></clipPath><clipPath id="8"><path d="M87.984 782.72L161.304 782.72L161.304 782.72L161.304 770.24L161.304 770.24L87.984 770.24z" /></clipPath></defs><g transform="matrix(1.333333 0 0 1.333333 0 0)"><g><g clip-path="url(#1)"><g clip-path="url(#2)"><g clip-path="url(#3)"></g><g clip-path="url(#4)"></g><g clip-path="url(#5)"></g><g clip-path="url(#6)"></g><g clip-path="url(#7)"></g><g clip-path="url(#8)"></g></g><path transform="matrix(1 0 0 -1 0 842)" d="M160.6 700.39L164.05 700.39" stroke="#C35454" stroke-width="0.64" stroke-linecap="round" fill="none" /><path transform="matrix(1 0 0 -1 0 842)" d="M132 577.14L135.5 577.14" stroke="#C35454" stroke-width="0.64" stroke-linecap="round" fill="none" /><path transform="matrix(1 0 0 -1 0 842)" d="M132 480.84L135.5 480.84" stroke="#C35454" stroke-width="0.64" stroke-linecap="round" fill="none" /><path transform="matrix(1 0 0 -1 0 842)" d="M166.34 700.3L312.19 700.3L312.19 700.3L312.19 700.78L312.19 700.78L166.34 700.78z" stroke="none" fill="#C35454" fill-rule="evenodd" /><path transform="matrix(1 0 0 -1 0 842)" d="M138.02 577.03L284.56 577.03L284.56 577.03L284.56 577.51L284.56 577.51L138.02 577.51z" stroke="none" fill="#C35454" fill-rule="evenodd" /><path transform="matrix(1 0 0 -1 0 842)" d="M138.02 480.67L295.51 480.67L295.51 480.67L295.51 481.15L295.51 481.15L138.02 481.15z" stroke="none" fill="#C35454" fill-rule="evenodd" /><g transform="matrix(0.3611413 0 0 0.3625 118.45 537.21)"><g transform="matrix(1 0 0 1 0 0)"><image x="0" y="0" xlink:href="img_26.png" width="184" height="44" /></g></g><path transform="matrix(1 0 0 -1 0 842)" d="M148.58 128.18L204.284 128.18L204.284 128.18L204.284 128.66L204.284 128.66L148.58 128.66z" stroke="none" fill="#C35454" fill-rule="evenodd" /></g></g></g></svg>