<svg xmlns="http://www.w3.org/2000/svg" xmlns:xlink="http://www.w3.org/1999/xlink" id="body_307" preserveAspectRatio="xMinYMin meet" viewBox="0 0 793 1123"><defs><clipPath id="1"><path d="M0 842L0 -0.03997803L0 -0.03997803L595.32 -0.03997803L595.32 -0.03997803L595.32 842L595.32 842L0 842z" /></clipPath><clipPath id="2"><path d="M487.78 782.72L507.46 782.72L507.46 782.72L507.46 770.24L507.46 770.24L487.78 770.24z" /></clipPath><clipPath id="3"><path d="M487.78 782.72L507.46 782.72L507.46 782.72L507.46 770.24L507.46 770.24L487.78 770.24z" /></clipPath><clipPath id="4"><path d="M487.78 782.72L507.46 782.72L507.46 782.72L507.46 770.24L507.46 770.24L487.78 770.24z" /></clipPath></defs><g transform="matrix(1.333333 0 0 1.333333 0 0)"><g><g clip-path="url(#1)"><g clip-path="url(#2)"><g clip-path="url(#3)"></g><g clip-path="url(#4)"></g></g><path transform="matrix(1 0 0 -1 0 842)" d="M232.61 665.86L382.75 665.86L382.75 665.86L382.75 666.34L382.75 666.34L232.61 666.34z" stroke="none" fill="#C35454" fill-rule="evenodd" /><path transform="matrix(1 0 0 -1 0 842)" d="M277.97 542.23L296.354 542.23L296.354 542.23L296.354 542.71L296.354 542.71L277.97 542.71z" stroke="none" fill="#C35454" fill-rule="evenodd" /><path transform="matrix(1 0 0 -1 0 842)" d="M132.02 431.59L309.67 431.59L309.67 431.59L309.67 432.07L309.67 432.07L132.02 432.07z" stroke="none" fill="#C35454" fill-rule="evenodd" /><path transform="matrix(1 0 0 -1 0 842)" d="M132.02 291.89L268.84 291.89L268.84 291.89L268.84 292.37L268.84 292.37L132.02 292.37z" stroke="none" fill="#C35454" fill-rule="evenodd" /></g></g></g></svg>