<svg xmlns="http://www.w3.org/2000/svg" xmlns:xlink="http://www.w3.org/1999/xlink" id="body_306" preserveAspectRatio="xMinYMin meet" viewBox="0 0 793 1123"><defs><clipPath id="1"><path d="M0 842L0 -0.03997803L0 -0.03997803L595.32 -0.03997803L595.32 -0.03997803L595.32 842L595.32 842L0 842z" /></clipPath><clipPath id="2"><path d="M87.984 782.72L161.304 782.72L161.304 782.72L161.304 770.24L161.304 770.24L87.984 770.24z" /></clipPath><clipPath id="3"><path d="M87.984 782.72L161.304 782.72L161.304 782.72L161.304 770.24L161.304 770.24L87.984 770.24z" /></clipPath><clipPath id="4"><path d="M87.984 782.72L161.304 782.72L161.304 782.72L161.304 770.24L161.304 770.24L87.984 770.24z" /></clipPath><clipPath id="5"><path d="M87.984 782.72L161.304 782.72L161.304 782.72L161.304 770.24L161.304 770.24L87.984 770.24z" /></clipPath><clipPath id="6"><path d="M87.984 782.72L161.304 782.72L161.304 782.72L161.304 770.24L161.304 770.24L87.984 770.24z" /></clipPath><clipPath id="7"><path d="M87.984 782.72L161.304 782.72L161.304 782.72L161.304 770.24L161.304 770.24L87.984 770.24z" /></clipPath><clipPath id="8"><path d="M87.984 782.72L161.304 782.72L161.304 782.72L161.304 770.24L161.304 770.24L87.984 770.24z" /></clipPath></defs><g transform="matrix(1.333333 0 0 1.333333 0 0)"><g><g clip-path="url(#1)"><g clip-path="url(#2)"><g clip-path="url(#3)"></g><g clip-path="url(#4)"></g><g clip-path="url(#5)"></g><g clip-path="url(#6)"></g><g clip-path="url(#7)"></g><g clip-path="url(#8)"></g></g><path transform="matrix(1 0 0 -1 0 842)" d="M132 736.44L135.5 736.44" stroke="#C35454" stroke-width="0.64" stroke-linecap="round" fill="none" /><path transform="matrix(1 0 0 -1 0 842)" d="M132 521.74L135.5 521.74" stroke="#C35454" stroke-width="0.64" stroke-linecap="round" fill="none" /><path transform="matrix(1 0 0 -1 0 842)" d="M132 397.19L135.5 397.19" stroke="#C35454" stroke-width="0.64" stroke-linecap="round" fill="none" /><path transform="matrix(1 0 0 -1 0 842)" d="M163.94 737.98L308.71 737.98L308.71 737.98L308.71 738.46L308.71 738.46L163.94 738.46z" stroke="none" fill="#C35454" fill-rule="evenodd" /><path transform="matrix(1 0 0 -1 0 842)" d="M242.57 632.26L260.93 632.26L260.93 632.26L260.93 632.74L260.93 632.74L242.57 632.74z" stroke="none" fill="#C35454" fill-rule="evenodd" /><path transform="matrix(1 0 0 -1 0 842)" d="M163.94 523.15L273.16 523.15L273.16 523.15L273.16 523.63L273.16 523.63L163.94 523.63z" stroke="none" fill="#C35454" fill-rule="evenodd" /><path transform="matrix(1 0 0 -1 0 842)" d="M163.94 398.57L277.48 398.57L277.48 398.57L277.48 399.05L277.48 399.05L163.94 399.05z" stroke="none" fill="#C35454" fill-rule="evenodd" /><path transform="matrix(1 0 0 -1 0 842)" d="M142.58 166.82L283.24 166.82L283.24 166.82L283.24 167.3L283.24 167.3L142.58 167.3z" stroke="none" fill="#C35454" fill-rule="evenodd" /><path transform="matrix(1 0 0 -1 0 842)" d="M142.58 103.58L280.6 103.58L280.6 103.58L280.6 104.06L280.6 104.06L142.58 104.06z" stroke="none" fill="#C35454" fill-rule="evenodd" /></g></g></g></svg>