<svg xmlns="http://www.w3.org/2000/svg" xmlns:xlink="http://www.w3.org/1999/xlink" id="body_46" preserveAspectRatio="xMinYMin meet" viewBox="0 0 793 1123"><defs><clipPath id="1"><path d="M0 842L0 -0.03997803L0 -0.03997803L595.32 -0.03997803L595.32 -0.03997803L595.32 842L595.32 842L0 842z" /></clipPath><clipPath id="2"><path d="M492.94 782.72L507.46 782.72L507.46 782.72L507.46 770.24L507.46 770.24L492.94 770.24z" /></clipPath><clipPath id="3"><path d="M492.94 782.72L507.46 782.72L507.46 782.72L507.46 770.24L507.46 770.24L492.94 770.24z" /></clipPath><clipPath id="4"><path d="M492.94 782.72L507.46 782.72L507.46 782.72L507.46 770.24L507.46 770.24L492.94 770.24z" /></clipPath><clipPath id="5"><path d="M129.98 125.62L174.74 125.62L174.74 125.62L174.74 79.87598L174.74 79.87598L129.98 79.87598z" /></clipPath><clipPath id="6"><path d="M129.98 125.62L174.74 125.62L174.74 125.62L174.74 79.87598L174.74 79.87598L129.98 79.87598z" /></clipPath><clipPath id="7"><path d="M129.98 125.62L174.74 125.62L174.74 125.62L174.74 79.87598L174.74 79.87598L129.98 79.87598z" /></clipPath><clipPath id="8"><path d="M129.98 125.62L174.74 125.62L174.74 125.62L174.74 79.87598L174.74 79.87598L129.98 79.87598z" /></clipPath><clipPath id="9"><path d="M129.98 125.62L174.74 125.62L174.74 125.62L174.74 79.87598L174.74 79.87598L129.98 79.87598z" /></clipPath><clipPath id="10"><path d="M129.98 125.62L174.74 125.62L174.74 125.62L174.74 79.87598L174.74 79.87598L129.98 79.87598z" /></clipPath><clipPath id="11"><path d="M174.74 125.62L243.884 125.62L243.884 125.62L243.884 79.87598L243.884 79.87598L174.74 79.87598z" /></clipPath><clipPath id="12"><path d="M174.74 125.62L243.884 125.62L243.884 125.62L243.884 79.87598L243.884 79.87598L174.74 79.87598z" /></clipPath><clipPath id="13"><path d="M174.74 125.62L243.884 125.62L243.884 125.62L243.884 79.87598L243.884 79.87598L174.74 79.87598z" /></clipPath><clipPath id="14"><path d="M174.74 125.62L243.884 125.62L243.884 125.62L243.884 79.87598L243.884 79.87598L174.74 79.87598z" /></clipPath><clipPath id="15"><path d="M174.74 125.62L243.884 125.62L243.884 125.62L243.884 79.87598L243.884 79.87598L174.74 79.87598z" /></clipPath><clipPath id="16"><path d="M174.74 125.62L243.884 125.62L243.884 125.62L243.884 79.87598L243.884 79.87598L174.74 79.87598z" /></clipPath><clipPath id="17"><path d="M243.89 125.62L304.994 125.62L304.994 125.62L304.994 79.87598L304.994 79.87598L243.89 79.87598z" /></clipPath><clipPath id="18"><path d="M243.89 125.62L304.994 125.62L304.994 125.62L304.994 79.87598L304.994 79.87598L243.89 79.87598z" /></clipPath><clipPath id="19"><path d="M243.89 125.62L304.994 125.62L304.994 125.62L304.994 79.87598L304.994 79.87598L243.89 79.87598z" /></clipPath><clipPath id="20"><path d="M243.89 125.62L304.994 125.62L304.994 125.62L304.994 79.87598L304.994 79.87598L243.89 79.87598z" /></clipPath><clipPath id="21"><path d="M243.89 125.62L304.994 125.62L304.994 125.62L304.994 79.87598L304.994 79.87598L243.89 79.87598z" /></clipPath><clipPath id="22"><path d="M243.89 125.62L304.994 125.62L304.994 125.62L304.994 79.87598L304.994 79.87598L243.89 79.87598z" /></clipPath><clipPath id="23"><path d="M129.98 143.62L174.74 143.62L174.74 143.62L174.74 125.62L174.74 125.62L129.98 125.62z" /></clipPath><clipPath id="24"><path d="M129.98 143.62L174.74 143.62L174.74 143.62L174.74 125.62L174.74 125.62L129.98 125.62z" /></clipPath><clipPath id="25"><path d="M129.98 143.62L174.74 143.62L174.74 143.62L174.74 125.62L174.74 125.62L129.98 125.62z" /></clipPath><clipPath id="26"><path d="M174.74 143.62L243.884 143.62L243.884 143.62L243.884 125.62L243.884 125.62L174.74 125.62z" /></clipPath><clipPath id="27"><path d="M174.74 143.62L243.884 143.62L243.884 143.62L243.884 125.62L243.884 125.62L174.74 125.62z" /></clipPath><clipPath id="28"><path d="M174.74 143.62L243.884 143.62L243.884 143.62L243.884 125.62L243.884 125.62L174.74 125.62z" /></clipPath><clipPath id="29"><path d="M243.89 143.62L304.994 143.62L304.994 143.62L304.994 125.62L304.994 125.62L243.89 125.62z" /></clipPath><clipPath id="30"><path d="M243.89 143.62L304.994 143.62L304.994 143.62L304.994 125.62L304.994 125.62L243.89 125.62z" /></clipPath><clipPath id="31"><path d="M243.89 143.62L304.994 143.62L304.994 143.62L304.994 125.62L304.994 125.62L243.89 125.62z" /></clipPath><clipPath id="32"><path d="M129.98 161.62L174.74 161.62L174.74 161.62L174.74 143.62L174.74 143.62L129.98 143.62z" /></clipPath><clipPath id="33"><path d="M129.98 161.62L174.74 161.62L174.74 161.62L174.74 143.62L174.74 143.62L129.98 143.62z" /></clipPath><clipPath id="34"><path d="M129.98 161.62L174.74 161.62L174.74 161.62L174.74 143.62L174.74 143.62L129.98 143.62z" /></clipPath><clipPath id="35"><path d="M174.74 161.62L243.884 161.62L243.884 161.62L243.884 143.62L243.884 143.62L174.74 143.62z" /></clipPath><clipPath id="36"><path d="M174.74 161.62L243.884 161.62L243.884 161.62L243.884 143.62L243.884 143.62L174.74 143.62z" /></clipPath><clipPath id="37"><path d="M174.74 161.62L243.884 161.62L243.884 161.62L243.884 143.62L243.884 143.62L174.74 143.62z" /></clipPath><clipPath id="38"><path d="M243.89 161.62L304.994 161.62L304.994 161.62L304.994 143.62L304.994 143.62L243.89 143.62z" /></clipPath><clipPath id="39"><path d="M243.89 161.62L304.994 161.62L304.994 161.62L304.994 143.62L304.994 143.62L243.89 143.62z" /></clipPath><clipPath id="40"><path d="M243.89 161.62L304.994 161.62L304.994 161.62L304.994 143.62L304.994 143.62L243.89 143.62z" /></clipPath><clipPath id="41"><path d="M129.98 179.62L174.74 179.62L174.74 179.62L174.74 161.62L174.74 161.62L129.98 161.62z" /></clipPath><clipPath id="42"><path d="M129.98 179.62L174.74 179.62L174.74 179.62L174.74 161.62L174.74 161.62L129.98 161.62z" /></clipPath><clipPath id="43"><path d="M129.98 179.62L174.74 179.62L174.74 179.62L174.74 161.62L174.74 161.62L129.98 161.62z" /></clipPath><clipPath id="44"><path d="M174.74 179.62L243.884 179.62L243.884 179.62L243.884 161.62L243.884 161.62L174.74 161.62z" /></clipPath><clipPath id="45"><path d="M174.74 179.62L243.884 179.62L243.884 179.62L243.884 161.62L243.884 161.62L174.74 161.62z" /></clipPath><clipPath id="46"><path d="M174.74 179.62L243.884 179.62L243.884 179.62L243.884 161.62L243.884 161.62L174.74 161.62z" /></clipPath><clipPath id="47"><path d="M243.89 179.62L304.994 179.62L304.994 179.62L304.994 161.62L304.994 161.62L243.89 161.62z" /></clipPath><clipPath id="48"><path d="M243.89 179.62L304.994 179.62L304.994 179.62L304.994 161.62L304.994 161.62L243.89 161.62z" /></clipPath><clipPath id="49"><path d="M243.89 179.62L304.994 179.62L304.994 179.62L304.994 161.62L304.994 161.62L243.89 161.62z" /></clipPath><clipPath id="50"><path d="M129.98 197.62L174.74 197.62L174.74 197.62L174.74 179.62L174.74 179.62L129.98 179.62z" /></clipPath><clipPath id="51"><path d="M129.98 197.62L174.74 197.62L174.74 197.62L174.74 179.62L174.74 179.62L129.98 179.62z" /></clipPath><clipPath id="52"><path d="M129.98 197.62L174.74 197.62L174.74 197.62L174.74 179.62L174.74 179.62L129.98 179.62z" /></clipPath><clipPath id="53"><path d="M174.74 197.62L243.884 197.62L243.884 197.62L243.884 179.62L243.884 179.62L174.74 179.62z" /></clipPath><clipPath id="54"><path d="M174.74 197.62L243.884 197.62L243.884 197.62L243.884 179.62L243.884 179.62L174.74 179.62z" /></clipPath><clipPath id="55"><path d="M174.74 197.62L243.884 197.62L243.884 197.62L243.884 179.62L243.884 179.62L174.74 179.62z" /></clipPath><clipPath id="56"><path d="M243.89 197.62L304.994 197.62L304.994 197.62L304.994 179.62L304.994 179.62L243.89 179.62z" /></clipPath><clipPath id="57"><path d="M243.89 197.62L304.994 197.62L304.994 197.62L304.994 179.62L304.994 179.62L243.89 179.62z" /></clipPath><clipPath id="58"><path d="M243.89 197.62L304.994 197.62L304.994 197.62L304.994 179.62L304.994 179.62L243.89 179.62z" /></clipPath><clipPath id="59"><path d="M129.98 216.82L174.74 216.82L174.74 216.82L174.74 197.62L174.74 197.62L129.98 197.62z" /></clipPath><clipPath id="60"><path d="M129.98 216.82L174.74 216.82L174.74 216.82L174.74 197.62L174.74 197.62L129.98 197.62z" /></clipPath><clipPath id="61"><path d="M129.98 216.82L174.74 216.82L174.74 216.82L174.74 197.62L174.74 197.62L129.98 197.62z" /></clipPath><clipPath id="62"><path d="M174.74 216.82L243.884 216.82L243.884 216.82L243.884 197.62L243.884 197.62L174.74 197.62z" /></clipPath><clipPath id="63"><path d="M174.74 216.82L243.884 216.82L243.884 216.82L243.884 197.62L243.884 197.62L174.74 197.62z" /></clipPath><clipPath id="64"><path d="M174.74 216.82L243.884 216.82L243.884 216.82L243.884 197.62L243.884 197.62L174.74 197.62z" /></clipPath><clipPath id="65"><path d="M243.89 216.82L304.994 216.82L304.994 216.82L304.994 197.62L304.994 197.62L243.89 197.62z" /></clipPath><clipPath id="66"><path d="M243.89 216.82L304.994 216.82L304.994 216.82L304.994 197.62L304.994 197.62L243.89 197.62z" /></clipPath><clipPath id="67"><path d="M243.89 216.82L304.994 216.82L304.994 216.82L304.994 197.62L304.994 197.62L243.89 197.62z" /></clipPath><clipPath id="68"><path d="M129.98 530.91L174.74 530.91L174.74 530.91L174.74 507.39L174.74 507.39L129.98 507.39z" /></clipPath><clipPath id="69"><path d="M129.98 530.91L174.74 530.91L174.74 530.91L174.74 507.39L174.74 507.39L129.98 507.39z" /></clipPath><clipPath id="70"><path d="M129.98 530.91L174.74 530.91L174.74 530.91L174.74 507.39L174.74 507.39L129.98 507.39z" /></clipPath><clipPath id="71"><path d="M174.74 530.91L245.444 530.91L245.444 530.91L245.444 507.39L245.444 507.39L174.74 507.39z" /></clipPath><clipPath id="72"><path d="M174.74 530.91L245.444 530.91L245.444 530.91L245.444 507.39L245.444 507.39L174.74 507.39z" /></clipPath><clipPath id="73"><path d="M174.74 530.91L245.444 530.91L245.444 530.91L245.444 507.39L245.444 507.39L174.74 507.39z" /></clipPath><clipPath id="74"><path d="M245.45 530.91L301.034 530.91L301.034 530.91L301.034 507.39L301.034 507.39L245.45 507.39z" /></clipPath><clipPath id="75"><path d="M245.45 530.91L301.034 530.91L301.034 530.91L301.034 507.39L301.034 507.39L245.45 507.39z" /></clipPath><clipPath id="76"><path d="M245.45 530.91L301.034 530.91L301.034 530.91L301.034 507.39L301.034 507.39L245.45 507.39z" /></clipPath><clipPath id="77"><path d="M301.03 530.91L355.63 530.91L355.63 530.91L355.63 507.39L355.63 507.39L301.03 507.39z" /></clipPath><clipPath id="78"><path d="M301.03 530.91L355.63 530.91L355.63 530.91L355.63 507.39L355.63 507.39L301.03 507.39z" /></clipPath><clipPath id="79"><path d="M129.98 572.31L174.74 572.31L174.74 572.31L174.74 530.91L174.74 530.91L129.98 530.91z" /></clipPath><clipPath id="80"><path d="M129.98 572.31L174.74 572.31L174.74 572.31L174.74 530.91L174.74 530.91L129.98 530.91z" /></clipPath><clipPath id="81"><path d="M129.98 572.31L174.74 572.31L174.74 572.31L174.74 530.91L174.74 530.91L129.98 530.91z" /></clipPath><clipPath id="82"><path d="M129.98 572.31L174.74 572.31L174.74 572.31L174.74 530.91L174.74 530.91L129.98 530.91z" /></clipPath><clipPath id="83"><path d="M129.98 572.31L174.74 572.31L174.74 572.31L174.74 530.91L174.74 530.91L129.98 530.91z" /></clipPath><clipPath id="84"><path d="M174.74 572.31L245.444 572.31L245.444 572.31L245.444 530.91L245.444 530.91L174.74 530.91z" /></clipPath><clipPath id="85"><path d="M174.74 572.31L245.444 572.31L245.444 572.31L245.444 530.91L245.444 530.91L174.74 530.91z" /></clipPath><clipPath id="86"><path d="M174.74 572.31L245.444 572.31L245.444 572.31L245.444 530.91L245.444 530.91L174.74 530.91z" /></clipPath><clipPath id="87"><path d="M174.74 572.31L245.444 572.31L245.444 572.31L245.444 530.91L245.444 530.91L174.74 530.91z" /></clipPath><clipPath id="88"><path d="M174.74 572.31L245.444 572.31L245.444 572.31L245.444 530.91L245.444 530.91L174.74 530.91z" /></clipPath><clipPath id="89"><path d="M174.74 572.31L245.444 572.31L245.444 572.31L245.444 530.91L245.444 530.91L174.74 530.91z" /></clipPath><clipPath id="90"><path d="M245.45 572.31L301.034 572.31L301.034 572.31L301.034 530.91L301.034 530.91L245.45 530.91z" /></clipPath><clipPath id="91"><path d="M245.45 572.31L301.034 572.31L301.034 572.31L301.034 530.91L301.034 530.91L245.45 530.91z" /></clipPath><clipPath id="92"><path d="M245.45 572.31L301.034 572.31L301.034 572.31L301.034 530.91L301.034 530.91L245.45 530.91z" /></clipPath><clipPath id="93"><path d="M245.45 572.31L301.034 572.31L301.034 572.31L301.034 530.91L301.034 530.91L245.45 530.91z" /></clipPath><clipPath id="94"><path d="M245.45 572.31L301.034 572.31L301.034 572.31L301.034 530.91L301.034 530.91L245.45 530.91z" /></clipPath><clipPath id="95"><path d="M301.03 572.31L355.63 572.31L355.63 572.31L355.63 530.91L355.63 530.91L301.03 530.91z" /></clipPath><clipPath id="96"><path d="M301.03 572.31L355.63 572.31L355.63 572.31L355.63 530.91L355.63 530.91L301.03 530.91z" /></clipPath><clipPath id="97"><path d="M301.03 572.31L355.63 572.31L355.63 572.31L355.63 530.91L355.63 530.91L301.03 530.91z" /></clipPath><clipPath id="98"><path d="M301.03 572.31L355.63 572.31L355.63 572.31L355.63 530.91L355.63 530.91L301.03 530.91z" /></clipPath><clipPath id="99"><path d="M301.03 572.31L355.63 572.31L355.63 572.31L355.63 530.91L355.63 530.91L301.03 530.91z" /></clipPath><clipPath id="100"><path d="M301.03 572.31L355.63 572.31L355.63 572.31L355.63 530.91L355.63 530.91L301.03 530.91z" /></clipPath></defs><g transform="matrix(1.333333 0 0 1.333333 0 0)"><g><g clip-path="url(#1)"><g clip-path="url(#2)"><g clip-path="url(#3)"></g><g clip-path="url(#4)"></g></g><g clip-path="url(#5)"><g clip-path="url(#6)"></g><g clip-path="url(#7)"></g><g clip-path="url(#8)"></g><g clip-path="url(#9)"></g><g clip-path="url(#10)"></g></g><g clip-path="url(#11)"><g clip-path="url(#12)"></g><g clip-path="url(#13)"></g><g clip-path="url(#14)"></g><g clip-path="url(#15)"></g><g clip-path="url(#16)"></g></g><g clip-path="url(#17)"><g clip-path="url(#18)"></g><g clip-path="url(#19)"></g><g clip-path="url(#20)"></g><g clip-path="url(#21)"></g><g clip-path="url(#22)"></g></g><g clip-path="url(#23)"><g clip-path="url(#24)"></g><g clip-path="url(#25)"></g></g><g clip-path="url(#26)"><g clip-path="url(#27)"></g><g clip-path="url(#28)"></g></g><g clip-path="url(#29)"><g clip-path="url(#30)"></g><g clip-path="url(#31)"></g></g><g clip-path="url(#32)"><g clip-path="url(#33)"></g><g clip-path="url(#34)"></g></g><g clip-path="url(#35)"><g clip-path="url(#36)"></g><g clip-path="url(#37)"></g></g><g clip-path="url(#38)"><g clip-path="url(#39)"></g><g clip-path="url(#40)"></g></g><g clip-path="url(#41)"><g clip-path="url(#42)"></g><g clip-path="url(#43)"></g></g><g clip-path="url(#44)"><g clip-path="url(#45)"></g><g clip-path="url(#46)"></g></g><g clip-path="url(#47)"><g clip-path="url(#48)"></g><g clip-path="url(#49)"></g></g><g clip-path="url(#50)"><g clip-path="url(#51)"></g><g clip-path="url(#52)"></g></g><g clip-path="url(#53)"><g clip-path="url(#54)"></g><g clip-path="url(#55)"></g></g><g clip-path="url(#56)"><g clip-path="url(#57)"></g><g clip-path="url(#58)"></g></g><g clip-path="url(#59)"><g clip-path="url(#60)"></g><g clip-path="url(#61)"></g></g><g clip-path="url(#62)"><g clip-path="url(#63)"></g><g clip-path="url(#64)"></g></g><g clip-path="url(#65)"><g clip-path="url(#66)"></g><g clip-path="url(#67)"></g></g><g clip-path="url(#68)"><g clip-path="url(#69)"></g><g clip-path="url(#70)"></g></g><g clip-path="url(#71)"><g clip-path="url(#72)"></g><g clip-path="url(#73)"></g></g><g clip-path="url(#74)"><g clip-path="url(#75)"></g><g clip-path="url(#76)"></g></g><g clip-path="url(#77)"><g clip-path="url(#78)"></g></g><g clip-path="url(#79)"><g clip-path="url(#80)"></g><g clip-path="url(#81)"></g><g clip-path="url(#82)"></g><g clip-path="url(#83)"></g></g><g clip-path="url(#84)"><g clip-path="url(#85)"></g><g clip-path="url(#86)"></g><g clip-path="url(#87)"></g><g clip-path="url(#88)"></g><g clip-path="url(#89)"></g></g><g clip-path="url(#90)"><g clip-path="url(#91)"></g><g clip-path="url(#92)"></g><g clip-path="url(#93)"></g><g clip-path="url(#94)"></g></g><g clip-path="url(#95)"><g clip-path="url(#96)"></g><g clip-path="url(#97)"></g><g clip-path="url(#98)"></g><g clip-path="url(#99)"></g><g clip-path="url(#100)"></g></g><path transform="matrix(1 0 0 -1 0 842)" d="M225.41 131.3L278.81 131.3L278.81 131.3L278.81 131.78L278.81 131.78L225.41 131.78z" stroke="none" fill="#C35454" fill-rule="evenodd" /></g></g></g></svg>