<svg xmlns="http://www.w3.org/2000/svg" xmlns:xlink="http://www.w3.org/1999/xlink" id="body_237" preserveAspectRatio="xMinYMin meet" viewBox="0 0 793 1123"><defs><clipPath id="1"><path d="M0 842L0 -0.03997803L0 -0.03997803L595.32 -0.03997803L595.32 -0.03997803L595.32 842L595.32 842L0 842z" /></clipPath><clipPath id="2"><path d="M487.78 782.72L507.46 782.72L507.46 782.72L507.46 770.24L507.46 770.24L487.78 770.24z" /></clipPath><clipPath id="3"><path d="M487.78 782.72L507.46 782.72L507.46 782.72L507.46 770.24L507.46 770.24L487.78 770.24z" /></clipPath><clipPath id="4"><path d="M487.78 782.72L507.46 782.72L507.46 782.72L507.46 770.24L507.46 770.24L487.78 770.24z" /></clipPath></defs><g transform="matrix(1.333333 0 0 1.333333 0 0)"><g><g clip-path="url(#1)"><g clip-path="url(#2)"><g clip-path="url(#3)"></g><g clip-path="url(#4)"></g></g><path transform="matrix(1 0 0 -1 0 842)" d="M132.02 761.4L223.844 761.4L223.844 761.4L223.844 761.88L223.844 761.88L132.02 761.88z" stroke="none" fill="#C35454" fill-rule="evenodd" /><path transform="matrix(1 0 0 -1 0 842)" d="M229.13 761.4L355.75 761.4L355.75 761.4L355.75 761.88L355.75 761.88L229.13 761.88z" stroke="none" fill="#C35454" fill-rule="evenodd" /><g transform="matrix(0.3614131 0 0 0.3625 225.6 241.51)"><g transform="matrix(1 0 0 1 0 0)"><image x="0" y="0" xlink:href="img_26.png" width="184" height="44" /></g></g><path transform="matrix(1 0 0 -1 0 842)" d="M132.02 460.51L235.72 460.51L235.72 460.51L235.72 460.99L235.72 460.99L132.02 460.99z" stroke="none" fill="#C35454" fill-rule="evenodd" /><path transform="matrix(1 0 0 -1 0 842)" d="M258.77 460.51L362.59 460.51L362.59 460.51L362.59 460.99L362.59 460.99L258.77 460.99z" stroke="none" fill="#C35454" fill-rule="evenodd" /><path transform="matrix(1 0 0 -1 0 842)" d="M132.02 362.93L244.36 362.93L244.36 362.93L244.36 363.41L244.36 363.41L132.02 363.41z" stroke="none" fill="#C35454" fill-rule="evenodd" /><path transform="matrix(1 0 0 -1 0 842)" d="M249.65 362.93L357.43 362.93L357.43 362.93L357.43 363.41L357.43 363.41L249.65 363.41z" stroke="none" fill="#C35454" fill-rule="evenodd" /><path transform="matrix(1 0 0 -1 0 842)" d="M380.23 362.93L457.534 362.93L457.534 362.93L457.534 363.41L457.534 363.41L380.23 363.41z" stroke="none" fill="#C35454" fill-rule="evenodd" /><path transform="matrix(1 0 0 -1 0 842)" d="M144.86 242.78L219.284 242.78L219.284 242.78L219.284 243.26L219.284 243.26L144.86 243.26z" stroke="none" fill="#C35454" fill-rule="evenodd" /><path transform="matrix(1 0 0 -1 0 842)" d="M242.33 242.78L403.03 242.78L403.03 242.78L403.03 243.26L403.03 243.26L242.33 243.26z" stroke="none" fill="#C35454" fill-rule="evenodd" /></g></g></g></svg>