<svg xmlns="http://www.w3.org/2000/svg" xmlns:xlink="http://www.w3.org/1999/xlink" id="body_348" preserveAspectRatio="xMinYMin meet" viewBox="0 0 793 1123"><defs><clipPath id="1"><path d="M0 842L0 -0.03997803L0 -0.03997803L595.32 -0.03997803L595.32 -0.03997803L595.32 842L595.32 842L0 842z" /></clipPath><clipPath id="2"><path d="M87.984 782.72L107.784 782.72L107.784 782.72L107.784 770.24L107.784 770.24L87.984 770.24z" /></clipPath><clipPath id="3"><path d="M87.984 782.72L107.784 782.72L107.784 782.72L107.784 770.24L107.784 770.24L87.984 770.24z" /></clipPath><clipPath id="4"><path d="M87.984 782.72L107.784 782.72L107.784 782.72L107.784 770.24L107.784 770.24L87.984 770.24z" /></clipPath></defs><g transform="matrix(1.333333 0 0 1.333333 0 0)"><g><g clip-path="url(#1)"><g clip-path="url(#2)"><g clip-path="url(#3)"></g><g clip-path="url(#4)"></g></g><path transform="matrix(1 0 0 -1 0 842)" d="M180.53 701.86L237.29 701.86L237.29 701.86L237.29 702.34L237.29 702.34L180.53 702.34z" stroke="none" fill="#C35454" fill-rule="evenodd" /><path transform="matrix(1 0 0 -1 0 842)" d="M332.23 564.67L348.31 564.67L348.31 564.67L348.31 565.15L348.31 565.15L332.23 565.15z" stroke="none" fill="#C35454" fill-rule="evenodd" /><path transform="matrix(1 0 0 -1 0 842)" d="M393.07 564.67L417.694 564.67L417.694 564.67L417.694 565.15L417.694 565.15L393.07 565.15z" stroke="none" fill="#C35454" fill-rule="evenodd" /><path transform="matrix(1 0 0 -1 0 842)" d="M191.81 455.71L214.85 455.71L214.85 455.71L214.85 456.19L214.85 456.19L191.81 456.19z" stroke="none" fill="#C35454" fill-rule="evenodd" /><path transform="matrix(1 0 0 -1 0 842)" d="M245.81 455.71L306.314 455.71L306.314 455.71L306.314 456.19L306.314 456.19L245.81 456.19z" stroke="none" fill="#C35454" fill-rule="evenodd" /><path transform="matrix(1 0 0 -1 0 842)" d="M132.02 318.53L213.644 318.53L213.644 318.53L213.644 319.01L213.644 319.01L132.02 319.01z" stroke="none" fill="#C35454" fill-rule="evenodd" /><path transform="matrix(1 0 0 -1 0 842)" d="M270.17 318.53L283.13 318.53L283.13 318.53L283.13 319.01L283.13 319.01L270.17 319.01z" stroke="none" fill="#C35454" fill-rule="evenodd" /><path transform="matrix(1 0 0 -1 0 842)" d="M132.02 246.5L233.32 246.5L233.32 246.5L233.32 246.98L233.32 246.98L132.02 246.98z" stroke="none" fill="#C35454" fill-rule="evenodd" /></g></g></g></svg>