<svg xmlns="http://www.w3.org/2000/svg" xmlns:xlink="http://www.w3.org/1999/xlink" id="body_126" preserveAspectRatio="xMinYMin meet" viewBox="0 0 793 1123"><defs><clipPath id="1"><path d="M0 842L0 -0.03997803L0 -0.03997803L595.32 -0.03997803L595.32 -0.03997803L595.32 842L595.32 842L0 842z" /></clipPath><clipPath id="2"><path d="M487.78 782.72L507.46 782.72L507.46 782.72L507.46 770.24L507.46 770.24L487.78 770.24z" /></clipPath><clipPath id="3"><path d="M487.78 782.72L507.46 782.72L507.46 782.72L507.46 770.24L507.46 770.24L487.78 770.24z" /></clipPath><clipPath id="4"><path d="M487.78 782.72L507.46 782.72L507.46 782.72L507.46 770.24L507.46 770.24L487.78 770.24z" /></clipPath></defs><g transform="matrix(1.333333 0 0 1.333333 0 0)"><g><g clip-path="url(#1)"><g clip-path="url(#2)"><g clip-path="url(#3)"></g><g clip-path="url(#4)"></g></g><path transform="matrix(1 0 0 -1 0 842)" d="M169.58 719.74L350.35 719.74L350.35 719.74L350.35 720.22L350.35 720.22L169.58 720.22z" stroke="none" fill="#C35454" fill-rule="evenodd" /><path transform="matrix(1 0 0 -1 0 842)" d="M191.09 584.23L248.45 584.23L248.45 584.23L248.45 584.71L248.45 584.71L191.09 584.71z" stroke="none" fill="#C35454" fill-rule="evenodd" /><path transform="matrix(1 0 0 -1 0 842)" d="M332.47 584.23L449.49 584.23L449.49 584.23L449.49 584.71L449.49 584.71L332.47 584.71z" stroke="none" fill="#C35454" fill-rule="evenodd" /><path transform="matrix(1 0 0 -1 0 842)" d="M132.02 570.67L234.64 570.67L234.64 570.67L234.64 571.15L234.64 571.15L132.02 571.15z" stroke="none" fill="#C35454" fill-rule="evenodd" /><path transform="matrix(1 0 0 -1 0 842)" d="M132.02 462.79L263.44 462.79L263.44 462.79L263.44 463.27L263.44 463.27L132.02 463.27z" stroke="none" fill="#C35454" fill-rule="evenodd" /><path transform="matrix(1 0 0 -1 0 842)" d="M324.07 462.79L381.55 462.79L381.55 462.79L381.55 463.27L381.55 463.27L324.07 463.27z" stroke="none" fill="#C35454" fill-rule="evenodd" /><path transform="matrix(1 0 0 -1 0 842)" d="M318.43 390.65L447.33 390.65L447.33 390.65L447.33 391.13L447.33 391.13L318.43 391.13z" stroke="none" fill="#C35454" fill-rule="evenodd" /><path transform="matrix(1 0 0 -1 0 842)" d="M148.7 372.65L236.924 372.65L236.924 372.65L236.924 373.13L236.924 373.13L148.7 373.13z" stroke="none" fill="#C35454" fill-rule="evenodd" /><path transform="matrix(1 0 0 -1 0 842)" d="M138.02 291.41L156.98 291.41L156.98 291.41L156.98 291.89L156.98 291.89L138.02 291.89z" stroke="none" fill="#C35454" fill-rule="evenodd" /><path transform="matrix(1 0 0 -1 0 842)" d="M232.25 291.41L298.154 291.41L298.154 291.41L298.154 291.89L298.154 291.89L232.25 291.89z" stroke="none" fill="#C35454" fill-rule="evenodd" /><path transform="matrix(1 0 0 -1 0 842)" d="M328.15 291.41L355.39 291.41L355.39 291.41L355.39 291.89L355.39 291.89L328.15 291.89z" stroke="none" fill="#C35454" fill-rule="evenodd" /><path transform="matrix(1 0 0 -1 0 842)" d="M132.02 164.3L164.18 164.3L164.18 164.3L164.18 164.78L164.18 164.78L132.02 164.78z" stroke="none" fill="#C35454" fill-rule="evenodd" /><path transform="matrix(1 0 0 -1 0 842)" d="M170.18 164.3L189.164 164.3L189.164 164.3L189.164 164.78L189.164 164.78L170.18 164.78z" stroke="none" fill="#C35454" fill-rule="evenodd" /></g></g></g></svg>