<svg xmlns="http://www.w3.org/2000/svg" xmlns:xlink="http://www.w3.org/1999/xlink" id="body_156" preserveAspectRatio="xMinYMin meet" viewBox="0 0 793 1123"><defs><clipPath id="1"><path d="M0 842L0 -0.03997803L0 -0.03997803L595.32 -0.03997803L595.32 -0.03997803L595.32 842L595.32 842L0 842z" /></clipPath><clipPath id="2"><path d="M87.984 782.72L161.304 782.72L161.304 782.72L161.304 770.24L161.304 770.24L87.984 770.24z" /></clipPath><clipPath id="3"><path d="M87.984 782.72L161.304 782.72L161.304 782.72L161.304 770.24L161.304 770.24L87.984 770.24z" /></clipPath><clipPath id="4"><path d="M87.984 782.72L161.304 782.72L161.304 782.72L161.304 770.24L161.304 770.24L87.984 770.24z" /></clipPath><clipPath id="5"><path d="M87.984 782.72L161.304 782.72L161.304 782.72L161.304 770.24L161.304 770.24L87.984 770.24z" /></clipPath><clipPath id="6"><path d="M87.984 782.72L161.304 782.72L161.304 782.72L161.304 770.24L161.304 770.24L87.984 770.24z" /></clipPath><clipPath id="7"><path d="M87.984 782.72L161.304 782.72L161.304 782.72L161.304 770.24L161.304 770.24L87.984 770.24z" /></clipPath><clipPath id="8"><path d="M87.984 782.72L161.304 782.72L161.304 782.72L161.304 770.24L161.304 770.24L87.984 770.24z" /></clipPath></defs><g transform="matrix(1.333333 0 0 1.333333 0 0)"><g><g clip-path="url(#1)"><g clip-path="url(#2)"><g clip-path="url(#3)"></g><g clip-path="url(#4)"></g><g clip-path="url(#5)"></g><g clip-path="url(#6)"></g><g clip-path="url(#7)"></g><g clip-path="url(#8)"></g></g><path transform="matrix(1 0 0 -1 0 842)" d="M242.95 761.94L332.95 761.94" stroke="#000000" stroke-width="0.75" stroke-linecap="round" fill="none" /><path transform="matrix(1 0 0 -1 0 842)" d="M461.95 710.94L461.95 704.94L461.95 704.94L466.95 707.44L466.95 707.44L462.95 707.44L462.95 707.44L462.95 708.44L462.95 708.44L466.95 708.44L466.95 708.44L461.95 710.94z" stroke="none" fill="#000000" fill-rule="evenodd" /><path transform="matrix(1 0 0 -1 0 842)" d="M161.95 707.44L461.95 707.44L461.95 707.44L461.95 708.44L461.95 708.44L161.95 708.44z" stroke="none" fill="#000000" fill-rule="evenodd" /><path transform="matrix(1 0 0 -1 0 842)" d="M466.95 708.44L462.95 708.44L462.95 708.44L462.95 707.44L462.95 707.44L466.95 707.44L466.95 707.44L467.95 707.94L467.95 707.94L466.95 708.44z" stroke="none" fill="#000000" fill-rule="evenodd" /><path transform="matrix(1 0 0 -1 0 842)" d="M332.45 713.94L329.95 713.94L329.95 713.94L332.95 707.94L332.95 707.94L335.45 712.94L335.45 712.94L332.45 712.94L332.45 712.94L332.45 713.94z" stroke="none" fill="#000000" fill-rule="evenodd" /><path transform="matrix(1 0 0 -1 0 842)" d="M332.45 712.94L333.45 712.94L333.45 712.94L333.45 761.94L333.45 761.94L332.45 761.94z" stroke="none" fill="#000000" fill-rule="evenodd" /><path transform="matrix(1 0 0 -1 0 842)" d="M335.95 713.94L333.45 713.94L333.45 713.94L333.45 712.94L333.45 712.94L335.45 712.94L335.45 712.94L335.95 713.94z" stroke="none" fill="#000000" fill-rule="evenodd" /><path transform="matrix(1 0 0 -1 0 842)" d="M227.95 481.39L317.95 481.39" stroke="#000000" stroke-width="0.75" stroke-linecap="round" fill="none" /><path transform="matrix(1 0 0 -1 0 842)" d="M446.95 430.39L446.95 424.39L446.95 424.39L451.95 426.89L451.95 426.89L447.95 426.89L447.95 426.89L447.95 427.89L447.95 427.89L451.95 427.89L451.95 427.89L446.95 430.39z" stroke="none" fill="#000000" fill-rule="evenodd" /><path transform="matrix(1 0 0 -1 0 842)" d="M146.95 426.89L446.95 426.89L446.95 426.89L446.95 427.89L446.95 427.89L146.95 427.89z" stroke="none" fill="#000000" fill-rule="evenodd" /><path transform="matrix(1 0 0 -1 0 842)" d="M451.95 427.89L447.95 427.89L447.95 427.89L447.95 426.89L447.95 426.89L451.95 426.89L451.95 426.89L452.95 427.39L452.95 427.39L451.95 427.89z" stroke="none" fill="#000000" fill-rule="evenodd" /><path transform="matrix(1 0 0 -1 0 842)" d="M317.45 433.39L314.95 433.39L314.95 433.39L317.95 427.39L317.95 427.39L320.45 432.39L320.45 432.39L317.45 432.39L317.45 432.39L317.45 433.39z" stroke="none" fill="#000000" fill-rule="evenodd" /><path transform="matrix(1 0 0 -1 0 842)" d="M317.45 432.39L318.45 432.39L318.45 432.39L318.45 481.39L318.45 481.39L317.45 481.39z" stroke="none" fill="#000000" fill-rule="evenodd" /><path transform="matrix(1 0 0 -1 0 842)" d="M320.95 433.39L318.45 433.39L318.45 433.39L318.45 432.39L318.45 432.39L320.45 432.39L320.45 432.39L320.95 433.39z" stroke="none" fill="#000000" fill-rule="evenodd" /><path transform="matrix(1 0 0 -1 0 842)" d="M138.02 593.62L181.244 593.62L181.244 593.62L181.244 594.1L181.244 594.1L138.02 594.1z" stroke="none" fill="#C35454" fill-rule="evenodd" /><path transform="matrix(1 0 0 -1 0 842)" d="M138.02 561.67L182.924 561.67L182.924 561.67L182.924 562.15L182.924 562.15L138.02 562.15z" stroke="none" fill="#C35454" fill-rule="evenodd" /><path transform="matrix(1 0 0 -1 0 842)" d="M132.02 194.78L179.924 194.78L179.924 194.78L179.924 195.26L179.924 195.26L132.02 195.26z" stroke="none" fill="#C35454" fill-rule="evenodd" /><path transform="matrix(1 0 0 -1 0 842)" d="M185.81 194.78L261.17 194.78L261.17 194.78L261.17 195.26L261.17 195.26L185.81 195.26z" stroke="none" fill="#C35454" fill-rule="evenodd" /><path transform="matrix(1 0 0 -1 0 842)" d="M327.55 194.78L377.47 194.78L377.47 194.78L377.47 195.26L377.47 195.26L327.55 195.26z" stroke="none" fill="#C35454" fill-rule="evenodd" /><path transform="matrix(1 0 0 -1 0 842)" d="M132.02 175.7L179.924 175.7L179.924 175.7L179.924 176.18L179.924 176.18L132.02 176.18z" stroke="none" fill="#C35454" fill-rule="evenodd" /><path transform="matrix(1 0 0 -1 0 842)" d="M185.81 175.7L249.53 175.7L249.53 175.7L249.53 176.18L249.53 176.18L185.81 176.18z" stroke="none" fill="#C35454" fill-rule="evenodd" /><path transform="matrix(1 0 0 -1 0 842)" d="M353.47 175.7L403.51 175.7L403.51 175.7L403.51 176.18L403.51 176.18L353.47 176.18z" stroke="none" fill="#C35454" fill-rule="evenodd" /></g></g></g></svg>