<svg xmlns="http://www.w3.org/2000/svg" xmlns:xlink="http://www.w3.org/1999/xlink" id="body_161" preserveAspectRatio="xMinYMin meet" viewBox="0 0 793 1123"><defs><clipPath id="1"><path d="M0 842L0 -0.03997803L0 -0.03997803L595.32 -0.03997803L595.32 -0.03997803L595.32 842L595.32 842L0 842z" /></clipPath><clipPath id="2"><path d="M89.064 782.72L161.304 782.72L161.304 782.72L161.304 770.24L161.304 770.24L89.064 770.24z" /></clipPath><clipPath id="3"><path d="M89.064 782.72L161.304 782.72L161.304 782.72L161.304 770.24L161.304 770.24L89.064 770.24z" /></clipPath><clipPath id="4"><path d="M89.064 782.72L161.304 782.72L161.304 782.72L161.304 770.24L161.304 770.24L89.064 770.24z" /></clipPath><clipPath id="5"><path d="M89.064 782.72L161.304 782.72L161.304 782.72L161.304 770.24L161.304 770.24L89.064 770.24z" /></clipPath><clipPath id="6"><path d="M89.064 782.72L161.304 782.72L161.304 782.72L161.304 770.24L161.304 770.24L89.064 770.24z" /></clipPath><clipPath id="7"><path d="M89.064 782.72L161.304 782.72L161.304 782.72L161.304 770.24L161.304 770.24L89.064 770.24z" /></clipPath><clipPath id="8"><path d="M89.064 782.72L161.304 782.72L161.304 782.72L161.304 770.24L161.304 770.24L89.064 770.24z" /></clipPath></defs><g transform="matrix(1.333333 0 0 1.333333 0 0)"><g><g clip-path="url(#1)"><g clip-path="url(#2)"><g clip-path="url(#3)"></g><g clip-path="url(#4)"></g><g clip-path="url(#5)"></g><g clip-path="url(#6)"></g><g clip-path="url(#7)"></g><g clip-path="url(#8)"></g></g><path transform="matrix(1 0 0 -1 0 842)" d="M227.95 725.94L317.95 725.94" stroke="#000000" stroke-width="0.75" stroke-linecap="round" fill="none" /><path transform="matrix(1 0 0 -1 0 842)" d="M446.95 692.94L446.95 686.94L446.95 686.94L451.95 689.44L451.95 689.44L447.95 689.44L447.95 689.44L447.95 690.44L447.95 690.44L451.95 690.44L451.95 690.44L446.95 692.94z" stroke="none" fill="#000000" fill-rule="evenodd" /><path transform="matrix(1 0 0 -1 0 842)" d="M146.95 689.44L446.95 689.44L446.95 689.44L446.95 690.44L446.95 690.44L146.95 690.44z" stroke="none" fill="#000000" fill-rule="evenodd" /><path transform="matrix(1 0 0 -1 0 842)" d="M451.95 690.44L447.95 690.44L447.95 690.44L447.95 689.44L447.95 689.44L451.95 689.44L451.95 689.44L452.95 689.94L452.95 689.94L451.95 690.44z" stroke="none" fill="#000000" fill-rule="evenodd" /><path transform="matrix(1 0 0 -1 0 842)" d="M317.45 695.94L314.95 695.94L314.95 695.94L317.95 689.94L317.95 689.94L320.45 694.94L320.45 694.94L317.45 694.94L317.45 694.94L317.45 695.94z" stroke="none" fill="#000000" fill-rule="evenodd" /><path transform="matrix(1 0 0 -1 0 842)" d="M317.45 694.94L318.45 694.94L318.45 694.94L318.45 725.94L318.45 725.94L317.45 725.94z" stroke="none" fill="#000000" fill-rule="evenodd" /><path transform="matrix(1 0 0 -1 0 842)" d="M320.95 695.94L318.45 695.94L318.45 695.94L318.45 694.94L318.45 694.94L320.45 694.94L320.45 694.94L320.95 695.94z" stroke="none" fill="#000000" fill-rule="evenodd" /></g></g></g></svg>