<svg xmlns="http://www.w3.org/2000/svg" xmlns:xlink="http://www.w3.org/1999/xlink" id="body_372" preserveAspectRatio="xMinYMin meet" viewBox="0 0 793 1123"><defs><clipPath id="1"><path d="M0 842L0 -0.03997803L0 -0.03997803L595.32 -0.03997803L595.32 -0.03997803L595.32 842L595.32 842L0 842z" /></clipPath><clipPath id="2"><path d="M87.984 782.72L107.784 782.72L107.784 782.72L107.784 770.24L107.784 770.24L87.984 770.24z" /></clipPath><clipPath id="3"><path d="M87.984 782.72L107.784 782.72L107.784 782.72L107.784 770.24L107.784 770.24L87.984 770.24z" /></clipPath><clipPath id="4"><path d="M87.984 782.72L107.784 782.72L107.784 782.72L107.784 770.24L107.784 770.24L87.984 770.24z" /></clipPath></defs><g transform="matrix(1.333333 0 0 1.333333 0 0)"><g><g clip-path="url(#1)"><g clip-path="url(#2)"><g clip-path="url(#3)"></g><g clip-path="url(#4)"></g></g><path transform="matrix(1 0 0 -1 0 842)" d="M159.74 476.59L216.524 476.59L216.524 476.59L216.524 477.07L216.524 477.07L159.74 477.07z" stroke="none" fill="#C35454" fill-rule="evenodd" /><path transform="matrix(1 0 0 -1 0 842)" d="M279.53 476.59L356.354 476.59L356.354 476.59L356.354 477.07L356.354 477.07L279.53 477.07z" stroke="none" fill="#C35454" fill-rule="evenodd" /><path transform="matrix(1 0 0 -1 0 842)" d="M413.5 476.59L442.66 476.59L442.66 476.59L442.66 477.07L442.66 477.07L413.5 477.07z" stroke="none" fill="#C35454" fill-rule="evenodd" /><path transform="matrix(1 0 0 -1 0 842)" d="M159.74 353.81L216.524 353.81L216.524 353.81L216.524 354.29L216.524 354.29L159.74 354.29z" stroke="none" fill="#C35454" fill-rule="evenodd" /><path transform="matrix(1 0 0 -1 0 842)" d="M279.65 353.81L311.114 353.81L311.114 353.81L311.114 354.29L311.114 354.29L279.65 354.29z" stroke="none" fill="#C35454" fill-rule="evenodd" /><path transform="matrix(1 0 0 -1 0 842)" d="M132.02 230.9L229.844 230.9L229.844 230.9L229.844 231.38L229.844 231.38L132.02 231.38z" stroke="none" fill="#C35454" fill-rule="evenodd" /><path transform="matrix(1 0 0 -1 0 842)" d="M159.74 120.74L216.404 120.74L216.404 120.74L216.404 121.22L216.404 121.22L159.74 121.22z" stroke="none" fill="#C35454" fill-rule="evenodd" /><path transform="matrix(1 0 0 -1 0 842)" d="M288.17 120.74L324.314 120.74L324.314 120.74L324.314 121.22L324.314 121.22L288.17 121.22z" stroke="none" fill="#C35454" fill-rule="evenodd" /></g></g></g></svg>