<svg xmlns="http://www.w3.org/2000/svg" xmlns:xlink="http://www.w3.org/1999/xlink" id="body_409" preserveAspectRatio="xMinYMin meet" viewBox="0 0 793 1123"><defs><clipPath id="1"><path d="M0 842L0 -0.03997803L0 -0.03997803L595.32 -0.03997803L595.32 -0.03997803L595.32 842L595.32 842L0 842z" /></clipPath><clipPath id="2"><path d="M487.78 782.72L507.46 782.72L507.46 782.72L507.46 770.24L507.46 770.24L487.78 770.24z" /></clipPath><clipPath id="3"><path d="M487.78 782.72L507.46 782.72L507.46 782.72L507.46 770.24L507.46 770.24L487.78 770.24z" /></clipPath><clipPath id="4"><path d="M487.78 782.72L507.46 782.72L507.46 782.72L507.46 770.24L507.46 770.24L487.78 770.24z" /></clipPath></defs><g transform="matrix(1.333333 0 0 1.333333 0 0)"><g><g clip-path="url(#1)"><g clip-path="url(#2)"><g clip-path="url(#3)"></g><g clip-path="url(#4)"></g></g><path transform="matrix(1 0 0 -1 0 842)" d="M240.17 701.86L370.75 701.86L370.75 701.86L370.75 702.34L370.75 702.34L240.17 702.34z" stroke="none" fill="#C35454" fill-rule="evenodd" /><path transform="matrix(1 0 0 -1 0 842)" d="M323.35 604.18L406.15 604.18L406.15 604.18L406.15 604.66L406.15 604.66L323.35 604.66z" stroke="none" fill="#C35454" fill-rule="evenodd" /><path transform="matrix(1 0 0 -1 0 842)" d="M132.02 443.47L184.004 443.47L184.004 443.47L184.004 443.95L184.004 443.95L132.02 443.95z" stroke="none" fill="#C35454" fill-rule="evenodd" /><path transform="matrix(1 0 0 -1 0 842)" d="M287.69 443.47L370.634 443.47L370.634 443.47L370.634 443.95L370.634 443.95L287.69 443.95z" stroke="none" fill="#C35454" fill-rule="evenodd" /><path transform="matrix(1 0 0 -1 0 842)" d="M132.02 345.89L184.004 345.89L184.004 345.89L184.004 346.37L184.004 346.37L132.02 346.37z" stroke="none" fill="#C35454" fill-rule="evenodd" /><path transform="matrix(1 0 0 -1 0 842)" d="M304.75 345.89L387.67 345.89L387.67 345.89L387.67 346.37L387.67 346.37L304.75 346.37z" stroke="none" fill="#C35454" fill-rule="evenodd" /><path transform="matrix(1 0 0 -1 0 842)" d="M132.02 185.3L181.364 185.3L181.364 185.3L181.364 185.78L181.364 185.78L132.02 185.78z" stroke="none" fill="#C35454" fill-rule="evenodd" /><path transform="matrix(1 0 0 -1 0 842)" d="M292.75 185.3L375.19 185.3L375.19 185.3L375.19 185.78L375.19 185.78L292.75 185.78z" stroke="none" fill="#C35454" fill-rule="evenodd" /></g></g></g></svg>