<svg xmlns="http://www.w3.org/2000/svg" xmlns:xlink="http://www.w3.org/1999/xlink" id="body_120" preserveAspectRatio="xMinYMin meet" viewBox="0 0 793 1123"><defs><clipPath id="1"><path d="M0 842L0 -0.03997803L0 -0.03997803L595.32 -0.03997803L595.32 -0.03997803L595.32 842L595.32 842L0 842z" /></clipPath><clipPath id="2"><path d="M87.984 782.72L161.304 782.72L161.304 782.72L161.304 770.24L161.304 770.24L87.984 770.24z" /></clipPath><clipPath id="3"><path d="M87.984 782.72L161.304 782.72L161.304 782.72L161.304 770.24L161.304 770.24L87.984 770.24z" /></clipPath><clipPath id="4"><path d="M87.984 782.72L161.304 782.72L161.304 782.72L161.304 770.24L161.304 770.24L87.984 770.24z" /></clipPath><clipPath id="5"><path d="M87.984 782.72L161.304 782.72L161.304 782.72L161.304 770.24L161.304 770.24L87.984 770.24z" /></clipPath><clipPath id="6"><path d="M87.984 782.72L161.304 782.72L161.304 782.72L161.304 770.24L161.304 770.24L87.984 770.24z" /></clipPath><clipPath id="7"><path d="M87.984 782.72L161.304 782.72L161.304 782.72L161.304 770.24L161.304 770.24L87.984 770.24z" /></clipPath><clipPath id="8"><path d="M87.984 782.72L161.304 782.72L161.304 782.72L161.304 770.24L161.304 770.24L87.984 770.24z" /></clipPath></defs><g transform="matrix(1.333333 0 0 1.333333 0 0)"><g><g clip-path="url(#1)"><g clip-path="url(#2)"><g clip-path="url(#3)"></g><g clip-path="url(#4)"></g><g clip-path="url(#5)"></g><g clip-path="url(#6)"></g><g clip-path="url(#7)"></g><g clip-path="url(#8)"></g></g><path transform="matrix(1 0 0 -1 0 842)" d="M230.69 737.74L297.194 737.74L297.194 737.74L297.194 738.22L297.194 738.22L230.69 738.22z" stroke="none" fill="#C35454" fill-rule="evenodd" /><g transform="matrix(0.3611413 0 0 0.3647727 216.5 191.01)"><g transform="matrix(1 0 0 1 0 0)"><image x="0" y="0" xlink:href="img_26.png" width="184" height="44" /></g></g><path transform="matrix(1 0 0 -1 0 842)" d="M260.45 402.53L304.394 402.53L304.394 402.53L304.394 403.01L304.394 403.01L260.45 403.01z" stroke="none" fill="#C35454" fill-rule="evenodd" /><path transform="matrix(1 0 0 -1 0 842)" d="M364.39 402.53L402.19 402.53L402.19 402.53L402.19 403.01L402.19 403.01L364.39 403.01z" stroke="none" fill="#C35454" fill-rule="evenodd" /><path transform="matrix(1 0 0 -1 0 842)" d="M132.02 315.41L178.844 315.41L178.844 315.41L178.844 315.89L178.844 315.89L132.02 315.89z" stroke="none" fill="#C35454" fill-rule="evenodd" /><path transform="matrix(1 0 0 -1 0 842)" d="M252.41 315.41L290.21 315.41L290.21 315.41L290.21 315.89L290.21 315.89L252.41 315.89z" stroke="none" fill="#C35454" fill-rule="evenodd" /><path transform="matrix(1 0 0 -1 0 842)" d="M211.97 178.58L288.05 178.58L288.05 178.58L288.05 179.06L288.05 179.06L211.97 179.06z" stroke="none" fill="#C35454" fill-rule="evenodd" /></g></g></g></svg>