<svg xmlns="http://www.w3.org/2000/svg" xmlns:xlink="http://www.w3.org/1999/xlink" id="body_280" preserveAspectRatio="xMinYMin meet" viewBox="0 0 793 1123"><defs><clipPath id="1"><path d="M0 842L0 -0.03997803L0 -0.03997803L595.32 -0.03997803L595.32 -0.03997803L595.32 842L595.32 842L0 842z" /></clipPath><clipPath id="2"><path d="M87.984 782.72L161.304 782.72L161.304 782.72L161.304 770.24L161.304 770.24L87.984 770.24z" /></clipPath><clipPath id="3"><path d="M87.984 782.72L161.304 782.72L161.304 782.72L161.304 770.24L161.304 770.24L87.984 770.24z" /></clipPath><clipPath id="4"><path d="M87.984 782.72L161.304 782.72L161.304 782.72L161.304 770.24L161.304 770.24L87.984 770.24z" /></clipPath><clipPath id="5"><path d="M87.984 782.72L161.304 782.72L161.304 782.72L161.304 770.24L161.304 770.24L87.984 770.24z" /></clipPath><clipPath id="6"><path d="M87.984 782.72L161.304 782.72L161.304 782.72L161.304 770.24L161.304 770.24L87.984 770.24z" /></clipPath><clipPath id="7"><path d="M87.984 782.72L161.304 782.72L161.304 782.72L161.304 770.24L161.304 770.24L87.984 770.24z" /></clipPath><clipPath id="8"><path d="M87.984 782.72L161.304 782.72L161.304 782.72L161.304 770.24L161.304 770.24L87.984 770.24z" /></clipPath></defs><g transform="matrix(1.333333 0 0 1.333333 0 0)"><g><g clip-path="url(#1)"><g clip-path="url(#2)"><g clip-path="url(#3)"></g><g clip-path="url(#4)"></g><g clip-path="url(#5)"></g><g clip-path="url(#6)"></g><g clip-path="url(#7)"></g><g clip-path="url(#8)"></g></g><path transform="matrix(1 0 0 -1 0 842)" d="M142.6 308.44L146.05 308.44" stroke="#C35454" stroke-width="0.64" stroke-linecap="round" fill="none" /><path transform="matrix(1 0 0 -1 0 842)" d="M240.45 153.64L243.95 153.64" stroke="#C35454" stroke-width="0.64" stroke-linecap="round" fill="none" /><path transform="matrix(1 0 0 -1 0 842)" d="M163.34 738.82L181.484 738.82L181.484 738.82L181.484 739.3L181.484 739.3L163.34 739.3z" stroke="none" fill="#C35454" fill-rule="evenodd" /><path transform="matrix(1 0 0 -1 0 842)" d="M173.42 360.41L198.644 360.41L198.644 360.41L198.644 360.89L198.644 360.89L173.42 360.89z" stroke="none" fill="#C35454" fill-rule="evenodd" /><path transform="matrix(1 0 0 -1 0 842)" d="M148.58 308.33L205.724 308.33L205.724 308.33L205.724 308.81L205.724 308.81L148.58 308.81z" stroke="none" fill="#C35454" fill-rule="evenodd" /><path transform="matrix(1 0 0 -1 0 842)" d="M180.17 155.06L208.01 155.06L208.01 155.06L208.01 155.54L208.01 155.54L180.17 155.54z" stroke="none" fill="#C35454" fill-rule="evenodd" /><path transform="matrix(1 0 0 -1 0 842)" d="M211.49 155.06L240.17 155.06L240.17 155.06L240.17 155.54L240.17 155.54L211.49 155.54z" stroke="none" fill="#C35454" fill-rule="evenodd" /><path transform="matrix(1 0 0 -1 0 842)" d="M246.17 155.06L267.65 155.06L267.65 155.06L267.65 155.54L267.65 155.54L246.17 155.54z" stroke="none" fill="#C35454" fill-rule="evenodd" /></g></g></g></svg>