<svg xmlns="http://www.w3.org/2000/svg" xmlns:xlink="http://www.w3.org/1999/xlink" id="body_232" preserveAspectRatio="xMinYMin meet" viewBox="0 0 1121 795"><defs><clipPath id="1"><path d="M0 596L0 -0.03997803L0 -0.03997803L841.92 -0.03997803L841.92 -0.03997803L841.92 596L841.92 596L0 596z" /></clipPath></defs><g transform="matrix(1.333333 0 0 1.333333 0 0)"><g><g clip-path="url(#1)"><g transform="matrix(1.002404 0 0 0.9974026 292.5 184.36)"><g transform="matrix(1 0 0 1 0 0)"><image x="0" y="0" xlink:href="img_260.png" width="312" height="77" /></g></g><path transform="matrix(1 0 0 -1 0 596)" d="M296.5 422.79L718.55 422.79" stroke="#181818" stroke-width="2.4309" fill="none" /><path transform="matrix(1 0 0 -1 0 596)" d="M154.95 511.54L163 511.54L163 511.54L163 562.49L163 562.49L154.95 562.49z" stroke="none" fill="#87696E" fill-rule="evenodd" /><g transform="matrix(1.00625 0 0 0.9990197 154.95 33.51001)"><g transform="matrix(1 0 0 1 0 0)"><image x="0" y="0" xlink:href="img_261.png" width="8" height="51" /></g></g><g transform="matrix(1.004487 0 0 1 327.6 6.659973)"><g transform="matrix(1 0 0 1 0 0)"><image x="0" y="0" xlink:href="img_262.png" width="78" height="39" /></g></g><g transform="matrix(1.004487 0 0 1 327.6 80.01001)"><g transform="matrix(1 0 0 1 0 0)"><image x="0" y="0" xlink:href="img_263.png" width="78" height="39" /></g></g><g transform="matrix(0.5055556 0 0 0.5026786 50.5 162.46)"><g transform="matrix(1 0 0 1 0 0)"><image x="0" y="0" xlink:href="img_264.png" width="90" height="168" /></g></g><g transform="matrix(0.5071429 0 0 0.5032609 171 270.31)"><g transform="matrix(1 0 0 1 0 0)"><image x="0" y="0" xlink:href="img_265.png" width="14" height="46" /></g></g></g></g></g></svg>