<svg xmlns="http://www.w3.org/2000/svg" xmlns:xlink="http://www.w3.org/1999/xlink" id="body_298" preserveAspectRatio="xMinYMin meet" viewBox="0 0 793 1123"><defs><clipPath id="1"><path d="M0 842L0 -0.03997803L0 -0.03997803L595.32 -0.03997803L595.32 -0.03997803L595.32 842L595.32 842L0 842z" /></clipPath><clipPath id="2"><path d="M488.74 782.72L506.5 782.72L506.5 782.72L506.5 770.24L506.5 770.24L488.74 770.24z" /></clipPath><clipPath id="3"><path d="M488.74 782.72L506.5 782.72L506.5 782.72L506.5 770.24L506.5 770.24L488.74 770.24z" /></clipPath><clipPath id="4"><path d="M488.74 782.72L506.5 782.72L506.5 782.72L506.5 770.24L506.5 770.24L488.74 770.24z" /></clipPath></defs><g transform="matrix(1.333333 0 0 1.333333 0 0)"><g><g clip-path="url(#1)"><g clip-path="url(#2)"><g clip-path="url(#3)"></g><g clip-path="url(#4)"></g></g><path transform="matrix(1 0 0 -1 0 842)" d="M142.58 690.34L209.324 690.34L209.324 690.34L209.324 690.82L209.324 690.82L142.58 690.82z" stroke="none" fill="#C35454" fill-rule="evenodd" /><path transform="matrix(1 0 0 -1 0 842)" d="M142.58 626.02L227.924 626.02L227.924 626.02L227.924 626.5L227.924 626.5L142.58 626.5z" stroke="none" fill="#C35454" fill-rule="evenodd" /><path transform="matrix(1 0 0 -1 0 842)" d="M132.02 490.75L170.42 490.75L170.42 490.75L170.42 491.23L170.42 491.23L132.02 491.23z" stroke="none" fill="#C35454" fill-rule="evenodd" /><path transform="matrix(1 0 0 -1 0 842)" d="M255.17 490.75L283.73 490.75L283.73 490.75L283.73 491.23L283.73 491.23L255.17 491.23z" stroke="none" fill="#C35454" fill-rule="evenodd" /><path transform="matrix(1 0 0 -1 0 842)" d="M254.69 365.93L283.25 365.93L283.25 365.93L283.25 366.41L283.25 366.41L254.69 366.41z" stroke="none" fill="#C35454" fill-rule="evenodd" /><path transform="matrix(1 0 0 -1 0 842)" d="M142.58 183.74L285.04 183.74L285.04 183.74L285.04 184.22L285.04 184.22L142.58 184.22z" stroke="none" fill="#C35454" fill-rule="evenodd" /><path transform="matrix(1 0 0 -1 0 842)" d="M142.58 118.94L296.35 118.94L296.35 118.94L296.35 119.42L296.35 119.42L142.58 119.42z" stroke="none" fill="#C35454" fill-rule="evenodd" /></g></g></g></svg>