<svg xmlns="http://www.w3.org/2000/svg" xmlns:xlink="http://www.w3.org/1999/xlink" id="body_350" preserveAspectRatio="xMinYMin meet" viewBox="0 0 793 1123"><defs><clipPath id="1"><path d="M0 842L0 -0.03997803L0 -0.03997803L595.32 -0.03997803L595.32 -0.03997803L595.32 842L595.32 842L0 842z" /></clipPath><clipPath id="2"><path d="M87.984 782.72L107.784 782.72L107.784 782.72L107.784 770.24L107.784 770.24L87.984 770.24z" /></clipPath><clipPath id="3"><path d="M87.984 782.72L107.784 782.72L107.784 782.72L107.784 770.24L107.784 770.24L87.984 770.24z" /></clipPath><clipPath id="4"><path d="M87.984 782.72L107.784 782.72L107.784 782.72L107.784 770.24L107.784 770.24L87.984 770.24z" /></clipPath></defs><g transform="matrix(1.333333 0 0 1.333333 0 0)"><g><g clip-path="url(#1)"><g clip-path="url(#2)"><g clip-path="url(#3)"></g><g clip-path="url(#4)"></g></g><path transform="matrix(1 0 0 -1 0 842)" d="M142.58 658.78L239.444 658.78L239.444 658.78L239.444 659.26L239.444 659.26L142.58 659.26z" stroke="none" fill="#C35454" fill-rule="evenodd" /><path transform="matrix(1 0 0 -1 0 842)" d="M142.58 594.1L178.484 594.1L178.484 594.1L178.484 594.58L178.484 594.58L142.58 594.58z" stroke="none" fill="#C35454" fill-rule="evenodd" /><path transform="matrix(1 0 0 -1 0 842)" d="M403.39 594.1L452.014 594.1L452.014 594.1L452.014 594.58L452.014 594.58L403.39 594.58z" stroke="none" fill="#C35454" fill-rule="evenodd" /><path transform="matrix(1 0 0 -1 0 842)" d="M132.02 566.23L162.26 566.23L162.26 566.23L162.26 566.71L162.26 566.71L132.02 566.71z" stroke="none" fill="#C35454" fill-rule="evenodd" /><path transform="matrix(1 0 0 -1 0 842)" d="M144.86 448.87L241.724 448.87L241.724 448.87L241.724 449.35L241.724 449.35L144.86 449.35z" stroke="none" fill="#C35454" fill-rule="evenodd" /><path transform="matrix(1 0 0 -1 0 842)" d="M269.09 448.87L323.234 448.87L323.234 448.87L323.234 449.35L323.234 449.35L269.09 449.35z" stroke="none" fill="#C35454" fill-rule="evenodd" /><path transform="matrix(1 0 0 -1 0 842)" d="M197.57 418.13L249.89 418.13L249.89 418.13L249.89 418.61L249.89 418.61L197.57 418.61z" stroke="none" fill="#C35454" fill-rule="evenodd" /><path transform="matrix(1 0 0 -1 0 842)" d="M144.38 173.54L241.004 173.54L241.004 173.54L241.004 174.02L241.004 174.02L144.38 174.02z" stroke="none" fill="#C35454" fill-rule="evenodd" /><path transform="matrix(1 0 0 -1 0 842)" d="M289.13 173.54L359.834 173.54L359.834 173.54L359.834 174.02L359.834 174.02L289.13 174.02z" stroke="none" fill="#C35454" fill-rule="evenodd" /></g></g></g></svg>