<svg xmlns="http://www.w3.org/2000/svg" xmlns:xlink="http://www.w3.org/1999/xlink" id="body_414" preserveAspectRatio="xMinYMin meet" viewBox="0 0 793 1123"><defs><clipPath id="1"><path d="M0 842L0 -0.03997803L0 -0.03997803L595.32 -0.03997803L595.32 -0.03997803L595.32 842L595.32 842L0 842z" /></clipPath><clipPath id="2"><path d="M87.984 782.72L107.784 782.72L107.784 782.72L107.784 770.24L107.784 770.24L87.984 770.24z" /></clipPath><clipPath id="3"><path d="M87.984 782.72L107.784 782.72L107.784 782.72L107.784 770.24L107.784 770.24L87.984 770.24z" /></clipPath><clipPath id="4"><path d="M87.984 782.72L107.784 782.72L107.784 782.72L107.784 770.24L107.784 770.24L87.984 770.24z" /></clipPath></defs><g transform="matrix(1.333333 0 0 1.333333 0 0)"><g><g clip-path="url(#1)"><g clip-path="url(#2)"><g clip-path="url(#3)"></g><g clip-path="url(#4)"></g></g><path transform="matrix(1 0 0 -1 0 842)" d="M219.17 737.98L241.01 737.98L241.01 737.98L241.01 738.46L241.01 738.46L219.17 738.46z" stroke="none" fill="#C35454" fill-rule="evenodd" /><path transform="matrix(1 0 0 -1 0 842)" d="M282.77 737.98L356.594 737.98L356.594 737.98L356.594 738.46L356.594 738.46L282.77 738.46z" stroke="none" fill="#C35454" fill-rule="evenodd" /><path transform="matrix(1 0 0 -1 0 842)" d="M183.77 595.3L204.77 595.3L204.77 595.3L204.77 595.78L204.77 595.78L183.77 595.78z" stroke="none" fill="#C35454" fill-rule="evenodd" /><path transform="matrix(1 0 0 -1 0 842)" d="M268.25 595.3L316.634 595.3L316.634 595.3L316.634 595.78L316.634 595.78L268.25 595.78z" stroke="none" fill="#C35454" fill-rule="evenodd" /><path transform="matrix(1 0 0 -1 0 842)" d="M183.77 497.71L204.77 497.71L204.77 497.71L204.77 498.19L204.77 498.19L183.77 498.19z" stroke="none" fill="#C35454" fill-rule="evenodd" /><path transform="matrix(1 0 0 -1 0 842)" d="M268.25 497.71L365.114 497.71L365.114 497.71L365.114 498.19L365.114 498.19L268.25 498.19z" stroke="none" fill="#C35454" fill-rule="evenodd" /><path transform="matrix(1 0 0 -1 0 842)" d="M184.85 337.13L200.93 337.13L200.93 337.13L200.93 337.61L200.93 337.61L184.85 337.61z" stroke="none" fill="#C35454" fill-rule="evenodd" /><path transform="matrix(1 0 0 -1 0 842)" d="M184.97 216.98L196.85 216.98L196.85 216.98L196.85 217.46L196.85 217.46L184.97 217.46z" stroke="none" fill="#C35454" fill-rule="evenodd" /></g></g></g></svg>