<svg xmlns="http://www.w3.org/2000/svg" xmlns:xlink="http://www.w3.org/1999/xlink" id="body_99" preserveAspectRatio="xMinYMin meet" viewBox="0 0 793 1123"><defs><clipPath id="1"><path d="M0 842L0 -0.03997803L0 -0.03997803L595.32 -0.03997803L595.32 -0.03997803L595.32 842L595.32 842L0 842z" /></clipPath><clipPath id="2"><path d="M89.064 782.72L101.544 782.72L101.544 782.72L101.544 770.24L101.544 770.24L89.064 770.24z" /></clipPath><clipPath id="3"><path d="M89.064 782.72L101.544 782.72L101.544 782.72L101.544 770.24L101.544 770.24L89.064 770.24z" /></clipPath><clipPath id="4"><path d="M89.064 782.72L101.544 782.72L101.544 782.72L101.544 770.24L101.544 770.24L89.064 770.24z" /></clipPath></defs><g transform="matrix(1.333333 0 0 1.333333 0 0)"><g><g clip-path="url(#1)"><g clip-path="url(#2)"><g clip-path="url(#3)"></g><g clip-path="url(#4)"></g></g><path transform="matrix(1 0 0 -1 0 842)" d="M132.02 756.94L263.68 756.94L263.68 756.94L263.68 757.42L263.68 757.42L132.02 757.42z" stroke="none" fill="#C35454" fill-rule="evenodd" /><path transform="matrix(1 0 0 -1 0 842)" d="M199.37 630.82L284.69 630.82L284.69 630.82L284.69 631.3L284.69 631.3L199.37 631.3z" stroke="none" fill="#C35454" fill-rule="evenodd" /><path transform="matrix(1 0 0 -1 0 842)" d="M345.43 630.82L418.294 630.82L418.294 630.82L418.294 631.3L418.294 631.3L345.43 631.3z" stroke="none" fill="#C35454" fill-rule="evenodd" /><path transform="matrix(1 0 0 -1 0 842)" d="M199.37 491.35L284.69 491.35L284.69 491.35L284.69 491.83L284.69 491.83L199.37 491.83z" stroke="none" fill="#C35454" fill-rule="evenodd" /><path transform="matrix(1 0 0 -1 0 842)" d="M345.55 491.35L370.03 491.35L370.03 491.35L370.03 491.83L370.03 491.83L345.55 491.83z" stroke="none" fill="#C35454" fill-rule="evenodd" /><path transform="matrix(1 0 0 -1 0 842)" d="M199.37 419.09L294.314 419.09L294.314 419.09L294.314 419.57L294.314 419.57L199.37 419.57z" stroke="none" fill="#C35454" fill-rule="evenodd" /><path transform="matrix(1 0 0 -1 0 842)" d="M415.78 419.09L449.02 419.09L449.02 419.09L449.02 419.57L449.02 419.57L415.78 419.57z" stroke="none" fill="#C35454" fill-rule="evenodd" /><path transform="matrix(1 0 0 -1 0 842)" d="M132.02 401.21L171.62 401.21L171.62 401.21L171.62 401.69L171.62 401.69L132.02 401.69z" stroke="none" fill="#C35454" fill-rule="evenodd" /><path transform="matrix(1 0 0 -1 0 842)" d="M153.86 275.57L206.444 275.57L206.444 275.57L206.444 276.05L206.444 276.05L153.86 276.05z" stroke="none" fill="#C35454" fill-rule="evenodd" /><path transform="matrix(1 0 0 -1 0 842)" d="M211.73 275.57L267.77 275.57L267.77 275.57L267.77 276.05L267.77 276.05L211.73 276.05z" stroke="none" fill="#C35454" fill-rule="evenodd" /><path transform="matrix(1 0 0 -1 0 842)" d="M153.86 148.82L206.444 148.82L206.444 148.82L206.444 149.3L206.444 149.3L153.86 149.3z" stroke="none" fill="#C35454" fill-rule="evenodd" /><path transform="matrix(1 0 0 -1 0 842)" d="M211.73 148.82L238.01 148.82L238.01 148.82L238.01 149.3L238.01 149.3L211.73 149.3z" stroke="none" fill="#C35454" fill-rule="evenodd" /></g></g></g></svg>