<svg xmlns="http://www.w3.org/2000/svg" xmlns:xlink="http://www.w3.org/1999/xlink" id="body_141" preserveAspectRatio="xMinYMin meet" viewBox="0 0 793 1123"><defs><clipPath id="1"><path d="M0 842L0 -0.03997803L0 -0.03997803L595.32 -0.03997803L595.32 -0.03997803L595.32 842L595.32 842L0 842z" /></clipPath><clipPath id="2"><path d="M487.78 782.72L507.46 782.72L507.46 782.72L507.46 770.24L507.46 770.24L487.78 770.24z" /></clipPath><clipPath id="3"><path d="M487.78 782.72L507.46 782.72L507.46 782.72L507.46 770.24L507.46 770.24L487.78 770.24z" /></clipPath><clipPath id="4"><path d="M487.78 782.72L507.46 782.72L507.46 782.72L507.46 770.24L507.46 770.24L487.78 770.24z" /></clipPath></defs><g transform="matrix(1.333333 0 0 1.333333 0 0)"><g><g clip-path="url(#1)"><g clip-path="url(#2)"><g clip-path="url(#3)"></g><g clip-path="url(#4)"></g></g><path transform="matrix(1 0 0 -1 0 842)" d="M435.75 238.14L435.75 232.14L435.75 232.14L440.75 234.64L440.75 234.64L436.75 234.64L436.75 234.64L436.75 235.64L436.75 235.64L440.75 235.64L440.75 235.64L435.75 238.14z" stroke="none" fill="#000000" fill-rule="evenodd" /><path transform="matrix(1 0 0 -1 0 842)" d="M153.75 234.64L435.75 234.64L435.75 234.64L435.75 235.64L435.75 235.64L153.75 235.64z" stroke="none" fill="#000000" fill-rule="evenodd" /><path transform="matrix(1 0 0 -1 0 842)" d="M440.75 235.64L436.75 235.64L436.75 235.64L436.75 234.64L436.75 234.64L440.75 234.64L440.75 234.64L441.75 235.14L441.75 235.14L440.75 235.64z" stroke="none" fill="#000000" fill-rule="evenodd" /><g transform="matrix(0.3611413 0 0 0.3625 234.85 88.06)"><g transform="matrix(1 0 0 1 0 0)"><image x="0" y="0" xlink:href="img_26.png" width="184" height="44" /></g></g><path transform="matrix(1 0 0 -1 0 842)" d="M138.02 596.86L156.98 596.86L156.98 596.86L156.98 597.34L156.98 597.34L138.02 597.34z" stroke="none" fill="#C35454" fill-rule="evenodd" /><path transform="matrix(1 0 0 -1 0 842)" d="M201.17 596.86L240.53 596.86L240.53 596.86L240.53 597.34L240.53 597.34L201.17 597.34z" stroke="none" fill="#C35454" fill-rule="evenodd" /><path transform="matrix(1 0 0 -1 0 842)" d="M172.22 328.97L210.164 328.97L210.164 328.97L210.164 329.45L210.164 329.45L172.22 329.45z" stroke="none" fill="#C35454" fill-rule="evenodd" /><path transform="matrix(1 0 0 -1 0 842)" d="M269.93 328.97L301.634 328.97L301.634 328.97L301.634 329.45L301.634 329.45L269.93 329.45z" stroke="none" fill="#C35454" fill-rule="evenodd" /><path transform="matrix(1 0 0 -1 0 842)" d="M192.41 121.82L211.37 121.82L211.37 121.82L211.37 122.3L211.37 122.3L192.41 122.3z" stroke="none" fill="#C35454" fill-rule="evenodd" /></g></g></g></svg>