<svg xmlns="http://www.w3.org/2000/svg" xmlns:xlink="http://www.w3.org/1999/xlink" id="body_101" preserveAspectRatio="xMinYMin meet" viewBox="0 0 793 1123"><defs><clipPath id="1"><path d="M0 842L0 -0.03997803L0 -0.03997803L595.32 -0.03997803L595.32 -0.03997803L595.32 842L595.32 842L0 842z" /></clipPath><clipPath id="2"><path d="M89.064 782.72L106.704 782.72L106.704 782.72L106.704 770.24L106.704 770.24L89.064 770.24z" /></clipPath><clipPath id="3"><path d="M89.064 782.72L106.704 782.72L106.704 782.72L106.704 770.24L106.704 770.24L89.064 770.24z" /></clipPath><clipPath id="4"><path d="M89.064 782.72L106.704 782.72L106.704 782.72L106.704 770.24L106.704 770.24L89.064 770.24z" /></clipPath></defs><g transform="matrix(1.333333 0 0 1.333333 0 0)"><g><g clip-path="url(#1)"><g clip-path="url(#2)"><g clip-path="url(#3)"></g><g clip-path="url(#4)"></g></g><path transform="matrix(1 0 0 -1 0 842)" d="M132.02 720.82L345.19 720.82L345.19 720.82L345.19 721.3L345.19 721.3L132.02 721.3z" stroke="none" fill="#C35454" fill-rule="evenodd" /><path transform="matrix(1 0 0 -1 0 842)" d="M365.71 720.82L433.294 720.82L433.294 720.82L433.294 721.3L433.294 721.3L365.71 721.3z" stroke="none" fill="#C35454" fill-rule="evenodd" /><path transform="matrix(1 0 0 -1 0 842)" d="M132.02 603.7L215.444 603.7L215.444 603.7L215.444 604.18L215.444 604.18L132.02 604.18z" stroke="none" fill="#C35454" fill-rule="evenodd" /><path transform="matrix(1 0 0 -1 0 842)" d="M311.95 603.7L345.19 603.7L345.19 603.7L345.19 604.18L345.19 604.18L311.95 604.18z" stroke="none" fill="#C35454" fill-rule="evenodd" /><path transform="matrix(1 0 0 -1 0 842)" d="M365.71 603.7L420.094 603.7L420.094 603.7L420.094 604.18L420.094 604.18L365.71 604.18z" stroke="none" fill="#C35454" fill-rule="evenodd" /><path transform="matrix(1 0 0 -1 0 842)" d="M132.02 461.71L298.99 461.71L298.99 461.71L298.99 462.19L298.99 462.19L132.02 462.19z" stroke="none" fill="#C35454" fill-rule="evenodd" /><path transform="matrix(1 0 0 -1 0 842)" d="M132.02 396.89L288.28 396.89L288.28 396.89L288.28 397.37L288.28 397.37L132.02 397.37z" stroke="none" fill="#C35454" fill-rule="evenodd" /><path transform="matrix(1 0 0 -1 0 842)" d="M132.02 303.17L345.31 303.17L345.31 303.17L345.31 303.65L345.31 303.65L132.02 303.65z" stroke="none" fill="#C35454" fill-rule="evenodd" /><path transform="matrix(1 0 0 -1 0 842)" d="M365.71 303.17L458.494 303.17L458.494 303.17L458.494 303.65L458.494 303.65L365.71 303.65z" stroke="none" fill="#C35454" fill-rule="evenodd" /><path transform="matrix(1 0 0 -1 0 842)" d="M132.02 285.17L207.884 285.17L207.884 285.17L207.884 285.65L207.884 285.65L132.02 285.65z" stroke="none" fill="#C35454" fill-rule="evenodd" /><path transform="matrix(1 0 0 -1 0 842)" d="M132.02 195.02L345.31 195.02L345.31 195.02L345.31 195.5L345.31 195.5L132.02 195.5z" stroke="none" fill="#C35454" fill-rule="evenodd" /><path transform="matrix(1 0 0 -1 0 842)" d="M365.71 195.02L443.254 195.02L443.254 195.02L443.254 195.5L443.254 195.5L365.71 195.5z" stroke="none" fill="#C35454" fill-rule="evenodd" /><path transform="matrix(1 0 0 -1 0 842)" d="M132.02 177.02L163.82 177.02L163.82 177.02L163.82 177.5L163.82 177.5L132.02 177.5z" stroke="none" fill="#C35454" fill-rule="evenodd" /></g></g></g></svg>