<svg xmlns="http://www.w3.org/2000/svg" xmlns:xlink="http://www.w3.org/1999/xlink" id="body_136" preserveAspectRatio="xMinYMin meet" viewBox="0 0 793 1123"><defs><clipPath id="1"><path d="M0 842L0 -0.03997803L0 -0.03997803L595.32 -0.03997803L595.32 -0.03997803L595.32 842L595.32 842L0 842z" /></clipPath><clipPath id="2"><path d="M487.78 782.72L507.46 782.72L507.46 782.72L507.46 770.24L507.46 770.24L487.78 770.24z" /></clipPath><clipPath id="3"><path d="M487.78 782.72L507.46 782.72L507.46 782.72L507.46 770.24L507.46 770.24L487.78 770.24z" /></clipPath><clipPath id="4"><path d="M487.78 782.72L507.46 782.72L507.46 782.72L507.46 770.24L507.46 770.24L487.78 770.24z" /></clipPath></defs><g transform="matrix(1.333333 0 0 1.333333 0 0)"><g><g clip-path="url(#1)"><g clip-path="url(#2)"><g clip-path="url(#3)"></g><g clip-path="url(#4)"></g></g><path transform="matrix(1 0 0 -1 0 842)" d="M149.85 759.84L153.3 759.84" stroke="#C35454" stroke-width="0.64" stroke-linecap="round" fill="none" /><path transform="matrix(1 0 0 -1 0 842)" d="M174.9 759.84L227.2 759.84" stroke="#C35454" stroke-width="0.64" stroke-linecap="round" fill="none" /><path transform="matrix(1 0 0 -1 0 842)" d="M227.2 760.49L281.15 760.49" stroke="#000000" stroke-width="0.4" stroke-linecap="round" fill="none" /><path transform="matrix(1 0 0 -1 0 842)" d="M227.2 759.19L281.15 759.19" stroke="#000000" stroke-width="0.4" stroke-linecap="round" fill="none" /><path transform="matrix(1 0 0 -1 0 842)" d="M281.15 759.84L337.4 759.84" stroke="#C35454" stroke-width="0.64" stroke-linecap="round" fill="none" /><path transform="matrix(1 0 0 -1 0 842)" d="M149.85 713.24L153.3 713.24" stroke="#C35454" stroke-width="0.64" stroke-linecap="round" fill="none" /><path transform="matrix(1 0 0 -1 0 842)" d="M155.78 761.4L174.74 761.4L174.74 761.4L174.74 761.88L174.74 761.88L155.78 761.88z" stroke="none" fill="#C35454" fill-rule="evenodd" /><path transform="matrix(1 0 0 -1 0 842)" d="M155.78 713.14L245.924 713.14L245.924 713.14L245.924 713.62L245.924 713.62L155.78 713.62z" stroke="none" fill="#C35454" fill-rule="evenodd" /><path transform="matrix(1 0 0 -1 0 842)" d="M149.78 454.75L381.19 454.75L381.19 454.75L381.19 455.23L381.19 455.23L149.78 455.23z" stroke="none" fill="#C35454" fill-rule="evenodd" /><path transform="matrix(1 0 0 -1 0 842)" d="M149.78 403.61L350.35 403.61L350.35 403.61L350.35 404.09L350.35 404.09L149.78 404.09z" stroke="none" fill="#C35454" fill-rule="evenodd" /><path transform="matrix(1 0 0 -1 0 842)" d="M132.02 307.25L267.64 307.25L267.64 307.25L267.64 307.73L267.64 307.73L132.02 307.73z" stroke="none" fill="#C35454" fill-rule="evenodd" /><path transform="matrix(1 0 0 -1 0 842)" d="M132.02 183.98L300.79 183.98L300.79 183.98L300.79 184.46L300.79 184.46L132.02 184.46z" stroke="none" fill="#C35454" fill-rule="evenodd" /></g></g></g></svg>