<svg xmlns="http://www.w3.org/2000/svg" xmlns:xlink="http://www.w3.org/1999/xlink" id="body_20" preserveAspectRatio="xMinYMin meet" viewBox="0 0 793 1123"><defs><clipPath id="1"><path d="M0 842L0 -0.03997803L0 -0.03997803L595.32 -0.03997803L595.32 -0.03997803L595.32 842L595.32 842L0 842z" /></clipPath><clipPath id="2"><path d="M492.94 782.72L507.46 782.72L507.46 782.72L507.46 770.24L507.46 770.24L492.94 770.24z" /></clipPath><clipPath id="3"><path d="M492.94 782.72L507.46 782.72L507.46 782.72L507.46 770.24L507.46 770.24L492.94 770.24z" /></clipPath><clipPath id="4"><path d="M492.94 782.72L507.46 782.72L507.46 782.72L507.46 770.24L507.46 770.24L492.94 770.24z" /></clipPath></defs><g transform="matrix(1.333333 0 0 1.333333 0 0)"><g><g clip-path="url(#1)"><g clip-path="url(#2)"><g clip-path="url(#3)"></g><g clip-path="url(#4)"></g></g><path transform="matrix(1 0 0 -1 0 842)" d="M132 437.49L135.5 437.49" stroke="#C35454" stroke-width="0.64" stroke-linecap="round" fill="none" /><g transform="matrix(0.3611413 0 0 0.3625 216.5 88.06)"><g transform="matrix(1 0 0 1 0 0)"><image x="0" y="0" xlink:href="img_26.png" width="184" height="44" /></g></g><path transform="matrix(1 0 0 -1 0 842)" d="M132.02 502.15L224.444 502.15L224.444 502.15L224.444 502.63L224.444 502.63L132.02 502.63z" stroke="none" fill="#C35454" fill-rule="evenodd" /><path transform="matrix(1 0 0 -1 0 842)" d="M138.02 437.35L258.76 437.35L258.76 437.35L258.76 437.83L258.76 437.83L138.02 437.83z" stroke="none" fill="#C35454" fill-rule="evenodd" /><path transform="matrix(1 0 0 -1 0 842)" d="M132.02 248.78L205.004 248.78L205.004 248.78L205.004 249.26L205.004 249.26L132.02 249.26z" stroke="none" fill="#C35454" fill-rule="evenodd" /><path transform="matrix(1 0 0 -1 0 842)" d="M132.02 184.1L275.56 184.1L275.56 184.1L275.56 184.58L275.56 184.58L132.02 184.58z" stroke="none" fill="#C35454" fill-rule="evenodd" /></g></g></g></svg>