<svg xmlns="http://www.w3.org/2000/svg" xmlns:xlink="http://www.w3.org/1999/xlink" id="body_285" preserveAspectRatio="xMinYMin meet" viewBox="0 0 793 1123"><defs><clipPath id="1"><path d="M0 842L0 -0.03997803L0 -0.03997803L595.32 -0.03997803L595.32 -0.03997803L595.32 842L595.32 842L0 842z" /></clipPath><clipPath id="2"><path d="M487.78 782.72L507.46 782.72L507.46 782.72L507.46 770.24L507.46 770.24L487.78 770.24z" /></clipPath><clipPath id="3"><path d="M487.78 782.72L507.46 782.72L507.46 782.72L507.46 770.24L507.46 770.24L487.78 770.24z" /></clipPath><clipPath id="4"><path d="M487.78 782.72L507.46 782.72L507.46 782.72L507.46 770.24L507.46 770.24L487.78 770.24z" /></clipPath></defs><g transform="matrix(1.333333 0 0 1.333333 0 0)"><g><g clip-path="url(#1)"><g clip-path="url(#2)"><g clip-path="url(#3)"></g><g clip-path="url(#4)"></g></g><path transform="matrix(1 0 0 -1 0 842)" d="M242.93 666.7L264.77 666.7L264.77 666.7L264.77 667.18L264.77 667.18L242.93 667.18z" stroke="none" fill="#C35454" fill-rule="evenodd" /><path transform="matrix(1 0 0 -1 0 842)" d="M142.58 647.74L180.524 647.74L180.524 647.74L180.524 648.22L180.524 648.22L142.58 648.22z" stroke="none" fill="#C35454" fill-rule="evenodd" /><path transform="matrix(1 0 0 -1 0 842)" d="M201.17 647.74L266.57 647.74L266.57 647.74L266.57 648.22L266.57 648.22L201.17 648.22z" stroke="none" fill="#C35454" fill-rule="evenodd" /><path transform="matrix(1 0 0 -1 0 842)" d="M232.73 487.27L349.03 487.27L349.03 487.27L349.03 487.75L349.03 487.75L232.73 487.75z" stroke="none" fill="#C35454" fill-rule="evenodd" /><path transform="matrix(1 0 0 -1 0 842)" d="M142.58 367.13L187.964 367.13L187.964 367.13L187.964 367.61L187.964 367.61L142.58 367.61z" stroke="none" fill="#C35454" fill-rule="evenodd" /><path transform="matrix(1 0 0 -1 0 842)" d="M142.58 337.97L259.36 337.97L259.36 337.97L259.36 338.45L259.36 338.45L142.58 338.45z" stroke="none" fill="#C35454" fill-rule="evenodd" /><path transform="matrix(1 0 0 -1 0 842)" d="M142.58 195.38L291.52 195.38L291.52 195.38L291.52 195.86L291.52 195.86L142.58 195.86z" stroke="none" fill="#C35454" fill-rule="evenodd" /><path transform="matrix(1 0 0 -1 0 842)" d="M142.58 166.22L291.52 166.22L291.52 166.22L291.52 166.7L291.52 166.7L142.58 166.7z" stroke="none" fill="#C35454" fill-rule="evenodd" /></g></g></g></svg>