<svg xmlns="http://www.w3.org/2000/svg" xmlns:xlink="http://www.w3.org/1999/xlink" id="body_299" preserveAspectRatio="xMinYMin meet" viewBox="0 0 793 1123"><defs><clipPath id="1"><path d="M0 842L0 -0.03997803L0 -0.03997803L595.32 -0.03997803L595.32 -0.03997803L595.32 842L595.32 842L0 842z" /></clipPath><clipPath id="2"><path d="M89.064 782.72L161.304 782.72L161.304 782.72L161.304 770.24L161.304 770.24L89.064 770.24z" /></clipPath><clipPath id="3"><path d="M89.064 782.72L161.304 782.72L161.304 782.72L161.304 770.24L161.304 770.24L89.064 770.24z" /></clipPath><clipPath id="4"><path d="M89.064 782.72L161.304 782.72L161.304 782.72L161.304 770.24L161.304 770.24L89.064 770.24z" /></clipPath><clipPath id="5"><path d="M89.064 782.72L161.304 782.72L161.304 782.72L161.304 770.24L161.304 770.24L89.064 770.24z" /></clipPath><clipPath id="6"><path d="M89.064 782.72L161.304 782.72L161.304 782.72L161.304 770.24L161.304 770.24L89.064 770.24z" /></clipPath><clipPath id="7"><path d="M89.064 782.72L161.304 782.72L161.304 782.72L161.304 770.24L161.304 770.24L89.064 770.24z" /></clipPath><clipPath id="8"><path d="M89.064 782.72L161.304 782.72L161.304 782.72L161.304 770.24L161.304 770.24L89.064 770.24z" /></clipPath><clipPath id="9"><path d="M89.064 782.72L161.304 782.72L161.304 782.72L161.304 770.24L161.304 770.24L89.064 770.24z" /></clipPath></defs><g transform="matrix(1.333333 0 0 1.333333 0 0)"><g><g clip-path="url(#1)"><g clip-path="url(#2)"><g clip-path="url(#3)"></g><g clip-path="url(#4)"></g><g clip-path="url(#5)"></g><g clip-path="url(#6)"></g><g clip-path="url(#7)"></g><g clip-path="url(#8)"></g><g clip-path="url(#9)"></g></g><path transform="matrix(1 0 0 -1 0 842)" d="M132.02 661.18L183.404 661.18L183.404 661.18L183.404 661.66L183.404 661.66L132.02 661.66z" stroke="none" fill="#C35454" fill-rule="evenodd" /><path transform="matrix(1 0 0 -1 0 842)" d="M335.11 661.18L426.454 661.18L426.454 661.18L426.454 661.66L426.454 661.66L335.11 661.66z" stroke="none" fill="#C35454" fill-rule="evenodd" /><path transform="matrix(1 0 0 -1 0 842)" d="M303.67 536.59L395.47 536.59L395.47 536.59L395.47 537.07L395.47 537.07L303.67 537.07z" stroke="none" fill="#C35454" fill-rule="evenodd" /><path transform="matrix(1 0 0 -1 0 842)" d="M142.58 451.03L270.52 451.03L270.52 451.03L270.52 451.51L270.52 451.51L142.58 451.51z" stroke="none" fill="#C35454" fill-rule="evenodd" /><path transform="matrix(1 0 0 -1 0 842)" d="M142.58 386.33L295.87 386.33L295.87 386.33L295.87 386.81L295.87 386.81L142.58 386.81z" stroke="none" fill="#C35454" fill-rule="evenodd" /><path transform="matrix(1 0 0 -1 0 842)" d="M132.02 250.94L262.6 250.94L262.6 250.94L262.6 251.42L262.6 251.42L132.02 251.42z" stroke="none" fill="#C35454" fill-rule="evenodd" /><path transform="matrix(1 0 0 -1 0 842)" d="M132.02 144.38L214.364 144.38L214.364 144.38L214.364 144.86L214.364 144.86L132.02 144.86z" stroke="none" fill="#C35454" fill-rule="evenodd" /></g></g></g></svg>