<svg xmlns="http://www.w3.org/2000/svg" xmlns:xlink="http://www.w3.org/1999/xlink" id="body_257" preserveAspectRatio="xMinYMin meet" viewBox="0 0 793 1123"><defs><clipPath id="1"><path d="M0 842L0 -0.03997803L0 -0.03997803L595.32 -0.03997803L595.32 -0.03997803L595.32 842L595.32 842L0 842z" /></clipPath><clipPath id="2"><path d="M487.78 782.72L507.46 782.72L507.46 782.72L507.46 770.24L507.46 770.24L487.78 770.24z" /></clipPath><clipPath id="3"><path d="M487.78 782.72L507.46 782.72L507.46 782.72L507.46 770.24L507.46 770.24L487.78 770.24z" /></clipPath><clipPath id="4"><path d="M487.78 782.72L507.46 782.72L507.46 782.72L507.46 770.24L507.46 770.24L487.78 770.24z" /></clipPath></defs><g transform="matrix(1.333333 0 0 1.333333 0 0)"><g><g clip-path="url(#1)"><g clip-path="url(#2)"><g clip-path="url(#3)"></g><g clip-path="url(#4)"></g></g><path transform="matrix(1 0 0 -1 0 842)" d="M214.8 612.39L255.1 612.39" stroke="#C35454" stroke-width="0.64" stroke-linecap="round" fill="none" /><path transform="matrix(1 0 0 -1 0 842)" d="M255.1 613.04L262.1 613.04" stroke="#000000" stroke-width="0.4" stroke-linecap="round" fill="none" /><path transform="matrix(1 0 0 -1 0 842)" d="M255.1 611.74L262.1 611.74" stroke="#000000" stroke-width="0.4" stroke-linecap="round" fill="none" /><path transform="matrix(1 0 0 -1 0 842)" d="M262.1 612.39L291.6 612.39" stroke="#C35454" stroke-width="0.64" stroke-linecap="round" fill="none" /><path transform="matrix(1 0 0 -1 0 842)" d="M207.6 561.19L269.7 561.19" stroke="#C35454" stroke-width="0.64" stroke-linecap="round" fill="none" /><path transform="matrix(1 0 0 -1 0 842)" d="M269.7 561.84L286 561.84" stroke="#000000" stroke-width="0.4" stroke-linecap="round" fill="none" /><path transform="matrix(1 0 0 -1 0 842)" d="M269.7 560.54L286 560.54" stroke="#000000" stroke-width="0.4" stroke-linecap="round" fill="none" /><path transform="matrix(1 0 0 -1 0 842)" d="M286 561.19L315.45 561.19" stroke="#C35454" stroke-width="0.64" stroke-linecap="round" fill="none" /><g transform="matrix(0.3611413 0 0 0.3625 234.85 88.06)"><g transform="matrix(1 0 0 1 0 0)"><image x="0" y="0" xlink:href="img_26.png" width="184" height="44" /></g></g><path transform="matrix(1 0 0 -1 0 842)" d="M142.58 612.34L204.764 612.34L204.764 612.34L204.764 612.82L204.764 612.82L142.58 612.82z" stroke="none" fill="#C35454" fill-rule="evenodd" /><path transform="matrix(1 0 0 -1 0 842)" d="M142.58 561.07L207.404 561.07L207.404 561.07L207.404 561.55L207.404 561.55L142.58 561.55z" stroke="none" fill="#C35454" fill-rule="evenodd" /><path transform="matrix(1 0 0 -1 0 842)" d="M223.49 440.35L282.41 440.35L282.41 440.35L282.41 440.83L282.41 440.83L223.49 440.83z" stroke="none" fill="#C35454" fill-rule="evenodd" /><path transform="matrix(1 0 0 -1 0 842)" d="M223.37 422.35L282.41 422.35L282.41 422.35L282.41 422.83L282.41 422.83L223.37 422.83z" stroke="none" fill="#C35454" fill-rule="evenodd" /><path transform="matrix(1 0 0 -1 0 842)" d="M223.61 404.33L282.41 404.33L282.41 404.33L282.41 404.81L282.41 404.81L223.61 404.81z" stroke="none" fill="#C35454" fill-rule="evenodd" /><path transform="matrix(1 0 0 -1 0 842)" d="M223.13 386.45L281.81 386.45L281.81 386.45L281.81 386.93L281.81 386.93L223.13 386.93z" stroke="none" fill="#C35454" fill-rule="evenodd" /><path transform="matrix(1 0 0 -1 0 842)" d="M132.02 311.69L198.164 311.69L198.164 311.69L198.164 312.17L198.164 312.17L132.02 312.17z" stroke="none" fill="#C35454" fill-rule="evenodd" /><path transform="matrix(1 0 0 -1 0 842)" d="M190.37 285.41L489.22 285.41L489.22 285.41L489.22 285.89L489.22 285.89L190.37 285.89z" stroke="none" fill="#C35454" fill-rule="evenodd" /><path transform="matrix(1 0 0 -1 0 842)" d="M132.02 124.82L394.39 124.82L394.39 124.82L394.39 125.3L394.39 125.3L132.02 125.3z" stroke="none" fill="#C35454" fill-rule="evenodd" /><path transform="matrix(1 0 0 -1 0 842)" d="M399.67 124.82L486.574 124.82L486.574 124.82L486.574 125.3L486.574 125.3L399.67 125.3z" stroke="none" fill="#C35454" fill-rule="evenodd" /></g></g></g></svg>