<svg xmlns="http://www.w3.org/2000/svg" xmlns:xlink="http://www.w3.org/1999/xlink" id="body_54" preserveAspectRatio="xMinYMin meet" viewBox="0 0 793 1123"><defs><clipPath id="1"><path d="M0 842L0 -0.03997803L0 -0.03997803L595.32 -0.03997803L595.32 -0.03997803L595.32 842L595.32 842L0 842z" /></clipPath><clipPath id="2"><path d="M87.984 782.72L102.504 782.72L102.504 782.72L102.504 770.24L102.504 770.24L87.984 770.24z" /></clipPath><clipPath id="3"><path d="M87.984 782.72L102.504 782.72L102.504 782.72L102.504 770.24L102.504 770.24L87.984 770.24z" /></clipPath><clipPath id="4"><path d="M87.984 782.72L102.504 782.72L102.504 782.72L102.504 770.24L102.504 770.24L87.984 770.24z" /></clipPath></defs><g transform="matrix(1.333333 0 0 1.333333 0 0)"><g><g clip-path="url(#1)"><g clip-path="url(#2)"><g clip-path="url(#3)"></g><g clip-path="url(#4)"></g></g><g transform="matrix(0.3611413 0 0 0.3625 144.25 88.06)"><g transform="matrix(1 0 0 1 0 0)"><image x="0" y="0" xlink:href="img_26.png" width="184" height="44" /></g></g><path transform="matrix(1 0 0 -1 0 842)" d="M282.05 650.86L326.594 650.86L326.594 650.86L326.594 651.34L326.594 651.34L282.05 651.34z" stroke="none" fill="#C35454" fill-rule="evenodd" /><path transform="matrix(1 0 0 -1 0 842)" d="M435.58 650.86L443.98 650.86L443.98 650.86L443.98 651.34L443.98 651.34L435.58 651.34z" stroke="none" fill="#C35454" fill-rule="evenodd" /><path transform="matrix(1 0 0 -1 0 842)" d="M297.31 553.39L341.71 553.39L341.71 553.39L341.71 553.87L341.71 553.87L297.31 553.87z" stroke="none" fill="#C35454" fill-rule="evenodd" /><path transform="matrix(1 0 0 -1 0 842)" d="M132.02 533.71L155.42 533.71L155.42 533.71L155.42 534.19L155.42 534.19L132.02 534.19z" stroke="none" fill="#C35454" fill-rule="evenodd" /><path transform="matrix(1 0 0 -1 0 842)" d="M297.31 497.83L344.95 497.83L344.95 497.83L344.95 498.31L344.95 498.31L297.31 498.31z" stroke="none" fill="#C35454" fill-rule="evenodd" /><path transform="matrix(1 0 0 -1 0 842)" d="M454.06 497.83L459.82 497.83L459.82 497.83L459.82 498.31L459.82 498.31L454.06 498.31z" stroke="none" fill="#C35454" fill-rule="evenodd" /><g transform="matrix(0.3614131 0 0 0.3625 189.35 453.21)"><g transform="matrix(1 0 0 1 0 0)"><image x="0" y="0" xlink:href="img_26.png" width="184" height="44" /></g></g><path transform="matrix(1 0 0 -1 0 842)" d="M159.86 285.65L199.724 285.65L199.724 285.65L199.724 286.13L199.724 286.13L159.86 286.13z" stroke="none" fill="#C35454" fill-rule="evenodd" /><path transform="matrix(1 0 0 -1 0 842)" d="M223.85 285.65L238.73 285.65L238.73 285.65L238.73 286.13L238.73 286.13L223.85 286.13z" stroke="none" fill="#C35454" fill-rule="evenodd" /><path transform="matrix(1 0 0 -1 0 842)" d="M337.15 285.65L349.63 285.65L349.63 285.65L349.63 286.13L349.63 286.13L337.15 286.13z" stroke="none" fill="#C35454" fill-rule="evenodd" /><path transform="matrix(1 0 0 -1 0 842)" d="M370.03 272.09L386.23 272.09L386.23 272.09L386.23 272.57L386.23 272.57L370.03 272.57z" stroke="none" fill="#C35454" fill-rule="evenodd" /><path transform="matrix(1 0 0 -1 0 842)" d="M175.61 131.9L215.33 131.9L215.33 131.9L215.33 132.38L215.33 132.38L175.61 132.38z" stroke="none" fill="#C35454" fill-rule="evenodd" /><path transform="matrix(1 0 0 -1 0 842)" d="M239.45 131.9L281.81 131.9L281.81 131.9L281.81 132.38L281.81 132.38L239.45 132.38z" stroke="none" fill="#C35454" fill-rule="evenodd" /><path transform="matrix(1 0 0 -1 0 842)" d="M379.99 131.9L420.574 131.9L420.574 131.9L420.574 132.38L420.574 132.38L379.99 132.38z" stroke="none" fill="#C35454" fill-rule="evenodd" /><path transform="matrix(1 0 0 -1 0 842)" d="M387.67 113.9L431.254 113.9L431.254 113.9L431.254 114.38L431.254 114.38L387.67 114.38z" stroke="none" fill="#C35454" fill-rule="evenodd" /></g></g></g></svg>