<svg xmlns="http://www.w3.org/2000/svg" xmlns:xlink="http://www.w3.org/1999/xlink" id="body_108" preserveAspectRatio="xMinYMin meet" viewBox="0 0 793 1123"><defs><clipPath id="1"><path d="M0 842L0 -0.03997803L0 -0.03997803L595.32 -0.03997803L595.32 -0.03997803L595.32 842L595.32 842L0 842z" /></clipPath><clipPath id="2"><path d="M87.984 782.72L388.274 782.72L388.274 782.72L388.274 754.52L388.274 754.52L87.984 754.52z" /></clipPath><clipPath id="3"><path d="M87.984 782.72L388.274 782.72L388.274 782.72L388.274 754.496L388.274 754.496L87.984 754.496z" /></clipPath><clipPath id="4"><path d="M87.984 782.72L388.274 782.72L388.274 782.72L388.274 754.496L388.274 754.496L87.984 754.496z" /></clipPath><clipPath id="5"><path d="M87.984 782.72L388.274 782.72L388.274 782.72L388.274 754.496L388.274 754.496L87.984 754.496z" /></clipPath><clipPath id="6"><path d="M87.984 782.72L388.274 782.72L388.274 782.72L388.274 754.496L388.274 754.496L87.984 754.496z" /></clipPath><clipPath id="7"><path d="M87.984 782.72L388.274 782.72L388.274 782.72L388.274 754.496L388.274 754.496L87.984 754.496z" /></clipPath><clipPath id="8"><path d="M87.984 782.72L388.274 782.72L388.274 782.72L388.274 754.496L388.274 754.496L87.984 754.496z" /></clipPath><clipPath id="9"><path d="M87.984 782.72L388.274 782.72L388.274 782.72L388.274 754.496L388.274 754.496L87.984 754.496z" /></clipPath><clipPath id="10"><path d="M87.984 782.72L388.274 782.72L388.274 782.72L388.274 754.496L388.274 754.496L87.984 754.496z" /></clipPath><clipPath id="11"><path d="M87.984 782.72L388.274 782.72L388.274 782.72L388.274 754.496L388.274 754.496L87.984 754.496z" /></clipPath><clipPath id="12"><path d="M87.984 782.72L388.274 782.72L388.274 782.72L388.274 754.496L388.274 754.496L87.984 754.496z" /></clipPath><clipPath id="13"><path d="M87.984 782.72L388.274 782.72L388.274 782.72L388.274 754.496L388.274 754.496L87.984 754.496z" /></clipPath><clipPath id="14"><path d="M87.984 782.72L388.274 782.72L388.274 782.72L388.274 754.496L388.274 754.496L87.984 754.496z" /></clipPath><clipPath id="15"><path d="M87.984 782.72L388.274 782.72L388.274 782.72L388.274 754.496L388.274 754.496L87.984 754.496z" /></clipPath><clipPath id="16"><path d="M87.984 782.72L388.274 782.72L388.274 782.72L388.274 754.496L388.274 754.496L87.984 754.496z" /></clipPath><clipPath id="17"><path d="M87.984 782.72L388.274 782.72L388.274 782.72L388.274 754.496L388.274 754.496L87.984 754.496z" /></clipPath><clipPath id="18"><path d="M87.984 782.72L388.274 782.72L388.274 782.72L388.274 754.496L388.274 754.496L87.984 754.496z" /></clipPath><clipPath id="19"><path d="M87.984 782.72L388.274 782.72L388.274 782.72L388.274 754.496L388.274 754.496L87.984 754.496z" /></clipPath><clipPath id="20"><path d="M87.984 782.72L388.274 782.72L388.274 782.72L388.274 754.496L388.274 754.496L87.984 754.496z" /></clipPath><clipPath id="21"><path d="M87.984 782.72L388.274 782.72L388.274 782.72L388.274 754.496L388.274 754.496L87.984 754.496z" /></clipPath></defs><g transform="matrix(1.333333 0 0 1.333333 0 0)"><g><g clip-path="url(#1)"><g clip-path="url(#2)"><g clip-path="url(#3)"></g><g clip-path="url(#4)"></g><g clip-path="url(#5)"></g><g clip-path="url(#6)"></g><g clip-path="url(#7)"></g><g clip-path="url(#8)"></g><g clip-path="url(#9)"></g><g clip-path="url(#10)"></g><g clip-path="url(#11)"></g><g clip-path="url(#12)"></g><g clip-path="url(#13)"></g><g clip-path="url(#14)"></g><g clip-path="url(#15)"></g><g clip-path="url(#16)"></g><g clip-path="url(#17)"></g><g clip-path="url(#18)"></g><g clip-path="url(#19)"></g><g clip-path="url(#20)"></g><g clip-path="url(#21)"></g></g><g transform="matrix(0.329992 0 0 0.33 90 181.26)"><g transform="matrix(1 0 0 1 0 0)"><image x="0" y="0" xlink:href="img_25.png" width="1247" height="95" /></g></g><path transform="matrix(1 0 0 -1 0 842)" d="M132.02 395.57L191.684 395.57L191.684 395.57L191.684 396.05L191.684 396.05L132.02 396.05z" stroke="none" fill="#C35454" fill-rule="evenodd" /><path transform="matrix(1 0 0 -1 0 842)" d="M201.29 395.57L241.85 395.57L241.85 395.57L241.85 396.05L241.85 396.05L201.29 396.05z" stroke="none" fill="#C35454" fill-rule="evenodd" /><path transform="matrix(1 0 0 -1 0 842)" d="M138.02 275.45L229.244 275.45L229.244 275.45L229.244 275.93L229.244 275.93L138.02 275.93z" stroke="none" fill="#C35454" fill-rule="evenodd" /><path transform="matrix(1 0 0 -1 0 842)" d="M176.33 171.62L268.25 171.62L268.25 171.62L268.25 172.1L268.25 172.1L176.33 172.1z" stroke="none" fill="#C35454" fill-rule="evenodd" /></g></g></g></svg>