<svg xmlns="http://www.w3.org/2000/svg" xmlns:xlink="http://www.w3.org/1999/xlink" id="body_59" preserveAspectRatio="xMinYMin meet" viewBox="0 0 793 1123"><defs><clipPath id="1"><path d="M0 842L0 -0.03997803L0 -0.03997803L595.32 -0.03997803L595.32 -0.03997803L595.32 842L595.32 842L0 842z" /></clipPath><clipPath id="2"><path d="M492.94 782.72L507.46 782.72L507.46 782.72L507.46 770.24L507.46 770.24L492.94 770.24z" /></clipPath><clipPath id="3"><path d="M492.94 782.72L507.46 782.72L507.46 782.72L507.46 770.24L507.46 770.24L492.94 770.24z" /></clipPath><clipPath id="4"><path d="M492.94 782.72L507.46 782.72L507.46 782.72L507.46 770.24L507.46 770.24L492.94 770.24z" /></clipPath><clipPath id="5"><path d="M129.98 349.81L174.74 349.81L174.74 349.81L174.74 304.33L174.74 304.33L129.98 304.33z" /></clipPath><clipPath id="6"><path d="M129.98 349.81L174.74 349.81L174.74 349.81L174.74 304.33L174.74 304.33L129.98 304.33z" /></clipPath><clipPath id="7"><path d="M129.98 349.81L174.74 349.81L174.74 349.81L174.74 304.33L174.74 304.33L129.98 304.33z" /></clipPath><clipPath id="8"><path d="M129.98 349.81L174.74 349.81L174.74 349.81L174.74 304.33L174.74 304.33L129.98 304.33z" /></clipPath><clipPath id="9"><path d="M129.98 349.81L174.74 349.81L174.74 349.81L174.74 304.33L174.74 304.33L129.98 304.33z" /></clipPath><clipPath id="10"><path d="M129.98 349.81L174.74 349.81L174.74 349.81L174.74 304.33L174.74 304.33L129.98 304.33z" /></clipPath><clipPath id="11"><path d="M174.74 349.81L238.964 349.81L238.964 349.81L238.964 304.33L238.964 304.33L174.74 304.33z" /></clipPath><clipPath id="12"><path d="M174.74 349.81L238.964 349.81L238.964 349.81L238.964 304.33L238.964 304.33L174.74 304.33z" /></clipPath><clipPath id="13"><path d="M174.74 349.81L238.964 349.81L238.964 349.81L238.964 304.33L238.964 304.33L174.74 304.33z" /></clipPath><clipPath id="14"><path d="M174.74 349.81L238.964 349.81L238.964 349.81L238.964 304.33L238.964 304.33L174.74 304.33z" /></clipPath><clipPath id="15"><path d="M174.74 349.81L238.964 349.81L238.964 349.81L238.964 304.33L238.964 304.33L174.74 304.33z" /></clipPath><clipPath id="16"><path d="M174.74 349.81L238.964 349.81L238.964 349.81L238.964 304.33L238.964 304.33L174.74 304.33z" /></clipPath><clipPath id="17"><path d="M238.97 349.81L308.474 349.81L308.474 349.81L308.474 304.33L308.474 304.33L238.97 304.33z" /></clipPath><clipPath id="18"><path d="M238.97 349.81L308.474 349.81L308.474 349.81L308.474 304.33L308.474 304.33L238.97 304.33z" /></clipPath><clipPath id="19"><path d="M238.97 349.81L308.474 349.81L308.474 349.81L308.474 304.33L308.474 304.33L238.97 304.33z" /></clipPath><clipPath id="20"><path d="M238.97 349.81L308.474 349.81L308.474 349.81L308.474 304.33L308.474 304.33L238.97 304.33z" /></clipPath><clipPath id="21"><path d="M238.97 349.81L308.474 349.81L308.474 349.81L308.474 304.33L308.474 304.33L238.97 304.33z" /></clipPath><clipPath id="22"><path d="M238.97 349.81L308.474 349.81L308.474 349.81L308.474 304.33L308.474 304.33L238.97 304.33z" /></clipPath><clipPath id="23"><path d="M308.47 349.81L405.67 349.81L405.67 349.81L405.67 304.33L405.67 304.33L308.47 304.33z" /></clipPath><clipPath id="24"><path d="M308.47 349.81L405.67 349.81L405.67 349.81L405.67 304.33L405.67 304.33L308.47 304.33z" /></clipPath><clipPath id="25"><path d="M308.47 349.81L405.67 349.81L405.67 349.81L405.67 304.33L405.67 304.33L308.47 304.33z" /></clipPath><clipPath id="26"><path d="M308.47 349.81L405.67 349.81L405.67 349.81L405.67 304.33L405.67 304.33L308.47 304.33z" /></clipPath><clipPath id="27"><path d="M308.47 349.81L405.67 349.81L405.67 349.81L405.67 304.33L405.67 304.33L308.47 304.33z" /></clipPath><clipPath id="28"><path d="M129.98 367.81L174.74 367.81L174.74 367.81L174.74 349.81L174.74 349.81L129.98 349.81z" /></clipPath><clipPath id="29"><path d="M129.98 367.81L174.74 367.81L174.74 367.81L174.74 349.81L174.74 349.81L129.98 349.81z" /></clipPath><clipPath id="30"><path d="M174.74 367.81L238.964 367.81L238.964 367.81L238.964 349.81L238.964 349.81L174.74 349.81z" /></clipPath><clipPath id="31"><path d="M174.74 367.81L238.964 367.81L238.964 367.81L238.964 349.81L238.964 349.81L174.74 349.81z" /></clipPath><clipPath id="32"><path d="M174.74 367.81L238.964 367.81L238.964 367.81L238.964 349.81L238.964 349.81L174.74 349.81z" /></clipPath><clipPath id="33"><path d="M238.97 367.81L308.474 367.81L308.474 367.81L308.474 349.81L308.474 349.81L238.97 349.81z" /></clipPath><clipPath id="34"><path d="M238.97 367.81L308.474 367.81L308.474 367.81L308.474 349.81L308.474 349.81L238.97 349.81z" /></clipPath><clipPath id="35"><path d="M238.97 367.81L308.474 367.81L308.474 367.81L308.474 349.81L308.474 349.81L238.97 349.81z" /></clipPath><clipPath id="36"><path d="M308.47 367.81L405.67 367.81L405.67 367.81L405.67 349.81L405.67 349.81L308.47 349.81z" /></clipPath><clipPath id="37"><path d="M308.47 367.81L405.67 367.81L405.67 367.81L405.67 349.81L405.67 349.81L308.47 349.81z" /></clipPath><clipPath id="38"><path d="M308.47 367.81L405.67 367.81L405.67 367.81L405.67 349.81L405.67 349.81L308.47 349.81z" /></clipPath><clipPath id="39"><path d="M129.98 385.81L174.74 385.81L174.74 385.81L174.74 367.81L174.74 367.81L129.98 367.81z" /></clipPath><clipPath id="40"><path d="M129.98 385.81L174.74 385.81L174.74 385.81L174.74 367.81L174.74 367.81L129.98 367.81z" /></clipPath><clipPath id="41"><path d="M129.98 385.81L174.74 385.81L174.74 385.81L174.74 367.81L174.74 367.81L129.98 367.81z" /></clipPath><clipPath id="42"><path d="M174.74 385.81L238.964 385.81L238.964 385.81L238.964 367.81L238.964 367.81L174.74 367.81z" /></clipPath><clipPath id="43"><path d="M174.74 385.81L238.964 385.81L238.964 385.81L238.964 367.81L238.964 367.81L174.74 367.81z" /></clipPath><clipPath id="44"><path d="M174.74 385.81L238.964 385.81L238.964 385.81L238.964 367.81L238.964 367.81L174.74 367.81z" /></clipPath><clipPath id="45"><path d="M238.97 385.81L308.474 385.81L308.474 385.81L308.474 367.81L308.474 367.81L238.97 367.81z" /></clipPath><clipPath id="46"><path d="M238.97 385.81L308.474 385.81L308.474 385.81L308.474 367.81L308.474 367.81L238.97 367.81z" /></clipPath><clipPath id="47"><path d="M238.97 385.81L308.474 385.81L308.474 385.81L308.474 367.81L308.474 367.81L238.97 367.81z" /></clipPath><clipPath id="48"><path d="M308.47 385.81L405.67 385.81L405.67 385.81L405.67 367.81L405.67 367.81L308.47 367.81z" /></clipPath><clipPath id="49"><path d="M308.47 385.81L405.67 385.81L405.67 385.81L405.67 367.81L405.67 367.81L308.47 367.81z" /></clipPath><clipPath id="50"><path d="M308.47 385.81L405.67 385.81L405.67 385.81L405.67 367.81L405.67 367.81L308.47 367.81z" /></clipPath><clipPath id="51"><path d="M308.47 385.81L405.67 385.81L405.67 385.81L405.67 367.81L405.67 367.81L308.47 367.81z" /></clipPath><clipPath id="52"><path d="M129.98 403.81L174.74 403.81L174.74 403.81L174.74 385.81L174.74 385.81L129.98 385.81z" /></clipPath><clipPath id="53"><path d="M129.98 403.81L174.74 403.81L174.74 403.81L174.74 385.81L174.74 385.81L129.98 385.81z" /></clipPath><clipPath id="54"><path d="M174.74 403.81L238.964 403.81L238.964 403.81L238.964 385.81L238.964 385.81L174.74 385.81z" /></clipPath><clipPath id="55"><path d="M174.74 403.81L238.964 403.81L238.964 403.81L238.964 385.81L238.964 385.81L174.74 385.81z" /></clipPath><clipPath id="56"><path d="M174.74 403.81L238.964 403.81L238.964 403.81L238.964 385.81L238.964 385.81L174.74 385.81z" /></clipPath><clipPath id="57"><path d="M238.97 403.81L308.474 403.81L308.474 403.81L308.474 385.81L308.474 385.81L238.97 385.81z" /></clipPath><clipPath id="58"><path d="M238.97 403.81L308.474 403.81L308.474 403.81L308.474 385.81L308.474 385.81L238.97 385.81z" /></clipPath><clipPath id="59"><path d="M238.97 403.81L308.474 403.81L308.474 403.81L308.474 385.81L308.474 385.81L238.97 385.81z" /></clipPath><clipPath id="60"><path d="M308.47 403.81L405.67 403.81L405.67 403.81L405.67 385.81L405.67 385.81L308.47 385.81z" /></clipPath><clipPath id="61"><path d="M308.47 403.81L405.67 403.81L405.67 403.81L405.67 385.81L405.67 385.81L308.47 385.81z" /></clipPath><clipPath id="62"><path d="M308.47 403.81L405.67 403.81L405.67 403.81L405.67 385.81L405.67 385.81L308.47 385.81z" /></clipPath><clipPath id="63"><path d="M129.98 421.83L174.74 421.83L174.74 421.83L174.74 403.806L174.74 403.806L129.98 403.806z" /></clipPath><clipPath id="64"><path d="M129.98 421.83L174.74 421.83L174.74 421.83L174.74 403.806L174.74 403.806L129.98 403.806z" /></clipPath><clipPath id="65"><path d="M129.98 421.83L174.74 421.83L174.74 421.83L174.74 403.806L174.74 403.806L129.98 403.806z" /></clipPath><clipPath id="66"><path d="M174.74 421.83L238.964 421.83L238.964 421.83L238.964 403.806L238.964 403.806L174.74 403.806z" /></clipPath><clipPath id="67"><path d="M174.74 421.83L238.964 421.83L238.964 421.83L238.964 403.806L238.964 403.806L174.74 403.806z" /></clipPath><clipPath id="68"><path d="M174.74 421.83L238.964 421.83L238.964 421.83L238.964 403.806L238.964 403.806L174.74 403.806z" /></clipPath><clipPath id="69"><path d="M238.97 421.83L308.474 421.83L308.474 421.83L308.474 403.806L308.474 403.806L238.97 403.806z" /></clipPath><clipPath id="70"><path d="M238.97 421.83L308.474 421.83L308.474 421.83L308.474 403.806L308.474 403.806L238.97 403.806z" /></clipPath><clipPath id="71"><path d="M238.97 421.83L308.474 421.83L308.474 421.83L308.474 403.806L308.474 403.806L238.97 403.806z" /></clipPath><clipPath id="72"><path d="M308.47 421.83L405.67 421.83L405.67 421.83L405.67 403.806L405.67 403.806L308.47 403.806z" /></clipPath><clipPath id="73"><path d="M308.47 421.83L405.67 421.83L405.67 421.83L405.67 403.806L405.67 403.806L308.47 403.806z" /></clipPath><clipPath id="74"><path d="M308.47 421.83L405.67 421.83L405.67 421.83L405.67 403.806L405.67 403.806L308.47 403.806z" /></clipPath><clipPath id="75"><path d="M129.98 441.39L174.74 441.39L174.74 441.39L174.74 421.83L174.74 421.83L129.98 421.83z" /></clipPath><clipPath id="76"><path d="M129.98 441.39L174.74 441.39L174.74 441.39L174.74 421.83L174.74 421.83L129.98 421.83z" /></clipPath><clipPath id="77"><path d="M129.98 441.39L174.74 441.39L174.74 441.39L174.74 421.83L174.74 421.83L129.98 421.83z" /></clipPath><clipPath id="78"><path d="M174.74 441.39L238.964 441.39L238.964 441.39L238.964 421.83L238.964 421.83L174.74 421.83z" /></clipPath><clipPath id="79"><path d="M174.74 441.39L238.964 441.39L238.964 441.39L238.964 421.83L238.964 421.83L174.74 421.83z" /></clipPath><clipPath id="80"><path d="M174.74 441.39L238.964 441.39L238.964 441.39L238.964 421.83L238.964 421.83L174.74 421.83z" /></clipPath><clipPath id="81"><path d="M238.97 441.39L308.474 441.39L308.474 441.39L308.474 421.83L308.474 421.83L238.97 421.83z" /></clipPath><clipPath id="82"><path d="M238.97 441.39L308.474 441.39L308.474 441.39L308.474 421.83L308.474 421.83L238.97 421.83z" /></clipPath><clipPath id="83"><path d="M238.97 441.39L308.474 441.39L308.474 441.39L308.474 421.83L308.474 421.83L238.97 421.83z" /></clipPath><clipPath id="84"><path d="M308.47 441.39L405.67 441.39L405.67 441.39L405.67 421.83L405.67 421.83L308.47 421.83z" /></clipPath><clipPath id="85"><path d="M308.47 441.39L405.67 441.39L405.67 441.39L405.67 421.83L405.67 421.83L308.47 421.83z" /></clipPath><clipPath id="86"><path d="M308.47 441.39L405.67 441.39L405.67 441.39L405.67 421.83L405.67 421.83L308.47 421.83z" /></clipPath><clipPath id="87"><path d="M129.98 675.9L174.74 675.9L174.74 675.9L174.74 630.42L174.74 630.42L129.98 630.42z" /></clipPath><clipPath id="88"><path d="M129.98 675.9L174.74 675.9L174.74 675.9L174.74 630.42L174.74 630.42L129.98 630.42z" /></clipPath><clipPath id="89"><path d="M129.98 675.9L174.74 675.9L174.74 675.9L174.74 630.42L174.74 630.42L129.98 630.42z" /></clipPath><clipPath id="90"><path d="M129.98 675.9L174.74 675.9L174.74 675.9L174.74 630.42L174.74 630.42L129.98 630.42z" /></clipPath><clipPath id="91"><path d="M129.98 675.9L174.74 675.9L174.74 675.9L174.74 630.42L174.74 630.42L129.98 630.42z" /></clipPath><clipPath id="92"><path d="M129.98 675.9L174.74 675.9L174.74 675.9L174.74 630.42L174.74 630.42L129.98 630.42z" /></clipPath><clipPath id="93"><path d="M174.74 675.9L241.244 675.9L241.244 675.9L241.244 630.42L241.244 630.42L174.74 630.42z" /></clipPath><clipPath id="94"><path d="M174.74 675.9L241.244 675.9L241.244 675.9L241.244 630.42L241.244 630.42L174.74 630.42z" /></clipPath><clipPath id="95"><path d="M174.74 675.9L241.244 675.9L241.244 675.9L241.244 630.42L241.244 630.42L174.74 630.42z" /></clipPath><clipPath id="96"><path d="M174.74 675.9L241.244 675.9L241.244 675.9L241.244 630.42L241.244 630.42L174.74 630.42z" /></clipPath><clipPath id="97"><path d="M174.74 675.9L241.244 675.9L241.244 675.9L241.244 630.42L241.244 630.42L174.74 630.42z" /></clipPath><clipPath id="98"><path d="M174.74 675.9L241.244 675.9L241.244 675.9L241.244 630.42L241.244 630.42L174.74 630.42z" /></clipPath><clipPath id="99"><path d="M241.25 675.9L313.994 675.9L313.994 675.9L313.994 630.42L313.994 630.42L241.25 630.42z" /></clipPath><clipPath id="100"><path d="M241.25 675.9L313.994 675.9L313.994 675.9L313.994 630.42L313.994 630.42L241.25 630.42z" /></clipPath><clipPath id="101"><path d="M241.25 675.9L313.994 675.9L313.994 675.9L313.994 630.42L313.994 630.42L241.25 630.42z" /></clipPath><clipPath id="102"><path d="M241.25 675.9L313.994 675.9L313.994 675.9L313.994 630.42L313.994 630.42L241.25 630.42z" /></clipPath><clipPath id="103"><path d="M241.25 675.9L313.994 675.9L313.994 675.9L313.994 630.42L313.994 630.42L241.25 630.42z" /></clipPath><clipPath id="104"><path d="M241.25 675.9L313.994 675.9L313.994 675.9L313.994 630.42L313.994 630.42L241.25 630.42z" /></clipPath><clipPath id="105"><path d="M313.99 675.9L395.11 675.9L395.11 675.9L395.11 630.42L395.11 630.42L313.99 630.42z" /></clipPath><clipPath id="106"><path d="M313.99 675.9L395.11 675.9L395.11 675.9L395.11 630.42L395.11 630.42L313.99 630.42z" /></clipPath><clipPath id="107"><path d="M313.99 675.9L395.11 675.9L395.11 675.9L395.11 630.42L395.11 630.42L313.99 630.42z" /></clipPath><clipPath id="108"><path d="M313.99 675.9L395.11 675.9L395.11 675.9L395.11 630.42L395.11 630.42L313.99 630.42z" /></clipPath><clipPath id="109"><path d="M313.99 675.9L395.11 675.9L395.11 675.9L395.11 630.42L395.11 630.42L313.99 630.42z" /></clipPath><clipPath id="110"><path d="M129.98 693.9L174.74 693.9L174.74 693.9L174.74 675.9L174.74 675.9L129.98 675.9z" /></clipPath><clipPath id="111"><path d="M129.98 693.9L174.74 693.9L174.74 693.9L174.74 675.9L174.74 675.9L129.98 675.9z" /></clipPath><clipPath id="112"><path d="M129.98 693.9L174.74 693.9L174.74 693.9L174.74 675.9L174.74 675.9L129.98 675.9z" /></clipPath><clipPath id="113"><path d="M174.74 693.9L241.244 693.9L241.244 693.9L241.244 675.9L241.244 675.9L174.74 675.9z" /></clipPath><clipPath id="114"><path d="M174.74 693.9L241.244 693.9L241.244 693.9L241.244 675.9L241.244 675.9L174.74 675.9z" /></clipPath><clipPath id="115"><path d="M174.74 693.9L241.244 693.9L241.244 693.9L241.244 675.9L241.244 675.9L174.74 675.9z" /></clipPath><clipPath id="116"><path d="M241.25 693.9L313.994 693.9L313.994 693.9L313.994 675.9L313.994 675.9L241.25 675.9z" /></clipPath><clipPath id="117"><path d="M241.25 693.9L313.994 693.9L313.994 693.9L313.994 675.9L313.994 675.9L241.25 675.9z" /></clipPath><clipPath id="118"><path d="M241.25 693.9L313.994 693.9L313.994 693.9L313.994 675.9L313.994 675.9L241.25 675.9z" /></clipPath><clipPath id="119"><path d="M313.99 693.9L395.11 693.9L395.11 693.9L395.11 675.9L395.11 675.9L313.99 675.9z" /></clipPath><clipPath id="120"><path d="M313.99 693.9L395.11 693.9L395.11 693.9L395.11 675.9L395.11 675.9L313.99 675.9z" /></clipPath><clipPath id="121"><path d="M313.99 693.9L395.11 693.9L395.11 693.9L395.11 675.9L395.11 675.9L313.99 675.9z" /></clipPath><clipPath id="122"><path d="M129.98 711.9L174.74 711.9L174.74 711.9L174.74 693.9L174.74 693.9L129.98 693.9z" /></clipPath><clipPath id="123"><path d="M129.98 711.9L174.74 711.9L174.74 711.9L174.74 693.9L174.74 693.9L129.98 693.9z" /></clipPath><clipPath id="124"><path d="M174.74 711.9L241.244 711.9L241.244 711.9L241.244 693.9L241.244 693.9L174.74 693.9z" /></clipPath><clipPath id="125"><path d="M174.74 711.9L241.244 711.9L241.244 711.9L241.244 693.9L241.244 693.9L174.74 693.9z" /></clipPath><clipPath id="126"><path d="M174.74 711.9L241.244 711.9L241.244 711.9L241.244 693.9L241.244 693.9L174.74 693.9z" /></clipPath><clipPath id="127"><path d="M241.25 711.9L313.994 711.9L313.994 711.9L313.994 693.9L313.994 693.9L241.25 693.9z" /></clipPath><clipPath id="128"><path d="M241.25 711.9L313.994 711.9L313.994 711.9L313.994 693.9L313.994 693.9L241.25 693.9z" /></clipPath><clipPath id="129"><path d="M241.25 711.9L313.994 711.9L313.994 711.9L313.994 693.9L313.994 693.9L241.25 693.9z" /></clipPath><clipPath id="130"><path d="M313.99 711.9L395.11 711.9L395.11 711.9L395.11 693.9L395.11 693.9L313.99 693.9z" /></clipPath><clipPath id="131"><path d="M313.99 711.9L395.11 711.9L395.11 711.9L395.11 693.9L395.11 693.9L313.99 693.9z" /></clipPath><clipPath id="132"><path d="M313.99 711.9L395.11 711.9L395.11 711.9L395.11 693.9L395.11 693.9L313.99 693.9z" /></clipPath><clipPath id="133"><path d="M129.98 729.9L174.74 729.9L174.74 729.9L174.74 711.9L174.74 711.9L129.98 711.9z" /></clipPath><clipPath id="134"><path d="M129.98 729.9L174.74 729.9L174.74 729.9L174.74 711.9L174.74 711.9L129.98 711.9z" /></clipPath><clipPath id="135"><path d="M129.98 729.9L174.74 729.9L174.74 729.9L174.74 711.9L174.74 711.9L129.98 711.9z" /></clipPath><clipPath id="136"><path d="M174.74 729.9L241.244 729.9L241.244 729.9L241.244 711.9L241.244 711.9L174.74 711.9z" /></clipPath><clipPath id="137"><path d="M174.74 729.9L241.244 729.9L241.244 729.9L241.244 711.9L241.244 711.9L174.74 711.9z" /></clipPath><clipPath id="138"><path d="M174.74 729.9L241.244 729.9L241.244 729.9L241.244 711.9L241.244 711.9L174.74 711.9z" /></clipPath><clipPath id="139"><path d="M241.25 729.9L313.994 729.9L313.994 729.9L313.994 711.9L313.994 711.9L241.25 711.9z" /></clipPath><clipPath id="140"><path d="M241.25 729.9L313.994 729.9L313.994 729.9L313.994 711.9L313.994 711.9L241.25 711.9z" /></clipPath><clipPath id="141"><path d="M241.25 729.9L313.994 729.9L313.994 729.9L313.994 711.9L313.994 711.9L241.25 711.9z" /></clipPath><clipPath id="142"><path d="M313.99 729.9L395.11 729.9L395.11 729.9L395.11 711.9L395.11 711.9L313.99 711.9z" /></clipPath><clipPath id="143"><path d="M313.99 729.9L395.11 729.9L395.11 729.9L395.11 711.9L395.11 711.9L313.99 711.9z" /></clipPath><clipPath id="144"><path d="M313.99 729.9L395.11 729.9L395.11 729.9L395.11 711.9L395.11 711.9L313.99 711.9z" /></clipPath><clipPath id="145"><path d="M129.98 749.456L174.74 749.456L174.74 749.456L174.74 729.896L174.74 729.896L129.98 729.896z" /></clipPath><clipPath id="146"><path d="M129.98 749.456L174.74 749.456L174.74 749.456L174.74 729.896L174.74 729.896L129.98 729.896z" /></clipPath><clipPath id="147"><path d="M174.74 749.456L241.244 749.456L241.244 749.456L241.244 729.896L241.244 729.896L174.74 729.896z" /></clipPath><clipPath id="148"><path d="M174.74 749.456L241.244 749.456L241.244 749.456L241.244 729.896L241.244 729.896L174.74 729.896z" /></clipPath><clipPath id="149"><path d="M174.74 749.456L241.244 749.456L241.244 749.456L241.244 729.896L241.244 729.896L174.74 729.896z" /></clipPath><clipPath id="150"><path d="M241.25 749.456L313.994 749.456L313.994 749.456L313.994 729.896L313.994 729.896L241.25 729.896z" /></clipPath><clipPath id="151"><path d="M241.25 749.456L313.994 749.456L313.994 749.456L313.994 729.896L313.994 729.896L241.25 729.896z" /></clipPath><clipPath id="152"><path d="M241.25 749.456L313.994 749.456L313.994 749.456L313.994 729.896L313.994 729.896L241.25 729.896z" /></clipPath><clipPath id="153"><path d="M313.99 749.456L395.11 749.456L395.11 749.456L395.11 729.896L395.11 729.896L313.99 729.896z" /></clipPath><clipPath id="154"><path d="M313.99 749.456L395.11 749.456L395.11 749.456L395.11 729.896L395.11 729.896L313.99 729.896z" /></clipPath><clipPath id="155"><path d="M313.99 749.456L395.11 749.456L395.11 749.456L395.11 729.896L395.11 729.896L313.99 729.896z" /></clipPath></defs><g transform="matrix(1.333333 0 0 1.333333 0 0)"><g><g clip-path="url(#1)"><g clip-path="url(#2)"><g clip-path="url(#3)"></g><g clip-path="url(#4)"></g></g><g transform="matrix(0.3614131 0 0 0.3625 127.2 88.06)"><g transform="matrix(1 0 0 1 0 0)"><image x="0" y="0" xlink:href="img_26.png" width="184" height="44" /></g></g><g clip-path="url(#5)"><g clip-path="url(#6)"></g><g clip-path="url(#7)"></g><g clip-path="url(#8)"></g><g clip-path="url(#9)"></g><g clip-path="url(#10)"></g></g><g clip-path="url(#11)"><g clip-path="url(#12)"></g><g clip-path="url(#13)"></g><g clip-path="url(#14)"></g><g clip-path="url(#15)"></g><g clip-path="url(#16)"></g></g><g clip-path="url(#17)"><g clip-path="url(#18)"></g><g clip-path="url(#19)"></g><g clip-path="url(#20)"></g><g clip-path="url(#21)"></g><g clip-path="url(#22)"></g></g><g clip-path="url(#23)"><g clip-path="url(#24)"></g><g clip-path="url(#25)"></g><g clip-path="url(#26)"></g><g clip-path="url(#27)"></g></g><g clip-path="url(#28)"><g clip-path="url(#29)"></g></g><g clip-path="url(#30)"><g clip-path="url(#31)"></g><g clip-path="url(#32)"></g></g><g clip-path="url(#33)"><g clip-path="url(#34)"></g><g clip-path="url(#35)"></g></g><g clip-path="url(#36)"><g clip-path="url(#37)"></g><g clip-path="url(#38)"></g></g><g clip-path="url(#39)"><g clip-path="url(#40)"></g><g clip-path="url(#41)"></g></g><g clip-path="url(#42)"><g clip-path="url(#43)"></g><g clip-path="url(#44)"></g></g><g clip-path="url(#45)"><g clip-path="url(#46)"></g><g clip-path="url(#47)"></g></g><g clip-path="url(#48)"><g clip-path="url(#49)"></g><g clip-path="url(#50)"></g><g clip-path="url(#51)"></g></g><g clip-path="url(#52)"><g clip-path="url(#53)"></g></g><g clip-path="url(#54)"><g clip-path="url(#55)"></g><g clip-path="url(#56)"></g></g><g clip-path="url(#57)"><g clip-path="url(#58)"></g><g clip-path="url(#59)"></g></g><g clip-path="url(#60)"><g clip-path="url(#61)"></g><g clip-path="url(#62)"></g></g><g clip-path="url(#63)"><g clip-path="url(#64)"></g><g clip-path="url(#65)"></g></g><g clip-path="url(#66)"><g clip-path="url(#67)"></g><g clip-path="url(#68)"></g></g><g clip-path="url(#69)"><g clip-path="url(#70)"></g><g clip-path="url(#71)"></g></g><g clip-path="url(#72)"><g clip-path="url(#73)"></g><g clip-path="url(#74)"></g></g><g clip-path="url(#75)"><g clip-path="url(#76)"></g><g clip-path="url(#77)"></g></g><g clip-path="url(#78)"><g clip-path="url(#79)"></g><g clip-path="url(#80)"></g></g><g clip-path="url(#81)"><g clip-path="url(#82)"></g><g clip-path="url(#83)"></g></g><g clip-path="url(#84)"><g clip-path="url(#85)"></g><g clip-path="url(#86)"></g></g><g clip-path="url(#87)"><g clip-path="url(#88)"></g><g clip-path="url(#89)"></g><g clip-path="url(#90)"></g><g clip-path="url(#91)"></g><g clip-path="url(#92)"></g></g><g clip-path="url(#93)"><g clip-path="url(#94)"></g><g clip-path="url(#95)"></g><g clip-path="url(#96)"></g><g clip-path="url(#97)"></g><g clip-path="url(#98)"></g></g><g clip-path="url(#99)"><g clip-path="url(#100)"></g><g clip-path="url(#101)"></g><g clip-path="url(#102)"></g><g clip-path="url(#103)"></g><g clip-path="url(#104)"></g></g><g clip-path="url(#105)"><g clip-path="url(#106)"></g><g clip-path="url(#107)"></g><g clip-path="url(#108)"></g><g clip-path="url(#109)"></g></g><g clip-path="url(#110)"><g clip-path="url(#111)"></g><g clip-path="url(#112)"></g></g><g clip-path="url(#113)"><g clip-path="url(#114)"></g><g clip-path="url(#115)"></g></g><g clip-path="url(#116)"><g clip-path="url(#117)"></g><g clip-path="url(#118)"></g></g><g clip-path="url(#119)"><g clip-path="url(#120)"></g><g clip-path="url(#121)"></g></g><g clip-path="url(#122)"><g clip-path="url(#123)"></g></g><g clip-path="url(#124)"><g clip-path="url(#125)"></g><g clip-path="url(#126)"></g></g><g clip-path="url(#127)"><g clip-path="url(#128)"></g><g clip-path="url(#129)"></g></g><g clip-path="url(#130)"><g clip-path="url(#131)"></g><g clip-path="url(#132)"></g></g><g clip-path="url(#133)"><g clip-path="url(#134)"></g><g clip-path="url(#135)"></g></g><g clip-path="url(#136)"><g clip-path="url(#137)"></g><g clip-path="url(#138)"></g></g><g clip-path="url(#139)"><g clip-path="url(#140)"></g><g clip-path="url(#141)"></g></g><g clip-path="url(#142)"><g clip-path="url(#143)"></g><g clip-path="url(#144)"></g></g><g clip-path="url(#145)"><g clip-path="url(#146)"></g></g><g clip-path="url(#147)"><g clip-path="url(#148)"></g><g clip-path="url(#149)"></g></g><g clip-path="url(#150)"><g clip-path="url(#151)"></g><g clip-path="url(#152)"></g></g><g clip-path="url(#153)"><g clip-path="url(#154)"></g><g clip-path="url(#155)"></g></g></g></g></g></svg>