<svg xmlns="http://www.w3.org/2000/svg" xmlns:xlink="http://www.w3.org/1999/xlink" id="body_123" preserveAspectRatio="xMinYMin meet" viewBox="0 0 793 1123"><defs><clipPath id="1"><path d="M0 842L0 -0.03997803L0 -0.03997803L595.32 -0.03997803L595.32 -0.03997803L595.32 842L595.32 842L0 842z" /></clipPath><clipPath id="2"><path d="M487.78 782.72L507.46 782.72L507.46 782.72L507.46 770.24L507.46 770.24L487.78 770.24z" /></clipPath><clipPath id="3"><path d="M487.78 782.72L507.46 782.72L507.46 782.72L507.46 770.24L507.46 770.24L487.78 770.24z" /></clipPath><clipPath id="4"><path d="M487.78 782.72L507.46 782.72L507.46 782.72L507.46 770.24L507.46 770.24L487.78 770.24z" /></clipPath></defs><g transform="matrix(1.333333 0 0 1.333333 0 0)"><g><g clip-path="url(#1)"><g clip-path="url(#2)"><g clip-path="url(#3)"></g><g clip-path="url(#4)"></g></g><path transform="matrix(1 0 0 -1 0 842)" d="M132.02 662.14L232.72 662.14L232.72 662.14L232.72 662.62L232.72 662.62L132.02 662.62z" stroke="none" fill="#C35454" fill-rule="evenodd" /><path transform="matrix(1 0 0 -1 0 842)" d="M201.53 516.91L389.35 516.91L389.35 516.91L389.35 517.39L389.35 517.39L201.53 517.39z" stroke="none" fill="#C35454" fill-rule="evenodd" /><path transform="matrix(1 0 0 -1 0 842)" d="M196.25 286.73L256.61 286.73L256.61 286.73L256.61 287.21L256.61 287.21L196.25 287.21z" stroke="none" fill="#C35454" fill-rule="evenodd" /><path transform="matrix(1 0 0 -1 0 842)" d="M196.25 268.85L271.61 268.85L271.61 268.85L271.61 269.33L271.61 269.33L196.25 269.33z" stroke="none" fill="#C35454" fill-rule="evenodd" /><path transform="matrix(1 0 0 -1 0 842)" d="M132.02 250.82L209.204 250.82L209.204 250.82L209.204 251.3L209.204 251.3L132.02 251.3z" stroke="none" fill="#C35454" fill-rule="evenodd" /></g></g></g></svg>