<svg xmlns="http://www.w3.org/2000/svg" xmlns:xlink="http://www.w3.org/1999/xlink" id="body_155" preserveAspectRatio="xMinYMin meet" viewBox="0 0 793 1123"><defs><clipPath id="1"><path d="M0 842L0 -0.03997803L0 -0.03997803L595.32 -0.03997803L595.32 -0.03997803L595.32 842L595.32 842L0 842z" /></clipPath><clipPath id="2"><path d="M487.78 782.72L507.46 782.72L507.46 782.72L507.46 770.24L507.46 770.24L487.78 770.24z" /></clipPath><clipPath id="3"><path d="M487.78 782.72L507.46 782.72L507.46 782.72L507.46 770.24L507.46 770.24L487.78 770.24z" /></clipPath><clipPath id="4"><path d="M487.78 782.72L507.46 782.72L507.46 782.72L507.46 770.24L507.46 770.24L487.78 770.24z" /></clipPath></defs><g transform="matrix(1.333333 0 0 1.333333 0 0)"><g><g clip-path="url(#1)"><g clip-path="url(#2)"><g clip-path="url(#3)"></g><g clip-path="url(#4)"></g></g><path transform="matrix(1 0 0 -1 0 842)" d="M225.75 761.94L315.75 761.94" stroke="#000000" stroke-width="0.75" stroke-linecap="round" fill="none" /><path transform="matrix(1 0 0 -1 0 842)" d="M444.75 728.94L444.75 722.94L444.75 722.94L449.75 725.44L449.75 725.44L445.75 725.44L445.75 725.44L445.75 726.44L445.75 726.44L449.75 726.44L449.75 726.44L444.75 728.94z" stroke="none" fill="#000000" fill-rule="evenodd" /><path transform="matrix(1 0 0 -1 0 842)" d="M144.75 725.44L444.75 725.44L444.75 725.44L444.75 726.44L444.75 726.44L144.75 726.44z" stroke="none" fill="#000000" fill-rule="evenodd" /><path transform="matrix(1 0 0 -1 0 842)" d="M449.75 726.44L445.75 726.44L445.75 726.44L445.75 725.44L445.75 725.44L449.75 725.44L449.75 725.44L450.75 725.94L450.75 725.94L449.75 726.44z" stroke="none" fill="#000000" fill-rule="evenodd" /><path transform="matrix(1 0 0 -1 0 842)" d="M315.25 731.94L312.75 731.94L312.75 731.94L315.75 725.94L315.75 725.94L318.25 730.94L318.25 730.94L315.25 730.94L315.25 730.94L315.25 731.94z" stroke="none" fill="#000000" fill-rule="evenodd" /><path transform="matrix(1 0 0 -1 0 842)" d="M315.25 730.94L316.25 730.94L316.25 730.94L316.25 761.94L316.25 761.94L315.25 761.94z" stroke="none" fill="#000000" fill-rule="evenodd" /><path transform="matrix(1 0 0 -1 0 842)" d="M318.75 731.94L316.25 731.94L316.25 731.94L316.25 730.94L316.25 730.94L318.25 730.94L318.25 730.94L318.75 731.94z" stroke="none" fill="#000000" fill-rule="evenodd" /><path transform="matrix(1 0 0 -1 0 842)" d="M229.45 499.34L319.45 499.34" stroke="#000000" stroke-width="0.75" stroke-linecap="round" fill="none" /><path transform="matrix(1 0 0 -1 0 842)" d="M448.45 466.34L448.45 460.34L448.45 460.34L453.45 462.84L453.45 462.84L449.45 462.84L449.45 462.84L449.45 463.84L449.45 463.84L453.45 463.84L453.45 463.84L448.45 466.34z" stroke="none" fill="#000000" fill-rule="evenodd" /><path transform="matrix(1 0 0 -1 0 842)" d="M148.45 462.84L448.45 462.84L448.45 462.84L448.45 463.84L448.45 463.84L148.45 463.84z" stroke="none" fill="#000000" fill-rule="evenodd" /><path transform="matrix(1 0 0 -1 0 842)" d="M453.45 463.84L449.45 463.84L449.45 463.84L449.45 462.84L449.45 462.84L453.45 462.84L453.45 462.84L454.45 463.34L454.45 463.34L453.45 463.84z" stroke="none" fill="#000000" fill-rule="evenodd" /><path transform="matrix(1 0 0 -1 0 842)" d="M318.95 469.34L316.45 469.34L316.45 469.34L319.45 463.34L319.45 463.34L321.95 468.34L321.95 468.34L318.95 468.34L318.95 468.34L318.95 469.34z" stroke="none" fill="#000000" fill-rule="evenodd" /><path transform="matrix(1 0 0 -1 0 842)" d="M318.95 468.34L319.95 468.34L319.95 468.34L319.95 499.34L319.95 499.34L318.95 499.34z" stroke="none" fill="#000000" fill-rule="evenodd" /><path transform="matrix(1 0 0 -1 0 842)" d="M322.45 469.34L319.95 469.34L319.95 469.34L319.95 468.34L319.95 468.34L321.95 468.34L321.95 468.34L322.45 469.34z" stroke="none" fill="#000000" fill-rule="evenodd" /><path transform="matrix(1 0 0 -1 0 842)" d="M236.09 594.82L280.73 594.82L280.73 594.82L280.73 595.3L280.73 595.3L236.09 595.3z" stroke="none" fill="#C35454" fill-rule="evenodd" /><path transform="matrix(1 0 0 -1 0 842)" d="M315.67 594.82L402.79 594.82L402.79 594.82L402.79 595.3L402.79 595.3L315.67 595.3z" stroke="none" fill="#C35454" fill-rule="evenodd" /><path transform="matrix(1 0 0 -1 0 842)" d="M132.02 575.71L150.02 575.71L150.02 575.71L150.02 576.19L150.02 576.19L132.02 576.19z" stroke="none" fill="#C35454" fill-rule="evenodd" /><path transform="matrix(1 0 0 -1 0 842)" d="M138.02 241.94L184.004 241.94L184.004 241.94L184.004 242.42L184.004 242.42L138.02 242.42z" stroke="none" fill="#C35454" fill-rule="evenodd" /><path transform="matrix(1 0 0 -1 0 842)" d="M204.65 241.94L254.45 241.94L254.45 241.94L254.45 242.42L254.45 242.42L204.65 242.42z" stroke="none" fill="#C35454" fill-rule="evenodd" /><path transform="matrix(1 0 0 -1 0 842)" d="M138.02 222.86L182.924 222.86L182.924 222.86L182.924 223.34L182.924 223.34L138.02 223.34z" stroke="none" fill="#C35454" fill-rule="evenodd" /><path transform="matrix(1 0 0 -1 0 842)" d="M230.45 222.86L280.13 222.86L280.13 222.86L280.13 223.34L280.13 223.34L230.45 223.34z" stroke="none" fill="#C35454" fill-rule="evenodd" /></g></g></g></svg>