<svg xmlns="http://www.w3.org/2000/svg" xmlns:xlink="http://www.w3.org/1999/xlink" id="body_287" preserveAspectRatio="xMinYMin meet" viewBox="0 0 793 1123"><defs><clipPath id="1"><path d="M0 842L0 -0.03997803L0 -0.03997803L595.32 -0.03997803L595.32 -0.03997803L595.32 842L595.32 842L0 842z" /></clipPath><clipPath id="2"><path d="M487.78 782.72L507.46 782.72L507.46 782.72L507.46 770.24L507.46 770.24L487.78 770.24z" /></clipPath><clipPath id="3"><path d="M487.78 782.72L507.46 782.72L507.46 782.72L507.46 770.24L507.46 770.24L487.78 770.24z" /></clipPath><clipPath id="4"><path d="M487.78 782.72L507.46 782.72L507.46 782.72L507.46 770.24L507.46 770.24L487.78 770.24z" /></clipPath></defs><g transform="matrix(1.333333 0 0 1.333333 0 0)"><g><g clip-path="url(#1)"><g clip-path="url(#2)"><g clip-path="url(#3)"></g><g clip-path="url(#4)"></g></g><path transform="matrix(1 0 0 -1 0 842)" d="M167.54 761.4L214.244 761.4L214.244 761.4L214.244 761.88L214.244 761.88L167.54 761.88z" stroke="none" fill="#C35454" fill-rule="evenodd" /><path transform="matrix(1 0 0 -1 0 842)" d="M142.58 696.1L171.74 696.1L171.74 696.1L171.74 696.58L171.74 696.58L142.58 696.58z" stroke="none" fill="#C35454" fill-rule="evenodd" /><path transform="matrix(1 0 0 -1 0 842)" d="M142.58 646.66L246.04 646.66L246.04 646.66L246.04 647.14L246.04 647.14L142.58 647.14z" stroke="none" fill="#C35454" fill-rule="evenodd" /><path transform="matrix(1 0 0 -1 0 842)" d="M156.98 541.99L387.91 541.99L387.91 541.99L387.91 542.47L387.91 542.47L156.98 542.47z" stroke="none" fill="#C35454" fill-rule="evenodd" /><path transform="matrix(1 0 0 -1 0 842)" d="M156.98 435.43L413.61 435.43L413.61 435.43L413.61 435.91L413.61 435.91L156.98 435.91z" stroke="none" fill="#C35454" fill-rule="evenodd" /><path transform="matrix(1 0 0 -1 0 842)" d="M156.98 352.37L413.37 352.37L413.37 352.37L413.37 352.85L413.37 352.85L156.98 352.85z" stroke="none" fill="#C35454" fill-rule="evenodd" /><path transform="matrix(1 0 0 -1 0 842)" d="M207.65 230.78L296.714 230.78L296.714 230.78L296.714 231.26L296.714 231.26L207.65 231.26z" stroke="none" fill="#C35454" fill-rule="evenodd" /><path transform="matrix(1 0 0 -1 0 842)" d="M142.58 210.26L242.8 210.26L242.8 210.26L242.8 210.74L242.8 210.74L142.58 210.74z" stroke="none" fill="#C35454" fill-rule="evenodd" /></g></g></g></svg>