<svg xmlns="http://www.w3.org/2000/svg" xmlns:xlink="http://www.w3.org/1999/xlink" id="body_265" preserveAspectRatio="xMinYMin meet" viewBox="0 0 793 1123"><defs><clipPath id="1"><path d="M0 842L0 -0.03997803L0 -0.03997803L595.32 -0.03997803L595.32 -0.03997803L595.32 842L595.32 842L0 842z" /></clipPath><clipPath id="2"><path d="M487.78 782.72L507.46 782.72L507.46 782.72L507.46 770.24L507.46 770.24L487.78 770.24z" /></clipPath><clipPath id="3"><path d="M487.78 782.72L507.46 782.72L507.46 782.72L507.46 770.24L507.46 770.24L487.78 770.24z" /></clipPath><clipPath id="4"><path d="M487.78 782.72L507.46 782.72L507.46 782.72L507.46 770.24L507.46 770.24L487.78 770.24z" /></clipPath></defs><g transform="matrix(1.333333 0 0 1.333333 0 0)"><g><g clip-path="url(#1)"><g clip-path="url(#2)"><g clip-path="url(#3)"></g><g clip-path="url(#4)"></g></g><path transform="matrix(1 0 0 -1 0 842)" d="M132.02 738.94L278.92 738.94L278.92 738.94L278.92 739.42L278.92 739.42L132.02 739.42z" stroke="none" fill="#C35454" fill-rule="evenodd" /><path transform="matrix(1 0 0 -1 0 842)" d="M298.99 738.94L350.59 738.94L350.59 738.94L350.59 739.42L350.59 739.42L298.99 739.42z" stroke="none" fill="#C35454" fill-rule="evenodd" /><path transform="matrix(1 0 0 -1 0 842)" d="M138.02 602.62L185.684 602.62L185.684 602.62L185.684 603.1L185.684 603.1L138.02 603.1z" stroke="none" fill="#C35454" fill-rule="evenodd" /><path transform="matrix(1 0 0 -1 0 842)" d="M257.21 602.62L417.1 602.62L417.1 602.62L417.1 603.1L417.1 603.1L257.21 603.1z" stroke="none" fill="#C35454" fill-rule="evenodd" /><path transform="matrix(1 0 0 -1 0 842)" d="M132.02 466.99L156.26 466.99L156.26 466.99L156.26 467.47L156.26 467.47L132.02 467.47z" stroke="none" fill="#C35454" fill-rule="evenodd" /><path transform="matrix(1 0 0 -1 0 842)" d="M247.01 466.99L320.714 466.99L320.714 466.99L320.714 467.47L320.714 467.47L247.01 467.47z" stroke="none" fill="#C35454" fill-rule="evenodd" /><path transform="matrix(1 0 0 -1 0 842)" d="M152.78 331.85L202.844 331.85L202.844 331.85L202.844 332.33L202.844 332.33L152.78 332.33z" stroke="none" fill="#C35454" fill-rule="evenodd" /><path transform="matrix(1 0 0 -1 0 842)" d="M254.21 331.85L327.434 331.85L327.434 331.85L327.434 332.33L327.434 332.33L254.21 332.33z" stroke="none" fill="#C35454" fill-rule="evenodd" /><path transform="matrix(1 0 0 -1 0 842)" d="M184.37 195.62L200.33 195.62L200.33 195.62L200.33 196.1L200.33 196.1L184.37 196.1z" stroke="none" fill="#C35454" fill-rule="evenodd" /><path transform="matrix(1 0 0 -1 0 842)" d="M279.89 195.62L439.9 195.62L439.9 195.62L439.9 196.1L439.9 196.1L279.89 196.1z" stroke="none" fill="#C35454" fill-rule="evenodd" /></g></g></g></svg>