<svg xmlns="http://www.w3.org/2000/svg" xmlns:xlink="http://www.w3.org/1999/xlink" id="body_152" preserveAspectRatio="xMinYMin meet" viewBox="0 0 793 1123"><defs><clipPath id="1"><path d="M0 842L0 -0.03997803L0 -0.03997803L595.32 -0.03997803L595.32 -0.03997803L595.32 842L595.32 842L0 842z" /></clipPath><clipPath id="2"><path d="M87.984 782.72L161.304 782.72L161.304 782.72L161.304 770.24L161.304 770.24L87.984 770.24z" /></clipPath><clipPath id="3"><path d="M87.984 782.72L161.304 782.72L161.304 782.72L161.304 770.24L161.304 770.24L87.984 770.24z" /></clipPath><clipPath id="4"><path d="M87.984 782.72L161.304 782.72L161.304 782.72L161.304 770.24L161.304 770.24L87.984 770.24z" /></clipPath><clipPath id="5"><path d="M87.984 782.72L161.304 782.72L161.304 782.72L161.304 770.24L161.304 770.24L87.984 770.24z" /></clipPath><clipPath id="6"><path d="M87.984 782.72L161.304 782.72L161.304 782.72L161.304 770.24L161.304 770.24L87.984 770.24z" /></clipPath><clipPath id="7"><path d="M87.984 782.72L161.304 782.72L161.304 782.72L161.304 770.24L161.304 770.24L87.984 770.24z" /></clipPath><clipPath id="8"><path d="M87.984 782.72L161.304 782.72L161.304 782.72L161.304 770.24L161.304 770.24L87.984 770.24z" /></clipPath></defs><g transform="matrix(1.333333 0 0 1.333333 0 0)"><g><g clip-path="url(#1)"><g clip-path="url(#2)"><g clip-path="url(#3)"></g><g clip-path="url(#4)"></g><g clip-path="url(#5)"></g><g clip-path="url(#6)"></g><g clip-path="url(#7)"></g><g clip-path="url(#8)"></g></g><path transform="matrix(1 0 0 -1 0 842)" d="M200.95 319.19L272.95 319.19" stroke="#000000" stroke-width="0.75" stroke-linecap="round" fill="none" /><path transform="matrix(1 0 0 -1 0 842)" d="M437.95 286.19L437.95 280.19L437.95 280.19L442.95 282.69L442.95 282.69L438.95 282.69L438.95 282.69L438.95 283.69L438.95 283.69L442.95 283.69L442.95 283.69L437.95 286.19z" stroke="none" fill="#000000" fill-rule="evenodd" /><path transform="matrix(1 0 0 -1 0 842)" d="M155.95 282.69L437.95 282.69L437.95 282.69L437.95 283.69L437.95 283.69L155.95 283.69z" stroke="none" fill="#000000" fill-rule="evenodd" /><path transform="matrix(1 0 0 -1 0 842)" d="M442.95 283.69L438.95 283.69L438.95 283.69L438.95 282.69L438.95 282.69L442.95 282.69L442.95 282.69L443.95 283.19L443.95 283.19L442.95 283.69z" stroke="none" fill="#000000" fill-rule="evenodd" /><path transform="matrix(1 0 0 -1 0 842)" d="M272.45 289.19L269.95 289.19L269.95 289.19L272.95 283.19L272.95 283.19L275.45 288.19L275.45 288.19L272.45 288.19L272.45 288.19L272.45 289.19z" stroke="none" fill="#000000" fill-rule="evenodd" /><path transform="matrix(1 0 0 -1 0 842)" d="M272.45 288.19L273.45 288.19L273.45 288.19L273.45 319.19L273.45 319.19L272.45 319.19z" stroke="none" fill="#000000" fill-rule="evenodd" /><path transform="matrix(1 0 0 -1 0 842)" d="M275.95 289.19L273.45 289.19L273.45 289.19L273.45 288.19L273.45 288.19L275.45 288.19L275.45 288.19L275.95 289.19z" stroke="none" fill="#000000" fill-rule="evenodd" /><g transform="matrix(0.3611413 0 0 0.3625 234.85 88.06)"><g transform="matrix(1 0 0 1 0 0)"><image x="0" y="0" xlink:href="img_26.png" width="184" height="44" /></g></g><path transform="matrix(1 0 0 -1 0 842)" d="M180.65 395.57L330.91 395.57L330.91 395.57L330.91 396.05L330.91 396.05L180.65 396.05z" stroke="none" fill="#C35454" fill-rule="evenodd" /><path transform="matrix(1 0 0 -1 0 842)" d="M244.13 124.58L284.33 124.58L284.33 124.58L284.33 125.06L284.33 125.06L244.13 125.06z" stroke="none" fill="#C35454" fill-rule="evenodd" /><path transform="matrix(1 0 0 -1 0 842)" d="M310.63 124.58L457.17 124.58L457.17 124.58L457.17 125.06L457.17 125.06L310.63 125.06z" stroke="none" fill="#C35454" fill-rule="evenodd" /></g></g></g></svg>