<svg xmlns="http://www.w3.org/2000/svg" xmlns:xlink="http://www.w3.org/1999/xlink" id="body_160" preserveAspectRatio="xMinYMin meet" viewBox="0 0 793 1123"><defs><clipPath id="1"><path d="M0 842L0 -0.03997803L0 -0.03997803L595.32 -0.03997803L595.32 -0.03997803L595.32 842L595.32 842L0 842z" /></clipPath><clipPath id="2"><path d="M487.78 782.72L507.46 782.72L507.46 782.72L507.46 770.24L507.46 770.24L487.78 770.24z" /></clipPath><clipPath id="3"><path d="M487.78 782.72L507.46 782.72L507.46 782.72L507.46 770.24L507.46 770.24L487.78 770.24z" /></clipPath><clipPath id="4"><path d="M487.78 782.72L507.46 782.72L507.46 782.72L507.46 770.24L507.46 770.24L487.78 770.24z" /></clipPath></defs><g transform="matrix(1.333333 0 0 1.333333 0 0)"><g><g clip-path="url(#1)"><g clip-path="url(#2)"><g clip-path="url(#3)"></g><g clip-path="url(#4)"></g></g><path transform="matrix(1 0 0 -1 0 842)" d="M227.95 743.94L317.95 743.94" stroke="#000000" stroke-width="0.75" stroke-linecap="round" fill="none" /><path transform="matrix(1 0 0 -1 0 842)" d="M446.95 710.94L446.95 704.94L446.95 704.94L451.95 707.44L451.95 707.44L447.95 707.44L447.95 707.44L447.95 708.44L447.95 708.44L451.95 708.44L451.95 708.44L446.95 710.94z" stroke="none" fill="#000000" fill-rule="evenodd" /><path transform="matrix(1 0 0 -1 0 842)" d="M146.95 707.44L446.95 707.44L446.95 707.44L446.95 708.44L446.95 708.44L146.95 708.44z" stroke="none" fill="#000000" fill-rule="evenodd" /><path transform="matrix(1 0 0 -1 0 842)" d="M451.95 708.44L447.95 708.44L447.95 708.44L447.95 707.44L447.95 707.44L451.95 707.44L451.95 707.44L452.95 707.94L452.95 707.94L451.95 708.44z" stroke="none" fill="#000000" fill-rule="evenodd" /><path transform="matrix(1 0 0 -1 0 842)" d="M317.45 713.94L314.95 713.94L314.95 713.94L317.95 707.94L317.95 707.94L320.45 712.94L320.45 712.94L317.45 712.94L317.45 712.94L317.45 713.94z" stroke="none" fill="#000000" fill-rule="evenodd" /><path transform="matrix(1 0 0 -1 0 842)" d="M317.45 712.94L318.45 712.94L318.45 712.94L318.45 743.94L318.45 743.94L317.45 743.94z" stroke="none" fill="#000000" fill-rule="evenodd" /><path transform="matrix(1 0 0 -1 0 842)" d="M320.95 713.94L318.45 713.94L318.45 713.94L318.45 712.94L318.45 712.94L320.45 712.94L320.45 712.94L320.95 713.94z" stroke="none" fill="#000000" fill-rule="evenodd" /><path transform="matrix(1 0 0 -1 0 842)" d="M227.95 397.29L317.95 397.29" stroke="#000000" stroke-width="0.75" stroke-linecap="round" fill="none" /><path transform="matrix(1 0 0 -1 0 842)" d="M446.95 364.29L446.95 358.29L446.95 358.29L451.95 360.79L451.95 360.79L447.95 360.79L447.95 360.79L447.95 361.79L447.95 361.79L451.95 361.79L451.95 361.79L446.95 364.29z" stroke="none" fill="#000000" fill-rule="evenodd" /><path transform="matrix(1 0 0 -1 0 842)" d="M146.95 360.79L446.95 360.79L446.95 360.79L446.95 361.79L446.95 361.79L146.95 361.79z" stroke="none" fill="#000000" fill-rule="evenodd" /><path transform="matrix(1 0 0 -1 0 842)" d="M451.95 361.79L447.95 361.79L447.95 361.79L447.95 360.79L447.95 360.79L451.95 360.79L451.95 360.79L452.95 361.29L452.95 361.29L451.95 361.79z" stroke="none" fill="#000000" fill-rule="evenodd" /><path transform="matrix(1 0 0 -1 0 842)" d="M317.45 367.29L314.95 367.29L314.95 367.29L317.95 361.29L317.95 361.29L320.45 366.29L320.45 366.29L317.45 366.29L317.45 366.29L317.45 367.29z" stroke="none" fill="#000000" fill-rule="evenodd" /><path transform="matrix(1 0 0 -1 0 842)" d="M317.45 366.29L318.45 366.29L318.45 366.29L318.45 397.29L318.45 397.29L317.45 397.29z" stroke="none" fill="#000000" fill-rule="evenodd" /><path transform="matrix(1 0 0 -1 0 842)" d="M320.95 367.29L318.45 367.29L318.45 367.29L318.45 366.29L318.45 366.29L320.45 366.29L320.45 366.29L320.95 367.29z" stroke="none" fill="#000000" fill-rule="evenodd" /><path transform="matrix(1 0 0 -1 0 842)" d="M132.02 509.23L207.284 509.23L207.284 509.23L207.284 509.71L207.284 509.71L132.02 509.71z" stroke="none" fill="#C35454" fill-rule="evenodd" /><path transform="matrix(1 0 0 -1 0 842)" d="M317.35 509.23L352.99 509.23L352.99 509.23L352.99 509.71L352.99 509.71L317.35 509.71z" stroke="none" fill="#C35454" fill-rule="evenodd" /><path transform="matrix(1 0 0 -1 0 842)" d="M132.02 491.23L243.64 491.23L243.64 491.23L243.64 491.71L243.64 491.71L132.02 491.71z" stroke="none" fill="#C35454" fill-rule="evenodd" /><path transform="matrix(1 0 0 -1 0 842)" d="M272.93 194.06L337.754 194.06L337.754 194.06L337.754 194.54L337.754 194.54L272.93 194.54z" stroke="none" fill="#C35454" fill-rule="evenodd" /><path transform="matrix(1 0 0 -1 0 842)" d="M430.3 194.06L437.26 194.06L437.26 194.06L437.26 194.54L437.26 194.54L430.3 194.54z" stroke="none" fill="#C35454" fill-rule="evenodd" /></g></g></g></svg>