<svg xmlns="http://www.w3.org/2000/svg" xmlns:xlink="http://www.w3.org/1999/xlink" id="body_81" preserveAspectRatio="xMinYMin meet" viewBox="0 0 793 1123"><defs><clipPath id="1"><path d="M0 842L0 -0.03997803L0 -0.03997803L595.32 -0.03997803L595.32 -0.03997803L595.32 842L595.32 842L0 842z" /></clipPath><clipPath id="2"><path d="M492.94 782.72L507.46 782.72L507.46 782.72L507.46 770.24L507.46 770.24L492.94 770.24z" /></clipPath><clipPath id="3"><path d="M492.94 782.72L507.46 782.72L507.46 782.72L507.46 770.24L507.46 770.24L492.94 770.24z" /></clipPath><clipPath id="4"><path d="M492.94 782.72L507.46 782.72L507.46 782.72L507.46 770.24L507.46 770.24L492.94 770.24z" /></clipPath></defs><g transform="matrix(1.333333 0 0 1.333333 0 0)"><g><g clip-path="url(#1)"><g clip-path="url(#2)"><g clip-path="url(#3)"></g><g clip-path="url(#4)"></g></g><path transform="matrix(1 0 0 -1 0 842)" d="M175.73 519.55L186.53 519.55L186.53 519.55L186.53 520.03L186.53 520.03L175.73 520.03z" stroke="none" fill="#C35454" fill-rule="evenodd" /><path transform="matrix(1 0 0 -1 0 842)" d="M166.34 433.75L176.804 433.75L176.804 433.75L176.804 434.23L176.804 434.23L166.34 434.23z" stroke="none" fill="#C35454" fill-rule="evenodd" /><path transform="matrix(1 0 0 -1 0 842)" d="M180.53 348.17L203.81 348.17L203.81 348.17L203.81 348.65L203.81 348.65L180.53 348.65z" stroke="none" fill="#C35454" fill-rule="evenodd" /><path transform="matrix(1 0 0 -1 0 842)" d="M171.5 262.73L192.764 262.73L192.764 262.73L192.764 263.21L192.764 263.21L171.5 263.21z" stroke="none" fill="#C35454" fill-rule="evenodd" /></g></g></g></svg>