<svg xmlns="http://www.w3.org/2000/svg" xmlns:xlink="http://www.w3.org/1999/xlink" id="body_370" preserveAspectRatio="xMinYMin meet" viewBox="0 0 793 1123"><defs><clipPath id="1"><path d="M0 842L0 -0.03997803L0 -0.03997803L595.32 -0.03997803L595.32 -0.03997803L595.32 842L595.32 842L0 842z" /></clipPath><clipPath id="2"><path d="M87.984 782.72L107.784 782.72L107.784 782.72L107.784 770.24L107.784 770.24L87.984 770.24z" /></clipPath><clipPath id="3"><path d="M87.984 782.72L107.784 782.72L107.784 782.72L107.784 770.24L107.784 770.24L87.984 770.24z" /></clipPath><clipPath id="4"><path d="M87.984 782.72L107.784 782.72L107.784 782.72L107.784 770.24L107.784 770.24L87.984 770.24z" /></clipPath></defs><g transform="matrix(1.333333 0 0 1.333333 0 0)"><g><g clip-path="url(#1)"><g clip-path="url(#2)"><g clip-path="url(#3)"></g><g clip-path="url(#4)"></g></g><path transform="matrix(1 0 0 -1 0 842)" d="M170.55 575.69L235 575.69" stroke="#C35454" stroke-width="0.64" stroke-linecap="round" fill="none" /><path transform="matrix(1 0 0 -1 0 842)" d="M235 576.34L278.75 576.34" stroke="#000000" stroke-width="0.4" stroke-linecap="round" fill="none" /><path transform="matrix(1 0 0 -1 0 842)" d="M235 575.04L278.75 575.04" stroke="#000000" stroke-width="0.4" stroke-linecap="round" fill="none" /><path transform="matrix(1 0 0 -1 0 842)" d="M170.55 420.14L235 420.14" stroke="#C35454" stroke-width="0.64" stroke-linecap="round" fill="none" /><path transform="matrix(1 0 0 -1 0 842)" d="M235 420.79L278.75 420.79" stroke="#000000" stroke-width="0.4" stroke-linecap="round" fill="none" /><path transform="matrix(1 0 0 -1 0 842)" d="M235 419.49L278.75 419.49" stroke="#000000" stroke-width="0.4" stroke-linecap="round" fill="none" /><path transform="matrix(1 0 0 -1 0 842)" d="M190.37 661.18L225.65 661.18L225.65 661.18L225.65 661.66L225.65 661.66L190.37 661.66z" stroke="none" fill="#C35454" fill-rule="evenodd" /><path transform="matrix(1 0 0 -1 0 842)" d="M267.53 174.26L303.074 174.26L303.074 174.26L303.074 174.74L303.074 174.74L267.53 174.74z" stroke="none" fill="#C35454" fill-rule="evenodd" /><path transform="matrix(1 0 0 -1 0 842)" d="M267.53 156.26L323.114 156.26L323.114 156.26L323.114 156.74L323.114 156.74L267.53 156.74z" stroke="none" fill="#C35454" fill-rule="evenodd" /></g></g></g></svg>