<svg xmlns="http://www.w3.org/2000/svg" xmlns:xlink="http://www.w3.org/1999/xlink" id="body_178" preserveAspectRatio="xMinYMin meet" viewBox="0 0 793 1123"><defs><clipPath id="1"><path d="M0 842L0 -0.03997803L0 -0.03997803L595.32 -0.03997803L595.32 -0.03997803L595.32 842L595.32 842L0 842z" /></clipPath><clipPath id="2"><path d="M87.984 782.72L161.304 782.72L161.304 782.72L161.304 770.24L161.304 770.24L87.984 770.24z" /></clipPath><clipPath id="3"><path d="M87.984 782.72L161.304 782.72L161.304 782.72L161.304 770.24L161.304 770.24L87.984 770.24z" /></clipPath><clipPath id="4"><path d="M87.984 782.72L161.304 782.72L161.304 782.72L161.304 770.24L161.304 770.24L87.984 770.24z" /></clipPath><clipPath id="5"><path d="M87.984 782.72L161.304 782.72L161.304 782.72L161.304 770.24L161.304 770.24L87.984 770.24z" /></clipPath><clipPath id="6"><path d="M87.984 782.72L161.304 782.72L161.304 782.72L161.304 770.24L161.304 770.24L87.984 770.24z" /></clipPath><clipPath id="7"><path d="M87.984 782.72L161.304 782.72L161.304 782.72L161.304 770.24L161.304 770.24L87.984 770.24z" /></clipPath><clipPath id="8"><path d="M87.984 782.72L161.304 782.72L161.304 782.72L161.304 770.24L161.304 770.24L87.984 770.24z" /></clipPath></defs><g transform="matrix(1.333333 0 0 1.333333 0 0)"><g><g clip-path="url(#1)"><g clip-path="url(#2)"><g clip-path="url(#3)"></g><g clip-path="url(#4)"></g><g clip-path="url(#5)"></g><g clip-path="url(#6)"></g><g clip-path="url(#7)"></g><g clip-path="url(#8)"></g></g><path transform="matrix(1 0 0 -1 0 842)" d="M153.98 720.82L185.444 720.82L185.444 720.82L185.444 721.3L185.444 721.3L153.98 721.3z" stroke="none" fill="#C35454" fill-rule="evenodd" /><path transform="matrix(1 0 0 -1 0 842)" d="M152.9 671.26L232.964 671.26L232.964 671.26L232.964 671.74L232.964 671.74L152.9 671.74z" stroke="none" fill="#C35454" fill-rule="evenodd" /><path transform="matrix(1 0 0 -1 0 842)" d="M172.34 586.03L213.644 586.03L213.644 586.03L213.644 586.51L213.644 586.51L172.34 586.51z" stroke="none" fill="#C35454" fill-rule="evenodd" /><path transform="matrix(1 0 0 -1 0 842)" d="M153.98 531.67L227.804 531.67L227.804 531.67L227.804 532.15L227.804 532.15L153.98 532.15z" stroke="none" fill="#C35454" fill-rule="evenodd" /><path transform="matrix(1 0 0 -1 0 842)" d="M149.3 423.43L192.404 423.43L192.404 423.43L192.404 423.91L192.404 423.91L149.3 423.91z" stroke="none" fill="#C35454" fill-rule="evenodd" /><path transform="matrix(1 0 0 -1 0 842)" d="M147.02 373.97L213.884 373.97L213.884 373.97L213.884 374.45L213.884 374.45L147.02 374.45z" stroke="none" fill="#C35454" fill-rule="evenodd" /><path transform="matrix(1 0 0 -1 0 842)" d="M162.62 288.41L179.804 288.41L179.804 288.41L179.804 288.89L179.804 288.89L162.62 288.89z" stroke="none" fill="#C35454" fill-rule="evenodd" /><path transform="matrix(1 0 0 -1 0 842)" d="M192.29 288.41L204.77 288.41L204.77 288.41L204.77 288.89L204.77 288.89L192.29 288.89z" stroke="none" fill="#C35454" fill-rule="evenodd" /><path transform="matrix(1 0 0 -1 0 842)" d="M162.62 239.42L179.804 239.42L179.804 239.42L179.804 239.9L179.804 239.9L162.62 239.9z" stroke="none" fill="#C35454" fill-rule="evenodd" /><path transform="matrix(1 0 0 -1 0 842)" d="M192.29 239.42L234.89 239.42L234.89 239.42L234.89 239.9L234.89 239.9L192.29 239.9z" stroke="none" fill="#C35454" fill-rule="evenodd" /><path transform="matrix(1 0 0 -1 0 842)" d="M184.49 148.7L222.77 148.7L222.77 148.7L222.77 149.18L222.77 149.18L184.49 149.18z" stroke="none" fill="#C35454" fill-rule="evenodd" /></g></g></g></svg>