<svg xmlns="http://www.w3.org/2000/svg" xmlns:xlink="http://www.w3.org/1999/xlink" id="body_27" preserveAspectRatio="xMinYMin meet" viewBox="0 0 793 1123"><defs><clipPath id="1"><path d="M0 842L0 -0.03997803L0 -0.03997803L595.32 -0.03997803L595.32 -0.03997803L595.32 842L595.32 842L0 842z" /></clipPath><clipPath id="2"><path d="M492.94 782.72L507.46 782.72L507.46 782.72L507.46 770.24L507.46 770.24L492.94 770.24z" /></clipPath><clipPath id="3"><path d="M492.94 782.72L507.46 782.72L507.46 782.72L507.46 770.24L507.46 770.24L492.94 770.24z" /></clipPath><clipPath id="4"><path d="M492.94 782.72L507.46 782.72L507.46 782.72L507.46 770.24L507.46 770.24L492.94 770.24z" /></clipPath><clipPath id="5"><path d="M129.98 103.06L186.764 103.06L186.764 103.06L186.764 79.87598L186.764 79.87598L129.98 79.87598z" /></clipPath><clipPath id="6"><path d="M129.98 103.06L186.764 103.06L186.764 103.06L186.764 79.87598L186.764 79.87598L129.98 79.87598z" /></clipPath><clipPath id="7"><path d="M129.98 103.06L186.764 103.06L186.764 103.06L186.764 79.87598L186.764 79.87598L129.98 79.87598z" /></clipPath><clipPath id="8"><path d="M186.77 103.06L283.97 103.06L283.97 103.06L283.97 79.87598L283.97 79.87598L186.77 79.87598z" /></clipPath><clipPath id="9"><path d="M186.77 103.06L283.97 103.06L283.97 103.06L283.97 79.87598L283.97 79.87598L186.77 79.87598z" /></clipPath><clipPath id="10"><path d="M186.77 103.06L283.97 103.06L283.97 103.06L283.97 79.87598L283.97 79.87598L186.77 79.87598z" /></clipPath><clipPath id="11"><path d="M283.97 103.06L359.354 103.06L359.354 103.06L359.354 79.87598L359.354 79.87598L283.97 79.87598z" /></clipPath><clipPath id="12"><path d="M283.97 103.06L359.354 103.06L359.354 103.06L359.354 79.87598L359.354 79.87598L283.97 79.87598z" /></clipPath><clipPath id="13"><path d="M283.97 103.06L359.354 103.06L359.354 103.06L359.354 79.87598L359.354 79.87598L283.97 79.87598z" /></clipPath><clipPath id="14"><path d="M359.35 103.06L495.69 103.06L495.69 103.06L495.69 79.87598L495.69 79.87598L359.35 79.87598z" /></clipPath><clipPath id="15"><path d="M359.35 103.06L495.69 103.06L495.69 103.06L495.69 79.87598L495.69 79.87598L359.35 79.87598z" /></clipPath><clipPath id="16"><path d="M129.98 162.82L186.764 162.82L186.764 162.82L186.764 103.06L186.764 103.06L129.98 103.06z" /></clipPath><clipPath id="17"><path d="M129.98 162.82L186.764 162.82L186.764 162.82L186.764 103.06L186.764 103.06L129.98 103.06z" /></clipPath><clipPath id="18"><path d="M129.98 162.82L186.764 162.82L186.764 162.82L186.764 103.06L186.764 103.06L129.98 103.06z" /></clipPath><clipPath id="19"><path d="M129.98 162.82L186.764 162.82L186.764 162.82L186.764 103.06L186.764 103.06L129.98 103.06z" /></clipPath><clipPath id="20"><path d="M129.98 162.82L186.764 162.82L186.764 162.82L186.764 103.06L186.764 103.06L129.98 103.06z" /></clipPath><clipPath id="21"><path d="M129.98 162.82L186.764 162.82L186.764 162.82L186.764 103.06L186.764 103.06L129.98 103.06z" /></clipPath><clipPath id="22"><path d="M129.98 162.82L186.764 162.82L186.764 162.82L186.764 103.06L186.764 103.06L129.98 103.06z" /></clipPath><clipPath id="23"><path d="M186.77 162.82L283.97 162.82L283.97 162.82L283.97 103.06L283.97 103.06L186.77 103.06z" /></clipPath><clipPath id="24"><path d="M186.77 162.82L283.97 162.82L283.97 162.82L283.97 103.06L283.97 103.06L186.77 103.06z" /></clipPath><clipPath id="25"><path d="M186.77 162.82L283.97 162.82L283.97 162.82L283.97 103.06L283.97 103.06L186.77 103.06z" /></clipPath><clipPath id="26"><path d="M186.77 162.82L283.97 162.82L283.97 162.82L283.97 103.06L283.97 103.06L186.77 103.06z" /></clipPath><clipPath id="27"><path d="M186.77 162.82L283.97 162.82L283.97 162.82L283.97 103.06L283.97 103.06L186.77 103.06z" /></clipPath><clipPath id="28"><path d="M186.77 162.82L283.97 162.82L283.97 162.82L283.97 103.06L283.97 103.06L186.77 103.06z" /></clipPath><clipPath id="29"><path d="M186.77 162.82L283.97 162.82L283.97 162.82L283.97 103.06L283.97 103.06L186.77 103.06z" /></clipPath><clipPath id="30"><path d="M186.77 162.82L283.97 162.82L283.97 162.82L283.97 103.06L283.97 103.06L186.77 103.06z" /></clipPath><clipPath id="31"><path d="M186.77 162.82L283.97 162.82L283.97 162.82L283.97 103.06L283.97 103.06L186.77 103.06z" /></clipPath><clipPath id="32"><path d="M283.97 162.82L359.354 162.82L359.354 162.82L359.354 103.06L359.354 103.06L283.97 103.06z" /></clipPath><clipPath id="33"><path d="M283.97 162.82L359.354 162.82L359.354 162.82L359.354 103.06L359.354 103.06L283.97 103.06z" /></clipPath><clipPath id="34"><path d="M283.97 162.82L359.354 162.82L359.354 162.82L359.354 103.06L359.354 103.06L283.97 103.06z" /></clipPath><clipPath id="35"><path d="M283.97 162.82L359.354 162.82L359.354 162.82L359.354 103.06L359.354 103.06L283.97 103.06z" /></clipPath><clipPath id="36"><path d="M283.97 162.82L359.354 162.82L359.354 162.82L359.354 103.06L359.354 103.06L283.97 103.06z" /></clipPath><clipPath id="37"><path d="M283.97 162.82L359.354 162.82L359.354 162.82L359.354 103.06L359.354 103.06L283.97 103.06z" /></clipPath><clipPath id="38"><path d="M283.97 162.82L359.354 162.82L359.354 162.82L359.354 103.06L359.354 103.06L283.97 103.06z" /></clipPath><clipPath id="39"><path d="M359.35 162.82L495.69 162.82L495.69 162.82L495.69 103.06L495.69 103.06L359.35 103.06z" /></clipPath><clipPath id="40"><path d="M359.35 162.82L495.69 162.82L495.69 162.82L495.69 103.06L495.69 103.06L359.35 103.06z" /></clipPath><clipPath id="41"><path d="M359.35 162.82L495.69 162.82L495.69 162.82L495.69 103.06L495.69 103.06L359.35 103.06z" /></clipPath><clipPath id="42"><path d="M359.35 162.82L495.69 162.82L495.69 162.82L495.69 103.06L495.69 103.06L359.35 103.06z" /></clipPath><clipPath id="43"><path d="M359.35 162.82L495.69 162.82L495.69 162.82L495.69 103.06L495.69 103.06L359.35 103.06z" /></clipPath><clipPath id="44"><path d="M359.35 162.82L495.69 162.82L495.69 162.82L495.69 103.06L495.69 103.06L359.35 103.06z" /></clipPath><clipPath id="45"><path d="M359.35 162.82L495.69 162.82L495.69 162.82L495.69 103.06L495.69 103.06L359.35 103.06z" /></clipPath><clipPath id="46"><path d="M359.35 162.82L495.69 162.82L495.69 162.82L495.69 103.06L495.69 103.06L359.35 103.06z" /></clipPath></defs><g transform="matrix(1.333333 0 0 1.333333 0 0)"><g><g clip-path="url(#1)"><g clip-path="url(#2)"><g clip-path="url(#3)"></g><g clip-path="url(#4)"></g></g><g clip-path="url(#5)"><g clip-path="url(#6)"></g><g clip-path="url(#7)"></g></g><g clip-path="url(#8)"><g clip-path="url(#9)"></g><g clip-path="url(#10)"></g></g><g clip-path="url(#11)"><g clip-path="url(#12)"></g><g clip-path="url(#13)"></g></g><g clip-path="url(#14)"><g clip-path="url(#15)"></g></g><g clip-path="url(#16)"><g clip-path="url(#17)"></g><g clip-path="url(#18)"></g><g clip-path="url(#19)"></g><g clip-path="url(#20)"></g><g clip-path="url(#21)"></g><g clip-path="url(#22)"></g></g><g clip-path="url(#23)"><g clip-path="url(#24)"></g><g clip-path="url(#25)"></g><g clip-path="url(#26)"></g><g clip-path="url(#27)"></g><g clip-path="url(#28)"></g><g clip-path="url(#29)"></g><g clip-path="url(#30)"></g><g clip-path="url(#31)"></g></g><g clip-path="url(#32)"><g clip-path="url(#33)"></g><g clip-path="url(#34)"></g><g clip-path="url(#35)"></g><g clip-path="url(#36)"></g><g clip-path="url(#37)"></g><g clip-path="url(#38)"></g></g><g clip-path="url(#39)"><g clip-path="url(#40)"></g><g clip-path="url(#41)"></g><g clip-path="url(#42)"></g><g clip-path="url(#43)"></g><g clip-path="url(#44)"></g><g clip-path="url(#45)"></g><g clip-path="url(#46)"></g></g><g transform="matrix(0.3611413 0 0 0.3647727 243.85 338.01)"><g transform="matrix(1 0 0 1 0 0)"><image x="0" y="0" xlink:href="img_26.png" width="184" height="44" /></g></g></g></g></g></svg>