<svg xmlns="http://www.w3.org/2000/svg" xmlns:xlink="http://www.w3.org/1999/xlink" id="body_149" preserveAspectRatio="xMinYMin meet" viewBox="0 0 793 1123"><defs><clipPath id="1"><path d="M0 842L0 -0.03997803L0 -0.03997803L595.32 -0.03997803L595.32 -0.03997803L595.32 842L595.32 842L0 842z" /></clipPath><clipPath id="2"><path d="M487.78 782.72L507.46 782.72L507.46 782.72L507.46 770.24L507.46 770.24L487.78 770.24z" /></clipPath><clipPath id="3"><path d="M487.78 782.72L507.46 782.72L507.46 782.72L507.46 770.24L507.46 770.24L487.78 770.24z" /></clipPath><clipPath id="4"><path d="M487.78 782.72L507.46 782.72L507.46 782.72L507.46 770.24L507.46 770.24L487.78 770.24z" /></clipPath></defs><g transform="matrix(1.333333 0 0 1.333333 0 0)"><g><g clip-path="url(#1)"><g clip-path="url(#2)"><g clip-path="url(#3)"></g><g clip-path="url(#4)"></g></g><path transform="matrix(1 0 0 -1 0 842)" d="M149.85 165.49L153.3 165.49" stroke="#C35454" stroke-width="0.64008" stroke-linecap="round" fill="none" /><path transform="matrix(1 0 0 -1 0 842)" d="M433.5 592.39L433.5 586.39L433.5 586.39L438.5 588.89L438.5 588.89L434.5 588.89L434.5 588.89L434.5 589.89L434.5 589.89L438.5 589.89L438.5 589.89L433.5 592.39z" stroke="none" fill="#000000" fill-rule="evenodd" /><path transform="matrix(1 0 0 -1 0 842)" d="M151.5 588.89L433.5 588.89L433.5 588.89L433.5 589.89L433.5 589.89L151.5 589.89z" stroke="none" fill="#000000" fill-rule="evenodd" /><path transform="matrix(1 0 0 -1 0 842)" d="M438.5 589.89L434.5 589.89L434.5 589.89L434.5 588.89L434.5 588.89L438.5 588.89L438.5 588.89L439.5 589.39L439.5 589.39L438.5 589.89z" stroke="none" fill="#000000" fill-rule="evenodd" /><path transform="matrix(1 0 0 -1 0 842)" d="M204.65 683.74L223.97 683.74L223.97 683.74L223.97 684.22L223.97 684.22L204.65 684.22z" stroke="none" fill="#C35454" fill-rule="evenodd" /><path transform="matrix(1 0 0 -1 0 842)" d="M232.37 683.74L277.37 683.74L277.37 683.74L277.37 684.22L277.37 684.22L232.37 684.22z" stroke="none" fill="#C35454" fill-rule="evenodd" /><path transform="matrix(1 0 0 -1 0 842)" d="M155.78 166.82L273.28 166.82L273.28 166.82L273.28 167.3L273.28 167.3L155.78 167.3z" stroke="none" fill="#C35454" fill-rule="evenodd" /><path transform="matrix(1 0 0 -1 0 842)" d="M149.78 100.7L339.31 100.7L339.31 100.7L339.31 101.18L339.31 101.18L149.78 101.18z" stroke="none" fill="#C35454" fill-rule="evenodd" /></g></g></g></svg>