<svg xmlns="http://www.w3.org/2000/svg" xmlns:xlink="http://www.w3.org/1999/xlink" id="body_181" preserveAspectRatio="xMinYMin meet" viewBox="0 0 793 1123"><defs><clipPath id="1"><path d="M0 842L0 -0.03997803L0 -0.03997803L595.32 -0.03997803L595.32 -0.03997803L595.32 842L595.32 842L0 842z" /></clipPath><clipPath id="2"><path d="M487.78 782.72L507.46 782.72L507.46 782.72L507.46 770.24L507.46 770.24L487.78 770.24z" /></clipPath><clipPath id="3"><path d="M487.78 782.72L507.46 782.72L507.46 782.72L507.46 770.24L507.46 770.24L487.78 770.24z" /></clipPath><clipPath id="4"><path d="M487.78 782.72L507.46 782.72L507.46 782.72L507.46 770.24L507.46 770.24L487.78 770.24z" /></clipPath></defs><g transform="matrix(1.333333 0 0 1.333333 0 0)"><g><g clip-path="url(#1)"><g clip-path="url(#2)"><g clip-path="url(#3)"></g><g clip-path="url(#4)"></g></g><path transform="matrix(1 0 0 -1 0 842)" d="M205.25 719.74L238.01 719.74L238.01 719.74L238.01 720.22L238.01 720.22L205.25 720.22z" stroke="none" fill="#C35454" fill-rule="evenodd" /><path transform="matrix(1 0 0 -1 0 842)" d="M132.02 655.18L156.98 655.18L156.98 655.18L156.98 655.66L156.98 655.66L132.02 655.66z" stroke="none" fill="#C35454" fill-rule="evenodd" /><path transform="matrix(1 0 0 -1 0 842)" d="M162.98 655.18L195.164 655.18L195.164 655.18L195.164 655.66L195.164 655.66L162.98 655.66z" stroke="none" fill="#C35454" fill-rule="evenodd" /><path transform="matrix(1 0 0 -1 0 842)" d="M152.78 591.7L197.204 591.7L197.204 591.7L197.204 592.18L197.204 592.18L152.78 592.18z" stroke="none" fill="#C35454" fill-rule="evenodd" /><path transform="matrix(1 0 0 -1 0 842)" d="M205.25 510.55L248.69 510.55L248.69 510.55L248.69 511.03L248.69 511.03L205.25 511.03z" stroke="none" fill="#C35454" fill-rule="evenodd" /><path transform="matrix(1 0 0 -1 0 842)" d="M132.02 492.55L147.5 492.55L147.5 492.55L147.5 493.03L147.5 493.03L132.02 493.03z" stroke="none" fill="#C35454" fill-rule="evenodd" /><path transform="matrix(1 0 0 -1 0 842)" d="M153.5 492.55L218.924 492.55L218.924 492.55L218.924 493.03L218.924 493.03L153.5 493.03z" stroke="none" fill="#C35454" fill-rule="evenodd" /><path transform="matrix(1 0 0 -1 0 842)" d="M152.78 474.55L215.564 474.55L215.564 474.55L215.564 475.03L215.564 475.03L152.78 475.03z" stroke="none" fill="#C35454" fill-rule="evenodd" /><path transform="matrix(1 0 0 -1 0 842)" d="M191.81 402.29L238.61 402.29L238.61 402.29L238.61 402.77L238.61 402.77L191.81 402.77z" stroke="none" fill="#C35454" fill-rule="evenodd" /><path transform="matrix(1 0 0 -1 0 842)" d="M132.02 339.29L155.18 339.29L155.18 339.29L155.18 339.77L155.18 339.77L132.02 339.77z" stroke="none" fill="#C35454" fill-rule="evenodd" /><path transform="matrix(1 0 0 -1 0 842)" d="M173.42 339.29L197.564 339.29L197.564 339.29L197.564 339.77L197.564 339.77L173.42 339.77z" stroke="none" fill="#C35454" fill-rule="evenodd" /><path transform="matrix(1 0 0 -1 0 842)" d="M138.02 275.09L190.844 275.09L190.844 275.09L190.844 275.57L190.844 275.57L138.02 275.57z" stroke="none" fill="#C35454" fill-rule="evenodd" /><path transform="matrix(1 0 0 -1 0 842)" d="M191.81 193.58L249.29 193.58L249.29 193.58L249.29 194.06L249.29 194.06L191.81 194.06z" stroke="none" fill="#C35454" fill-rule="evenodd" /><path transform="matrix(1 0 0 -1 0 842)" d="M132.02 175.46L147.5 175.46L147.5 175.46L147.5 175.94L147.5 175.94L132.02 175.94z" stroke="none" fill="#C35454" fill-rule="evenodd" /><path transform="matrix(1 0 0 -1 0 842)" d="M165.74 175.46L221.444 175.46L221.444 175.46L221.444 175.94L221.444 175.94L165.74 175.94z" stroke="none" fill="#C35454" fill-rule="evenodd" /><path transform="matrix(1 0 0 -1 0 842)" d="M138.02 157.58L202.484 157.58L202.484 157.58L202.484 158.06L202.484 158.06L138.02 158.06z" stroke="none" fill="#C35454" fill-rule="evenodd" /></g></g></g></svg>