<svg xmlns="http://www.w3.org/2000/svg" xmlns:xlink="http://www.w3.org/1999/xlink" id="body_384" preserveAspectRatio="xMinYMin meet" viewBox="0 0 793 1123"><defs><clipPath id="1"><path d="M0 842L0 -0.03997803L0 -0.03997803L595.32 -0.03997803L595.32 -0.03997803L595.32 842L595.32 842L0 842z" /></clipPath><clipPath id="2"><path d="M87.984 782.72L107.784 782.72L107.784 782.72L107.784 770.24L107.784 770.24L87.984 770.24z" /></clipPath><clipPath id="3"><path d="M87.984 782.72L107.784 782.72L107.784 782.72L107.784 770.24L107.784 770.24L87.984 770.24z" /></clipPath><clipPath id="4"><path d="M87.984 782.72L107.784 782.72L107.784 782.72L107.784 770.24L107.784 770.24L87.984 770.24z" /></clipPath></defs><g transform="matrix(1.333333 0 0 1.333333 0 0)"><g><g clip-path="url(#1)"><g clip-path="url(#2)"><g clip-path="url(#3)"></g><g clip-path="url(#4)"></g></g><path transform="matrix(1 0 0 -1 0 842)" d="M201.05 701.86L336.55 701.86L336.55 701.86L336.55 702.34L336.55 702.34L201.05 702.34z" stroke="none" fill="#C35454" fill-rule="evenodd" /><g transform="matrix(0.3611413 0 0 0.3636364 216.25 300.66)"><g transform="matrix(1 0 0 1 0 0)"><image x="0" y="0" xlink:href="img_26.png" width="184" height="44" /></g></g><path transform="matrix(1 0 0 -1 0 842)" d="M132.02 183.02L193.604 183.02L193.604 183.02L193.604 183.5L193.604 183.5L132.02 183.5z" stroke="none" fill="#C35454" fill-rule="evenodd" /></g></g></g></svg>