<svg xmlns="http://www.w3.org/2000/svg" xmlns:xlink="http://www.w3.org/1999/xlink" id="body_271" preserveAspectRatio="xMinYMin meet" viewBox="0 0 793 1123"><defs><clipPath id="1"><path d="M0 842L0 -0.03997803L0 -0.03997803L595.32 -0.03997803L595.32 -0.03997803L595.32 842L595.32 842L0 842z" /></clipPath><clipPath id="2"><path d="M487.78 782.72L507.46 782.72L507.46 782.72L507.46 770.24L507.46 770.24L487.78 770.24z" /></clipPath><clipPath id="3"><path d="M487.78 782.72L507.46 782.72L507.46 782.72L507.46 770.24L507.46 770.24L487.78 770.24z" /></clipPath><clipPath id="4"><path d="M487.78 782.72L507.46 782.72L507.46 782.72L507.46 770.24L507.46 770.24L487.78 770.24z" /></clipPath></defs><g transform="matrix(1.333333 0 0 1.333333 0 0)"><g><g clip-path="url(#1)"><g clip-path="url(#2)"><g clip-path="url(#3)"></g><g clip-path="url(#4)"></g></g><path transform="matrix(1 0 0 -1 0 842)" d="M132.02 719.74L228.884 719.74L228.884 719.74L228.884 720.22L228.884 720.22L132.02 720.22z" stroke="none" fill="#C35454" fill-rule="evenodd" /><path transform="matrix(1 0 0 -1 0 842)" d="M240.17 719.74L296.594 719.74L296.594 719.74L296.594 720.22L296.594 720.22L240.17 720.22z" stroke="none" fill="#C35454" fill-rule="evenodd" /><path transform="matrix(1 0 0 -1 0 842)" d="M132.02 489.55L353.47 489.55L353.47 489.55L353.47 490.03L353.47 490.03L132.02 490.03z" stroke="none" fill="#C35454" fill-rule="evenodd" /><path transform="matrix(1 0 0 -1 0 842)" d="M365.59 489.55L418.894 489.55L418.894 489.55L418.894 490.03L418.894 490.03L365.59 490.03z" stroke="none" fill="#C35454" fill-rule="evenodd" /><path transform="matrix(1 0 0 -1 0 842)" d="M132.02 416.33L324.79 416.33L324.79 416.33L324.79 416.81L324.79 416.81L132.02 416.81z" stroke="none" fill="#C35454" fill-rule="evenodd" /><path transform="matrix(1 0 0 -1 0 842)" d="M338.59 416.33L372.19 416.33L372.19 416.33L372.19 416.81L372.19 416.81L338.59 416.81z" stroke="none" fill="#C35454" fill-rule="evenodd" /><path transform="matrix(1 0 0 -1 0 842)" d="M132.02 366.41L322.39 366.41L322.39 366.41L322.39 366.89L322.39 366.89L132.02 366.89z" stroke="none" fill="#C35454" fill-rule="evenodd" /><path transform="matrix(1 0 0 -1 0 842)" d="M327.67 366.41L343.75 366.41L343.75 366.41L343.75 366.89L343.75 366.89L327.67 366.89z" stroke="none" fill="#C35454" fill-rule="evenodd" /><path transform="matrix(1 0 0 -1 0 842)" d="M132.02 316.85L356.35 316.85L356.35 316.85L356.35 317.33L356.35 317.33L132.02 317.33z" stroke="none" fill="#C35454" fill-rule="evenodd" /><path transform="matrix(1 0 0 -1 0 842)" d="M374.11 316.85L413.734 316.85L413.734 316.85L413.734 317.33L413.734 317.33L374.11 317.33z" stroke="none" fill="#C35454" fill-rule="evenodd" /><path transform="matrix(1 0 0 -1 0 842)" d="M132.02 244.7L374.95 244.7L374.95 244.7L374.95 245.18L374.95 245.18L132.02 245.18z" stroke="none" fill="#C35454" fill-rule="evenodd" /><path transform="matrix(1 0 0 -1 0 842)" d="M403.75 244.7L413.374 244.7L413.374 244.7L413.374 245.18L413.374 245.18L403.75 245.18z" stroke="none" fill="#C35454" fill-rule="evenodd" /><path transform="matrix(1 0 0 -1 0 842)" d="M132.02 195.14L343.75 195.14L343.75 195.14L343.75 195.62L343.75 195.62L132.02 195.62z" stroke="none" fill="#C35454" fill-rule="evenodd" /><path transform="matrix(1 0 0 -1 0 842)" d="M357.43 195.14L378.55 195.14L378.55 195.14L378.55 195.62L378.55 195.62L357.43 195.62z" stroke="none" fill="#C35454" fill-rule="evenodd" /><path transform="matrix(1 0 0 -1 0 842)" d="M132.02 145.58L357.67 145.58L357.67 145.58L357.67 146.06L357.67 146.06L132.02 146.06z" stroke="none" fill="#C35454" fill-rule="evenodd" /><path transform="matrix(1 0 0 -1 0 842)" d="M381.19 145.58L412.414 145.58L412.414 145.58L412.414 146.06L412.414 146.06L381.19 146.06z" stroke="none" fill="#C35454" fill-rule="evenodd" /></g></g></g></svg>