<svg xmlns="http://www.w3.org/2000/svg" xmlns:xlink="http://www.w3.org/1999/xlink" id="body_145" preserveAspectRatio="xMinYMin meet" viewBox="0 0 793 1123"><defs><clipPath id="1"><path d="M0 842L0 -0.03997803L0 -0.03997803L595.32 -0.03997803L595.32 -0.03997803L595.32 842L595.32 842L0 842z" /></clipPath><clipPath id="2"><path d="M487.78 782.72L507.46 782.72L507.46 782.72L507.46 770.24L507.46 770.24L487.78 770.24z" /></clipPath><clipPath id="3"><path d="M487.78 782.72L507.46 782.72L507.46 782.72L507.46 770.24L507.46 770.24L487.78 770.24z" /></clipPath><clipPath id="4"><path d="M487.78 782.72L507.46 782.72L507.46 782.72L507.46 770.24L507.46 770.24L487.78 770.24z" /></clipPath></defs><g transform="matrix(1.333333 0 0 1.333333 0 0)"><g><g clip-path="url(#1)"><g clip-path="url(#2)"><g clip-path="url(#3)"></g><g clip-path="url(#4)"></g></g><path transform="matrix(1 0 0 -1 0 842)" d="M441 679.34L441 673.34L441 673.34L446 675.84L446 675.84L442 675.84L442 675.84L442 676.84L442 676.84L446 676.84L446 676.84L441 679.34z" stroke="none" fill="#000000" fill-rule="evenodd" /><path transform="matrix(1 0 0 -1 0 842)" d="M159 675.84L441 675.84L441 675.84L441 676.84L441 676.84L159 676.84z" stroke="none" fill="#000000" fill-rule="evenodd" /><path transform="matrix(1 0 0 -1 0 842)" d="M446 676.84L442 676.84L442 676.84L442 675.84L442 675.84L446 675.84L446 675.84L447 676.34L447 676.34L446 676.84z" stroke="none" fill="#000000" fill-rule="evenodd" /><path transform="matrix(1 0 0 -1 0 842)" d="M434.25 431.79L434.25 425.79L434.25 425.79L439.25 428.29L439.25 428.29L435.25 428.29L435.25 428.29L435.25 429.29L435.25 429.29L439.25 429.29L439.25 429.29L434.25 431.79z" stroke="none" fill="#000000" fill-rule="evenodd" /><path transform="matrix(1 0 0 -1 0 842)" d="M152.25 428.29L434.25 428.29L434.25 428.29L434.25 429.29L434.25 429.29L152.25 429.29z" stroke="none" fill="#000000" fill-rule="evenodd" /><path transform="matrix(1 0 0 -1 0 842)" d="M439.25 429.29L435.25 429.29L435.25 429.29L435.25 428.29L435.25 428.29L439.25 428.29L439.25 428.29L440.25 428.79L440.25 428.79L439.25 429.29z" stroke="none" fill="#000000" fill-rule="evenodd" /><path transform="matrix(1 0 0 -1 0 842)" d="M435 188.49L435 182.49L435 182.49L440 184.99L440 184.99L436 184.99L436 184.99L436 185.99L436 185.99L440 185.99L440 185.99L435 188.49z" stroke="none" fill="#000000" fill-rule="evenodd" /><path transform="matrix(1 0 0 -1 0 842)" d="M153 184.99L435 184.99L435 184.99L435 185.9901L435 185.9901L153 185.9901z" stroke="none" fill="#000000" fill-rule="evenodd" /><path transform="matrix(1 0 0 -1 0 842)" d="M440 185.99L436 185.99L436 185.99L436 184.99L436 184.99L440 184.99L440 184.99L441 185.49L441 185.49L440 185.99z" stroke="none" fill="#000000" fill-rule="evenodd" /><path transform="matrix(1 0 0 -1 0 842)" d="M176.45 544.99L185.93 544.99L185.93 544.99L185.93 545.47L185.93 545.47L176.45 545.47z" stroke="none" fill="#C35454" fill-rule="evenodd" /><path transform="matrix(1 0 0 -1 0 842)" d="M340.75 544.99L380.59 544.99L380.59 544.99L380.59 545.47L380.59 545.47L340.75 545.47z" stroke="none" fill="#C35454" fill-rule="evenodd" /><path transform="matrix(1 0 0 -1 0 842)" d="M174.74 279.41L184.244 279.41L184.244 279.41L184.244 279.89L184.244 279.89L174.74 279.89z" stroke="none" fill="#C35454" fill-rule="evenodd" /><path transform="matrix(1 0 0 -1 0 842)" d="M252.41 279.41L273.05 279.41L273.05 279.41L273.05 279.89L273.05 279.89L252.41 279.89z" stroke="none" fill="#C35454" fill-rule="evenodd" /><path transform="matrix(1 0 0 -1 0 842)" d="M316.99 279.41L326.47 279.41L326.47 279.41L326.47 279.89L326.47 279.89L316.99 279.89z" stroke="none" fill="#C35454" fill-rule="evenodd" /></g></g></g></svg>