<svg xmlns="http://www.w3.org/2000/svg" xmlns:xlink="http://www.w3.org/1999/xlink" id="body_104" preserveAspectRatio="xMinYMin meet" viewBox="0 0 793 1123"><defs><clipPath id="1"><path d="M0 842L0 -0.03997803L0 -0.03997803L595.32 -0.03997803L595.32 -0.03997803L595.32 842L595.32 842L0 842z" /></clipPath><clipPath id="2"><path d="M87.984 782.72L107.784 782.72L107.784 782.72L107.784 770.24L107.784 770.24L87.984 770.24z" /></clipPath><clipPath id="3"><path d="M87.984 782.72L107.784 782.72L107.784 782.72L107.784 770.24L107.784 770.24L87.984 770.24z" /></clipPath><clipPath id="4"><path d="M87.984 782.72L107.784 782.72L107.784 782.72L107.784 770.24L107.784 770.24L87.984 770.24z" /></clipPath></defs><g transform="matrix(1.333333 0 0 1.333333 0 0)"><g><g clip-path="url(#1)"><g clip-path="url(#2)"><g clip-path="url(#3)"></g><g clip-path="url(#4)"></g></g><path transform="matrix(1 0 0 -1 0 842)" d="M132.02 759.84L218.324 759.84L218.324 759.84L218.324 760.32L218.324 760.32L132.02 760.32z" stroke="none" fill="#C35454" fill-rule="evenodd" /><path transform="matrix(1 0 0 -1 0 842)" d="M255.29 759.84L292.994 759.84L292.994 759.84L292.994 760.32L292.994 760.32L255.29 760.32z" stroke="none" fill="#C35454" fill-rule="evenodd" /><path transform="matrix(1 0 0 -1 0 842)" d="M132.02 694.9L220.604 694.9L220.604 694.9L220.604 695.38L220.604 695.38L132.02 695.38z" stroke="none" fill="#C35454" fill-rule="evenodd" /><path transform="matrix(1 0 0 -1 0 842)" d="M254.33 667.18L269.81 667.18L269.81 667.18L269.81 667.66L269.81 667.66L254.33 667.66z" stroke="none" fill="#C35454" fill-rule="evenodd" /><path transform="matrix(1 0 0 -1 0 842)" d="M343.63 667.18L381.07 667.18L381.07 667.18L381.07 667.66L381.07 667.66L343.63 667.66z" stroke="none" fill="#C35454" fill-rule="evenodd" /><path transform="matrix(1 0 0 -1 0 842)" d="M132.02 550.87L377.35 550.87L377.35 550.87L377.35 551.35L377.35 551.35L132.02 551.35z" stroke="none" fill="#C35454" fill-rule="evenodd" /><path transform="matrix(1 0 0 -1 0 842)" d="M398.11 550.87L450.814 550.87L450.814 550.87L450.814 551.35L450.814 551.35L398.11 551.35z" stroke="none" fill="#C35454" fill-rule="evenodd" /><path transform="matrix(1 0 0 -1 0 842)" d="M132.02 532.87L165.5 532.87L165.5 532.87L165.5 533.35L165.5 533.35L132.02 533.35z" stroke="none" fill="#C35454" fill-rule="evenodd" /><path transform="matrix(1 0 0 -1 0 842)" d="M186.77 514.87L297.55 514.87L297.55 514.87L297.55 515.35L297.55 515.35L186.77 515.35z" stroke="none" fill="#C35454" fill-rule="evenodd" /><path transform="matrix(1 0 0 -1 0 842)" d="M132.02 388.73L377.35 388.73L377.35 388.73L377.35 389.21L377.35 389.21L132.02 389.21z" stroke="none" fill="#C35454" fill-rule="evenodd" /><path transform="matrix(1 0 0 -1 0 842)" d="M398.11 388.73L450.814 388.73L450.814 388.73L450.814 389.21L450.814 389.21L398.11 389.21z" stroke="none" fill="#C35454" fill-rule="evenodd" /><path transform="matrix(1 0 0 -1 0 842)" d="M132.02 370.73L165.5 370.73L165.5 370.73L165.5 371.21L165.5 371.21L132.02 371.21z" stroke="none" fill="#C35454" fill-rule="evenodd" /><path transform="matrix(1 0 0 -1 0 842)" d="M186.77 352.73L199.49 352.73L199.49 352.73L199.49 353.21L199.49 353.21L186.77 353.21z" stroke="none" fill="#C35454" fill-rule="evenodd" /><path transform="matrix(1 0 0 -1 0 842)" d="M132.02 226.58L202.844 226.58L202.844 226.58L202.844 227.06L202.844 227.06L132.02 227.06z" stroke="none" fill="#C35454" fill-rule="evenodd" /><path transform="matrix(1 0 0 -1 0 842)" d="M327.43 226.58L377.35 226.58L377.35 226.58L377.35 227.06L377.35 227.06L327.43 227.06z" stroke="none" fill="#C35454" fill-rule="evenodd" /><path transform="matrix(1 0 0 -1 0 842)" d="M398.11 226.58L450.814 226.58L450.814 226.58L450.814 227.06L450.814 227.06L398.11 227.06z" stroke="none" fill="#C35454" fill-rule="evenodd" /><path transform="matrix(1 0 0 -1 0 842)" d="M132.02 208.58L165.5 208.58L165.5 208.58L165.5 209.06L165.5 209.06L132.02 209.06z" stroke="none" fill="#C35454" fill-rule="evenodd" /></g></g></g></svg>