<svg xmlns="http://www.w3.org/2000/svg" xmlns:xlink="http://www.w3.org/1999/xlink" id="body_151" preserveAspectRatio="xMinYMin meet" viewBox="0 0 793 1123"><defs><clipPath id="1"><path d="M0 842L0 -0.03997803L0 -0.03997803L595.32 -0.03997803L595.32 -0.03997803L595.32 842L595.32 842L0 842z" /></clipPath><clipPath id="2"><path d="M487.78 782.72L507.46 782.72L507.46 782.72L507.46 770.24L507.46 770.24L487.78 770.24z" /></clipPath><clipPath id="3"><path d="M487.78 782.72L507.46 782.72L507.46 782.72L507.46 770.24L507.46 770.24L487.78 770.24z" /></clipPath><clipPath id="4"><path d="M487.78 782.72L507.46 782.72L507.46 782.72L507.46 770.24L507.46 770.24L487.78 770.24z" /></clipPath></defs><g transform="matrix(1.333333 0 0 1.333333 0 0)"><g><g clip-path="url(#1)"><g clip-path="url(#2)"><g clip-path="url(#3)"></g><g clip-path="url(#4)"></g></g><path transform="matrix(1 0 0 -1 0 842)" d="M434.25 665.79L434.25 659.79L434.25 659.79L439.25 662.29L439.25 662.29L435.25 662.29L435.25 662.29L435.25 663.29L435.25 663.29L439.25 663.29L439.25 663.29L434.25 665.79z" stroke="none" fill="#000000" fill-rule="evenodd" /><path transform="matrix(1 0 0 -1 0 842)" d="M152.25 662.29L434.25 662.29L434.25 662.29L434.25 663.29L434.25 663.29L152.25 663.29z" stroke="none" fill="#000000" fill-rule="evenodd" /><path transform="matrix(1 0 0 -1 0 842)" d="M439.25 663.29L435.25 663.29L435.25 663.29L435.25 662.29L435.25 662.29L439.25 662.29L439.25 662.29L440.25 662.79L440.25 662.79L439.25 663.29z" stroke="none" fill="#000000" fill-rule="evenodd" /><path transform="matrix(1 0 0 -1 0 842)" d="M434.25 373.09L434.25 367.09L434.25 367.09L439.25 369.59L439.25 369.59L435.25 369.59L435.25 369.59L435.25 370.59L435.25 370.59L439.25 370.59L439.25 370.59L434.25 373.09z" stroke="none" fill="#000000" fill-rule="evenodd" /><path transform="matrix(1 0 0 -1 0 842)" d="M152.25 369.59L434.25 369.59L434.25 369.59L434.25 370.59L434.25 370.59L152.25 370.59z" stroke="none" fill="#000000" fill-rule="evenodd" /><path transform="matrix(1 0 0 -1 0 842)" d="M439.25 370.59L435.25 370.59L435.25 370.59L435.25 369.59L435.25 369.59L439.25 369.59L439.25 369.59L440.25 370.09L440.25 370.09L439.25 370.59z" stroke="none" fill="#000000" fill-rule="evenodd" /><path transform="matrix(1 0 0 -1 0 842)" d="M172.34 756.94L191.804 756.94L191.804 756.94L191.804 757.42L191.804 757.42L172.34 757.42z" stroke="none" fill="#C35454" fill-rule="evenodd" /><path transform="matrix(1 0 0 -1 0 842)" d="M258.41 756.94L289.85 756.94L289.85 756.94L289.85 757.42L289.85 757.42L258.41 757.42z" stroke="none" fill="#C35454" fill-rule="evenodd" /><path transform="matrix(1 0 0 -1 0 842)" d="M154.1 464.11L184.484 464.11L184.484 464.11L184.484 464.59L184.484 464.59L154.1 464.59z" stroke="none" fill="#C35454" fill-rule="evenodd" /><path transform="matrix(1 0 0 -1 0 842)" d="M283.25 464.11L350.834 464.11L350.834 464.11L350.834 464.59L350.834 464.59L283.25 464.59z" stroke="none" fill="#C35454" fill-rule="evenodd" /></g></g></g></svg>