<svg xmlns="http://www.w3.org/2000/svg" xmlns:xlink="http://www.w3.org/1999/xlink" id="body_53" preserveAspectRatio="xMinYMin meet" viewBox="0 0 793 1123"><defs><clipPath id="1"><path d="M0 842L0 -0.03997803L0 -0.03997803L595.32 -0.03997803L595.32 -0.03997803L595.32 842L595.32 842L0 842z" /></clipPath><clipPath id="2"><path d="M492.94 782.72L507.46 782.72L507.46 782.72L507.46 770.24L507.46 770.24L492.94 770.24z" /></clipPath><clipPath id="3"><path d="M492.94 782.72L507.46 782.72L507.46 782.72L507.46 770.24L507.46 770.24L492.94 770.24z" /></clipPath><clipPath id="4"><path d="M492.94 782.72L507.46 782.72L507.46 782.72L507.46 770.24L507.46 770.24L492.94 770.24z" /></clipPath></defs><g transform="matrix(1.333333 0 0 1.333333 0 0)"><g><g clip-path="url(#1)"><g clip-path="url(#2)"><g clip-path="url(#3)"></g><g clip-path="url(#4)"></g></g><path transform="matrix(1 0 0 -1 0 842)" d="M153.02 738.82L190.364 738.82L190.364 738.82L190.364 739.3L190.364 739.3L153.02 739.3z" stroke="none" fill="#C35454" fill-rule="evenodd" /><path transform="matrix(1 0 0 -1 0 842)" d="M205.13 738.82L240.77 738.82L240.77 738.82L240.77 739.3L240.77 739.3L205.13 739.3z" stroke="none" fill="#C35454" fill-rule="evenodd" /><path transform="matrix(1 0 0 -1 0 842)" d="M153.02 689.26L167.9 689.26L167.9 689.26L167.9 689.74L167.9 689.74L153.02 689.74z" stroke="none" fill="#C35454" fill-rule="evenodd" /><path transform="matrix(1 0 0 -1 0 842)" d="M191.57 689.26L197.21 689.26L197.21 689.26L197.21 689.74L197.21 689.74L191.57 689.74z" stroke="none" fill="#C35454" fill-rule="evenodd" /><g transform="matrix(0.3614131 0 0 0.3659091 153.35 365.11)"><g transform="matrix(1 0 0 1 0 0)"><image x="0" y="0" xlink:href="img_26.png" width="184" height="44" /></g></g><path transform="matrix(1 0 0 -1 0 842)" d="M132.02 373.97L163.22 373.97L163.22 373.97L163.22 374.45L163.22 374.45L132.02 374.45z" stroke="none" fill="#C35454" fill-rule="evenodd" /><path transform="matrix(1 0 0 -1 0 842)" d="M229.37 373.97L245.93 373.97L245.93 373.97L245.93 374.45L245.93 374.45L229.37 374.45z" stroke="none" fill="#C35454" fill-rule="evenodd" /><path transform="matrix(1 0 0 -1 0 842)" d="M147.74 267.29L179.084 267.29L179.084 267.29L179.084 267.77L179.084 267.77L147.74 267.77z" stroke="none" fill="#C35454" fill-rule="evenodd" /><path transform="matrix(1 0 0 -1 0 842)" d="M245.57 267.29L267.17 267.29L267.17 267.29L267.17 267.77L267.17 267.77L245.57 267.77z" stroke="none" fill="#C35454" fill-rule="evenodd" /><path transform="matrix(1 0 0 -1 0 842)" d="M147.74 229.7L164.9 229.7L164.9 229.7L164.9 230.18L164.9 230.18L147.74 230.18z" stroke="none" fill="#C35454" fill-rule="evenodd" /><path transform="matrix(1 0 0 -1 0 842)" d="M231.05 229.7L247.61 229.7L247.61 229.7L247.61 230.18L247.61 230.18L231.05 230.18z" stroke="none" fill="#C35454" fill-rule="evenodd" /></g></g></g></svg>