<svg xmlns="http://www.w3.org/2000/svg" xmlns:xlink="http://www.w3.org/1999/xlink" id="body_32" preserveAspectRatio="xMinYMin meet" viewBox="0 0 793 1123"><defs><clipPath id="1"><path d="M0 842L0 -0.03997803L0 -0.03997803L595.32 -0.03997803L595.32 -0.03997803L595.32 842L595.32 842L0 842z" /></clipPath><clipPath id="2"><path d="M87.984 782.72L102.504 782.72L102.504 782.72L102.504 770.24L102.504 770.24L87.984 770.24z" /></clipPath><clipPath id="3"><path d="M87.984 782.72L102.504 782.72L102.504 782.72L102.504 770.24L102.504 770.24L87.984 770.24z" /></clipPath><clipPath id="4"><path d="M87.984 782.72L102.504 782.72L102.504 782.72L102.504 770.24L102.504 770.24L87.984 770.24z" /></clipPath></defs><g transform="matrix(1.333333 0 0 1.333333 0 0)"><g><g clip-path="url(#1)"><g clip-path="url(#2)"><g clip-path="url(#3)"></g><g clip-path="url(#4)"></g></g><path transform="matrix(1 0 0 -1 0 842)" d="M174.62 661.3L241.604 661.3L241.604 661.3L241.604 661.78L241.604 661.78L174.62 661.78z" stroke="none" fill="#C35454" fill-rule="evenodd" /><path transform="matrix(1 0 0 -1 0 842)" d="M160.46 557.71L242.924 557.71L242.924 557.71L242.924 558.19L242.924 558.19L160.46 558.19z" stroke="none" fill="#C35454" fill-rule="evenodd" /><path transform="matrix(1 0 0 -1 0 842)" d="M199.01 436.03L257.45 436.03L257.45 436.03L257.45 436.51L257.45 436.51L199.01 436.51z" stroke="none" fill="#C35454" fill-rule="evenodd" /><g transform="matrix(0.3611413 0 0 0.3625 243.85 582.46)"><g transform="matrix(1 0 0 1 0 0)"><image x="0" y="0" xlink:href="img_26.png" width="184" height="44" /></g></g></g></g></g></svg>