<svg xmlns="http://www.w3.org/2000/svg" xmlns:xlink="http://www.w3.org/1999/xlink" id="body_103" preserveAspectRatio="xMinYMin meet" viewBox="0 0 793 1123"><defs><clipPath id="1"><path d="M0 842L0 -0.03997803L0 -0.03997803L595.32 -0.03997803L595.32 -0.03997803L595.32 842L595.32 842L0 842z" /></clipPath><clipPath id="2"><path d="M487.78 782.72L507.46 782.72L507.46 782.72L507.46 770.24L507.46 770.24L487.78 770.24z" /></clipPath><clipPath id="3"><path d="M487.78 782.72L507.46 782.72L507.46 782.72L507.46 770.24L507.46 770.24L487.78 770.24z" /></clipPath><clipPath id="4"><path d="M487.78 782.72L507.46 782.72L507.46 782.72L507.46 770.24L507.46 770.24L487.78 770.24z" /></clipPath></defs><g transform="matrix(1.333333 0 0 1.333333 0 0)"><g><g clip-path="url(#1)"><g clip-path="url(#2)"><g clip-path="url(#3)"></g><g clip-path="url(#4)"></g></g><path transform="matrix(1 0 0 -1 0 842)" d="M132.02 759.84L218.324 759.84L218.324 759.84L218.324 760.32L218.324 760.32L132.02 760.32z" stroke="none" fill="#C35454" fill-rule="evenodd" /><path transform="matrix(1 0 0 -1 0 842)" d="M282.77 759.84L320.234 759.84L320.234 759.84L320.234 760.32L320.234 760.32L282.77 760.32z" stroke="none" fill="#C35454" fill-rule="evenodd" /><path transform="matrix(1 0 0 -1 0 842)" d="M330.91 759.84L417.574 759.84L417.574 759.84L417.574 760.32L417.574 760.32L330.91 760.32z" stroke="none" fill="#C35454" fill-rule="evenodd" /><path transform="matrix(1 0 0 -1 0 842)" d="M132.02 590.98L377.59 590.98L377.59 590.98L377.59 591.46L377.59 591.46L132.02 591.46z" stroke="none" fill="#C35454" fill-rule="evenodd" /><path transform="matrix(1 0 0 -1 0 842)" d="M398.35 590.98L431.614 590.98L431.614 590.98L431.614 591.46L431.614 591.46L398.35 591.46z" stroke="none" fill="#C35454" fill-rule="evenodd" /><path transform="matrix(1 0 0 -1 0 842)" d="M132.02 572.95L318.31 572.95L318.31 572.95L318.31 573.43L318.31 573.43L132.02 573.43z" stroke="none" fill="#C35454" fill-rule="evenodd" /><path transform="matrix(1 0 0 -1 0 842)" d="M132.02 410.81L377.35 410.81L377.35 410.81L377.35 411.29L377.35 411.29L132.02 411.29z" stroke="none" fill="#C35454" fill-rule="evenodd" /><path transform="matrix(1 0 0 -1 0 842)" d="M398.11 410.81L459.094 410.81L459.094 410.81L459.094 411.29L459.094 411.29L398.11 411.29z" stroke="none" fill="#C35454" fill-rule="evenodd" /><path transform="matrix(1 0 0 -1 0 842)" d="M132.02 392.81L165.5 392.81L165.5 392.81L165.5 393.29L165.5 393.29L132.02 393.29z" stroke="none" fill="#C35454" fill-rule="evenodd" /><path transform="matrix(1 0 0 -1 0 842)" d="M132.02 266.57L377.35 266.57L377.35 266.57L377.35 267.05L377.35 267.05L132.02 267.05z" stroke="none" fill="#C35454" fill-rule="evenodd" /><path transform="matrix(1 0 0 -1 0 842)" d="M398.11 266.57L450.814 266.57L450.814 266.57L450.814 267.05L450.814 267.05L398.11 267.05z" stroke="none" fill="#C35454" fill-rule="evenodd" /><path transform="matrix(1 0 0 -1 0 842)" d="M132.02 248.66L165.5 248.66L165.5 248.66L165.5 249.14L165.5 249.14L132.02 249.14z" stroke="none" fill="#C35454" fill-rule="evenodd" /></g></g></g></svg>