<svg xmlns="http://www.w3.org/2000/svg" xmlns:xlink="http://www.w3.org/1999/xlink" id="body_18" preserveAspectRatio="xMinYMin meet" viewBox="0 0 793 1123"><defs><clipPath id="1"><path d="M0 842L0 -0.03997803L0 -0.03997803L595.32 -0.03997803L595.32 -0.03997803L595.32 842L595.32 842L0 842z" /></clipPath><clipPath id="2"><path d="M492.94 782.72L507.46 782.72L507.46 782.72L507.46 770.24L507.46 770.24L492.94 770.24z" /></clipPath><clipPath id="3"><path d="M492.94 782.72L507.46 782.72L507.46 782.72L507.46 770.24L507.46 770.24L492.94 770.24z" /></clipPath><clipPath id="4"><path d="M492.94 782.72L507.46 782.72L507.46 782.72L507.46 770.24L507.46 770.24L492.94 770.24z" /></clipPath></defs><g transform="matrix(1.333333 0 0 1.333333 0 0)"><g><g clip-path="url(#1)"><g clip-path="url(#2)"><g clip-path="url(#3)"></g><g clip-path="url(#4)"></g></g><path transform="matrix(1 0 0 -1 0 842)" d="M179.45 721.42L204.53 721.42L204.53 721.42L204.53 721.9L204.53 721.9L179.45 721.9z" stroke="none" fill="#C35454" fill-rule="evenodd" /><path transform="matrix(1 0 0 -1 0 842)" d="M189.29 703.42L217.37 703.42L217.37 703.42L217.37 703.9L217.37 703.9L189.29 703.9z" stroke="none" fill="#C35454" fill-rule="evenodd" /><path transform="matrix(1 0 0 -1 0 842)" d="M183.65 685.42L218.09 685.42L218.09 685.42L218.09 685.9L218.09 685.9L183.65 685.9z" stroke="none" fill="#C35454" fill-rule="evenodd" /><path transform="matrix(1 0 0 -1 0 842)" d="M203.45 667.42L234.89 667.42L234.89 667.42L234.89 667.9L234.89 667.9L203.45 667.9z" stroke="none" fill="#C35454" fill-rule="evenodd" /><path transform="matrix(1 0 0 -1 0 842)" d="M184.37 649.42L206.81 649.42L206.81 649.42L206.81 649.9L206.81 649.9L184.37 649.9z" stroke="none" fill="#C35454" fill-rule="evenodd" /><path transform="matrix(1 0 0 -1 0 842)" d="M173.9 631.42L199.604 631.42L199.604 631.42L199.604 631.9L199.604 631.9L173.9 631.9z" stroke="none" fill="#C35454" fill-rule="evenodd" /><path transform="matrix(1 0 0 -1 0 842)" d="M171.62 612.58L207.164 612.58L207.164 612.58L207.164 613.06L207.164 613.06L171.62 613.06z" stroke="none" fill="#C35454" fill-rule="evenodd" /><path transform="matrix(1 0 0 -1 0 842)" d="M179.81 594.46L208.97 594.46L208.97 594.46L208.97 594.94L208.97 594.94L179.81 594.94z" stroke="none" fill="#C35454" fill-rule="evenodd" /><path transform="matrix(1 0 0 -1 0 842)" d="M172.94 576.43L204.404 576.43L204.404 576.43L204.404 576.91L204.404 576.91L172.94 576.91z" stroke="none" fill="#C35454" fill-rule="evenodd" /><path transform="matrix(1 0 0 -1 0 842)" d="M174.62 559.15L209.084 559.15L209.084 559.15L209.084 559.63L209.084 559.63L174.62 559.63z" stroke="none" fill="#C35454" fill-rule="evenodd" /><path transform="matrix(1 0 0 -1 0 842)" d="M205.01 541.39L234.17 541.39L234.17 541.39L234.17 541.87L234.17 541.87L205.01 541.87z" stroke="none" fill="#C35454" fill-rule="evenodd" /><path transform="matrix(1 0 0 -1 0 842)" d="M179.21 432.67L188.69 432.67L188.69 432.67L188.69 433.15L188.69 433.15L179.21 433.15z" stroke="none" fill="#C35454" fill-rule="evenodd" /><path transform="matrix(1 0 0 -1 0 842)" d="M189.29 414.65L198.77 414.65L198.77 414.65L198.77 415.13L198.77 415.13L189.29 415.13z" stroke="none" fill="#C35454" fill-rule="evenodd" /><path transform="matrix(1 0 0 -1 0 842)" d="M183.77 396.53L193.25 396.53L193.25 396.53L193.25 397.01L193.25 397.01L183.77 397.01z" stroke="none" fill="#C35454" fill-rule="evenodd" /><path transform="matrix(1 0 0 -1 0 842)" d="M203.45 378.53L212.93 378.53L212.93 378.53L212.93 379.01L212.93 379.01L203.45 379.01z" stroke="none" fill="#C35454" fill-rule="evenodd" /><path transform="matrix(1 0 0 -1 0 842)" d="M184.37 360.41L193.85 360.41L193.85 360.41L193.85 360.89L193.85 360.89L184.37 360.89z" stroke="none" fill="#C35454" fill-rule="evenodd" /><path transform="matrix(1 0 0 -1 0 842)" d="M173.9 342.41L183.524 342.41L183.524 342.41L183.524 342.89L183.524 342.89L173.9 342.89z" stroke="none" fill="#C35454" fill-rule="evenodd" /><path transform="matrix(1 0 0 -1 0 842)" d="M205.13 324.29L228.17 324.29L228.17 324.29L228.17 324.77L228.17 324.77L205.13 324.77z" stroke="none" fill="#C35454" fill-rule="evenodd" /><path transform="matrix(1 0 0 -1 0 842)" d="M171.62 306.29L181.244 306.29L181.244 306.29L181.244 306.77L181.244 306.77L171.62 306.77z" stroke="none" fill="#C35454" fill-rule="evenodd" /><path transform="matrix(1 0 0 -1 0 842)" d="M179.81 288.17L198.65 288.17L198.65 288.17L198.65 288.65L198.65 288.65L179.81 288.65z" stroke="none" fill="#C35454" fill-rule="evenodd" /><path transform="matrix(1 0 0 -1 0 842)" d="M172.94 270.17L191.804 270.17L191.804 270.17L191.804 270.65L191.804 270.65L172.94 270.65z" stroke="none" fill="#C35454" fill-rule="evenodd" /><path transform="matrix(1 0 0 -1 0 842)" d="M174.74 252.02L193.604 252.02L193.604 252.02L193.604 252.5L193.604 252.5L174.74 252.5z" stroke="none" fill="#C35454" fill-rule="evenodd" /><path transform="matrix(1 0 0 -1 0 842)" d="M205.01 234.02L214.49 234.02L214.49 234.02L214.49 234.5L214.49 234.5L205.01 234.5z" stroke="none" fill="#C35454" fill-rule="evenodd" /></g></g></g></svg>