<svg xmlns="http://www.w3.org/2000/svg" xmlns:xlink="http://www.w3.org/1999/xlink" id="body_311" preserveAspectRatio="xMinYMin meet" viewBox="0 0 793 1123"><defs><clipPath id="1"><path d="M0 842L0 -0.03997803L0 -0.03997803L595.32 -0.03997803L595.32 -0.03997803L595.32 842L595.32 842L0 842z" /></clipPath><clipPath id="2"><path d="M487.78 782.72L507.46 782.72L507.46 782.72L507.46 770.24L507.46 770.24L487.78 770.24z" /></clipPath><clipPath id="3"><path d="M487.78 782.72L507.46 782.72L507.46 782.72L507.46 770.24L507.46 770.24L487.78 770.24z" /></clipPath><clipPath id="4"><path d="M487.78 782.72L507.46 782.72L507.46 782.72L507.46 770.24L507.46 770.24L487.78 770.24z" /></clipPath></defs><g transform="matrix(1.333333 0 0 1.333333 0 0)"><g><g clip-path="url(#1)"><g clip-path="url(#2)"><g clip-path="url(#3)"></g><g clip-path="url(#4)"></g></g><path transform="matrix(1 0 0 -1 0 842)" d="M132.02 700.3L241.48 700.3L241.48 700.3L241.48 700.78L241.48 700.78L132.02 700.78z" stroke="none" fill="#C35454" fill-rule="evenodd" /><path transform="matrix(1 0 0 -1 0 842)" d="M132.02 650.62L148.1 650.62L148.1 650.62L148.1 651.1L148.1 651.1L132.02 651.1z" stroke="none" fill="#C35454" fill-rule="evenodd" /><path transform="matrix(1 0 0 -1 0 842)" d="M216.65 650.62L264.17 650.62L264.17 650.62L264.17 651.1L264.17 651.1L216.65 651.1z" stroke="none" fill="#C35454" fill-rule="evenodd" /><path transform="matrix(1 0 0 -1 0 842)" d="M132.02 598.18L196.364 598.18L196.364 598.18L196.364 598.66L196.364 598.66L132.02 598.66z" stroke="none" fill="#C35454" fill-rule="evenodd" /><path transform="matrix(1 0 0 -1 0 842)" d="M264.53 598.18L312.194 598.18L312.194 598.18L312.194 598.66L312.194 598.66L264.53 598.66z" stroke="none" fill="#C35454" fill-rule="evenodd" /><path transform="matrix(1 0 0 -1 0 842)" d="M132.02 435.91L289.6 435.91L289.6 435.91L289.6 436.39L289.6 436.39L132.02 436.39z" stroke="none" fill="#C35454" fill-rule="evenodd" /><path transform="matrix(1 0 0 -1 0 842)" d="M239.93 344.33L361.03 344.33L361.03 344.33L361.03 344.81L361.03 344.81L239.93 344.81z" stroke="none" fill="#C35454" fill-rule="evenodd" /><path transform="matrix(1 0 0 -1 0 842)" d="M132.02 222.62L148.1 222.62L148.1 222.62L148.1 223.1L148.1 223.1L132.02 223.1z" stroke="none" fill="#C35454" fill-rule="evenodd" /><path transform="matrix(1 0 0 -1 0 842)" d="M218.93 222.62L285.29 222.62L285.29 222.62L285.29 223.1L285.29 223.1L218.93 223.1z" stroke="none" fill="#C35454" fill-rule="evenodd" /></g></g></g></svg>