<svg xmlns="http://www.w3.org/2000/svg" xmlns:xlink="http://www.w3.org/1999/xlink" id="body_143" preserveAspectRatio="xMinYMin meet" viewBox="0 0 793 1123"><defs><clipPath id="1"><path d="M0 842L0 -0.03997803L0 -0.03997803L595.32 -0.03997803L595.32 -0.03997803L595.32 842L595.32 842L0 842z" /></clipPath><clipPath id="2"><path d="M487.78 782.72L507.46 782.72L507.46 782.72L507.46 770.24L507.46 770.24L487.78 770.24z" /></clipPath><clipPath id="3"><path d="M487.78 782.72L507.46 782.72L507.46 782.72L507.46 770.24L507.46 770.24L487.78 770.24z" /></clipPath><clipPath id="4"><path d="M487.78 782.72L507.46 782.72L507.46 782.72L507.46 770.24L507.46 770.24L487.78 770.24z" /></clipPath></defs><g transform="matrix(1.333333 0 0 1.333333 0 0)"><g><g clip-path="url(#1)"><g clip-path="url(#2)"><g clip-path="url(#3)"></g><g clip-path="url(#4)"></g></g><path transform="matrix(1 0 0 -1 0 842)" d="M435.75 746.99L435.75 740.99L435.75 740.99L440.75 743.49L440.75 743.49L436.75 743.49L436.75 743.49L436.75 744.49L436.75 744.49L440.75 744.49L440.75 744.49L435.75 746.99z" stroke="none" fill="#000000" fill-rule="evenodd" /><path transform="matrix(1 0 0 -1 0 842)" d="M153.75 743.49L435.75 743.49L435.75 743.49L435.75 744.49L435.75 744.49L153.75 744.49z" stroke="none" fill="#000000" fill-rule="evenodd" /><path transform="matrix(1 0 0 -1 0 842)" d="M440.75 744.49L436.75 744.49L436.75 744.49L436.75 743.49L436.75 743.49L440.75 743.49L440.75 743.49L441.75 743.99L441.75 743.99L440.75 744.49z" stroke="none" fill="#000000" fill-rule="evenodd" /><path transform="matrix(1 0 0 -1 0 842)" d="M436.5 503.84L436.5 497.84L436.5 497.84L441.5 500.34L441.5 500.34L437.5 500.34L437.5 500.34L437.5 501.34L437.5 501.34L441.5 501.34L441.5 501.34L436.5 503.84z" stroke="none" fill="#000000" fill-rule="evenodd" /><path transform="matrix(1 0 0 -1 0 842)" d="M154.5 500.34L436.5 500.34L436.5 500.34L436.5 501.34L436.5 501.34L154.5 501.34z" stroke="none" fill="#000000" fill-rule="evenodd" /><path transform="matrix(1 0 0 -1 0 842)" d="M441.5 501.34L437.5 501.34L437.5 501.34L437.5 500.34L437.5 500.34L441.5 500.34L441.5 500.34L442.5 500.84L442.5 500.84L441.5 501.34z" stroke="none" fill="#000000" fill-rule="evenodd" /><path transform="matrix(1 0 0 -1 0 842)" d="M178.25 594.82L196.97 594.82L196.97 594.82L196.97 595.3L196.97 595.3L178.25 595.3z" stroke="none" fill="#C35454" fill-rule="evenodd" /><path transform="matrix(1 0 0 -1 0 842)" d="M299.83 594.82L341.71 594.82L341.71 594.82L341.71 595.3L341.71 595.3L299.83 595.3z" stroke="none" fill="#C35454" fill-rule="evenodd" /><path transform="matrix(1 0 0 -1 0 842)" d="M138.02 150.74L160.46 150.74L160.46 150.74L160.46 151.22L160.46 151.22L138.02 151.22z" stroke="none" fill="#C35454" fill-rule="evenodd" /></g></g></g></svg>