<svg xmlns="http://www.w3.org/2000/svg" xmlns:xlink="http://www.w3.org/1999/xlink" id="body_391" preserveAspectRatio="xMinYMin meet" viewBox="0 0 793 1123"><defs><clipPath id="1"><path d="M0 842L0 -0.03997803L0 -0.03997803L595.32 -0.03997803L595.32 -0.03997803L595.32 842L595.32 842L0 842z" /></clipPath><clipPath id="2"><path d="M487.78 782.72L507.46 782.72L507.46 782.72L507.46 770.24L507.46 770.24L487.78 770.24z" /></clipPath><clipPath id="3"><path d="M487.78 782.72L507.46 782.72L507.46 782.72L507.46 770.24L507.46 770.24L487.78 770.24z" /></clipPath><clipPath id="4"><path d="M487.78 782.72L507.46 782.72L507.46 782.72L507.46 770.24L507.46 770.24L487.78 770.24z" /></clipPath></defs><g transform="matrix(1.333333 0 0 1.333333 0 0)"><g><g clip-path="url(#1)"><g clip-path="url(#2)"><g clip-path="url(#3)"></g><g clip-path="url(#4)"></g></g><path transform="matrix(1 0 0 -1 0 842)" d="M132 359.09L135.5 359.09" stroke="#C35454" stroke-width="0.64" stroke-linecap="round" fill="none" /><path transform="matrix(1 0 0 -1 0 842)" d="M132.02 761.4L200.804 761.4L200.804 761.4L200.804 761.88L200.804 761.88L132.02 761.88z" stroke="none" fill="#C35454" fill-rule="evenodd" /><path transform="matrix(1 0 0 -1 0 842)" d="M204.05 677.14L365.35 677.14L365.35 677.14L365.35 677.62L365.35 677.62L204.05 677.62z" stroke="none" fill="#C35454" fill-rule="evenodd" /><path transform="matrix(1 0 0 -1 0 842)" d="M132.02 520.99L175.22 520.99L175.22 520.99L175.22 521.47L175.22 521.47L132.02 521.47z" stroke="none" fill="#C35454" fill-rule="evenodd" /><path transform="matrix(1 0 0 -1 0 842)" d="M240.05 520.99L249.65 520.99L249.65 520.99L249.65 521.47L249.65 521.47L240.05 521.47z" stroke="none" fill="#C35454" fill-rule="evenodd" /><path transform="matrix(1 0 0 -1 0 842)" d="M159.26 358.97L277.72 358.97L277.72 358.97L277.72 359.45L277.72 359.45L159.26 359.45z" stroke="none" fill="#C35454" fill-rule="evenodd" /><path transform="matrix(1 0 0 -1 0 842)" d="M132.02 264.17L148.1 264.17L148.1 264.17L148.1 264.65L148.1 264.65L132.02 264.65z" stroke="none" fill="#C35454" fill-rule="evenodd" /><path transform="matrix(1 0 0 -1 0 842)" d="M202.13 264.17L347.59 264.17L347.59 264.17L347.59 264.65L347.59 264.65L202.13 264.65z" stroke="none" fill="#C35454" fill-rule="evenodd" /><path transform="matrix(1 0 0 -1 0 842)" d="M132.02 120.02L196.364 120.02L196.364 120.02L196.364 120.5L196.364 120.5L132.02 120.5z" stroke="none" fill="#C35454" fill-rule="evenodd" /><path transform="matrix(1 0 0 -1 0 842)" d="M236.57 120.02L348.19 120.02L348.19 120.02L348.19 120.5L348.19 120.5L236.57 120.5z" stroke="none" fill="#C35454" fill-rule="evenodd" /></g></g></g></svg>