<svg xmlns="http://www.w3.org/2000/svg" xmlns:xlink="http://www.w3.org/1999/xlink" id="body_428" preserveAspectRatio="xMinYMin meet" viewBox="0 0 793 1123"><defs><clipPath id="1"><path d="M0 842L0 -0.03997803L0 -0.03997803L595.32 -0.03997803L595.32 -0.03997803L595.32 842L595.32 842L0 842z" /></clipPath><clipPath id="2"><path d="M87.984 782.72L107.784 782.72L107.784 782.72L107.784 770.24L107.784 770.24L87.984 770.24z" /></clipPath><clipPath id="3"><path d="M87.984 782.72L107.784 782.72L107.784 782.72L107.784 770.24L107.784 770.24L87.984 770.24z" /></clipPath><clipPath id="4"><path d="M87.984 782.72L107.784 782.72L107.784 782.72L107.784 770.24L107.784 770.24L87.984 770.24z" /></clipPath></defs><g transform="matrix(1.333333 0 0 1.333333 0 0)"><g><g clip-path="url(#1)"><g clip-path="url(#2)"><g clip-path="url(#3)"></g><g clip-path="url(#4)"></g></g><path transform="matrix(1 0 0 -1 0 842)" d="M132.02 666.82L314.23 666.82L314.23 666.82L314.23 667.3L314.23 667.3L132.02 667.3z" stroke="none" fill="#C35454" fill-rule="evenodd" /><path transform="matrix(1 0 0 -1 0 842)" d="M433.06 666.82L453.46 666.82L453.46 666.82L453.46 667.3L453.46 667.3L433.06 667.3z" stroke="none" fill="#C35454" fill-rule="evenodd" /><path transform="matrix(1 0 0 -1 0 842)" d="M132.02 648.94L257.2 648.94L257.2 648.94L257.2 649.42L257.2 649.42L132.02 649.42z" stroke="none" fill="#C35454" fill-rule="evenodd" /><path transform="matrix(1 0 0 -1 0 842)" d="M132.02 558.67L233.08 558.67L233.08 558.67L233.08 559.15L233.08 559.15L132.02 559.15z" stroke="none" fill="#C35454" fill-rule="evenodd" /><path transform="matrix(1 0 0 -1 0 842)" d="M389.71 558.67L444.094 558.67L444.094 558.67L444.094 559.15L444.094 559.15L389.71 559.15z" stroke="none" fill="#C35454" fill-rule="evenodd" /><path transform="matrix(1 0 0 -1 0 842)" d="M132.02 540.79L212.084 540.79L212.084 540.79L212.084 541.27L212.084 541.27L132.02 541.27z" stroke="none" fill="#C35454" fill-rule="evenodd" /><path transform="matrix(1 0 0 -1 0 842)" d="M142.58 486.55L258.88 486.55L258.88 486.55L258.88 487.03L258.88 487.03L142.58 487.03z" stroke="none" fill="#C35454" fill-rule="evenodd" /><path transform="matrix(1 0 0 -1 0 842)" d="M385.87 486.55L451.054 486.55L451.054 486.55L451.054 487.03L451.054 487.03L385.87 487.03z" stroke="none" fill="#C35454" fill-rule="evenodd" /><path transform="matrix(1 0 0 -1 0 842)" d="M132.02 468.67L265 468.67L265 468.67L265 469.15L265 469.15L132.02 469.15z" stroke="none" fill="#C35454" fill-rule="evenodd" /><path transform="matrix(1 0 0 -1 0 842)" d="M132.02 324.41L225.404 324.41L225.404 324.41L225.404 324.89L225.404 324.89L132.02 324.89z" stroke="none" fill="#C35454" fill-rule="evenodd" /><path transform="matrix(1 0 0 -1 0 842)" d="M351.19 324.41L453.45 324.41L453.45 324.41L453.45 324.89L453.45 324.89L351.19 324.89z" stroke="none" fill="#C35454" fill-rule="evenodd" /><path transform="matrix(1 0 0 -1 0 842)" d="M132.02 306.41L224.444 306.41L224.444 306.41L224.444 306.89L224.444 306.89L132.02 306.89z" stroke="none" fill="#C35454" fill-rule="evenodd" /></g></g></g></svg>