<svg xmlns="http://www.w3.org/2000/svg" xmlns:xlink="http://www.w3.org/1999/xlink" id="body_106" preserveAspectRatio="xMinYMin meet" viewBox="0 0 793 1123"><defs><clipPath id="1"><path d="M0 842L0 -0.03997803L0 -0.03997803L595.32 -0.03997803L595.32 -0.03997803L595.32 842L595.32 842L0 842z" /></clipPath><clipPath id="2"><path d="M87.984 782.72L107.784 782.72L107.784 782.72L107.784 770.24L107.784 770.24L87.984 770.24z" /></clipPath><clipPath id="3"><path d="M87.984 782.72L107.784 782.72L107.784 782.72L107.784 770.24L107.784 770.24L87.984 770.24z" /></clipPath><clipPath id="4"><path d="M87.984 782.72L107.784 782.72L107.784 782.72L107.784 770.24L107.784 770.24L87.984 770.24z" /></clipPath></defs><g transform="matrix(1.333333 0 0 1.333333 0 0)"><g><g clip-path="url(#1)"><g clip-path="url(#2)"><g clip-path="url(#3)"></g><g clip-path="url(#4)"></g></g><path transform="matrix(1 0 0 -1 0 842)" d="M222.65 756.94L281.45 756.94L281.45 756.94L281.45 757.42L281.45 757.42L222.65 757.42z" stroke="none" fill="#C35454" fill-rule="evenodd" /><path transform="matrix(1 0 0 -1 0 842)" d="M238.73 504.43L307.634 504.43L307.634 504.43L307.634 504.91L307.634 504.91L238.73 504.91z" stroke="none" fill="#C35454" fill-rule="evenodd" /><path transform="matrix(1 0 0 -1 0 842)" d="M245.69 432.43L338.834 432.43L338.834 432.43L338.834 432.91L338.834 432.91L245.69 432.91z" stroke="none" fill="#C35454" fill-rule="evenodd" /><path transform="matrix(1 0 0 -1 0 842)" d="M265.25 382.85L344.714 382.85L344.714 382.85L344.714 383.33L344.714 383.33L265.25 383.33z" stroke="none" fill="#C35454" fill-rule="evenodd" /></g></g></g></svg>