<svg xmlns="http://www.w3.org/2000/svg" xmlns:xlink="http://www.w3.org/1999/xlink" id="body_91" preserveAspectRatio="xMinYMin meet" viewBox="0 0 793 1123"><defs><clipPath id="1"><path d="M0 842L0 -0.03997803L0 -0.03997803L595.32 -0.03997803L595.32 -0.03997803L595.32 842L595.32 842L0 842z" /></clipPath><clipPath id="2"><path d="M492.94 782.72L507.46 782.72L507.46 782.72L507.46 770.24L507.46 770.24L492.94 770.24z" /></clipPath><clipPath id="3"><path d="M492.94 782.72L507.46 782.72L507.46 782.72L507.46 770.24L507.46 770.24L492.94 770.24z" /></clipPath><clipPath id="4"><path d="M492.94 782.72L507.46 782.72L507.46 782.72L507.46 770.24L507.46 770.24L492.94 770.24z" /></clipPath></defs><g transform="matrix(1.333333 0 0 1.333333 0 0)"><g><g clip-path="url(#1)"><g clip-path="url(#2)"><g clip-path="url(#3)"></g><g clip-path="url(#4)"></g></g><path transform="matrix(1 0 0 -1 0 842)" d="M203.57 737.38L250.49 737.38L250.49 737.38L250.49 737.86L250.49 737.86L203.57 737.86z" stroke="none" fill="#C35454" fill-rule="evenodd" /><path transform="matrix(1 0 0 -1 0 842)" d="M203.57 613.78L260.33 613.78L260.33 613.78L260.33 614.26L260.33 614.26L203.57 614.26z" stroke="none" fill="#C35454" fill-rule="evenodd" /><path transform="matrix(1 0 0 -1 0 842)" d="M170.9 440.23L245.804 440.23L245.804 440.23L245.804 440.71L245.804 440.71L170.9 440.71z" stroke="none" fill="#C35454" fill-rule="evenodd" /><path transform="matrix(1 0 0 -1 0 842)" d="M170.9 334.97L225.164 334.97L225.164 334.97L225.164 335.45L225.164 335.45L170.9 335.45z" stroke="none" fill="#C35454" fill-rule="evenodd" /><path transform="matrix(1 0 0 -1 0 842)" d="M228.65 334.97L278.33 334.97L278.33 334.97L278.33 335.45L278.33 335.45L228.65 335.45z" stroke="none" fill="#C35454" fill-rule="evenodd" /><path transform="matrix(1 0 0 -1 0 842)" d="M281.81 334.97L288.65 334.97L288.65 334.97L288.65 335.45L288.65 335.45L281.81 335.45z" stroke="none" fill="#C35454" fill-rule="evenodd" /><path transform="matrix(1 0 0 -1 0 842)" d="M170.9 283.49L225.164 283.49L225.164 283.49L225.164 283.97L225.164 283.97L170.9 283.97z" stroke="none" fill="#C35454" fill-rule="evenodd" /><path transform="matrix(1 0 0 -1 0 842)" d="M228.65 283.49L285.17 283.49L285.17 283.49L285.17 283.97L285.17 283.97L228.65 283.97z" stroke="none" fill="#C35454" fill-rule="evenodd" /><path transform="matrix(1 0 0 -1 0 842)" d="M170.9 202.1L253.004 202.1L253.004 202.1L253.004 202.58L253.004 202.58L170.9 202.58z" stroke="none" fill="#C35454" fill-rule="evenodd" /></g></g></g></svg>