<svg xmlns="http://www.w3.org/2000/svg" xmlns:xlink="http://www.w3.org/1999/xlink" id="body_305" preserveAspectRatio="xMinYMin meet" viewBox="0 0 793 1123"><defs><clipPath id="1"><path d="M0 842L0 -0.03997803L0 -0.03997803L595.32 -0.03997803L595.32 -0.03997803L595.32 842L595.32 842L0 842z" /></clipPath><clipPath id="2"><path d="M487.78 782.72L507.46 782.72L507.46 782.72L507.46 770.24L507.46 770.24L487.78 770.24z" /></clipPath><clipPath id="3"><path d="M487.78 782.72L507.46 782.72L507.46 782.72L507.46 770.24L507.46 770.24L487.78 770.24z" /></clipPath><clipPath id="4"><path d="M487.78 782.72L507.46 782.72L507.46 782.72L507.46 770.24L507.46 770.24L487.78 770.24z" /></clipPath></defs><g transform="matrix(1.333333 0 0 1.333333 0 0)"><g><g clip-path="url(#1)"><g clip-path="url(#2)"><g clip-path="url(#3)"></g><g clip-path="url(#4)"></g></g><path transform="matrix(1 0 0 -1 0 842)" d="M142.6 244.84L146.05 244.84" stroke="#C35454" stroke-width="0.64008" stroke-linecap="round" fill="none" /><path transform="matrix(1 0 0 -1 0 842)" d="M132.02 688.3L259.84 688.3L259.84 688.3L259.84 688.78L259.84 688.78L132.02 688.78z" stroke="none" fill="#C35454" fill-rule="evenodd" /><path transform="matrix(1 0 0 -1 0 842)" d="M260.09 546.67L278.33 546.67L278.33 546.67L278.33 547.15L278.33 547.15L260.09 547.15z" stroke="none" fill="#C35454" fill-rule="evenodd" /><path transform="matrix(1 0 0 -1 0 842)" d="M174.5 244.7L250.124 244.7L250.124 244.7L250.124 245.18L250.124 245.18L174.5 245.18z" stroke="none" fill="#C35454" fill-rule="evenodd" /><path transform="matrix(1 0 0 -1 0 842)" d="M142.58 181.46L202.004 181.46L202.004 181.46L202.004 181.94L202.004 181.94L142.58 181.94z" stroke="none" fill="#C35454" fill-rule="evenodd" /></g></g></g></svg>