<svg xmlns="http://www.w3.org/2000/svg" xmlns:xlink="http://www.w3.org/1999/xlink" id="body_38" preserveAspectRatio="xMinYMin meet" viewBox="0 0 793 1123"><defs><clipPath id="1"><path d="M0 842L0 -0.03997803L0 -0.03997803L595.32 -0.03997803L595.32 -0.03997803L595.32 842L595.32 842L0 842z" /></clipPath><clipPath id="2"><path d="M87.984 782.72L102.504 782.72L102.504 782.72L102.504 770.24L102.504 770.24L87.984 770.24z" /></clipPath><clipPath id="3"><path d="M87.984 782.72L102.504 782.72L102.504 782.72L102.504 770.24L102.504 770.24L87.984 770.24z" /></clipPath><clipPath id="4"><path d="M87.984 782.72L102.504 782.72L102.504 782.72L102.504 770.24L102.504 770.24L87.984 770.24z" /></clipPath><clipPath id="5"><path d="M129.98 447.87L174.74 447.87L174.74 447.87L174.74 424.35L174.74 424.35L129.98 424.35z" /></clipPath><clipPath id="6"><path d="M129.98 447.87L174.74 447.87L174.74 447.87L174.74 424.35L174.74 424.35L129.98 424.35z" /></clipPath><clipPath id="7"><path d="M129.98 447.87L174.74 447.87L174.74 447.87L174.74 424.35L174.74 424.35L129.98 424.35z" /></clipPath><clipPath id="8"><path d="M174.74 447.87L225.764 447.87L225.764 447.87L225.764 424.35L225.764 424.35L174.74 424.35z" /></clipPath><clipPath id="9"><path d="M174.74 447.87L225.764 447.87L225.764 447.87L225.764 424.35L225.764 424.35L174.74 424.35z" /></clipPath><clipPath id="10"><path d="M174.74 447.87L225.764 447.87L225.764 447.87L225.764 424.35L225.764 424.35L174.74 424.35z" /></clipPath><clipPath id="11"><path d="M225.77 447.87L257.09 447.87L257.09 447.87L257.09 424.35L257.09 424.35L225.77 424.35z" /></clipPath><clipPath id="12"><path d="M225.77 447.87L257.09 447.87L257.09 447.87L257.09 424.35L257.09 424.35L225.77 424.35z" /></clipPath><clipPath id="13"><path d="M225.77 447.87L257.09 447.87L257.09 447.87L257.09 424.35L257.09 424.35L225.77 424.35z" /></clipPath><clipPath id="14"><path d="M129.98 471.27L174.74 471.27L174.74 471.27L174.74 447.87L174.74 447.87L129.98 447.87z" /></clipPath><clipPath id="15"><path d="M129.98 471.27L174.74 471.27L174.74 471.27L174.74 447.87L174.74 447.87L129.98 447.87z" /></clipPath><clipPath id="16"><path d="M129.98 471.27L174.74 471.27L174.74 471.27L174.74 447.87L174.74 447.87L129.98 447.87z" /></clipPath><clipPath id="17"><path d="M129.98 471.27L174.74 471.27L174.74 471.27L174.74 447.87L174.74 447.87L129.98 447.87z" /></clipPath><clipPath id="18"><path d="M174.74 471.27L225.764 471.27L225.764 471.27L225.764 447.87L225.764 447.87L174.74 447.87z" /></clipPath><clipPath id="19"><path d="M174.74 471.27L225.764 471.27L225.764 471.27L225.764 447.87L225.764 447.87L174.74 447.87z" /></clipPath><clipPath id="20"><path d="M174.74 471.27L225.764 471.27L225.764 471.27L225.764 447.87L225.764 447.87L174.74 447.87z" /></clipPath><clipPath id="21"><path d="M174.74 471.27L225.764 471.27L225.764 471.27L225.764 447.87L225.764 447.87L174.74 447.87z" /></clipPath><clipPath id="22"><path d="M225.77 471.27L257.09 471.27L257.09 471.27L257.09 447.87L257.09 447.87L225.77 447.87z" /></clipPath><clipPath id="23"><path d="M225.77 471.27L257.09 471.27L257.09 471.27L257.09 447.87L257.09 447.87L225.77 447.87z" /></clipPath><clipPath id="24"><path d="M225.77 471.27L257.09 471.27L257.09 471.27L257.09 447.87L257.09 447.87L225.77 447.87z" /></clipPath><clipPath id="25"><path d="M225.77 471.27L257.09 471.27L257.09 471.27L257.09 447.87L257.09 447.87L225.77 447.87z" /></clipPath></defs><g transform="matrix(1.333333 0 0 1.333333 0 0)"><g><g clip-path="url(#1)"><g clip-path="url(#2)"><g clip-path="url(#3)"></g><g clip-path="url(#4)"></g></g><path transform="matrix(1 0 0 -1 0 842)" d="M243.89 755.74L309.794 755.74L309.794 755.74L309.794 756.22L309.794 756.22L243.89 756.22z" stroke="none" fill="#C35454" fill-rule="evenodd" /><g transform="matrix(0.3614131 0 0 0.3659091 198.35 249.66)"><g transform="matrix(1 0 0 1 0 0)"><image x="0" y="0" xlink:href="img_26.png" width="184" height="44" /></g></g><g clip-path="url(#5)"><g clip-path="url(#6)"></g><g clip-path="url(#7)"></g></g><g clip-path="url(#8)"><g clip-path="url(#9)"></g><g clip-path="url(#10)"></g></g><g clip-path="url(#11)"><g clip-path="url(#12)"></g><g clip-path="url(#13)"></g></g><g clip-path="url(#14)"><g clip-path="url(#15)"></g><g clip-path="url(#16)"></g><g clip-path="url(#17)"></g></g><g clip-path="url(#18)"><g clip-path="url(#19)"></g><g clip-path="url(#20)"></g><g clip-path="url(#21)"></g></g><g clip-path="url(#22)"><g clip-path="url(#23)"></g><g clip-path="url(#24)"></g><g clip-path="url(#25)"></g></g><path transform="matrix(1 0 0 -1 0 842)" d="M207.77 141.26L297.914 141.26L297.914 141.26L297.914 141.74L297.914 141.74L207.77 141.74z" stroke="none" fill="#C35454" fill-rule="evenodd" /></g></g></g></svg>