<svg xmlns="http://www.w3.org/2000/svg" xmlns:xlink="http://www.w3.org/1999/xlink" id="body_418" preserveAspectRatio="xMinYMin meet" viewBox="0 0 793 1123"><defs><clipPath id="1"><path d="M0 842L0 -0.03997803L0 -0.03997803L595.32 -0.03997803L595.32 -0.03997803L595.32 842L595.32 842L0 842z" /></clipPath><clipPath id="2"><path d="M87.984 782.72L107.784 782.72L107.784 782.72L107.784 770.24L107.784 770.24L87.984 770.24z" /></clipPath><clipPath id="3"><path d="M87.984 782.72L107.784 782.72L107.784 782.72L107.784 770.24L107.784 770.24L87.984 770.24z" /></clipPath><clipPath id="4"><path d="M87.984 782.72L107.784 782.72L107.784 782.72L107.784 770.24L107.784 770.24L87.984 770.24z" /></clipPath></defs><g transform="matrix(1.333333 0 0 1.333333 0 0)"><g><g clip-path="url(#1)"><g clip-path="url(#2)"><g clip-path="url(#3)"></g><g clip-path="url(#4)"></g></g><path transform="matrix(1 0 0 -1 0 842)" d="M138.02 739.18L182.924 739.18L182.924 739.18L182.924 739.66L182.924 739.66L138.02 739.66z" stroke="none" fill="#C35454" fill-rule="evenodd" /><path transform="matrix(1 0 0 -1 0 842)" d="M138.02 581.11L182.924 581.11L182.924 581.11L182.924 581.59L182.924 581.59L138.02 581.59z" stroke="none" fill="#C35454" fill-rule="evenodd" /><path transform="matrix(1 0 0 -1 0 842)" d="M171.38 492.67L224.084 492.67L224.084 492.67L224.084 493.15L224.084 493.15L171.38 493.15z" stroke="none" fill="#C35454" fill-rule="evenodd" /><path transform="matrix(1 0 0 -1 0 842)" d="M171.38 336.53L224.084 336.53L224.084 336.53L224.084 337.01L224.084 337.01L171.38 337.01z" stroke="none" fill="#C35454" fill-rule="evenodd" /><path transform="matrix(1 0 0 -1 0 842)" d="M171.62 247.94L214.484 247.94L214.484 247.94L214.484 248.42L214.484 248.42L171.62 248.42z" stroke="none" fill="#C35454" fill-rule="evenodd" /></g></g></g></svg>