<svg xmlns="http://www.w3.org/2000/svg" xmlns:xlink="http://www.w3.org/1999/xlink" id="body_404" preserveAspectRatio="xMinYMin meet" viewBox="0 0 793 1123"><defs><clipPath id="1"><path d="M0 842L0 -0.03997803L0 -0.03997803L595.32 -0.03997803L595.32 -0.03997803L595.32 842L595.32 842L0 842z" /></clipPath><clipPath id="2"><path d="M87.984 782.72L107.784 782.72L107.784 782.72L107.784 770.24L107.784 770.24L87.984 770.24z" /></clipPath><clipPath id="3"><path d="M87.984 782.72L107.784 782.72L107.784 782.72L107.784 770.24L107.784 770.24L87.984 770.24z" /></clipPath><clipPath id="4"><path d="M87.984 782.72L107.784 782.72L107.784 782.72L107.784 770.24L107.784 770.24L87.984 770.24z" /></clipPath></defs><g transform="matrix(1.333333 0 0 1.333333 0 0)"><g><g clip-path="url(#1)"><g clip-path="url(#2)"><g clip-path="url(#3)"></g><g clip-path="url(#4)"></g></g><path transform="matrix(1 0 0 -1 0 842)" d="M295.87 665.86L321.07 665.86L321.07 665.86L321.07 666.34L321.07 666.34L295.87 666.34z" stroke="none" fill="#C35454" fill-rule="evenodd" /><path transform="matrix(1 0 0 -1 0 842)" d="M289.13 613.3L314.234 613.3L314.234 613.3L314.234 613.78L314.234 613.78L289.13 613.78z" stroke="none" fill="#C35454" fill-rule="evenodd" /><path transform="matrix(1 0 0 -1 0 842)" d="M305.11 488.83L331.63 488.83L331.63 488.83L331.63 489.31L331.63 489.31L305.11 489.31z" stroke="none" fill="#C35454" fill-rule="evenodd" /><path transform="matrix(1 0 0 -1 0 842)" d="M293.95 355.13L320.35 355.13L320.35 355.13L320.35 355.61L320.35 355.61L293.95 355.61z" stroke="none" fill="#C35454" fill-rule="evenodd" /><path transform="matrix(1 0 0 -1 0 842)" d="M320.23 199.1L343.27 199.1L343.27 199.1L343.27 199.58L343.27 199.58L320.23 199.58z" stroke="none" fill="#C35454" fill-rule="evenodd" /></g></g></g></svg>