<svg xmlns="http://www.w3.org/2000/svg" xmlns:xlink="http://www.w3.org/1999/xlink" id="body_67" preserveAspectRatio="xMinYMin meet" viewBox="0 0 793 1123"><defs><clipPath id="1"><path d="M0 842L0 -0.03997803L0 -0.03997803L595.32 -0.03997803L595.32 -0.03997803L595.32 842L595.32 842L0 842z" /></clipPath><clipPath id="2"><path d="M492.94 782.72L507.46 782.72L507.46 782.72L507.46 770.24L507.46 770.24L492.94 770.24z" /></clipPath><clipPath id="3"><path d="M492.94 782.72L507.46 782.72L507.46 782.72L507.46 770.24L507.46 770.24L492.94 770.24z" /></clipPath><clipPath id="4"><path d="M492.94 782.72L507.46 782.72L507.46 782.72L507.46 770.24L507.46 770.24L492.94 770.24z" /></clipPath></defs><g transform="matrix(1.333333 0 0 1.333333 0 0)"><g><g clip-path="url(#1)"><g clip-path="url(#2)"><g clip-path="url(#3)"></g><g clip-path="url(#4)"></g></g><path transform="matrix(1 0 0 -1 0 842)" d="M132 252.39L135.5 252.39" stroke="#C35454" stroke-width="0.64008" stroke-linecap="round" fill="none" /><path transform="matrix(1 0 0 -1 0 842)" d="M132.02 759.84L197.924 759.84L197.924 759.84L197.924 760.32L197.924 760.32L132.02 760.32z" stroke="none" fill="#C35454" fill-rule="evenodd" /><path transform="matrix(1 0 0 -1 0 842)" d="M197.93 760.68L222.05 760.68L222.05 760.68L222.05 760.92L222.05 760.92L197.93 760.92z" stroke="none" fill="#000000" fill-rule="evenodd" /><path transform="matrix(1 0 0 -1 0 842)" d="M197.93 759.48L222.05 759.48L222.05 759.48L222.05 759.72L222.05 759.72L197.93 759.72z" stroke="none" fill="#000000" fill-rule="evenodd" /><path transform="matrix(1 0 0 -1 0 842)" d="M132.02 694.9L169.46 694.9L169.46 694.9L169.46 695.38L169.46 695.38L132.02 695.38z" stroke="none" fill="#C35454" fill-rule="evenodd" /><path transform="matrix(1 0 0 -1 0 842)" d="M185.45 695.74L212.93 695.74L212.93 695.74L212.93 695.98L212.93 695.98L185.45 695.98z" stroke="none" fill="#000000" fill-rule="evenodd" /><path transform="matrix(1 0 0 -1 0 842)" d="M185.45 694.54L212.93 694.54L212.93 694.54L212.93 694.78L212.93 694.78L185.45 694.78z" stroke="none" fill="#000000" fill-rule="evenodd" /><path transform="matrix(1 0 0 -1 0 842)" d="M132.02 630.22L232.96 630.22L232.96 630.22L232.96 630.7L232.96 630.7L132.02 630.7z" stroke="none" fill="#C35454" fill-rule="evenodd" /><path transform="matrix(1 0 0 -1 0 842)" d="M232.97 631.06L254.21 631.06L254.21 631.06L254.21 631.3L254.21 631.3L232.97 631.3z" stroke="none" fill="#000000" fill-rule="evenodd" /><path transform="matrix(1 0 0 -1 0 842)" d="M232.97 629.86L254.21 629.86L254.21 629.86L254.21 630.1L254.21 630.1L232.97 630.1z" stroke="none" fill="#000000" fill-rule="evenodd" /><path transform="matrix(1 0 0 -1 0 842)" d="M132.02 565.39L223.244 565.39L223.244 565.39L223.244 565.87L223.244 565.87L132.02 565.87z" stroke="none" fill="#C35454" fill-rule="evenodd" /><path transform="matrix(1 0 0 -1 0 842)" d="M223.25 566.23L244.49 566.23L244.49 566.23L244.49 566.47L244.49 566.47L223.25 566.47z" stroke="none" fill="#000000" fill-rule="evenodd" /><path transform="matrix(1 0 0 -1 0 842)" d="M223.25 565.03L244.49 565.03L244.49 565.03L244.49 565.27L244.49 565.27L223.25 565.27z" stroke="none" fill="#000000" fill-rule="evenodd" /><path transform="matrix(1 0 0 -1 0 842)" d="M132.02 446.59L219.164 446.59L219.164 446.59L219.164 447.07L219.164 447.07L132.02 447.07z" stroke="none" fill="#C35454" fill-rule="evenodd" /><path transform="matrix(1 0 0 -1 0 842)" d="M219.17 447.43L246.05 447.43L246.05 447.43L246.05 447.67L246.05 447.67L219.17 447.67z" stroke="none" fill="#000000" fill-rule="evenodd" /><path transform="matrix(1 0 0 -1 0 842)" d="M219.17 446.23L246.05 446.23L246.05 446.23L246.05 446.47L246.05 446.47L219.17 446.47z" stroke="none" fill="#000000" fill-rule="evenodd" /><path transform="matrix(1 0 0 -1 0 842)" d="M132.02 381.77L244 381.77L244 381.77L244 382.25L244 382.25L132.02 382.25z" stroke="none" fill="#C35454" fill-rule="evenodd" /><path transform="matrix(1 0 0 -1 0 842)" d="M244.01 382.61L264.17 382.61L264.17 382.61L264.17 382.85L264.17 382.85L244.01 382.85z" stroke="none" fill="#000000" fill-rule="evenodd" /><path transform="matrix(1 0 0 -1 0 842)" d="M244.01 381.41L264.17 381.41L264.17 381.41L264.17 381.65L264.17 381.65L244.01 381.65z" stroke="none" fill="#000000" fill-rule="evenodd" /><path transform="matrix(1 0 0 -1 0 842)" d="M132.02 317.09L219.404 317.09L219.404 317.09L219.404 317.57L219.404 317.57L132.02 317.57z" stroke="none" fill="#C35454" fill-rule="evenodd" /><path transform="matrix(1 0 0 -1 0 842)" d="M219.41 317.93L244.73 317.93L244.73 317.93L244.73 318.17L244.73 318.17L219.41 318.17z" stroke="none" fill="#000000" fill-rule="evenodd" /><path transform="matrix(1 0 0 -1 0 842)" d="M219.41 316.73L244.73 316.73L244.73 316.73L244.73 316.97L244.73 316.97L219.41 316.97z" stroke="none" fill="#000000" fill-rule="evenodd" /><path transform="matrix(1 0 0 -1 0 842)" d="M138.02 252.26L242.92 252.26L242.92 252.26L242.92 252.74L242.92 252.74L138.02 252.74z" stroke="none" fill="#C35454" fill-rule="evenodd" /><path transform="matrix(1 0 0 -1 0 842)" d="M242.93 253.1L263.33 253.1L263.33 253.1L263.33 253.364L263.33 253.364L242.93 253.364z" stroke="none" fill="#000000" fill-rule="evenodd" /><path transform="matrix(1 0 0 -1 0 842)" d="M242.93 251.9L263.33 251.9L263.33 251.9L263.33 252.14L263.33 252.14L242.93 252.14z" stroke="none" fill="#000000" fill-rule="evenodd" /></g></g></g></svg>