<svg xmlns="http://www.w3.org/2000/svg" xmlns:xlink="http://www.w3.org/1999/xlink" id="body_153" preserveAspectRatio="xMinYMin meet" viewBox="0 0 793 1123"><defs><clipPath id="1"><path d="M0 842L0 -0.03997803L0 -0.03997803L595.32 -0.03997803L595.32 -0.03997803L595.32 842L595.32 842L0 842z" /></clipPath><clipPath id="2"><path d="M487.78 782.72L507.46 782.72L507.46 782.72L507.46 770.24L507.46 770.24L487.78 770.24z" /></clipPath><clipPath id="3"><path d="M487.78 782.72L507.46 782.72L507.46 782.72L507.46 770.24L507.46 770.24L487.78 770.24z" /></clipPath><clipPath id="4"><path d="M487.78 782.72L507.46 782.72L507.46 782.72L507.46 770.24L507.46 770.24L487.78 770.24z" /></clipPath></defs><g transform="matrix(1.333333 0 0 1.333333 0 0)"><g><g clip-path="url(#1)"><g clip-path="url(#2)"><g clip-path="url(#3)"></g><g clip-path="url(#4)"></g></g><path transform="matrix(1 0 0 -1 0 842)" d="M435.75 646.34L435.75 640.34L435.75 640.34L440.75 642.84L440.75 642.84L436.75 642.84L436.75 642.84L436.75 643.84L436.75 643.84L440.75 643.84L440.75 643.84L435.75 646.34z" stroke="none" fill="#000000" fill-rule="evenodd" /><path transform="matrix(1 0 0 -1 0 842)" d="M153.75 642.84L435.75 642.84L435.75 642.84L435.75 643.84L435.75 643.84L153.75 643.84z" stroke="none" fill="#000000" fill-rule="evenodd" /><path transform="matrix(1 0 0 -1 0 842)" d="M440.75 643.84L436.75 643.84L436.75 643.84L436.75 642.84L436.75 642.84L440.75 642.84L440.75 642.84L441.75 643.34L441.75 643.34L440.75 643.84z" stroke="none" fill="#000000" fill-rule="evenodd" /><path transform="matrix(1 0 0 -1 0 842)" d="M189.75 679.34L261.75 679.34" stroke="#000000" stroke-width="0.75" stroke-linecap="round" fill="none" /><path transform="matrix(1 0 0 -1 0 842)" d="M261.25 649.34L258.75 649.34L258.75 649.34L261.75 643.34L261.75 643.34L264.25 648.34L264.25 648.34L261.25 648.34L261.25 648.34L261.25 649.34z" stroke="none" fill="#000000" fill-rule="evenodd" /><path transform="matrix(1 0 0 -1 0 842)" d="M261.25 648.34L262.25 648.34L262.25 648.34L262.25 679.34L262.25 679.34L261.25 679.34z" stroke="none" fill="#000000" fill-rule="evenodd" /><path transform="matrix(1 0 0 -1 0 842)" d="M264.75 649.34L262.25 649.34L262.25 649.34L262.25 648.34L262.25 648.34L264.25 648.34L264.25 648.34L264.75 649.34z" stroke="none" fill="#000000" fill-rule="evenodd" /><path transform="matrix(1 0 0 -1 0 842)" d="M236.25 283.14L326.25 283.14" stroke="#000000" stroke-width="0.75" stroke-linecap="round" fill="none" /><path transform="matrix(1 0 0 -1 0 842)" d="M455.25 250.14L455.25 244.14L455.25 244.14L460.25 246.64L460.25 246.64L456.25 246.64L456.25 246.64L456.25 247.64L456.25 247.64L460.25 247.64L460.25 247.64L455.25 250.14z" stroke="none" fill="#000000" fill-rule="evenodd" /><path transform="matrix(1 0 0 -1 0 842)" d="M155.25 246.64L455.25 246.64L455.25 246.64L455.25 247.6399L455.25 247.6399L155.25 247.6399z" stroke="none" fill="#000000" fill-rule="evenodd" /><path transform="matrix(1 0 0 -1 0 842)" d="M460.25 247.64L456.25 247.64L456.25 247.64L456.25 246.64L456.25 246.64L460.25 246.64L460.25 246.64L461.25 247.14L461.25 247.14L460.25 247.64z" stroke="none" fill="#000000" fill-rule="evenodd" /><path transform="matrix(1 0 0 -1 0 842)" d="M325.75 253.14L323.25 253.14L323.25 253.14L326.25 247.14L326.25 247.14L328.75 252.14L328.75 252.14L325.75 252.14L325.75 252.14L325.75 253.14z" stroke="none" fill="#000000" fill-rule="evenodd" /><path transform="matrix(1 0 0 -1 0 842)" d="M325.75 252.14L326.75 252.14L326.75 252.14L326.75 283.14L326.75 283.14L325.75 283.14z" stroke="none" fill="#000000" fill-rule="evenodd" /><path transform="matrix(1 0 0 -1 0 842)" d="M329.25 253.14L326.75 253.14L326.75 253.14L326.75 252.14L326.75 252.14L328.75 252.14L328.75 252.14L329.25 253.14z" stroke="none" fill="#000000" fill-rule="evenodd" /><path transform="matrix(1 0 0 -1 0 842)" d="M132.02 755.74L220.244 755.74L220.244 755.74L220.244 756.22L220.244 756.22L132.02 756.22z" stroke="none" fill="#C35454" fill-rule="evenodd" /><path transform="matrix(1 0 0 -1 0 842)" d="M187.73 404.09L227.93 404.09L227.93 404.09L227.93 404.57L227.93 404.57L187.73 404.57z" stroke="none" fill="#C35454" fill-rule="evenodd" /><path transform="matrix(1 0 0 -1 0 842)" d="M396.55 404.09L457.054 404.09L457.054 404.09L457.054 404.57L457.054 404.57L396.55 404.57z" stroke="none" fill="#C35454" fill-rule="evenodd" /><path transform="matrix(1 0 0 -1 0 842)" d="M132.02 386.09L441.09 386.09L441.09 386.09L441.09 386.57L441.09 386.57L132.02 386.57z" stroke="none" fill="#C35454" fill-rule="evenodd" /></g></g></g></svg>