<svg xmlns="http://www.w3.org/2000/svg" xmlns:xlink="http://www.w3.org/1999/xlink" id="body_148" preserveAspectRatio="xMinYMin meet" viewBox="0 0 793 1123"><defs><clipPath id="1"><path d="M0 842L0 -0.03997803L0 -0.03997803L595.32 -0.03997803L595.32 -0.03997803L595.32 842L595.32 842L0 842z" /></clipPath><clipPath id="2"><path d="M87.984 782.72L161.304 782.72L161.304 782.72L161.304 770.24L161.304 770.24L87.984 770.24z" /></clipPath><clipPath id="3"><path d="M87.984 782.72L161.304 782.72L161.304 782.72L161.304 770.24L161.304 770.24L87.984 770.24z" /></clipPath><clipPath id="4"><path d="M87.984 782.72L161.304 782.72L161.304 782.72L161.304 770.24L161.304 770.24L87.984 770.24z" /></clipPath><clipPath id="5"><path d="M87.984 782.72L161.304 782.72L161.304 782.72L161.304 770.24L161.304 770.24L87.984 770.24z" /></clipPath><clipPath id="6"><path d="M87.984 782.72L161.304 782.72L161.304 782.72L161.304 770.24L161.304 770.24L87.984 770.24z" /></clipPath><clipPath id="7"><path d="M87.984 782.72L161.304 782.72L161.304 782.72L161.304 770.24L161.304 770.24L87.984 770.24z" /></clipPath><clipPath id="8"><path d="M87.984 782.72L161.304 782.72L161.304 782.72L161.304 770.24L161.304 770.24L87.984 770.24z" /></clipPath></defs><g transform="matrix(1.333333 0 0 1.333333 0 0)"><g><g clip-path="url(#1)"><g clip-path="url(#2)"><g clip-path="url(#3)"></g><g clip-path="url(#4)"></g><g clip-path="url(#5)"></g><g clip-path="url(#6)"></g><g clip-path="url(#7)"></g><g clip-path="url(#8)"></g></g><path transform="matrix(1 0 0 -1 0 842)" d="M432.75 458.74L432.75 452.74L432.75 452.74L437.75 455.24L437.75 455.24L433.75 455.24L433.75 455.24L433.75 456.24L433.75 456.24L437.75 456.24L437.75 456.24L432.75 458.74z" stroke="none" fill="#000000" fill-rule="evenodd" /><path transform="matrix(1 0 0 -1 0 842)" d="M150.75 455.24L432.75 455.24L432.75 455.24L432.75 456.24L432.75 456.24L150.75 456.24z" stroke="none" fill="#000000" fill-rule="evenodd" /><path transform="matrix(1 0 0 -1 0 842)" d="M437.75 456.24L433.75 456.24L433.75 456.24L433.75 455.24L433.75 455.24L437.75 455.24L437.75 455.24L438.75 455.74L438.75 455.74L437.75 456.24z" stroke="none" fill="#000000" fill-rule="evenodd" /><path transform="matrix(1 0 0 -1 0 842)" d="M430.5 161.54L430.5 155.54L430.5 155.54L435.5 158.04L435.5 158.04L431.5 158.04L431.5 158.04L431.5 159.04L431.5 159.04L435.5 159.04L435.5 159.04L430.5 161.54z" stroke="none" fill="#000000" fill-rule="evenodd" /><path transform="matrix(1 0 0 -1 0 842)" d="M148.5 158.04L430.5 158.04L430.5 158.04L430.5 159.0401L430.5 159.0401L148.5 159.0401z" stroke="none" fill="#000000" fill-rule="evenodd" /><path transform="matrix(1 0 0 -1 0 842)" d="M435.5 159.04L431.5 159.04L431.5 159.04L431.5 158.04L431.5 158.04L435.5 158.04L435.5 158.04L436.5 158.54L436.5 158.54L435.5 159.04z" stroke="none" fill="#000000" fill-rule="evenodd" /><path transform="matrix(1 0 0 -1 0 842)" d="M172.7 737.74L229.844 737.74L229.844 737.74L229.844 738.22L229.844 738.22L172.7 738.22z" stroke="none" fill="#C35454" fill-rule="evenodd" /><path transform="matrix(1 0 0 -1 0 842)" d="M207.29 686.74L298.274 686.74L298.274 686.74L298.274 687.22L298.274 687.22L207.29 687.22z" stroke="none" fill="#C35454" fill-rule="evenodd" /><path transform="matrix(1 0 0 -1 0 842)" d="M138.02 550.15L189.764 550.15L189.764 550.15L189.764 550.63L189.764 550.63L138.02 550.63z" stroke="none" fill="#C35454" fill-rule="evenodd" /><path transform="matrix(1 0 0 -1 0 842)" d="M283.73 550.15L326.594 550.15L326.594 550.15L326.594 550.63L326.594 550.63L283.73 550.63z" stroke="none" fill="#C35454" fill-rule="evenodd" /><path transform="matrix(1 0 0 -1 0 842)" d="M232.61 252.38L302.234 252.38L302.234 252.38L302.234 252.86L302.234 252.86L232.61 252.86z" stroke="none" fill="#C35454" fill-rule="evenodd" /></g></g></g></svg>