<svg xmlns="http://www.w3.org/2000/svg" xmlns:xlink="http://www.w3.org/1999/xlink" id="body_239" preserveAspectRatio="xMinYMin meet" viewBox="0 0 793 1123"><defs><clipPath id="1"><path d="M0 842L0 -0.03997803L0 -0.03997803L595.32 -0.03997803L595.32 -0.03997803L595.32 842L595.32 842L0 842z" /></clipPath><clipPath id="2"><path d="M487.78 782.72L507.46 782.72L507.46 782.72L507.46 770.24L507.46 770.24L487.78 770.24z" /></clipPath><clipPath id="3"><path d="M487.78 782.72L507.46 782.72L507.46 782.72L507.46 770.24L507.46 770.24L487.78 770.24z" /></clipPath><clipPath id="4"><path d="M487.78 782.72L507.46 782.72L507.46 782.72L507.46 770.24L507.46 770.24L487.78 770.24z" /></clipPath></defs><g transform="matrix(1.333333 0 0 1.333333 0 0)"><g><g clip-path="url(#1)"><g clip-path="url(#2)"><g clip-path="url(#3)"></g><g clip-path="url(#4)"></g></g><path transform="matrix(1 0 0 -1 0 842)" d="M359.75 426.99L375.15 426.99" stroke="#000000" stroke-width="0.4" stroke-linecap="round" fill="none" /><path transform="matrix(1 0 0 -1 0 842)" d="M359.75 425.64L375.15 425.64" stroke="#000000" stroke-width="0.4" stroke-linecap="round" fill="none" /><path transform="matrix(1 0 0 -1 0 842)" d="M375.15 426.29L440.75 426.29" stroke="#C35454" stroke-width="0.64" stroke-linecap="round" fill="none" /><path transform="matrix(1 0 0 -1 0 842)" d="M171.62 610.3L342.79 610.3L342.79 610.3L342.79 610.78L342.79 610.78L171.62 610.78z" stroke="none" fill="#C35454" fill-rule="evenodd" /><path transform="matrix(1 0 0 -1 0 842)" d="M378.19 610.3L459.694 610.3L459.694 610.3L459.694 610.78L459.694 610.78L378.19 610.78z" stroke="none" fill="#C35454" fill-rule="evenodd" /><path transform="matrix(1 0 0 -1 0 842)" d="M132.02 586.39L209.444 586.39L209.444 586.39L209.444 586.87L209.444 586.87L132.02 586.87z" stroke="none" fill="#C35454" fill-rule="evenodd" /><path transform="matrix(1 0 0 -1 0 842)" d="M171.62 426.19L342.79 426.19L342.79 426.19L342.79 426.67L342.79 426.67L171.62 426.67z" stroke="none" fill="#C35454" fill-rule="evenodd" /><path transform="matrix(1 0 0 -1 0 842)" d="M132.02 398.33L240.88 398.33L240.88 398.33L240.88 398.81L240.88 398.81L132.02 398.81z" stroke="none" fill="#C35454" fill-rule="evenodd" /><g transform="matrix(0.3614131 0 0 0.3636364 198.35 601.26)"><g transform="matrix(1 0 0 1 0 0)"><image x="0" y="0" xlink:href="img_26.png" width="184" height="44" /></g></g></g></g></g></svg>