<svg xmlns="http://www.w3.org/2000/svg" xmlns:xlink="http://www.w3.org/1999/xlink" id="body_121" preserveAspectRatio="xMinYMin meet" viewBox="0 0 793 1123"><defs><clipPath id="1"><path d="M0 842L0 -0.03997803L0 -0.03997803L595.32 -0.03997803L595.32 -0.03997803L595.32 842L595.32 842L0 842z" /></clipPath><clipPath id="2"><path d="M487.78 782.72L507.46 782.72L507.46 782.72L507.46 770.24L507.46 770.24L487.78 770.24z" /></clipPath><clipPath id="3"><path d="M487.78 782.72L507.46 782.72L507.46 782.72L507.46 770.24L507.46 770.24L487.78 770.24z" /></clipPath><clipPath id="4"><path d="M487.78 782.72L507.46 782.72L507.46 782.72L507.46 770.24L507.46 770.24L487.78 770.24z" /></clipPath></defs><g transform="matrix(1.333333 0 0 1.333333 0 0)"><g><g clip-path="url(#1)"><g clip-path="url(#2)"><g clip-path="url(#3)"></g><g clip-path="url(#4)"></g></g><path transform="matrix(1 0 0 -1 0 842)" d="M206.69 719.74L294.914 719.74L294.914 719.74L294.914 720.22L294.914 720.22L206.69 720.22z" stroke="none" fill="#C35454" fill-rule="evenodd" /><path transform="matrix(1 0 0 -1 0 842)" d="M208.97 668.74L270.41 668.74L270.41 668.74L270.41 669.22L270.41 669.22L208.97 669.22z" stroke="none" fill="#C35454" fill-rule="evenodd" /><path transform="matrix(1 0 0 -1 0 842)" d="M168.62 617.62L226.964 617.62L226.964 617.62L226.964 618.1L226.964 618.1L168.62 618.1z" stroke="none" fill="#C35454" fill-rule="evenodd" /><path transform="matrix(1 0 0 -1 0 842)" d="M201.05 480.91L264.89 480.91L264.89 480.91L264.89 481.39L264.89 481.39L201.05 481.39z" stroke="none" fill="#C35454" fill-rule="evenodd" /><path transform="matrix(1 0 0 -1 0 842)" d="M204.05 429.91L245.81 429.91L245.81 429.91L245.81 430.39L245.81 430.39L204.05 430.39z" stroke="none" fill="#C35454" fill-rule="evenodd" /><path transform="matrix(1 0 0 -1 0 842)" d="M162.14 378.77L191.804 378.77L191.804 378.77L191.804 379.25L191.804 379.25L162.14 379.25z" stroke="none" fill="#C35454" fill-rule="evenodd" /><path transform="matrix(1 0 0 -1 0 842)" d="M180.77 327.77L229.25 327.77L229.25 327.77L229.25 328.25L229.25 328.25L180.77 328.25z" stroke="none" fill="#C35454" fill-rule="evenodd" /><path transform="matrix(1 0 0 -1 0 842)" d="M212.81 222.62L254.21 222.62L254.21 222.62L254.21 223.1L254.21 223.1L212.81 223.1z" stroke="none" fill="#C35454" fill-rule="evenodd" /><path transform="matrix(1 0 0 -1 0 842)" d="M211.97 171.62L251.21 171.62L251.21 171.62L251.21 172.1L251.21 172.1L211.97 172.1z" stroke="none" fill="#C35454" fill-rule="evenodd" /></g></g></g></svg>