<svg xmlns="http://www.w3.org/2000/svg" xmlns:xlink="http://www.w3.org/1999/xlink" id="body_158" preserveAspectRatio="xMinYMin meet" viewBox="0 0 793 1123"><defs><clipPath id="1"><path d="M0 842L0 -0.03997803L0 -0.03997803L595.32 -0.03997803L595.32 -0.03997803L595.32 842L595.32 842L0 842z" /></clipPath><clipPath id="2"><path d="M87.984 782.72L161.304 782.72L161.304 782.72L161.304 770.24L161.304 770.24L87.984 770.24z" /></clipPath><clipPath id="3"><path d="M87.984 782.72L161.304 782.72L161.304 782.72L161.304 770.24L161.304 770.24L87.984 770.24z" /></clipPath><clipPath id="4"><path d="M87.984 782.72L161.304 782.72L161.304 782.72L161.304 770.24L161.304 770.24L87.984 770.24z" /></clipPath><clipPath id="5"><path d="M87.984 782.72L161.304 782.72L161.304 782.72L161.304 770.24L161.304 770.24L87.984 770.24z" /></clipPath><clipPath id="6"><path d="M87.984 782.72L161.304 782.72L161.304 782.72L161.304 770.24L161.304 770.24L87.984 770.24z" /></clipPath><clipPath id="7"><path d="M87.984 782.72L161.304 782.72L161.304 782.72L161.304 770.24L161.304 770.24L87.984 770.24z" /></clipPath><clipPath id="8"><path d="M87.984 782.72L161.304 782.72L161.304 782.72L161.304 770.24L161.304 770.24L87.984 770.24z" /></clipPath></defs><g transform="matrix(1.333333 0 0 1.333333 0 0)"><g><g clip-path="url(#1)"><g clip-path="url(#2)"><g clip-path="url(#3)"></g><g clip-path="url(#4)"></g><g clip-path="url(#5)"></g><g clip-path="url(#6)"></g><g clip-path="url(#7)"></g><g clip-path="url(#8)"></g></g><path transform="matrix(1 0 0 -1 0 842)" d="M233.25 761.94L323.25 761.94" stroke="#000000" stroke-width="0.75" stroke-linecap="round" fill="none" /><path transform="matrix(1 0 0 -1 0 842)" d="M452.25 728.94L452.25 722.94L452.25 722.94L457.25 725.44L457.25 725.44L453.25 725.44L453.25 725.44L453.25 726.44L453.25 726.44L457.25 726.44L457.25 726.44L452.25 728.94z" stroke="none" fill="#000000" fill-rule="evenodd" /><path transform="matrix(1 0 0 -1 0 842)" d="M152.25 725.44L452.25 725.44L452.25 725.44L452.25 726.44L452.25 726.44L152.25 726.44z" stroke="none" fill="#000000" fill-rule="evenodd" /><path transform="matrix(1 0 0 -1 0 842)" d="M457.25 726.44L453.25 726.44L453.25 726.44L453.25 725.44L453.25 725.44L457.25 725.44L457.25 725.44L458.25 725.94L458.25 725.94L457.25 726.44z" stroke="none" fill="#000000" fill-rule="evenodd" /><path transform="matrix(1 0 0 -1 0 842)" d="M322.75 731.94L320.25 731.94L320.25 731.94L323.25 725.94L323.25 725.94L325.75 730.94L325.75 730.94L322.75 730.94L322.75 730.94L322.75 731.94z" stroke="none" fill="#000000" fill-rule="evenodd" /><path transform="matrix(1 0 0 -1 0 842)" d="M322.75 730.94L323.75 730.94L323.75 730.94L323.75 761.94L323.75 761.94L322.75 761.94z" stroke="none" fill="#000000" fill-rule="evenodd" /><path transform="matrix(1 0 0 -1 0 842)" d="M326.25 731.94L323.75 731.94L323.75 731.94L323.75 730.94L323.75 730.94L325.75 730.94L325.75 730.94L326.25 731.94z" stroke="none" fill="#000000" fill-rule="evenodd" /><path transform="matrix(1 0 0 -1 0 842)" d="M227.25 499.34L317.25 499.34" stroke="#000000" stroke-width="0.75" stroke-linecap="round" fill="none" /><path transform="matrix(1 0 0 -1 0 842)" d="M446.25 466.34L446.25 460.34L446.25 460.34L451.25 462.84L451.25 462.84L447.25 462.84L447.25 462.84L447.25 463.84L447.25 463.84L451.25 463.84L451.25 463.84L446.25 466.34z" stroke="none" fill="#000000" fill-rule="evenodd" /><path transform="matrix(1 0 0 -1 0 842)" d="M146.25 462.84L446.25 462.84L446.25 462.84L446.25 463.84L446.25 463.84L146.25 463.84z" stroke="none" fill="#000000" fill-rule="evenodd" /><path transform="matrix(1 0 0 -1 0 842)" d="M451.25 463.84L447.25 463.84L447.25 463.84L447.25 462.84L447.25 462.84L451.25 462.84L451.25 462.84L452.25 463.34L452.25 463.34L451.25 463.84z" stroke="none" fill="#000000" fill-rule="evenodd" /><path transform="matrix(1 0 0 -1 0 842)" d="M316.75 469.34L314.25 469.34L314.25 469.34L317.25 463.34L317.25 463.34L319.75 468.34L319.75 468.34L316.75 468.34L316.75 468.34L316.75 469.34z" stroke="none" fill="#000000" fill-rule="evenodd" /><path transform="matrix(1 0 0 -1 0 842)" d="M316.75 468.34L317.75 468.34L317.75 468.34L317.75 499.34L317.75 499.34L316.75 499.34z" stroke="none" fill="#000000" fill-rule="evenodd" /><path transform="matrix(1 0 0 -1 0 842)" d="M320.25 469.34L317.75 469.34L317.75 469.34L317.75 468.34L317.75 468.34L319.75 468.34L319.75 468.34L320.25 469.34z" stroke="none" fill="#000000" fill-rule="evenodd" /><path transform="matrix(1 0 0 -1 0 842)" d="M226.45 200.59L316.45 200.59" stroke="#000000" stroke-width="0.75" stroke-linecap="round" fill="none" /><path transform="matrix(1 0 0 -1 0 842)" d="M445.45 167.59L445.45 161.59L445.45 161.59L450.45 164.09L450.45 164.09L446.45 164.09L446.45 164.09L446.45 165.09L446.45 165.09L450.45 165.09L450.45 165.09L445.45 167.59z" stroke="none" fill="#000000" fill-rule="evenodd" /><path transform="matrix(1 0 0 -1 0 842)" d="M145.45 164.09L445.45 164.09L445.45 164.09L445.45 165.09L445.45 165.09L145.45 165.09z" stroke="none" fill="#000000" fill-rule="evenodd" /><path transform="matrix(1 0 0 -1 0 842)" d="M450.45 165.09L446.45 165.09L446.45 165.09L446.45 164.09L446.45 164.09L450.45 164.09L450.45 164.09L451.45 164.59L451.45 164.59L450.45 165.09z" stroke="none" fill="#000000" fill-rule="evenodd" /><path transform="matrix(1 0 0 -1 0 842)" d="M315.95 170.59L313.45 170.59L313.45 170.59L316.45 164.59L316.45 164.59L318.95 169.59L318.95 169.59L315.95 169.59L315.95 169.59L315.95 170.59z" stroke="none" fill="#000000" fill-rule="evenodd" /><path transform="matrix(1 0 0 -1 0 842)" d="M315.95 169.59L316.95 169.59L316.95 169.59L316.95 200.59L316.95 200.59L315.95 200.59z" stroke="none" fill="#000000" fill-rule="evenodd" /><path transform="matrix(1 0 0 -1 0 842)" d="M319.45 170.59L316.95 170.59L316.95 170.59L316.95 169.59L316.95 169.59L318.95 169.59L318.95 169.59L319.45 170.59z" stroke="none" fill="#000000" fill-rule="evenodd" /><path transform="matrix(1 0 0 -1 0 842)" d="M132.02 575.71L160.22 575.71L160.22 575.71L160.22 576.19L160.22 576.19L132.02 576.19z" stroke="none" fill="#C35454" fill-rule="evenodd" /><path transform="matrix(1 0 0 -1 0 842)" d="M292.99 575.71L424.89 575.71L424.89 575.71L424.89 576.19L424.89 576.19L292.99 576.19z" stroke="none" fill="#C35454" fill-rule="evenodd" /><path transform="matrix(1 0 0 -1 0 842)" d="M218.21 276.89L420.46 276.89L420.46 276.89L420.46 277.37L420.46 277.37L218.21 277.37z" stroke="none" fill="#C35454" fill-rule="evenodd" /></g></g></g></svg>