<svg xmlns="http://www.w3.org/2000/svg" xmlns:xlink="http://www.w3.org/1999/xlink" id="body_17" preserveAspectRatio="xMinYMin meet" viewBox="0 0 793 1123"><defs><clipPath id="1"><path d="M0 842L0 -0.03997803L0 -0.03997803L595.32 -0.03997803L595.32 -0.03997803L595.32 842L595.32 842L0 842z" /></clipPath><clipPath id="2"><path d="M87.984 782.72L102.504 782.72L102.504 782.72L102.504 770.24L102.504 770.24L87.984 770.24z" /></clipPath><clipPath id="3"><path d="M87.984 782.72L102.504 782.72L102.504 782.72L102.504 770.24L102.504 770.24L87.984 770.24z" /></clipPath><clipPath id="4"><path d="M87.984 782.72L102.504 782.72L102.504 782.72L102.504 770.24L102.504 770.24L87.984 770.24z" /></clipPath></defs><g transform="matrix(1.333333 0 0 1.333333 0 0)"><g><g clip-path="url(#1)"><g clip-path="url(#2)"><g clip-path="url(#3)"></g><g clip-path="url(#4)"></g></g><path transform="matrix(1 0 0 -1 0 842)" d="M132 736.44L135.5 736.44" stroke="#C35454" stroke-width="0.64" stroke-linecap="round" fill="none" /><path transform="matrix(1 0 0 -1 0 842)" d="M132 599.64L135.5 599.64" stroke="#C35454" stroke-width="0.64" stroke-linecap="round" fill="none" /><path transform="matrix(1 0 0 -1 0 842)" d="M138.02 736.42L227.924 736.42L227.924 736.42L227.924 736.9L227.924 736.9L138.02 736.9z" stroke="none" fill="#C35454" fill-rule="evenodd" /><path transform="matrix(1 0 0 -1 0 842)" d="M138.02 599.5L197.444 599.5L197.444 599.5L197.444 599.98L197.444 599.98L138.02 599.98z" stroke="none" fill="#C35454" fill-rule="evenodd" /><path transform="matrix(1 0 0 -1 0 842)" d="M197.45 600.34L238.49 600.34L238.49 600.34L238.49 600.58L238.49 600.58L197.45 600.58z" stroke="none" fill="#000000" fill-rule="evenodd" /><path transform="matrix(1 0 0 -1 0 842)" d="M197.45 599.14L238.49 599.14L238.49 599.14L238.49 599.38L238.49 599.38L197.45 599.38z" stroke="none" fill="#000000" fill-rule="evenodd" /><path transform="matrix(1 0 0 -1 0 842)" d="M132.02 294.17L227.324 294.17L227.324 294.17L227.324 294.65L227.324 294.65L132.02 294.65z" stroke="none" fill="#C35454" fill-rule="evenodd" /><path transform="matrix(1 0 0 -1 0 842)" d="M132.02 229.34L210.764 229.34L210.764 229.34L210.764 229.82L210.764 229.82L132.02 229.82z" stroke="none" fill="#C35454" fill-rule="evenodd" /></g></g></g></svg>