<svg xmlns="http://www.w3.org/2000/svg" xmlns:xlink="http://www.w3.org/1999/xlink" id="body_84" preserveAspectRatio="xMinYMin meet" viewBox="0 0 793 1123"><defs><clipPath id="1"><path d="M0 842L0 -0.03997803L0 -0.03997803L595.32 -0.03997803L595.32 -0.03997803L595.32 842L595.32 842L0 842z" /></clipPath><clipPath id="2"><path d="M87.984 782.72L102.504 782.72L102.504 782.72L102.504 770.24L102.504 770.24L87.984 770.24z" /></clipPath><clipPath id="3"><path d="M87.984 782.72L102.504 782.72L102.504 782.72L102.504 770.24L102.504 770.24L87.984 770.24z" /></clipPath><clipPath id="4"><path d="M87.984 782.72L102.504 782.72L102.504 782.72L102.504 770.24L102.504 770.24L87.984 770.24z" /></clipPath></defs><g transform="matrix(1.333333 0 0 1.333333 0 0)"><g><g clip-path="url(#1)"><g clip-path="url(#2)"><g clip-path="url(#3)"></g><g clip-path="url(#4)"></g></g><path transform="matrix(1 0 0 -1 0 842)" d="M164.9 738.82L207.404 738.82L207.404 738.82L207.404 739.3L207.404 739.3L164.9 739.3z" stroke="none" fill="#C35454" fill-rule="evenodd" /><path transform="matrix(1 0 0 -1 0 842)" d="M243.17 738.82L281.57 738.82L281.57 738.82L281.57 739.3L281.57 739.3L243.17 739.3z" stroke="none" fill="#C35454" fill-rule="evenodd" /><path transform="matrix(1 0 0 -1 0 842)" d="M150.02 689.26L190.964 689.26L190.964 689.26L190.964 689.74L190.964 689.74L150.02 689.74z" stroke="none" fill="#C35454" fill-rule="evenodd" /><g transform="matrix(0.3614131 0 0 0.3659091 180.35 329.11)"><g transform="matrix(1 0 0 1 0 0)"><image x="0" y="0" xlink:href="img_26.png" width="184" height="44" /></g></g><path transform="matrix(1 0 0 -1 0 842)" d="M132.02 356.93L329.83 356.93L329.83 356.93L329.83 357.41L329.83 357.41L132.02 357.41z" stroke="none" fill="#C35454" fill-rule="evenodd" /><path transform="matrix(1 0 0 -1 0 842)" d="M188.09 235.82L246.77 235.82L246.77 235.82L246.77 236.3L246.77 236.3L188.09 236.3z" stroke="none" fill="#C35454" fill-rule="evenodd" /><path transform="matrix(1 0 0 -1 0 842)" d="M282.17 181.82L345.554 181.82L345.554 181.82L345.554 182.3L345.554 182.3L282.17 182.3z" stroke="none" fill="#C35454" fill-rule="evenodd" /></g></g></g></svg>