<svg xmlns="http://www.w3.org/2000/svg" xmlns:xlink="http://www.w3.org/1999/xlink" id="body_37" preserveAspectRatio="xMinYMin meet" viewBox="0 0 793 1123"><defs><clipPath id="1"><path d="M0 842L0 -0.03997803L0 -0.03997803L595.32 -0.03997803L595.32 -0.03997803L595.32 842L595.32 842L0 842z" /></clipPath><clipPath id="2"><path d="M492.94 782.72L507.46 782.72L507.46 782.72L507.46 770.24L507.46 770.24L492.94 770.24z" /></clipPath><clipPath id="3"><path d="M492.94 782.72L507.46 782.72L507.46 782.72L507.46 770.24L507.46 770.24L492.94 770.24z" /></clipPath><clipPath id="4"><path d="M492.94 782.72L507.46 782.72L507.46 782.72L507.46 770.24L507.46 770.24L492.94 770.24z" /></clipPath><clipPath id="5"><path d="M129.98 298.81L174.74 298.81L174.74 298.81L174.74 275.65L174.74 275.65L129.98 275.65z" /></clipPath><clipPath id="6"><path d="M129.98 298.81L174.74 298.81L174.74 298.81L174.74 275.65L174.74 275.65L129.98 275.65z" /></clipPath><clipPath id="7"><path d="M129.98 298.81L174.74 298.81L174.74 298.81L174.74 275.65L174.74 275.65L129.98 275.65z" /></clipPath><clipPath id="8"><path d="M174.74 298.81L248.924 298.81L248.924 298.81L248.924 275.65L248.924 275.65L174.74 275.65z" /></clipPath><clipPath id="9"><path d="M174.74 298.81L248.924 298.81L248.924 298.81L248.924 275.65L248.924 275.65L174.74 275.65z" /></clipPath><clipPath id="10"><path d="M174.74 298.81L248.924 298.81L248.924 298.81L248.924 275.65L248.924 275.65L174.74 275.65z" /></clipPath><clipPath id="11"><path d="M248.93 298.81L356.59 298.81L356.59 298.81L356.59 275.65L356.59 275.65L248.93 275.65z" /></clipPath><clipPath id="12"><path d="M248.93 298.81L356.59 298.81L356.59 298.81L356.59 275.65L356.59 275.65L248.93 275.65z" /></clipPath><clipPath id="13"><path d="M248.93 298.81L356.59 298.81L356.59 298.81L356.59 275.65L356.59 275.65L248.93 275.65z" /></clipPath><clipPath id="14"><path d="M356.59 298.81L474.69 298.81L474.69 298.81L474.69 275.65L474.69 275.65L356.59 275.65z" /></clipPath><clipPath id="15"><path d="M356.59 298.81L474.69 298.81L474.69 298.81L474.69 275.65L474.69 275.65L356.59 275.65z" /></clipPath><clipPath id="16"><path d="M129.98 322.57L174.74 322.57L174.74 322.57L174.74 298.81L174.74 298.81L129.98 298.81z" /></clipPath><clipPath id="17"><path d="M129.98 322.57L174.74 322.57L174.74 322.57L174.74 298.81L174.74 298.81L129.98 298.81z" /></clipPath><clipPath id="18"><path d="M129.98 322.57L174.74 322.57L174.74 322.57L174.74 298.81L174.74 298.81L129.98 298.81z" /></clipPath><clipPath id="19"><path d="M129.98 322.57L174.74 322.57L174.74 322.57L174.74 298.81L174.74 298.81L129.98 298.81z" /></clipPath><clipPath id="20"><path d="M174.74 322.57L248.924 322.57L248.924 322.57L248.924 298.81L248.924 298.81L174.74 298.81z" /></clipPath><clipPath id="21"><path d="M174.74 322.57L248.924 322.57L248.924 322.57L248.924 298.81L248.924 298.81L174.74 298.81z" /></clipPath><clipPath id="22"><path d="M174.74 322.57L248.924 322.57L248.924 322.57L248.924 298.81L248.924 298.81L174.74 298.81z" /></clipPath><clipPath id="23"><path d="M174.74 322.57L248.924 322.57L248.924 322.57L248.924 298.81L248.924 298.81L174.74 298.81z" /></clipPath><clipPath id="24"><path d="M248.93 322.57L356.59 322.57L356.59 322.57L356.59 298.81L356.59 298.81L248.93 298.81z" /></clipPath><clipPath id="25"><path d="M248.93 322.57L356.59 322.57L356.59 322.57L356.59 298.81L356.59 298.81L248.93 298.81z" /></clipPath><clipPath id="26"><path d="M248.93 322.57L356.59 322.57L356.59 322.57L356.59 298.81L356.59 298.81L248.93 298.81z" /></clipPath><clipPath id="27"><path d="M248.93 322.57L356.59 322.57L356.59 322.57L356.59 298.81L356.59 298.81L248.93 298.81z" /></clipPath><clipPath id="28"><path d="M248.93 322.57L356.59 322.57L356.59 322.57L356.59 298.81L356.59 298.81L248.93 298.81z" /></clipPath><clipPath id="29"><path d="M248.93 322.57L356.59 322.57L356.59 322.57L356.59 298.81L356.59 298.81L248.93 298.81z" /></clipPath><clipPath id="30"><path d="M248.93 322.57L356.59 322.57L356.59 322.57L356.59 298.81L356.59 298.81L248.93 298.81z" /></clipPath><clipPath id="31"><path d="M356.59 322.57L474.69 322.57L474.69 322.57L474.69 298.81L474.69 298.81L356.59 298.81z" /></clipPath><clipPath id="32"><path d="M356.59 322.57L474.69 322.57L474.69 322.57L474.69 298.81L474.69 298.81L356.59 298.81z" /></clipPath><clipPath id="33"><path d="M356.59 322.57L474.69 322.57L474.69 322.57L474.69 298.81L474.69 298.81L356.59 298.81z" /></clipPath></defs><g transform="matrix(1.333333 0 0 1.333333 0 0)"><g><g clip-path="url(#1)"><g clip-path="url(#2)"><g clip-path="url(#3)"></g><g clip-path="url(#4)"></g></g><g clip-path="url(#5)"><g clip-path="url(#6)"></g><g clip-path="url(#7)"></g></g><g clip-path="url(#8)"><g clip-path="url(#9)"></g><g clip-path="url(#10)"></g></g><g clip-path="url(#11)"><g clip-path="url(#12)"></g><g clip-path="url(#13)"></g></g><g clip-path="url(#14)"><g clip-path="url(#15)"></g></g><g clip-path="url(#16)"><g clip-path="url(#17)"></g><g clip-path="url(#18)"></g><g clip-path="url(#19)"></g></g><g clip-path="url(#20)"><g clip-path="url(#21)"></g><g clip-path="url(#22)"></g><g clip-path="url(#23)"></g></g><g clip-path="url(#24)"><g clip-path="url(#25)"></g><g clip-path="url(#26)"></g><g clip-path="url(#27)"></g><g clip-path="url(#28)"></g><g clip-path="url(#29)"></g><g clip-path="url(#30)"></g></g><g clip-path="url(#31)"><g clip-path="url(#32)"></g><g clip-path="url(#33)"></g></g><path transform="matrix(1 0 0 -1 0 842)" d="M251.09 340.13L329.114 340.13L329.114 340.13L329.114 340.61L329.114 340.61L251.09 340.61z" stroke="none" fill="#C35454" fill-rule="evenodd" /></g></g></g></svg>