<svg xmlns="http://www.w3.org/2000/svg" xmlns:xlink="http://www.w3.org/1999/xlink" id="body_76" preserveAspectRatio="xMinYMin meet" viewBox="0 0 793 1123"><defs><clipPath id="1"><path d="M0 842L0 -0.03997803L0 -0.03997803L595.32 -0.03997803L595.32 -0.03997803L595.32 842L595.32 842L0 842z" /></clipPath><clipPath id="2"><path d="M87.984 782.72L102.504 782.72L102.504 782.72L102.504 770.24L102.504 770.24L87.984 770.24z" /></clipPath><clipPath id="3"><path d="M87.984 782.72L102.504 782.72L102.504 782.72L102.504 770.24L102.504 770.24L87.984 770.24z" /></clipPath><clipPath id="4"><path d="M87.984 782.72L102.504 782.72L102.504 782.72L102.504 770.24L102.504 770.24L87.984 770.24z" /></clipPath></defs><g transform="matrix(1.333333 0 0 1.333333 0 0)"><g><g clip-path="url(#1)"><g clip-path="url(#2)"><g clip-path="url(#3)"></g><g clip-path="url(#4)"></g></g><path transform="matrix(1 0 0 -1 0 842)" d="M132.02 670.18L188.564 670.18L188.564 670.18L188.564 670.66L188.564 670.66L132.02 670.66z" stroke="none" fill="#C35454" fill-rule="evenodd" /><path transform="matrix(1 0 0 -1 0 842)" d="M201.17 670.18L225.65 670.18L225.65 670.18L225.65 670.66L225.65 670.66L201.17 670.66z" stroke="none" fill="#C35454" fill-rule="evenodd" /><path transform="matrix(1 0 0 -1 0 842)" d="M132.02 336.29L178.244 336.29L178.244 336.29L178.244 336.77L178.244 336.77L132.02 336.77z" stroke="none" fill="#C35454" fill-rule="evenodd" /><path transform="matrix(1 0 0 -1 0 842)" d="M154.58 250.46L194.564 250.46L194.564 250.46L194.564 250.94L194.564 250.94L154.58 250.94z" stroke="none" fill="#C35454" fill-rule="evenodd" /><path transform="matrix(1 0 0 -1 0 842)" d="M173.54 164.9L231.404 164.9L231.404 164.9L231.404 165.38L231.404 165.38L173.54 165.38z" stroke="none" fill="#C35454" fill-rule="evenodd" /></g></g></g></svg>