<svg xmlns="http://www.w3.org/2000/svg" xmlns:xlink="http://www.w3.org/1999/xlink" id="body_309" preserveAspectRatio="xMinYMin meet" viewBox="0 0 793 1123"><defs><clipPath id="1"><path d="M0 842L0 -0.03997803L0 -0.03997803L595.32 -0.03997803L595.32 -0.03997803L595.32 842L595.32 842L0 842z" /></clipPath><clipPath id="2"><path d="M487.78 782.72L507.46 782.72L507.46 782.72L507.46 770.24L507.46 770.24L487.78 770.24z" /></clipPath><clipPath id="3"><path d="M487.78 782.72L507.46 782.72L507.46 782.72L507.46 770.24L507.46 770.24L487.78 770.24z" /></clipPath><clipPath id="4"><path d="M487.78 782.72L507.46 782.72L507.46 782.72L507.46 770.24L507.46 770.24L487.78 770.24z" /></clipPath></defs><g transform="matrix(1.333333 0 0 1.333333 0 0)"><g><g clip-path="url(#1)"><g clip-path="url(#2)"><g clip-path="url(#3)"></g><g clip-path="url(#4)"></g></g><path transform="matrix(1 0 0 -1 0 842)" d="M188.21 738.82L193.85 738.82L193.85 738.82L193.85 739.3L193.85 739.3L188.21 739.3z" stroke="none" fill="#C35454" fill-rule="evenodd" /><path transform="matrix(1 0 0 -1 0 842)" d="M164.78 720.94L170.3 720.94L170.3 720.94L170.3 721.42L170.3 721.42L164.78 721.42z" stroke="none" fill="#C35454" fill-rule="evenodd" /><path transform="matrix(1 0 0 -1 0 842)" d="M132.02 702.7L138.26 702.7L138.26 702.7L138.26 703.18L138.26 703.18L132.02 703.18z" stroke="none" fill="#C35454" fill-rule="evenodd" /><path transform="matrix(1 0 0 -1 0 842)" d="M132.02 431.71L231.284 431.71L231.284 431.71L231.284 432.19L231.284 432.19L132.02 432.19z" stroke="none" fill="#C35454" fill-rule="evenodd" /><path transform="matrix(1 0 0 -1 0 842)" d="M234.77 431.71L296.834 431.71L296.834 431.71L296.834 432.19L296.834 432.19L234.77 432.19z" stroke="none" fill="#C35454" fill-rule="evenodd" /><path transform="matrix(1 0 0 -1 0 842)" d="M132.02 347.57L199.244 347.57L199.244 347.57L199.244 348.05L199.244 348.05L132.02 348.05z" stroke="none" fill="#C35454" fill-rule="evenodd" /><path transform="matrix(1 0 0 -1 0 842)" d="M202.73 347.57L264.41 347.57L264.41 347.57L264.41 348.05L264.41 348.05L202.73 348.05z" stroke="none" fill="#C35454" fill-rule="evenodd" /><path transform="matrix(1 0 0 -1 0 842)" d="M132.02 263.45L201.284 263.45L201.284 263.45L201.284 263.93L201.284 263.93L132.02 263.93z" stroke="none" fill="#C35454" fill-rule="evenodd" /><path transform="matrix(1 0 0 -1 0 842)" d="M204.77 263.45L264.05 263.45L264.05 263.45L264.05 263.93L264.05 263.93L204.77 263.93z" stroke="none" fill="#C35454" fill-rule="evenodd" /></g></g></g></svg>