<svg xmlns="http://www.w3.org/2000/svg" xmlns:xlink="http://www.w3.org/1999/xlink" id="body_364" preserveAspectRatio="xMinYMin meet" viewBox="0 0 793 1123"><defs><clipPath id="1"><path d="M0 842L0 -0.03997803L0 -0.03997803L595.32 -0.03997803L595.32 -0.03997803L595.32 842L595.32 842L0 842z" /></clipPath><clipPath id="2"><path d="M87.984 782.72L107.784 782.72L107.784 782.72L107.784 770.24L107.784 770.24L87.984 770.24z" /></clipPath><clipPath id="3"><path d="M87.984 782.72L107.784 782.72L107.784 782.72L107.784 770.24L107.784 770.24L87.984 770.24z" /></clipPath><clipPath id="4"><path d="M87.984 782.72L107.784 782.72L107.784 782.72L107.784 770.24L107.784 770.24L87.984 770.24z" /></clipPath></defs><g transform="matrix(1.333333 0 0 1.333333 0 0)"><g><g clip-path="url(#1)"><g clip-path="url(#2)"><g clip-path="url(#3)"></g><g clip-path="url(#4)"></g></g><path transform="matrix(1 0 0 -1 0 842)" d="M132.02 719.86L289.6 719.86L289.6 719.86L289.6 720.34L289.6 720.34L132.02 720.34z" stroke="none" fill="#C35454" fill-rule="evenodd" /><path transform="matrix(1 0 0 -1 0 842)" d="M153.02 596.26L292.24 596.26L292.24 596.26L292.24 596.74L292.24 596.74L153.02 596.74z" stroke="none" fill="#C35454" fill-rule="evenodd" /><path transform="matrix(1 0 0 -1 0 842)" d="M189.05 523.27L230.33 523.27L230.33 523.27L230.33 523.75L230.33 523.75L189.05 523.75z" stroke="none" fill="#C35454" fill-rule="evenodd" /><path transform="matrix(1 0 0 -1 0 842)" d="M132.02 470.71L232.24 470.71L232.24 470.71L232.24 471.19L232.24 471.19L132.02 471.19z" stroke="none" fill="#C35454" fill-rule="evenodd" /><path transform="matrix(1 0 0 -1 0 842)" d="M189.05 376.01L230.33 376.01L230.33 376.01L230.33 376.49L230.33 376.49L189.05 376.49z" stroke="none" fill="#C35454" fill-rule="evenodd" /><path transform="matrix(1 0 0 -1 0 842)" d="M235.61 376.01L331.274 376.01L331.274 376.01L331.274 376.49L331.274 376.49L235.61 376.49z" stroke="none" fill="#C35454" fill-rule="evenodd" /><path transform="matrix(1 0 0 -1 0 842)" d="M189.05 252.38L291.65 252.38L291.65 252.38L291.65 252.86L291.65 252.86L189.05 252.86z" stroke="none" fill="#C35454" fill-rule="evenodd" /><path transform="matrix(1 0 0 -1 0 842)" d="M158.78 88.224L227.564 88.224L227.564 88.224L227.564 88.70398L227.564 88.70398L158.78 88.70398z" stroke="none" fill="#C35454" fill-rule="evenodd" /></g></g></g></svg>