<svg xmlns="http://www.w3.org/2000/svg" xmlns:xlink="http://www.w3.org/1999/xlink" id="body_157" preserveAspectRatio="xMinYMin meet" viewBox="0 0 793 1123"><defs><clipPath id="1"><path d="M0 842L0 -0.03997803L0 -0.03997803L595.32 -0.03997803L595.32 -0.03997803L595.32 842L595.32 842L0 842z" /></clipPath><clipPath id="2"><path d="M487.78 782.72L507.46 782.72L507.46 782.72L507.46 770.24L507.46 770.24L487.78 770.24z" /></clipPath><clipPath id="3"><path d="M487.78 782.72L507.46 782.72L507.46 782.72L507.46 770.24L507.46 770.24L487.78 770.24z" /></clipPath><clipPath id="4"><path d="M487.78 782.72L507.46 782.72L507.46 782.72L507.46 770.24L507.46 770.24L487.78 770.24z" /></clipPath></defs><g transform="matrix(1.333333 0 0 1.333333 0 0)"><g><g clip-path="url(#1)"><g clip-path="url(#2)"><g clip-path="url(#3)"></g><g clip-path="url(#4)"></g></g><path transform="matrix(1 0 0 -1 0 842)" d="M230.25 761.84L320.25 761.84" stroke="#000000" stroke-width="0.75" stroke-linecap="round" fill="none" /><path transform="matrix(1 0 0 -1 0 842)" d="M449.25 710.84L449.25 704.84L449.25 704.84L454.25 707.34L454.25 707.34L450.25 707.34L450.25 707.34L450.25 708.34L450.25 708.34L454.25 708.34L454.25 708.34L449.25 710.84z" stroke="none" fill="#000000" fill-rule="evenodd" /><path transform="matrix(1 0 0 -1 0 842)" d="M149.25 707.34L449.25 707.34L449.25 707.34L449.25 708.34L449.25 708.34L149.25 708.34z" stroke="none" fill="#000000" fill-rule="evenodd" /><path transform="matrix(1 0 0 -1 0 842)" d="M454.25 708.34L450.25 708.34L450.25 708.34L450.25 707.34L450.25 707.34L454.25 707.34L454.25 707.34L455.25 707.84L455.25 707.84L454.25 708.34z" stroke="none" fill="#000000" fill-rule="evenodd" /><path transform="matrix(1 0 0 -1 0 842)" d="M319.75 713.84L317.25 713.84L317.25 713.84L320.25 707.84L320.25 707.84L322.75 712.84L322.75 712.84L319.75 712.84L319.75 712.84L319.75 713.84z" stroke="none" fill="#000000" fill-rule="evenodd" /><path transform="matrix(1 0 0 -1 0 842)" d="M319.75 712.84L320.75 712.84L320.75 712.84L320.75 761.84L320.75 761.84L319.75 761.84z" stroke="none" fill="#000000" fill-rule="evenodd" /><path transform="matrix(1 0 0 -1 0 842)" d="M323.25 713.84L320.75 713.84L320.75 713.84L320.75 712.84L320.75 712.84L322.75 712.84L322.75 712.84L323.25 713.84z" stroke="none" fill="#000000" fill-rule="evenodd" /><path transform="matrix(1 0 0 -1 0 842)" d="M236.25 424.09L326.25 424.09" stroke="#000000" stroke-width="0.75" stroke-linecap="round" fill="none" /><path transform="matrix(1 0 0 -1 0 842)" d="M455.25 391.09L455.25 385.09L455.25 385.09L460.25 387.59L460.25 387.59L456.25 387.59L456.25 387.59L456.25 388.59L456.25 388.59L460.25 388.59L460.25 388.59L455.25 391.09z" stroke="none" fill="#000000" fill-rule="evenodd" /><path transform="matrix(1 0 0 -1 0 842)" d="M155.25 387.59L455.25 387.59L455.25 387.59L455.25 388.59L455.25 388.59L155.25 388.59z" stroke="none" fill="#000000" fill-rule="evenodd" /><path transform="matrix(1 0 0 -1 0 842)" d="M460.25 388.59L456.25 388.59L456.25 388.59L456.25 387.59L456.25 387.59L460.25 387.59L460.25 387.59L461.25 388.09L461.25 388.09L460.25 388.59z" stroke="none" fill="#000000" fill-rule="evenodd" /><path transform="matrix(1 0 0 -1 0 842)" d="M325.75 394.09L323.25 394.09L323.25 394.09L326.25 388.09L326.25 388.09L328.75 393.09L328.75 393.09L325.75 393.09L325.75 393.09L325.75 394.09z" stroke="none" fill="#000000" fill-rule="evenodd" /><path transform="matrix(1 0 0 -1 0 842)" d="M325.75 393.09L326.75 393.09L326.75 393.09L326.75 424.09L326.75 424.09L325.75 424.09z" stroke="none" fill="#000000" fill-rule="evenodd" /><path transform="matrix(1 0 0 -1 0 842)" d="M329.25 394.09L326.75 394.09L326.75 394.09L326.75 393.09L326.75 393.09L328.75 393.09L328.75 393.09L329.25 394.09z" stroke="none" fill="#000000" fill-rule="evenodd" /><path transform="matrix(1 0 0 -1 0 842)" d="M332.47 522.67L395.95 522.67L395.95 522.67L395.95 523.15L395.95 523.15L332.47 523.15z" stroke="none" fill="#C35454" fill-rule="evenodd" /><path transform="matrix(1 0 0 -1 0 842)" d="M434.14 522.67L459.94 522.67L459.94 522.67L459.94 523.15L459.94 523.15L434.14 523.15z" stroke="none" fill="#C35454" fill-rule="evenodd" /><path transform="matrix(1 0 0 -1 0 842)" d="M132.02 504.67L223.604 504.67L223.604 504.67L223.604 505.15L223.604 505.15L132.02 505.15z" stroke="none" fill="#C35454" fill-rule="evenodd" /><path transform="matrix(1 0 0 -1 0 842)" d="M132.02 219.62L218.804 219.62L218.804 219.62L218.804 220.1L218.804 220.1L132.02 220.1z" stroke="none" fill="#C35454" fill-rule="evenodd" /><path transform="matrix(1 0 0 -1 0 842)" d="M240.53 219.62L304.154 219.62L304.154 219.62L304.154 220.1L304.154 220.1L240.53 220.1z" stroke="none" fill="#C35454" fill-rule="evenodd" /><path transform="matrix(1 0 0 -1 0 842)" d="M392.35 219.62L453.934 219.62L453.934 219.62L453.934 220.1L453.934 220.1L392.35 220.1z" stroke="none" fill="#C35454" fill-rule="evenodd" /></g></g></g></svg>