<svg xmlns="http://www.w3.org/2000/svg" xmlns:xlink="http://www.w3.org/1999/xlink" id="body_313" preserveAspectRatio="xMinYMin meet" viewBox="0 0 793 1123"><defs><clipPath id="1"><path d="M0 842L0 -0.03997803L0 -0.03997803L595.32 -0.03997803L595.32 -0.03997803L595.32 842L595.32 842L0 842z" /></clipPath><clipPath id="2"><path d="M487.78 782.72L507.46 782.72L507.46 782.72L507.46 770.24L507.46 770.24L487.78 770.24z" /></clipPath><clipPath id="3"><path d="M487.78 782.72L507.46 782.72L507.46 782.72L507.46 770.24L507.46 770.24L487.78 770.24z" /></clipPath><clipPath id="4"><path d="M487.78 782.72L507.46 782.72L507.46 782.72L507.46 770.24L507.46 770.24L487.78 770.24z" /></clipPath></defs><g transform="matrix(1.333333 0 0 1.333333 0 0)"><g><g clip-path="url(#1)"><g clip-path="url(#2)"><g clip-path="url(#3)"></g><g clip-path="url(#4)"></g></g><path transform="matrix(1 0 0 -1 0 842)" d="M200.57 761.4L286.61 761.4L286.61 761.4L286.61 761.88L286.61 761.88L200.57 761.88z" stroke="none" fill="#C35454" fill-rule="evenodd" /><path transform="matrix(1 0 0 -1 0 842)" d="M295.39 761.4L320.83 761.4L320.83 761.4L320.83 761.88L320.83 761.88L295.39 761.88z" stroke="none" fill="#C35454" fill-rule="evenodd" /><path transform="matrix(1 0 0 -1 0 842)" d="M248.81 695.14L289.25 695.14L289.25 695.14L289.25 695.62L289.25 695.62L248.81 695.62z" stroke="none" fill="#C35454" fill-rule="evenodd" /><path transform="matrix(1 0 0 -1 0 842)" d="M298.03 695.14L326.35 695.14L326.35 695.14L326.35 695.62L326.35 695.62L298.03 695.62z" stroke="none" fill="#C35454" fill-rule="evenodd" /><path transform="matrix(1 0 0 -1 0 842)" d="M201.65 629.14L237.05 629.14L237.05 629.14L237.05 629.62L237.05 629.62L201.65 629.62z" stroke="none" fill="#C35454" fill-rule="evenodd" /><path transform="matrix(1 0 0 -1 0 842)" d="M240.53 629.14L261.17 629.14L261.17 629.14L261.17 629.62L261.17 629.62L240.53 629.62z" stroke="none" fill="#C35454" fill-rule="evenodd" /><path transform="matrix(1 0 0 -1 0 842)" d="M173.9 563.11L221.804 563.11L221.804 563.11L221.804 563.59L221.804 563.59L173.9 563.59z" stroke="none" fill="#C35454" fill-rule="evenodd" /><path transform="matrix(1 0 0 -1 0 842)" d="M225.29 563.11L245.93 563.11L245.93 563.11L245.93 563.59L245.93 563.59L225.29 563.59z" stroke="none" fill="#C35454" fill-rule="evenodd" /><path transform="matrix(1 0 0 -1 0 842)" d="M135.5 442.87L158.42 442.87L158.42 442.87L158.42 443.35L158.42 443.35L135.5 443.35z" stroke="none" fill="#C35454" fill-rule="evenodd" /><path transform="matrix(1 0 0 -1 0 842)" d="M170.18 376.73L198.524 376.73L198.524 376.73L198.524 377.21L198.524 377.21L170.18 377.21z" stroke="none" fill="#C35454" fill-rule="evenodd" /><path transform="matrix(1 0 0 -1 0 842)" d="M202.37 310.73L225.41 310.73L225.41 310.73L225.41 311.21L225.41 311.21L202.37 311.21z" stroke="none" fill="#C35454" fill-rule="evenodd" /><path transform="matrix(1 0 0 -1 0 842)" d="M201.89 244.7L227.21 244.7L227.21 244.7L227.21 245.18L227.21 245.18L201.89 245.18z" stroke="none" fill="#C35454" fill-rule="evenodd" /><path transform="matrix(1 0 0 -1 0 842)" d="M241.97 178.58L269.93 178.58L269.93 178.58L269.93 179.06L269.93 179.06L241.97 179.06z" stroke="none" fill="#C35454" fill-rule="evenodd" /></g></g></g></svg>