<svg xmlns="http://www.w3.org/2000/svg" xmlns:xlink="http://www.w3.org/1999/xlink" id="body_100" preserveAspectRatio="xMinYMin meet" viewBox="0 0 793 1123"><defs><clipPath id="1"><path d="M0 842L0 -0.03997803L0 -0.03997803L595.32 -0.03997803L595.32 -0.03997803L595.32 842L595.32 842L0 842z" /></clipPath><clipPath id="2"><path d="M488.74 782.72L506.5 782.72L506.5 782.72L506.5 770.24L506.5 770.24L488.74 770.24z" /></clipPath><clipPath id="3"><path d="M488.74 782.72L506.5 782.72L506.5 782.72L506.5 770.24L506.5 770.24L488.74 770.24z" /></clipPath><clipPath id="4"><path d="M488.74 782.72L506.5 782.72L506.5 782.72L506.5 770.24L506.5 770.24L488.74 770.24z" /></clipPath></defs><g transform="matrix(1.333333 0 0 1.333333 0 0)"><g><g clip-path="url(#1)"><g clip-path="url(#2)"><g clip-path="url(#3)"></g><g clip-path="url(#4)"></g></g><path transform="matrix(1 0 0 -1 0 842)" d="M153.86 738.82L214.004 738.82L214.004 738.82L214.004 739.3L214.004 739.3L153.86 739.3z" stroke="none" fill="#C35454" fill-rule="evenodd" /><path transform="matrix(1 0 0 -1 0 842)" d="M219.29 738.82L275.69 738.82L275.69 738.82L275.69 739.3L275.69 739.3L219.29 739.3z" stroke="none" fill="#C35454" fill-rule="evenodd" /><g transform="matrix(0.3614131 0 0 0.3647727 198.35 248.01)"><g transform="matrix(1 0 0 1 0 0)"><image x="0" y="0" xlink:href="img_26.png" width="184" height="44" /></g></g><path transform="matrix(1 0 0 -1 0 842)" d="M132.02 330.65L298.99 330.65L298.99 330.65L298.99 331.13L298.99 331.13L132.02 331.13z" stroke="none" fill="#C35454" fill-rule="evenodd" /><path transform="matrix(1 0 0 -1 0 842)" d="M132.02 265.85L265.48 265.85L265.48 265.85L265.48 266.33L265.48 266.33L132.02 266.33z" stroke="none" fill="#C35454" fill-rule="evenodd" /><path transform="matrix(1 0 0 -1 0 842)" d="M132.02 171.86L345.31 171.86L345.31 171.86L345.31 172.34L345.31 172.34L132.02 172.34z" stroke="none" fill="#C35454" fill-rule="evenodd" /><path transform="matrix(1 0 0 -1 0 842)" d="M365.71 171.86L457.174 171.86L457.174 171.86L457.174 172.34L457.174 172.34L365.71 172.34z" stroke="none" fill="#C35454" fill-rule="evenodd" /><path transform="matrix(1 0 0 -1 0 842)" d="M132.02 153.86L162.62 153.86L162.62 153.86L162.62 154.34L162.62 154.34L132.02 154.34z" stroke="none" fill="#C35454" fill-rule="evenodd" /></g></g></g></svg>