<svg xmlns="http://www.w3.org/2000/svg" xmlns:xlink="http://www.w3.org/1999/xlink" id="body_175" preserveAspectRatio="xMinYMin meet" viewBox="0 0 793 1123"><defs><clipPath id="1"><path d="M0 842L0 -0.03997803L0 -0.03997803L595.32 -0.03997803L595.32 -0.03997803L595.32 842L595.32 842L0 842z" /></clipPath><clipPath id="2"><path d="M487.78 782.72L507.46 782.72L507.46 782.72L507.46 770.24L507.46 770.24L487.78 770.24z" /></clipPath><clipPath id="3"><path d="M487.78 782.72L507.46 782.72L507.46 782.72L507.46 770.24L507.46 770.24L487.78 770.24z" /></clipPath><clipPath id="4"><path d="M487.78 782.72L507.46 782.72L507.46 782.72L507.46 770.24L507.46 770.24L487.78 770.24z" /></clipPath></defs><g transform="matrix(1.333333 0 0 1.333333 0 0)"><g><g clip-path="url(#1)"><g clip-path="url(#2)"><g clip-path="url(#3)"></g><g clip-path="url(#4)"></g></g><path transform="matrix(1 0 0 -1 0 842)" d="M132.02 611.62L156.26 611.62L156.26 611.62L156.26 612.1L156.26 612.1L132.02 612.1z" stroke="none" fill="#C35454" fill-rule="evenodd" /><path transform="matrix(1 0 0 -1 0 842)" d="M171.14 611.62L184.244 611.62L184.244 611.62L184.244 612.1L184.244 612.1L171.14 612.1z" stroke="none" fill="#C35454" fill-rule="evenodd" /><path transform="matrix(1 0 0 -1 0 842)" d="M181.25 506.47L203.69 506.47L203.69 506.47L203.69 506.95L203.69 506.95L181.25 506.95z" stroke="none" fill="#C35454" fill-rule="evenodd" /><path transform="matrix(1 0 0 -1 0 842)" d="M219.77 506.47L237.77 506.47L237.77 506.47L237.77 506.95L237.77 506.95L219.77 506.95z" stroke="none" fill="#C35454" fill-rule="evenodd" /><path transform="matrix(1 0 0 -1 0 842)" d="M149.3 401.33L179.924 401.33L179.924 401.33L179.924 401.81L179.924 401.81L149.3 401.81z" stroke="none" fill="#C35454" fill-rule="evenodd" /><path transform="matrix(1 0 0 -1 0 842)" d="M211.37 401.33L223.97 401.33L223.97 401.33L223.97 401.81L223.97 401.81L211.37 401.81z" stroke="none" fill="#C35454" fill-rule="evenodd" /><path transform="matrix(1 0 0 -1 0 842)" d="M147.02 350.33L166.46 350.33L166.46 350.33L166.46 350.81L166.46 350.81L147.02 350.81z" stroke="none" fill="#C35454" fill-rule="evenodd" /><path transform="matrix(1 0 0 -1 0 842)" d="M181.37 350.33L236.33 350.33L236.33 350.33L236.33 350.81L236.33 350.81L181.37 350.81z" stroke="none" fill="#C35454" fill-rule="evenodd" /><path transform="matrix(1 0 0 -1 0 842)" d="M138.02 209.18L179.924 209.18L179.924 209.18L179.924 209.66L179.924 209.66L138.02 209.66z" stroke="none" fill="#C35454" fill-rule="evenodd" /><path transform="matrix(1 0 0 -1 0 842)" d="M132.02 159.14L176.924 159.14L176.924 159.14L176.924 159.62L176.924 159.62L132.02 159.62z" stroke="none" fill="#C35454" fill-rule="evenodd" /><path transform="matrix(1 0 0 -1 0 842)" d="M395.59 159.14L433.294 159.14L433.294 159.14L433.294 159.62L433.294 159.62L395.59 159.62z" stroke="none" fill="#C35454" fill-rule="evenodd" /><path transform="matrix(1 0 0 -1 0 842)" d="M132.02 140.06L158.54 140.06L158.54 140.06L158.54 140.54L158.54 140.54L132.02 140.54z" stroke="none" fill="#C35454" fill-rule="evenodd" /></g></g></g></svg>