<svg xmlns="http://www.w3.org/2000/svg" xmlns:xlink="http://www.w3.org/1999/xlink" id="body_98" preserveAspectRatio="xMinYMin meet" viewBox="0 0 793 1123"><defs><clipPath id="1"><path d="M0 842L0 -0.03997803L0 -0.03997803L595.32 -0.03997803L595.32 -0.03997803L595.32 842L595.32 842L0 842z" /></clipPath><clipPath id="2"><path d="M492.94 782.72L507.46 782.72L507.46 782.72L507.46 770.24L507.46 770.24L492.94 770.24z" /></clipPath><clipPath id="3"><path d="M492.94 782.72L507.46 782.72L507.46 782.72L507.46 770.24L507.46 770.24L492.94 770.24z" /></clipPath><clipPath id="4"><path d="M492.94 782.72L507.46 782.72L507.46 782.72L507.46 770.24L507.46 770.24L492.94 770.24z" /></clipPath></defs><g transform="matrix(1.333333 0 0 1.333333 0 0)"><g><g clip-path="url(#1)"><g clip-path="url(#2)"><g clip-path="url(#3)"></g><g clip-path="url(#4)"></g></g><path transform="matrix(1 0 0 -1 0 842)" d="M132.02 756.94L325.39 756.94L325.39 756.94L325.39 757.42L325.39 757.42L132.02 757.42z" stroke="none" fill="#C35454" fill-rule="evenodd" /><path transform="matrix(1 0 0 -1 0 842)" d="M345.91 756.94L431.734 756.94L431.734 756.94L431.734 757.42L431.734 757.42L345.91 757.42z" stroke="none" fill="#C35454" fill-rule="evenodd" /><path transform="matrix(1 0 0 -1 0 842)" d="M132.02 738.94L167.06 738.94L167.06 738.94L167.06 739.42L167.06 739.42L132.02 739.42z" stroke="none" fill="#C35454" fill-rule="evenodd" /><path transform="matrix(1 0 0 -1 0 842)" d="M132.02 630.7L257.92 630.7L257.92 630.7L257.92 631.18L257.92 631.18L132.02 631.18z" stroke="none" fill="#C35454" fill-rule="evenodd" /><path transform="matrix(1 0 0 -1 0 842)" d="M346.15 630.7L416.014 630.7L416.014 630.7L416.014 631.18L416.014 631.18L346.15 631.18z" stroke="none" fill="#C35454" fill-rule="evenodd" /><path transform="matrix(1 0 0 -1 0 842)" d="M132.02 540.67L257.92 540.67L257.92 540.67L257.92 541.15L257.92 541.15L132.02 541.15z" stroke="none" fill="#C35454" fill-rule="evenodd" /><path transform="matrix(1 0 0 -1 0 842)" d="M346.15 540.67L391.51 540.67L391.51 540.67L391.51 541.15L391.51 541.15L346.15 541.15z" stroke="none" fill="#C35454" fill-rule="evenodd" /><path transform="matrix(1 0 0 -1 0 842)" d="M132.02 450.67L320.59 450.67L320.59 450.67L320.59 451.15L320.59 451.15L132.02 451.15z" stroke="none" fill="#C35454" fill-rule="evenodd" /><path transform="matrix(1 0 0 -1 0 842)" d="M416.62 450.67L452.62 450.67L452.62 450.67L452.62 451.15L452.62 451.15L416.62 451.15z" stroke="none" fill="#C35454" fill-rule="evenodd" /><path transform="matrix(1 0 0 -1 0 842)" d="M132.02 437.23L276.28 437.23L276.28 437.23L276.28 437.71L276.28 437.71L132.02 437.71z" stroke="none" fill="#C35454" fill-rule="evenodd" /><path transform="matrix(1 0 0 -1 0 842)" d="M132.02 329.21L320.59 329.21L320.59 329.21L320.59 329.69L320.59 329.69L132.02 329.69z" stroke="none" fill="#C35454" fill-rule="evenodd" /><path transform="matrix(1 0 0 -1 0 842)" d="M416.62 329.21L442.42 329.21L442.42 329.21L442.42 329.69L442.42 329.69L416.62 329.69z" stroke="none" fill="#C35454" fill-rule="evenodd" /><path transform="matrix(1 0 0 -1 0 842)" d="M132.02 311.21L365.95 311.21L365.95 311.21L365.95 311.69L365.95 311.69L132.02 311.69z" stroke="none" fill="#C35454" fill-rule="evenodd" /><path transform="matrix(1 0 0 -1 0 842)" d="M132.02 221.06L320.59 221.06L320.59 221.06L320.59 221.54L320.59 221.54L132.02 221.54z" stroke="none" fill="#C35454" fill-rule="evenodd" /><path transform="matrix(1 0 0 -1 0 842)" d="M416.62 221.06L442.42 221.06L442.42 221.06L442.42 221.54L442.42 221.54L416.62 221.54z" stroke="none" fill="#C35454" fill-rule="evenodd" /><path transform="matrix(1 0 0 -1 0 842)" d="M132.02 203.06L350.71 203.06L350.71 203.06L350.71 203.54L350.71 203.54L132.02 203.54z" stroke="none" fill="#C35454" fill-rule="evenodd" /><path transform="matrix(1 0 0 -1 0 842)" d="M132.02 94.944L320.59 94.944L320.59 94.944L320.59 95.42398L320.59 95.42398L132.02 95.42398z" stroke="none" fill="#C35454" fill-rule="evenodd" /><path transform="matrix(1 0 0 -1 0 842)" d="M416.62 94.944L454.42 94.944L454.42 94.944L454.42 95.42398L454.42 95.42398L416.62 95.42398z" stroke="none" fill="#C35454" fill-rule="evenodd" /></g></g></g></svg>