<svg xmlns="http://www.w3.org/2000/svg" xmlns:xlink="http://www.w3.org/1999/xlink" id="body_371" preserveAspectRatio="xMinYMin meet" viewBox="0 0 793 1123"><defs><clipPath id="1"><path d="M0 842L0 -0.03997803L0 -0.03997803L595.32 -0.03997803L595.32 -0.03997803L595.32 842L595.32 842L0 842z" /></clipPath><clipPath id="2"><path d="M487.78 782.72L507.46 782.72L507.46 782.72L507.46 770.24L507.46 770.24L487.78 770.24z" /></clipPath><clipPath id="3"><path d="M487.78 782.72L507.46 782.72L507.46 782.72L507.46 770.24L507.46 770.24L487.78 770.24z" /></clipPath><clipPath id="4"><path d="M487.78 782.72L507.46 782.72L507.46 782.72L507.46 770.24L507.46 770.24L487.78 770.24z" /></clipPath></defs><g transform="matrix(1.333333 0 0 1.333333 0 0)"><g><g clip-path="url(#1)"><g clip-path="url(#2)"><g clip-path="url(#3)"></g><g clip-path="url(#4)"></g></g><path transform="matrix(1 0 0 -1 0 842)" d="M185.09 683.86L254.93 683.86L254.93 683.86L254.93 684.34L254.93 684.34L185.09 684.34z" stroke="none" fill="#C35454" fill-rule="evenodd" /><path transform="matrix(1 0 0 -1 0 842)" d="M132.02 653.14L243.04 653.14L243.04 653.14L243.04 653.62L243.04 653.62L132.02 653.62z" stroke="none" fill="#C35454" fill-rule="evenodd" /><path transform="matrix(1 0 0 -1 0 842)" d="M185.09 549.55L257.09 549.55L257.09 549.55L257.09 550.03L257.09 550.03L185.09 550.03z" stroke="none" fill="#C35454" fill-rule="evenodd" /><path transform="matrix(1 0 0 -1 0 842)" d="M185.09 465.43L257.21 465.43L257.21 465.43L257.21 465.91L257.21 465.91L185.09 465.91z" stroke="none" fill="#C35454" fill-rule="evenodd" /><path transform="matrix(1 0 0 -1 0 842)" d="M396.79 377.45L433.774 377.45L433.774 377.45L433.774 377.93L433.774 377.93L396.79 377.93z" stroke="none" fill="#C35454" fill-rule="evenodd" /><path transform="matrix(1 0 0 -1 0 842)" d="M185.09 322.85L254.93 322.85L254.93 322.85L254.93 323.33L254.93 323.33L185.09 323.33z" stroke="none" fill="#C35454" fill-rule="evenodd" /><path transform="matrix(1 0 0 -1 0 842)" d="M132.02 292.13L214.604 292.13L214.604 292.13L214.604 292.61L214.604 292.61L132.02 292.61z" stroke="none" fill="#C35454" fill-rule="evenodd" /><path transform="matrix(1 0 0 -1 0 842)" d="M185.09 188.42L257.21 188.42L257.21 188.42L257.21 188.9L257.21 188.9L185.09 188.9z" stroke="none" fill="#C35454" fill-rule="evenodd" /><path transform="matrix(1 0 0 -1 0 842)" d="M232.97 100.46L291.29 100.46L291.29 100.46L291.29 100.94L291.29 100.94L232.97 100.94z" stroke="none" fill="#C35454" fill-rule="evenodd" /></g></g></g></svg>