<svg xmlns="http://www.w3.org/2000/svg" xmlns:xlink="http://www.w3.org/1999/xlink" id="body_154" preserveAspectRatio="xMinYMin meet" viewBox="0 0 793 1123"><defs><clipPath id="1"><path d="M0 842L0 -0.03997803L0 -0.03997803L595.32 -0.03997803L595.32 -0.03997803L595.32 842L595.32 842L0 842z" /></clipPath><clipPath id="2"><path d="M87.984 782.72L161.304 782.72L161.304 782.72L161.304 770.24L161.304 770.24L87.984 770.24z" /></clipPath><clipPath id="3"><path d="M87.984 782.72L161.304 782.72L161.304 782.72L161.304 770.24L161.304 770.24L87.984 770.24z" /></clipPath><clipPath id="4"><path d="M87.984 782.72L161.304 782.72L161.304 782.72L161.304 770.24L161.304 770.24L87.984 770.24z" /></clipPath><clipPath id="5"><path d="M87.984 782.72L161.304 782.72L161.304 782.72L161.304 770.24L161.304 770.24L87.984 770.24z" /></clipPath><clipPath id="6"><path d="M87.984 782.72L161.304 782.72L161.304 782.72L161.304 770.24L161.304 770.24L87.984 770.24z" /></clipPath><clipPath id="7"><path d="M87.984 782.72L161.304 782.72L161.304 782.72L161.304 770.24L161.304 770.24L87.984 770.24z" /></clipPath><clipPath id="8"><path d="M87.984 782.72L161.304 782.72L161.304 782.72L161.304 770.24L161.304 770.24L87.984 770.24z" /></clipPath></defs><g transform="matrix(1.333333 0 0 1.333333 0 0)"><g><g clip-path="url(#1)"><g clip-path="url(#2)"><g clip-path="url(#3)"></g><g clip-path="url(#4)"></g><g clip-path="url(#5)"></g><g clip-path="url(#6)"></g><g clip-path="url(#7)"></g><g clip-path="url(#8)"></g></g><path transform="matrix(1 0 0 -1 0 842)" d="M239.25 330.74L329.25 330.74" stroke="#000000" stroke-width="0.75" stroke-linecap="round" fill="none" /><path transform="matrix(1 0 0 -1 0 842)" d="M458.25 297.74L458.25 291.74L458.25 291.74L463.25 294.24L463.25 294.24L459.25 294.24L459.25 294.24L459.25 295.24L459.25 295.24L463.25 295.24L463.25 295.24L458.25 297.74z" stroke="none" fill="#000000" fill-rule="evenodd" /><path transform="matrix(1 0 0 -1 0 842)" d="M158.25 294.24L458.25 294.24L458.25 294.24L458.25 295.24L458.25 295.24L158.25 295.24z" stroke="none" fill="#000000" fill-rule="evenodd" /><path transform="matrix(1 0 0 -1 0 842)" d="M463.25 295.24L459.25 295.24L459.25 295.24L459.25 294.24L459.25 294.24L463.25 294.24L463.25 294.24L464.25 294.74L464.25 294.74L463.25 295.24z" stroke="none" fill="#000000" fill-rule="evenodd" /><path transform="matrix(1 0 0 -1 0 842)" d="M328.75 300.74L326.25 300.74L326.25 300.74L329.25 294.74L329.25 294.74L331.75 299.74L331.75 299.74L328.75 299.74L328.75 299.74L328.75 300.74z" stroke="none" fill="#000000" fill-rule="evenodd" /><path transform="matrix(1 0 0 -1 0 842)" d="M328.75 299.74L329.75 299.74L329.75 299.74L329.75 330.74L329.75 330.74L328.75 330.74z" stroke="none" fill="#000000" fill-rule="evenodd" /><path transform="matrix(1 0 0 -1 0 842)" d="M332.25 300.74L329.75 300.74L329.75 300.74L329.75 299.74L329.75 299.74L331.75 299.74L331.75 299.74L332.25 300.74z" stroke="none" fill="#000000" fill-rule="evenodd" /><path transform="matrix(1 0 0 -1 0 842)" d="M138.02 502.63L181.844 502.63L181.844 502.63L181.844 503.11L181.844 503.11L138.02 503.11z" stroke="none" fill="#C35454" fill-rule="evenodd" /><path transform="matrix(1 0 0 -1 0 842)" d="M199.85 411.53L220.37 411.53L220.37 411.53L220.37 412.01L220.37 412.01L199.85 412.01z" stroke="none" fill="#C35454" fill-rule="evenodd" /><path transform="matrix(1 0 0 -1 0 842)" d="M304.99 411.53L380.35 411.53L380.35 411.53L380.35 412.01L380.35 412.01L304.99 412.01z" stroke="none" fill="#C35454" fill-rule="evenodd" /><path transform="matrix(1 0 0 -1 0 842)" d="M252.17 168.02L291.05 168.02L291.05 168.02L291.05 168.5L291.05 168.5L252.17 168.5z" stroke="none" fill="#C35454" fill-rule="evenodd" /><path transform="matrix(1 0 0 -1 0 842)" d="M316.99 168.02L337.75 168.02L337.75 168.02L337.75 168.5L337.75 168.5L316.99 168.5z" stroke="none" fill="#C35454" fill-rule="evenodd" /></g></g></g></svg>