<svg xmlns="http://www.w3.org/2000/svg" xmlns:xlink="http://www.w3.org/1999/xlink" id="body_316" preserveAspectRatio="xMinYMin meet" viewBox="0 0 793 1123"><defs><clipPath id="1"><path d="M0 842L0 -0.03997803L0 -0.03997803L595.32 -0.03997803L595.32 -0.03997803L595.32 842L595.32 842L0 842z" /></clipPath><clipPath id="2"><path d="M87.984 782.72L161.304 782.72L161.304 782.72L161.304 770.24L161.304 770.24L87.984 770.24z" /></clipPath><clipPath id="3"><path d="M87.984 782.72L161.304 782.72L161.304 782.72L161.304 770.24L161.304 770.24L87.984 770.24z" /></clipPath><clipPath id="4"><path d="M87.984 782.72L161.304 782.72L161.304 782.72L161.304 770.24L161.304 770.24L87.984 770.24z" /></clipPath><clipPath id="5"><path d="M87.984 782.72L161.304 782.72L161.304 782.72L161.304 770.24L161.304 770.24L87.984 770.24z" /></clipPath><clipPath id="6"><path d="M87.984 782.72L161.304 782.72L161.304 782.72L161.304 770.24L161.304 770.24L87.984 770.24z" /></clipPath><clipPath id="7"><path d="M87.984 782.72L161.304 782.72L161.304 782.72L161.304 770.24L161.304 770.24L87.984 770.24z" /></clipPath><clipPath id="8"><path d="M87.984 782.72L161.304 782.72L161.304 782.72L161.304 770.24L161.304 770.24L87.984 770.24z" /></clipPath></defs><g transform="matrix(1.333333 0 0 1.333333 0 0)"><g><g clip-path="url(#1)"><g clip-path="url(#2)"><g clip-path="url(#3)"></g><g clip-path="url(#4)"></g><g clip-path="url(#5)"></g><g clip-path="url(#6)"></g><g clip-path="url(#7)"></g><g clip-path="url(#8)"></g></g><path transform="matrix(1 0 0 -1 0 842)" d="M228.05 665.86L258.53 665.86L258.53 665.86L258.53 666.34L258.53 666.34L228.05 666.34z" stroke="none" fill="#C35454" fill-rule="evenodd" /><path transform="matrix(1 0 0 -1 0 842)" d="M159.98 599.74L181.964 599.74L181.964 599.74L181.964 600.22L181.964 600.22L159.98 600.22z" stroke="none" fill="#C35454" fill-rule="evenodd" /><path transform="matrix(1 0 0 -1 0 842)" d="M239.09 599.74L257.45 599.74L257.45 599.74L257.45 600.22L257.45 600.22L239.09 600.22z" stroke="none" fill="#C35454" fill-rule="evenodd" /><path transform="matrix(1 0 0 -1 0 842)" d="M154.58 461.59L190.604 461.59L190.604 461.59L190.604 462.07L190.604 462.07L154.58 462.07z" stroke="none" fill="#C35454" fill-rule="evenodd" /><path transform="matrix(1 0 0 -1 0 842)" d="M194.09 461.59L212.21 461.59L212.21 461.59L212.21 462.07L212.21 462.07L194.09 462.07z" stroke="none" fill="#C35454" fill-rule="evenodd" /><path transform="matrix(1 0 0 -1 0 842)" d="M165.02 394.01L228.644 394.01L228.644 394.01L228.644 394.49L228.644 394.49L165.02 394.49z" stroke="none" fill="#C35454" fill-rule="evenodd" /><path transform="matrix(1 0 0 -1 0 842)" d="M232.01 394.01L250.13 394.01L250.13 394.01L250.13 394.49L250.13 394.49L232.01 394.49z" stroke="none" fill="#C35454" fill-rule="evenodd" /><path transform="matrix(1 0 0 -1 0 842)" d="M240.89 326.33L269.09 326.33L269.09 326.33L269.09 326.81L269.09 326.81L240.89 326.81z" stroke="none" fill="#C35454" fill-rule="evenodd" /><path transform="matrix(1 0 0 -1 0 842)" d="M272.57 326.33L290.81 326.33L290.81 326.33L290.81 326.81L290.81 326.81L272.57 326.81z" stroke="none" fill="#C35454" fill-rule="evenodd" /><path transform="matrix(1 0 0 -1 0 842)" d="M207.65 258.77L239.69 258.77L239.69 258.77L239.69 259.25L239.69 259.25L207.65 259.25z" stroke="none" fill="#C35454" fill-rule="evenodd" /><path transform="matrix(1 0 0 -1 0 842)" d="M243.17 258.77L261.41 258.77L261.41 258.77L261.41 259.25L261.41 259.25L243.17 259.25z" stroke="none" fill="#C35454" fill-rule="evenodd" /><path transform="matrix(1 0 0 -1 0 842)" d="M178.61 191.06L234.89 191.06L234.89 191.06L234.89 191.54L234.89 191.54L178.61 191.54z" stroke="none" fill="#C35454" fill-rule="evenodd" /><path transform="matrix(1 0 0 -1 0 842)" d="M238.37 191.06L256.49 191.06L256.49 191.06L256.49 191.54L256.49 191.54L238.37 191.54z" stroke="none" fill="#C35454" fill-rule="evenodd" /><path transform="matrix(1 0 0 -1 0 842)" d="M159.98 123.38L205.244 123.38L205.244 123.38L205.244 123.86L205.244 123.86L159.98 123.86z" stroke="none" fill="#C35454" fill-rule="evenodd" /><path transform="matrix(1 0 0 -1 0 842)" d="M208.73 123.38L226.85 123.38L226.85 123.38L226.85 123.86L226.85 123.86L208.73 123.86z" stroke="none" fill="#C35454" fill-rule="evenodd" /></g></g></g></svg>