<svg xmlns="http://www.w3.org/2000/svg" xmlns:xlink="http://www.w3.org/1999/xlink" id="body_387" preserveAspectRatio="xMinYMin meet" viewBox="0 0 793 1123"><defs><clipPath id="1"><path d="M0 842L0 -0.03997803L0 -0.03997803L595.32 -0.03997803L595.32 -0.03997803L595.32 842L595.32 842L0 842z" /></clipPath><clipPath id="2"><path d="M487.78 782.72L507.46 782.72L507.46 782.72L507.46 770.24L507.46 770.24L487.78 770.24z" /></clipPath><clipPath id="3"><path d="M487.78 782.72L507.46 782.72L507.46 782.72L507.46 770.24L507.46 770.24L487.78 770.24z" /></clipPath><clipPath id="4"><path d="M487.78 782.72L507.46 782.72L507.46 782.72L507.46 770.24L507.46 770.24L487.78 770.24z" /></clipPath></defs><g transform="matrix(1.333333 0 0 1.333333 0 0)"><g><g clip-path="url(#1)"><g clip-path="url(#2)"><g clip-path="url(#3)"></g><g clip-path="url(#4)"></g></g><path transform="matrix(1 0 0 -1 0 842)" d="M132 385.19L135.5 385.19" stroke="#C35454" stroke-width="0.64" stroke-linecap="round" fill="none" /><path transform="matrix(1 0 0 -1 0 842)" d="M132 246.99L135.5 246.99" stroke="#C35454" stroke-width="0.64" stroke-linecap="round" fill="none" /><path transform="matrix(1 0 0 -1 0 842)" d="M132 162.94L135.5 162.94" stroke="#C35454" stroke-width="0.64" stroke-linecap="round" fill="none" /><path transform="matrix(1 0 0 -1 0 842)" d="M142.58 737.98L243.52 737.98L243.52 737.98L243.52 738.46L243.52 738.46L142.58 738.46z" stroke="none" fill="#C35454" fill-rule="evenodd" /><path transform="matrix(1 0 0 -1 0 842)" d="M142.58 653.86L278.92 653.86L278.92 653.86L278.92 654.34L278.92 654.34L142.58 654.34z" stroke="none" fill="#C35454" fill-rule="evenodd" /><path transform="matrix(1 0 0 -1 0 842)" d="M142.58 547.27L269.92 547.27L269.92 547.27L269.92 547.75L269.92 547.75L142.58 547.75z" stroke="none" fill="#C35454" fill-rule="evenodd" /><path transform="matrix(1 0 0 -1 0 842)" d="M138.02 386.57L161.18 386.57L161.18 386.57L161.18 387.05L161.18 387.05L138.02 387.05z" stroke="none" fill="#C35454" fill-rule="evenodd" /><path transform="matrix(1 0 0 -1 0 842)" d="M138.02 248.42L161.18 248.42L161.18 248.42L161.18 248.9L161.18 248.9L138.02 248.9z" stroke="none" fill="#C35454" fill-rule="evenodd" /><path transform="matrix(1 0 0 -1 0 842)" d="M138.02 164.3L185.204 164.3L185.204 164.3L185.204 164.78L185.204 164.78L138.02 164.78z" stroke="none" fill="#C35454" fill-rule="evenodd" /></g></g></g></svg>