<svg xmlns="http://www.w3.org/2000/svg" xmlns:xlink="http://www.w3.org/1999/xlink" id="body_83" preserveAspectRatio="xMinYMin meet" viewBox="0 0 793 1123"><defs><clipPath id="1"><path d="M0 842L0 -0.03997803L0 -0.03997803L595.32 -0.03997803L595.32 -0.03997803L595.32 842L595.32 842L0 842z" /></clipPath><clipPath id="2"><path d="M492.94 782.72L507.46 782.72L507.46 782.72L507.46 770.24L507.46 770.24L492.94 770.24z" /></clipPath><clipPath id="3"><path d="M492.94 782.72L507.46 782.72L507.46 782.72L507.46 770.24L507.46 770.24L492.94 770.24z" /></clipPath><clipPath id="4"><path d="M492.94 782.72L507.46 782.72L507.46 782.72L507.46 770.24L507.46 770.24L492.94 770.24z" /></clipPath></defs><g transform="matrix(1.333333 0 0 1.333333 0 0)"><g><g clip-path="url(#1)"><g clip-path="url(#2)"><g clip-path="url(#3)"></g><g clip-path="url(#4)"></g></g><path transform="matrix(1 0 0 -1 0 842)" d="M185.81 738.82L271.61 738.82L271.61 738.82L271.61 739.3L271.61 739.3L185.81 739.3z" stroke="none" fill="#C35454" fill-rule="evenodd" /><path transform="matrix(1 0 0 -1 0 842)" d="M293.47 738.82L341.23 738.82L341.23 738.82L341.23 739.3L341.23 739.3L293.47 739.3z" stroke="none" fill="#C35454" fill-rule="evenodd" /><path transform="matrix(1 0 0 -1 0 842)" d="M188.93 635.26L207.05 635.26L207.05 635.26L207.05 635.74L207.05 635.74L188.93 635.74z" stroke="none" fill="#C35454" fill-rule="evenodd" /><path transform="matrix(1 0 0 -1 0 842)" d="M267.41 635.26L277.85 635.26L277.85 635.26L277.85 635.74L277.85 635.74L267.41 635.74z" stroke="none" fill="#C35454" fill-rule="evenodd" /><g transform="matrix(0.3614131 0 0 0.3659091 171.35 342.66)"><g transform="matrix(1 0 0 1 0 0)"><image x="0" y="0" xlink:href="img_26.png" width="184" height="44" /></g></g><path transform="matrix(1 0 0 -1 0 842)" d="M222.53 360.17L316.634 360.17L316.634 360.17L316.634 360.65L316.634 360.65L222.53 360.65z" stroke="none" fill="#C35454" fill-rule="evenodd" /><path transform="matrix(1 0 0 -1 0 842)" d="M177.17 310.61L210.17 310.61L210.17 310.61L210.17 311.09L210.17 311.09L177.17 311.09z" stroke="none" fill="#C35454" fill-rule="evenodd" /><path transform="matrix(1 0 0 -1 0 842)" d="M265.13 310.61L309.314 310.61L309.314 310.61L309.314 311.09L309.314 311.09L265.13 311.09z" stroke="none" fill="#C35454" fill-rule="evenodd" /><path transform="matrix(1 0 0 -1 0 842)" d="M153.02 261.05L197.324 261.05L197.324 261.05L197.324 261.53L197.324 261.53L153.02 261.53z" stroke="none" fill="#C35454" fill-rule="evenodd" /><path transform="matrix(1 0 0 -1 0 842)" d="M191.57 139.22L248.57 139.22L248.57 139.22L248.57 139.7L248.57 139.7L191.57 139.7z" stroke="none" fill="#C35454" fill-rule="evenodd" /></g></g></g></svg>