<svg xmlns="http://www.w3.org/2000/svg" xmlns:xlink="http://www.w3.org/1999/xlink" id="body_267" preserveAspectRatio="xMinYMin meet" viewBox="0 0 793 1123"><defs><clipPath id="1"><path d="M0 842L0 -0.03997803L0 -0.03997803L595.32 -0.03997803L595.32 -0.03997803L595.32 842L595.32 842L0 842z" /></clipPath><clipPath id="2"><path d="M487.78 782.72L507.46 782.72L507.46 782.72L507.46 770.24L507.46 770.24L487.78 770.24z" /></clipPath><clipPath id="3"><path d="M487.78 782.72L507.46 782.72L507.46 782.72L507.46 770.24L507.46 770.24L487.78 770.24z" /></clipPath><clipPath id="4"><path d="M487.78 782.72L507.46 782.72L507.46 782.72L507.46 770.24L507.46 770.24L487.78 770.24z" /></clipPath></defs><g transform="matrix(1.333333 0 0 1.333333 0 0)"><g><g clip-path="url(#1)"><g clip-path="url(#2)"><g clip-path="url(#3)"></g><g clip-path="url(#4)"></g></g><path transform="matrix(1 0 0 -1 0 842)" d="M132.02 701.74L325.75 701.74L325.75 701.74L325.75 702.22L325.75 702.22L132.02 702.22z" stroke="none" fill="#C35454" fill-rule="evenodd" /><path transform="matrix(1 0 0 -1 0 842)" d="M337.87 701.74L398.47 701.74L398.47 701.74L398.47 702.22L398.47 702.22L337.87 702.22z" stroke="none" fill="#C35454" fill-rule="evenodd" /><path transform="matrix(1 0 0 -1 0 842)" d="M132.02 560.59L195.884 560.59L195.884 560.59L195.884 561.07L195.884 561.07L132.02 561.07z" stroke="none" fill="#C35454" fill-rule="evenodd" /><path transform="matrix(1 0 0 -1 0 842)" d="M229.61 560.59L403.87 560.59L403.87 560.59L403.87 561.07L403.87 561.07L229.61 561.07z" stroke="none" fill="#C35454" fill-rule="evenodd" /><path transform="matrix(1 0 0 -1 0 842)" d="M132.02 384.41L236.08 384.41L236.08 384.41L236.08 384.89L236.08 384.89L132.02 384.89z" stroke="none" fill="#C35454" fill-rule="evenodd" /><path transform="matrix(1 0 0 -1 0 842)" d="M259.61 384.41L310.514 384.41L310.514 384.41L310.514 384.89L310.514 384.89L259.61 384.89z" stroke="none" fill="#C35454" fill-rule="evenodd" /><path transform="matrix(1 0 0 -1 0 842)" d="M171.62 248.18L198.644 248.18L198.644 248.18L198.644 248.66L198.644 248.66L171.62 248.66z" stroke="none" fill="#C35454" fill-rule="evenodd" /><path transform="matrix(1 0 0 -1 0 842)" d="M248.81 248.18L414.22 248.18L414.22 248.18L414.22 248.66L414.22 248.66L248.81 248.66z" stroke="none" fill="#C35454" fill-rule="evenodd" /></g></g></g></svg>