<svg xmlns="http://www.w3.org/2000/svg" xmlns:xlink="http://www.w3.org/1999/xlink" id="body_201" preserveAspectRatio="xMinYMin meet" viewBox="0 0 793 1123"><defs><clipPath id="1"><path d="M0 842L0 -0.03997803L0 -0.03997803L595.32 -0.03997803L595.32 -0.03997803L595.32 842L595.32 842L0 842z" /></clipPath><clipPath id="2"><path d="M488.74 782.72L506.5 782.72L506.5 782.72L506.5 770.24L506.5 770.24L488.74 770.24z" /></clipPath><clipPath id="3"><path d="M488.74 782.72L506.5 782.72L506.5 782.72L506.5 770.24L506.5 770.24L488.74 770.24z" /></clipPath><clipPath id="4"><path d="M488.74 782.72L506.5 782.72L506.5 782.72L506.5 770.24L506.5 770.24L488.74 770.24z" /></clipPath></defs><g transform="matrix(1.333333 0 0 1.333333 0 0)"><g><g clip-path="url(#1)"><g clip-path="url(#2)"><g clip-path="url(#3)"></g><g clip-path="url(#4)"></g></g><path transform="matrix(1 0 0 -1 0 842)" d="M132.02 635.02L314.95 635.02L314.95 635.02L314.95 635.5L314.95 635.5L132.02 635.5z" stroke="none" fill="#C35454" fill-rule="evenodd" /><g transform="matrix(0.3614131 0 0 0.3647727 171.35 423.81)"><g transform="matrix(1 0 0 1 0 0)"><image x="0" y="0" xlink:href="img_26.png" width="184" height="44" /></g></g><path transform="matrix(1 0 0 -1 0 842)" d="M269.81 261.05L313.634 261.05L313.634 261.05L313.634 261.53L313.634 261.53L269.81 261.53z" stroke="none" fill="#C35454" fill-rule="evenodd" /><path transform="matrix(1 0 0 -1 0 842)" d="M132.02 157.46L166.1 157.46L166.1 157.46L166.1 157.94L166.1 157.94L132.02 157.94z" stroke="none" fill="#C35454" fill-rule="evenodd" /></g></g></g></svg>