<svg xmlns="http://www.w3.org/2000/svg" xmlns:xlink="http://www.w3.org/1999/xlink" id="body_36" preserveAspectRatio="xMinYMin meet" viewBox="0 0 793 1123"><defs><clipPath id="1"><path d="M0 842L0 -0.03997803L0 -0.03997803L595.32 -0.03997803L595.32 -0.03997803L595.32 842L595.32 842L0 842z" /></clipPath><clipPath id="2"><path d="M87.984 782.72L102.504 782.72L102.504 782.72L102.504 770.24L102.504 770.24L87.984 770.24z" /></clipPath><clipPath id="3"><path d="M87.984 782.72L102.504 782.72L102.504 782.72L102.504 770.24L102.504 770.24L87.984 770.24z" /></clipPath><clipPath id="4"><path d="M87.984 782.72L102.504 782.72L102.504 782.72L102.504 770.24L102.504 770.24L87.984 770.24z" /></clipPath><clipPath id="5"><path d="M129.98 601.02L174.74 601.02L174.74 601.02L174.74 577.836L174.74 577.836L129.98 577.836z" /></clipPath><clipPath id="6"><path d="M129.98 601.02L174.74 601.02L174.74 601.02L174.74 577.836L174.74 577.836L129.98 577.836z" /></clipPath><clipPath id="7"><path d="M129.98 601.02L174.74 601.02L174.74 601.02L174.74 577.836L174.74 577.836L129.98 577.836z" /></clipPath><clipPath id="8"><path d="M174.74 601.02L232.604 601.02L232.604 601.02L232.604 577.836L232.604 577.836L174.74 577.836z" /></clipPath><clipPath id="9"><path d="M174.74 601.02L232.604 601.02L232.604 601.02L232.604 577.836L232.604 577.836L174.74 577.836z" /></clipPath><clipPath id="10"><path d="M174.74 601.02L232.604 601.02L232.604 601.02L232.604 577.836L232.604 577.836L174.74 577.836z" /></clipPath><clipPath id="11"><path d="M232.61 601.02L291.53 601.02L291.53 601.02L291.53 577.836L291.53 577.836L232.61 577.836z" /></clipPath><clipPath id="12"><path d="M232.61 601.02L291.53 601.02L291.53 601.02L291.53 577.836L291.53 577.836L232.61 577.836z" /></clipPath><clipPath id="13"><path d="M129.98 624.78L174.74 624.78L174.74 624.78L174.74 601.02L174.74 601.02L129.98 601.02z" /></clipPath><clipPath id="14"><path d="M129.98 624.78L174.74 624.78L174.74 624.78L174.74 601.02L174.74 601.02L129.98 601.02z" /></clipPath><clipPath id="15"><path d="M129.98 624.78L174.74 624.78L174.74 624.78L174.74 601.02L174.74 601.02L129.98 601.02z" /></clipPath><clipPath id="16"><path d="M129.98 624.78L174.74 624.78L174.74 624.78L174.74 601.02L174.74 601.02L129.98 601.02z" /></clipPath><clipPath id="17"><path d="M174.74 624.78L232.604 624.78L232.604 624.78L232.604 601.02L232.604 601.02L174.74 601.02z" /></clipPath><clipPath id="18"><path d="M174.74 624.78L232.604 624.78L232.604 624.78L232.604 601.02L232.604 601.02L174.74 601.02z" /></clipPath><clipPath id="19"><path d="M174.74 624.78L232.604 624.78L232.604 624.78L232.604 601.02L232.604 601.02L174.74 601.02z" /></clipPath><clipPath id="20"><path d="M174.74 624.78L232.604 624.78L232.604 624.78L232.604 601.02L232.604 601.02L174.74 601.02z" /></clipPath><clipPath id="21"><path d="M232.61 624.78L291.53 624.78L291.53 624.78L291.53 601.02L291.53 601.02L232.61 601.02z" /></clipPath><clipPath id="22"><path d="M232.61 624.78L291.53 624.78L291.53 624.78L291.53 601.02L291.53 601.02L232.61 601.02z" /></clipPath><clipPath id="23"><path d="M232.61 624.78L291.53 624.78L291.53 624.78L291.53 601.02L291.53 601.02L232.61 601.02z" /></clipPath></defs><g transform="matrix(1.333333 0 0 1.333333 0 0)"><g><g clip-path="url(#1)"><g clip-path="url(#2)"><g clip-path="url(#3)"></g><g clip-path="url(#4)"></g></g><g transform="matrix(0.3614131 0 0 0.3647727 162.35 302.01)"><g transform="matrix(1 0 0 1 0 0)"><image x="0" y="0" xlink:href="img_26.png" width="184" height="44" /></g></g><g clip-path="url(#5)"><g clip-path="url(#6)"></g><g clip-path="url(#7)"></g></g><g clip-path="url(#8)"><g clip-path="url(#9)"></g><g clip-path="url(#10)"></g></g><g clip-path="url(#11)"><g clip-path="url(#12)"></g></g><g clip-path="url(#13)"><g clip-path="url(#14)"></g><g clip-path="url(#15)"></g><g clip-path="url(#16)"></g></g><g clip-path="url(#17)"><g clip-path="url(#18)"></g><g clip-path="url(#19)"></g><g clip-path="url(#20)"></g></g><g clip-path="url(#21)"><g clip-path="url(#22)"></g><g clip-path="url(#23)"></g></g></g></g></g></svg>