<svg xmlns="http://www.w3.org/2000/svg" xmlns:xlink="http://www.w3.org/1999/xlink" id="body_19" preserveAspectRatio="xMinYMin meet" viewBox="0 0 793 1123"><defs><clipPath id="1"><path d="M0 842L0 -0.03997803L0 -0.03997803L595.32 -0.03997803L595.32 -0.03997803L595.32 842L595.32 842L0 842z" /></clipPath><clipPath id="2"><path d="M87.984 782.72L102.504 782.72L102.504 782.72L102.504 770.24L102.504 770.24L87.984 770.24z" /></clipPath><clipPath id="3"><path d="M87.984 782.72L102.504 782.72L102.504 782.72L102.504 770.24L102.504 770.24L87.984 770.24z" /></clipPath><clipPath id="4"><path d="M87.984 782.72L102.504 782.72L102.504 782.72L102.504 770.24L102.504 770.24L87.984 770.24z" /></clipPath></defs><g transform="matrix(1.333333 0 0 1.333333 0 0)"><g><g clip-path="url(#1)"><g clip-path="url(#2)"><g clip-path="url(#3)"></g><g clip-path="url(#4)"></g></g><path transform="matrix(1 0 0 -1 0 842)" d="M132.02 690.34L274.36 690.34L274.36 690.34L274.36 690.82L274.36 690.82L132.02 690.82z" stroke="none" fill="#C35454" fill-rule="evenodd" /><path transform="matrix(1 0 0 -1 0 842)" d="M136.58 394.61L201.644 394.61L201.644 394.61L201.644 395.09L201.644 395.09L136.58 395.09z" stroke="none" fill="#C35454" fill-rule="evenodd" /><path transform="matrix(1 0 0 -1 0 842)" d="M168.98 376.49L241.004 376.49L241.004 376.49L241.004 376.97L241.004 376.97L168.98 376.97z" stroke="none" fill="#C35454" fill-rule="evenodd" /><path transform="matrix(1 0 0 -1 0 842)" d="M155.06 357.65L265.12 357.65L265.12 357.65L265.12 358.13L265.12 358.13L155.06 358.13z" stroke="none" fill="#C35454" fill-rule="evenodd" /><path transform="matrix(1 0 0 -1 0 842)" d="M178.37 339.53L280.61 339.53L280.61 339.53L280.61 340.01L280.61 340.01L178.37 340.01z" stroke="none" fill="#C35454" fill-rule="evenodd" /><path transform="matrix(1 0 0 -1 0 842)" d="M191.21 321.53L262.37 321.53L262.37 321.53L262.37 322.01L262.37 322.01L191.21 322.01z" stroke="none" fill="#C35454" fill-rule="evenodd" /><path transform="matrix(1 0 0 -1 0 842)" d="M136.58 303.53L199.004 303.53L199.004 303.53L199.004 304.01L199.004 304.01L136.58 304.01z" stroke="none" fill="#C35454" fill-rule="evenodd" /><path transform="matrix(1 0 0 -1 0 842)" d="M213.29 285.53L256.97 285.53L256.97 285.53L256.97 286.01L256.97 286.01L213.29 286.01z" stroke="none" fill="#C35454" fill-rule="evenodd" /><path transform="matrix(1 0 0 -1 0 842)" d="M187.61 267.53L283.01 267.53L283.01 267.53L283.01 268.01L283.01 268.01L187.61 268.01z" stroke="none" fill="#C35454" fill-rule="evenodd" /><path transform="matrix(1 0 0 -1 0 842)" d="M208.85 249.5L282.41 249.5L282.41 249.5L282.41 249.98L282.41 249.98L208.85 249.98z" stroke="none" fill="#C35454" fill-rule="evenodd" /><path transform="matrix(1 0 0 -1 0 842)" d="M197.69 231.5L274.73 231.5L274.73 231.5L274.73 231.98L274.73 231.98L197.69 231.98z" stroke="none" fill="#C35454" fill-rule="evenodd" /><path transform="matrix(1 0 0 -1 0 842)" d="M203.45 195.5L322.51 195.5L322.51 195.5L322.51 195.98L322.51 195.98L203.45 195.98z" stroke="none" fill="#C35454" fill-rule="evenodd" /></g></g></g></svg>