<svg xmlns="http://www.w3.org/2000/svg" xmlns:xlink="http://www.w3.org/1999/xlink" id="body_92" preserveAspectRatio="xMinYMin meet" viewBox="0 0 793 1123"><defs><clipPath id="1"><path d="M0 842L0 -0.03997803L0 -0.03997803L595.32 -0.03997803L595.32 -0.03997803L595.32 842L595.32 842L0 842z" /></clipPath><clipPath id="2"><path d="M87.984 782.72L102.504 782.72L102.504 782.72L102.504 770.24L102.504 770.24L87.984 770.24z" /></clipPath><clipPath id="3"><path d="M87.984 782.72L102.504 782.72L102.504 782.72L102.504 770.24L102.504 770.24L87.984 770.24z" /></clipPath><clipPath id="4"><path d="M87.984 782.72L102.504 782.72L102.504 782.72L102.504 770.24L102.504 770.24L87.984 770.24z" /></clipPath></defs><g transform="matrix(1.333333 0 0 1.333333 0 0)"><g><g clip-path="url(#1)"><g clip-path="url(#2)"><g clip-path="url(#3)"></g><g clip-path="url(#4)"></g></g><path transform="matrix(1 0 0 -1 0 842)" d="M170.9 661.3L223.244 661.3L223.244 661.3L223.244 661.78L223.244 661.78L170.9 661.78z" stroke="none" fill="#C35454" fill-rule="evenodd" /><path transform="matrix(1 0 0 -1 0 842)" d="M149.78 577.63L215.684 577.63L215.684 577.63L215.684 578.11L215.684 578.11L149.78 578.11z" stroke="none" fill="#C35454" fill-rule="evenodd" /><path transform="matrix(1 0 0 -1 0 842)" d="M149.78 526.39L215.684 526.39L215.684 526.39L215.684 526.87L215.684 526.87L149.78 526.87z" stroke="none" fill="#C35454" fill-rule="evenodd" /><path transform="matrix(1 0 0 -1 0 842)" d="M215.57 422.11L255.89 422.11L255.89 422.11L255.89 422.59L255.89 422.59L215.57 422.59z" stroke="none" fill="#C35454" fill-rule="evenodd" /><path transform="matrix(1 0 0 -1 0 842)" d="M259.37 422.11L266.33 422.11L266.33 422.11L266.33 422.59L266.33 422.59L259.37 422.59z" stroke="none" fill="#C35454" fill-rule="evenodd" /><path transform="matrix(1 0 0 -1 0 842)" d="M215.57 299.33L262.73 299.33L262.73 299.33L262.73 299.81L262.73 299.81L215.57 299.81z" stroke="none" fill="#C35454" fill-rule="evenodd" /><path transform="matrix(1 0 0 -1 0 842)" d="M170.9 198.02L196.244 198.02L196.244 198.02L196.244 198.5L196.244 198.5L170.9 198.5z" stroke="none" fill="#C35454" fill-rule="evenodd" /><path transform="matrix(1 0 0 -1 0 842)" d="M170.9 162.26L189.644 162.26L189.644 162.26L189.644 162.74L189.644 162.74L170.9 162.74z" stroke="none" fill="#C35454" fill-rule="evenodd" /></g></g></g></svg>