<svg xmlns="http://www.w3.org/2000/svg" xmlns:xlink="http://www.w3.org/1999/xlink" id="body_209" preserveAspectRatio="xMinYMin meet" viewBox="0 0 793 1123"><defs><clipPath id="1"><path d="M0 842L0 -0.03997803L0 -0.03997803L595.32 -0.03997803L595.32 -0.03997803L595.32 842L595.32 842L0 842z" /></clipPath><clipPath id="2"><path d="M487.78 782.72L507.46 782.72L507.46 782.72L507.46 770.24L507.46 770.24L487.78 770.24z" /></clipPath><clipPath id="3"><path d="M487.78 782.72L507.46 782.72L507.46 782.72L507.46 770.24L507.46 770.24L487.78 770.24z" /></clipPath><clipPath id="4"><path d="M487.78 782.72L507.46 782.72L507.46 782.72L507.46 770.24L507.46 770.24L487.78 770.24z" /></clipPath><clipPath id="5"><path d="M129.98 625.5L193.844 625.5L193.844 625.5L193.844 605.94L193.844 605.94L129.98 605.94z" /></clipPath><clipPath id="6"><path d="M129.98 625.5L193.844 625.5L193.844 625.5L193.844 605.94L193.844 605.94L129.98 605.94z" /></clipPath><clipPath id="7"><path d="M129.98 625.5L193.844 625.5L193.844 625.5L193.844 605.94L193.844 605.94L129.98 605.94z" /></clipPath><clipPath id="8"><path d="M193.85 625.5L239.33 625.5L239.33 625.5L239.33 605.94L239.33 605.94L193.85 605.94z" /></clipPath><clipPath id="9"><path d="M193.85 625.5L239.33 625.5L239.33 625.5L239.33 605.94L239.33 605.94L193.85 605.94z" /></clipPath><clipPath id="10"><path d="M193.85 625.5L239.33 625.5L239.33 625.5L239.33 605.94L239.33 605.94L193.85 605.94z" /></clipPath><clipPath id="11"><path d="M239.33 625.5L366.79 625.5L366.79 625.5L366.79 605.94L366.79 605.94L239.33 605.94z" /></clipPath><clipPath id="12"><path d="M239.33 625.5L366.79 625.5L366.79 625.5L366.79 605.94L366.79 605.94L239.33 605.94z" /></clipPath><clipPath id="13"><path d="M239.33 625.5L366.79 625.5L366.79 625.5L366.79 605.94L366.79 605.94L239.33 605.94z" /></clipPath><clipPath id="14"><path d="M239.33 625.5L366.79 625.5L366.79 625.5L366.79 605.94L366.79 605.94L239.33 605.94z" /></clipPath><clipPath id="15"><path d="M129.98 643.5L193.844 643.5L193.844 643.5L193.844 625.5L193.844 625.5L129.98 625.5z" /></clipPath><clipPath id="16"><path d="M129.98 643.5L193.844 643.5L193.844 643.5L193.844 625.5L193.844 625.5L129.98 625.5z" /></clipPath><clipPath id="17"><path d="M129.98 643.5L193.844 643.5L193.844 643.5L193.844 625.5L193.844 625.5L129.98 625.5z" /></clipPath><clipPath id="18"><path d="M193.85 643.5L239.33 643.5L239.33 643.5L239.33 625.5L239.33 625.5L193.85 625.5z" /></clipPath><clipPath id="19"><path d="M193.85 643.5L239.33 643.5L239.33 643.5L239.33 625.5L239.33 625.5L193.85 625.5z" /></clipPath><clipPath id="20"><path d="M193.85 643.5L239.33 643.5L239.33 643.5L239.33 625.5L239.33 625.5L193.85 625.5z" /></clipPath><clipPath id="21"><path d="M239.33 643.5L366.79 643.5L366.79 643.5L366.79 625.5L366.79 625.5L239.33 625.5z" /></clipPath><clipPath id="22"><path d="M239.33 643.5L366.79 643.5L366.79 643.5L366.79 625.5L366.79 625.5L239.33 625.5z" /></clipPath><clipPath id="23"><path d="M239.33 643.5L366.79 643.5L366.79 643.5L366.79 625.5L366.79 625.5L239.33 625.5z" /></clipPath><clipPath id="24"><path d="M239.33 643.5L366.79 643.5L366.79 643.5L366.79 625.5L366.79 625.5L239.33 625.5z" /></clipPath><clipPath id="25"><path d="M239.33 643.5L366.79 643.5L366.79 643.5L366.79 625.5L366.79 625.5L239.33 625.5z" /></clipPath><clipPath id="26"><path d="M129.98 661.5L193.844 661.5L193.844 661.5L193.844 643.5L193.844 643.5L129.98 643.5z" /></clipPath><clipPath id="27"><path d="M129.98 661.5L193.844 661.5L193.844 661.5L193.844 643.5L193.844 643.5L129.98 643.5z" /></clipPath><clipPath id="28"><path d="M129.98 661.5L193.844 661.5L193.844 661.5L193.844 643.5L193.844 643.5L129.98 643.5z" /></clipPath><clipPath id="29"><path d="M129.98 661.5L193.844 661.5L193.844 661.5L193.844 643.5L193.844 643.5L129.98 643.5z" /></clipPath><clipPath id="30"><path d="M193.85 661.5L239.33 661.5L239.33 661.5L239.33 643.5L239.33 643.5L193.85 643.5z" /></clipPath><clipPath id="31"><path d="M193.85 661.5L239.33 661.5L239.33 661.5L239.33 643.5L239.33 643.5L193.85 643.5z" /></clipPath><clipPath id="32"><path d="M193.85 661.5L239.33 661.5L239.33 661.5L239.33 643.5L239.33 643.5L193.85 643.5z" /></clipPath><clipPath id="33"><path d="M239.33 661.5L366.79 661.5L366.79 661.5L366.79 643.5L366.79 643.5L239.33 643.5z" /></clipPath><clipPath id="34"><path d="M239.33 661.5L366.79 661.5L366.79 661.5L366.79 643.5L366.79 643.5L239.33 643.5z" /></clipPath><clipPath id="35"><path d="M239.33 661.5L366.79 661.5L366.79 661.5L366.79 643.5L366.79 643.5L239.33 643.5z" /></clipPath><clipPath id="36"><path d="M239.33 661.5L366.79 661.5L366.79 661.5L366.79 643.5L366.79 643.5L239.33 643.5z" /></clipPath><clipPath id="37"><path d="M239.33 661.5L366.79 661.5L366.79 661.5L366.79 643.5L366.79 643.5L239.33 643.5z" /></clipPath><clipPath id="38"><path d="M239.33 661.5L366.79 661.5L366.79 661.5L366.79 643.5L366.79 643.5L239.33 643.5z" /></clipPath><clipPath id="39"><path d="M239.33 661.5L366.79 661.5L366.79 661.5L366.79 643.5L366.79 643.5L239.33 643.5z" /></clipPath><clipPath id="40"><path d="M239.33 661.5L366.79 661.5L366.79 661.5L366.79 643.5L366.79 643.5L239.33 643.5z" /></clipPath><clipPath id="41"><path d="M129.98 679.5L193.844 679.5L193.844 679.5L193.844 661.5L193.844 661.5L129.98 661.5z" /></clipPath><clipPath id="42"><path d="M129.98 679.5L193.844 679.5L193.844 679.5L193.844 661.5L193.844 661.5L129.98 661.5z" /></clipPath><clipPath id="43"><path d="M129.98 679.5L193.844 679.5L193.844 679.5L193.844 661.5L193.844 661.5L129.98 661.5z" /></clipPath><clipPath id="44"><path d="M193.85 679.5L239.33 679.5L239.33 679.5L239.33 661.5L239.33 661.5L193.85 661.5z" /></clipPath><clipPath id="45"><path d="M193.85 679.5L239.33 679.5L239.33 679.5L239.33 661.5L239.33 661.5L193.85 661.5z" /></clipPath><clipPath id="46"><path d="M193.85 679.5L239.33 679.5L239.33 679.5L239.33 661.5L239.33 661.5L193.85 661.5z" /></clipPath><clipPath id="47"><path d="M239.33 679.5L366.79 679.5L366.79 679.5L366.79 661.5L366.79 661.5L239.33 661.5z" /></clipPath><clipPath id="48"><path d="M239.33 679.5L366.79 679.5L366.79 679.5L366.79 661.5L366.79 661.5L239.33 661.5z" /></clipPath><clipPath id="49"><path d="M239.33 679.5L366.79 679.5L366.79 679.5L366.79 661.5L366.79 661.5L239.33 661.5z" /></clipPath><clipPath id="50"><path d="M239.33 679.5L366.79 679.5L366.79 679.5L366.79 661.5L366.79 661.5L239.33 661.5z" /></clipPath><clipPath id="51"><path d="M239.33 679.5L366.79 679.5L366.79 679.5L366.79 661.5L366.79 661.5L239.33 661.5z" /></clipPath><clipPath id="52"><path d="M239.33 679.5L366.79 679.5L366.79 679.5L366.79 661.5L366.79 661.5L239.33 661.5z" /></clipPath><clipPath id="53"><path d="M129.98 699.06L193.844 699.06L193.844 699.06L193.844 679.5L193.844 679.5L129.98 679.5z" /></clipPath><clipPath id="54"><path d="M129.98 699.06L193.844 699.06L193.844 699.06L193.844 679.5L193.844 679.5L129.98 679.5z" /></clipPath><clipPath id="55"><path d="M129.98 699.06L193.844 699.06L193.844 699.06L193.844 679.5L193.844 679.5L129.98 679.5z" /></clipPath><clipPath id="56"><path d="M193.85 699.06L239.33 699.06L239.33 699.06L239.33 679.5L239.33 679.5L193.85 679.5z" /></clipPath><clipPath id="57"><path d="M193.85 699.06L239.33 699.06L239.33 699.06L239.33 679.5L239.33 679.5L193.85 679.5z" /></clipPath><clipPath id="58"><path d="M193.85 699.06L239.33 699.06L239.33 699.06L239.33 679.5L239.33 679.5L193.85 679.5z" /></clipPath><clipPath id="59"><path d="M239.33 699.06L366.79 699.06L366.79 699.06L366.79 679.5L366.79 679.5L239.33 679.5z" /></clipPath><clipPath id="60"><path d="M239.33 699.06L366.79 699.06L366.79 699.06L366.79 679.5L366.79 679.5L239.33 679.5z" /></clipPath><clipPath id="61"><path d="M239.33 699.06L366.79 699.06L366.79 699.06L366.79 679.5L366.79 679.5L239.33 679.5z" /></clipPath><clipPath id="62"><path d="M239.33 699.06L366.79 699.06L366.79 699.06L366.79 679.5L366.79 679.5L239.33 679.5z" /></clipPath><clipPath id="63"><path d="M239.33 699.06L366.79 699.06L366.79 699.06L366.79 679.5L366.79 679.5L239.33 679.5z" /></clipPath><clipPath id="64"><path d="M239.33 699.06L366.79 699.06L366.79 699.06L366.79 679.5L366.79 679.5L239.33 679.5z" /></clipPath><clipPath id="65"><path d="M239.33 699.06L366.79 699.06L366.79 699.06L366.79 679.5L366.79 679.5L239.33 679.5z" /></clipPath><clipPath id="66"><path d="M239.33 699.06L366.79 699.06L366.79 699.06L366.79 679.5L366.79 679.5L239.33 679.5z" /></clipPath><clipPath id="67"><path d="M239.33 699.06L366.79 699.06L366.79 699.06L366.79 679.5L366.79 679.5L239.33 679.5z" /></clipPath><clipPath id="68"><path d="M239.33 699.06L366.79 699.06L366.79 699.06L366.79 679.5L366.79 679.5L239.33 679.5z" /></clipPath></defs><g transform="matrix(1.333333 0 0 1.333333 0 0)"><g><g clip-path="url(#1)"><g clip-path="url(#2)"><g clip-path="url(#3)"></g><g clip-path="url(#4)"></g></g><g transform="matrix(0.329992 0 0 0.33 90 181.26)"><g transform="matrix(1 0 0 1 0 0)"><image x="0" y="0" xlink:href="img_25.png" width="1247" height="95" /></g></g><g transform="matrix(0.3614131 0 0 0.3659091 180.35 464.11)"><g transform="matrix(1 0 0 1 0 0)"><image x="0" y="0" xlink:href="img_26.png" width="184" height="44" /></g></g><g clip-path="url(#5)"><g clip-path="url(#6)"></g><g clip-path="url(#7)"></g></g><g clip-path="url(#8)"><g clip-path="url(#9)"></g><g clip-path="url(#10)"></g></g><g clip-path="url(#11)"><g clip-path="url(#12)"></g><g clip-path="url(#13)"></g><g clip-path="url(#14)"></g></g><g clip-path="url(#15)"><g clip-path="url(#16)"></g><g clip-path="url(#17)"></g></g><g clip-path="url(#18)"><g clip-path="url(#19)"></g><g clip-path="url(#20)"></g></g><g clip-path="url(#21)"><g clip-path="url(#22)"></g><g clip-path="url(#23)"></g><g clip-path="url(#24)"></g><g clip-path="url(#25)"></g></g><g clip-path="url(#26)"><g clip-path="url(#27)"></g><g clip-path="url(#28)"></g><g clip-path="url(#29)"></g></g><g clip-path="url(#30)"><g clip-path="url(#31)"></g><g clip-path="url(#32)"></g></g><g clip-path="url(#33)"><g clip-path="url(#34)"></g><g clip-path="url(#35)"></g><g clip-path="url(#36)"></g><g clip-path="url(#37)"></g><g clip-path="url(#38)"></g><g clip-path="url(#39)"></g><g clip-path="url(#40)"></g></g><g clip-path="url(#41)"><g clip-path="url(#42)"></g><g clip-path="url(#43)"></g></g><g clip-path="url(#44)"><g clip-path="url(#45)"></g><g clip-path="url(#46)"></g></g><g clip-path="url(#47)"><g clip-path="url(#48)"></g><g clip-path="url(#49)"></g><g clip-path="url(#50)"></g><g clip-path="url(#51)"></g><g clip-path="url(#52)"></g></g><g clip-path="url(#53)"><g clip-path="url(#54)"></g><g clip-path="url(#55)"></g></g><g clip-path="url(#56)"><g clip-path="url(#57)"></g><g clip-path="url(#58)"></g></g><g clip-path="url(#59)"><g clip-path="url(#60)"></g><g clip-path="url(#61)"></g><g clip-path="url(#62)"></g><g clip-path="url(#63)"></g><g clip-path="url(#64)"></g><g clip-path="url(#65)"></g><g clip-path="url(#66)"></g><g clip-path="url(#67)"></g><g clip-path="url(#68)"></g></g></g></g></g></svg>