<svg xmlns="http://www.w3.org/2000/svg" xmlns:xlink="http://www.w3.org/1999/xlink" id="body_427" preserveAspectRatio="xMinYMin meet" viewBox="0 0 793 1123"><defs><clipPath id="1"><path d="M0 842L0 -0.03997803L0 -0.03997803L595.32 -0.03997803L595.32 -0.03997803L595.32 842L595.32 842L0 842z" /></clipPath><clipPath id="2"><path d="M487.78 782.72L507.46 782.72L507.46 782.72L507.46 770.24L507.46 770.24L487.78 770.24z" /></clipPath><clipPath id="3"><path d="M487.78 782.72L507.46 782.72L507.46 782.72L507.46 770.24L507.46 770.24L487.78 770.24z" /></clipPath><clipPath id="4"><path d="M487.78 782.72L507.46 782.72L507.46 782.72L507.46 770.24L507.46 770.24L487.78 770.24z" /></clipPath></defs><g transform="matrix(1.333333 0 0 1.333333 0 0)"><g><g clip-path="url(#1)"><g clip-path="url(#2)"><g clip-path="url(#3)"></g><g clip-path="url(#4)"></g></g><path transform="matrix(1 0 0 -1 0 842)" d="M261.41 720.82L367.27 720.82L367.27 720.82L367.27 721.3L367.27 721.3L261.41 721.3z" stroke="none" fill="#C35454" fill-rule="evenodd" /><path transform="matrix(1 0 0 -1 0 842)" d="M261.41 648.82L374.95 648.82L374.95 648.82L374.95 649.3L374.95 649.3L261.41 649.3z" stroke="none" fill="#C35454" fill-rule="evenodd" /><path transform="matrix(1 0 0 -1 0 842)" d="M254.57 540.79L369.07 540.79L369.07 540.79L369.07 541.27L369.07 541.27L254.57 541.27z" stroke="none" fill="#C35454" fill-rule="evenodd" /><path transform="matrix(1 0 0 -1 0 842)" d="M254.57 468.91L367.39 468.91L367.39 468.91L367.39 469.39L367.39 469.39L254.57 469.39z" stroke="none" fill="#C35454" fill-rule="evenodd" /><path transform="matrix(1 0 0 -1 0 842)" d="M142.58 414.77L308.83 414.77L308.83 414.77L308.83 415.25L308.83 415.25L142.58 415.25z" stroke="none" fill="#C35454" fill-rule="evenodd" /><path transform="matrix(1 0 0 -1 0 842)" d="M132.02 293.21L277.6 293.21L277.6 293.21L277.6 293.69L277.6 293.69L132.02 293.69z" stroke="none" fill="#C35454" fill-rule="evenodd" /><path transform="matrix(1 0 0 -1 0 842)" d="M132.02 203.18L275.08 203.18L275.08 203.18L275.08 203.66L275.08 203.66L132.02 203.66z" stroke="none" fill="#C35454" fill-rule="evenodd" /><path transform="matrix(1 0 0 -1 0 842)" d="M142.58 149.18L344.47 149.18L344.47 149.18L344.47 149.66L344.47 149.66L142.58 149.66z" stroke="none" fill="#C35454" fill-rule="evenodd" /><path transform="matrix(1 0 0 -1 0 842)" d="M132.02 131.18L277.72 131.18L277.72 131.18L277.72 131.66L277.72 131.66L132.02 131.66z" stroke="none" fill="#C35454" fill-rule="evenodd" /></g></g></g></svg>