<svg xmlns="http://www.w3.org/2000/svg" xmlns:xlink="http://www.w3.org/1999/xlink" id="body_79" preserveAspectRatio="xMinYMin meet" viewBox="0 0 793 1123"><defs><clipPath id="1"><path d="M0 842L0 -0.03997803L0 -0.03997803L595.32 -0.03997803L595.32 -0.03997803L595.32 842L595.32 842L0 842z" /></clipPath><clipPath id="2"><path d="M492.94 782.72L507.46 782.72L507.46 782.72L507.46 770.24L507.46 770.24L492.94 770.24z" /></clipPath><clipPath id="3"><path d="M492.94 782.72L507.46 782.72L507.46 782.72L507.46 770.24L507.46 770.24L492.94 770.24z" /></clipPath><clipPath id="4"><path d="M492.94 782.72L507.46 782.72L507.46 782.72L507.46 770.24L507.46 770.24L492.94 770.24z" /></clipPath></defs><g transform="matrix(1.333333 0 0 1.333333 0 0)"><g><g clip-path="url(#1)"><g clip-path="url(#2)"><g clip-path="url(#3)"></g><g clip-path="url(#4)"></g></g><path transform="matrix(1 0 0 -1 0 842)" d="M170.9 684.94L217.244 684.94L217.244 684.94L217.244 685.42L217.244 685.42L170.9 685.42z" stroke="none" fill="#C35454" fill-rule="evenodd" /><path transform="matrix(1 0 0 -1 0 842)" d="M245.69 439.51L276.29 439.51L276.29 439.51L276.29 439.99L276.29 439.99L245.69 439.99z" stroke="none" fill="#C35454" fill-rule="evenodd" /><path transform="matrix(1 0 0 -1 0 842)" d="M132.02 316.85L189.164 316.85L189.164 316.85L189.164 317.33L189.164 317.33L132.02 317.33z" stroke="none" fill="#C35454" fill-rule="evenodd" /><path transform="matrix(1 0 0 -1 0 842)" d="M132.02 193.82L170.54 193.82L170.54 193.82L170.54 194.3L170.54 194.3L132.02 194.3z" stroke="none" fill="#C35454" fill-rule="evenodd" /></g></g></g></svg>