<svg xmlns="http://www.w3.org/2000/svg" xmlns:xlink="http://www.w3.org/1999/xlink" id="body_7" preserveAspectRatio="xMinYMin meet" viewBox="0 0 793 1123"><defs><clipPath id="1"><path d="M0 842L0 -0.03997803L0 -0.03997803L595.32 -0.03997803L595.32 -0.03997803L595.32 842L595.32 842L0 842z" /></clipPath><clipPath id="2"><path d="M88.944 782.72L167.544 782.72L167.544 782.72L167.544 770.24L167.544 770.24L88.944 770.24z" /></clipPath><clipPath id="3"><path d="M88.944 782.72L167.544 782.72L167.544 782.72L167.544 770.24L167.544 770.24L88.944 770.24z" /></clipPath><clipPath id="4"><path d="M88.944 782.72L167.544 782.72L167.544 782.72L167.544 770.24L167.544 770.24L88.944 770.24z" /></clipPath><clipPath id="5"><path d="M88.944 782.72L167.544 782.72L167.544 782.72L167.544 770.24L167.544 770.24L88.944 770.24z" /></clipPath><clipPath id="6"><path d="M88.944 782.72L167.544 782.72L167.544 782.72L167.544 770.24L167.544 770.24L88.944 770.24z" /></clipPath><clipPath id="7"><path d="M88.944 782.72L167.544 782.72L167.544 782.72L167.544 770.24L167.544 770.24L88.944 770.24z" /></clipPath><clipPath id="8"><path d="M88.944 782.72L167.544 782.72L167.544 782.72L167.544 770.24L167.544 770.24L88.944 770.24z" /></clipPath></defs><g transform="matrix(1.333333 0 0 1.333333 0 0)"><g><g clip-path="url(#1)"><g clip-path="url(#2)"><g clip-path="url(#3)"></g><g clip-path="url(#4)"></g><g clip-path="url(#5)"></g><g clip-path="url(#6)"></g><g clip-path="url(#7)"></g><g clip-path="url(#8)"></g></g><g transform="matrix(0.3434688 0 0 0.3449848 99.25 185.36)"><g transform="matrix(1 0 0 1 0 0)"><image x="0" y="0" xlink:href="img_13.png" width="1156" height="329" /></g></g></g></g></g></svg>