<svg xmlns="http://www.w3.org/2000/svg" xmlns:xlink="http://www.w3.org/1999/xlink" id="body_142" preserveAspectRatio="xMinYMin meet" viewBox="0 0 793 1123"><defs><clipPath id="1"><path d="M0 842L0 -0.03997803L0 -0.03997803L595.32 -0.03997803L595.32 -0.03997803L595.32 842L595.32 842L0 842z" /></clipPath><clipPath id="2"><path d="M87.984 782.72L161.304 782.72L161.304 782.72L161.304 770.24L161.304 770.24L87.984 770.24z" /></clipPath><clipPath id="3"><path d="M87.984 782.72L161.304 782.72L161.304 782.72L161.304 770.24L161.304 770.24L87.984 770.24z" /></clipPath><clipPath id="4"><path d="M87.984 782.72L161.304 782.72L161.304 782.72L161.304 770.24L161.304 770.24L87.984 770.24z" /></clipPath><clipPath id="5"><path d="M87.984 782.72L161.304 782.72L161.304 782.72L161.304 770.24L161.304 770.24L87.984 770.24z" /></clipPath><clipPath id="6"><path d="M87.984 782.72L161.304 782.72L161.304 782.72L161.304 770.24L161.304 770.24L87.984 770.24z" /></clipPath><clipPath id="7"><path d="M87.984 782.72L161.304 782.72L161.304 782.72L161.304 770.24L161.304 770.24L87.984 770.24z" /></clipPath><clipPath id="8"><path d="M87.984 782.72L161.304 782.72L161.304 782.72L161.304 770.24L161.304 770.24L87.984 770.24z" /></clipPath></defs><g transform="matrix(1.333333 0 0 1.333333 0 0)"><g><g clip-path="url(#1)"><g clip-path="url(#2)"><g clip-path="url(#3)"></g><g clip-path="url(#4)"></g><g clip-path="url(#5)"></g><g clip-path="url(#6)"></g><g clip-path="url(#7)"></g><g clip-path="url(#8)"></g></g><path transform="matrix(1 0 0 -1 0 842)" d="M434.25 692.99L434.25 686.99L434.25 686.99L439.25 689.49L439.25 689.49L435.25 689.49L435.25 689.49L435.25 690.49L435.25 690.49L439.25 690.49L439.25 690.49L434.25 692.99z" stroke="none" fill="#000000" fill-rule="evenodd" /><path transform="matrix(1 0 0 -1 0 842)" d="M152.25 689.49L434.25 689.49L434.25 689.49L434.25 690.49L434.25 690.49L152.25 690.49z" stroke="none" fill="#000000" fill-rule="evenodd" /><path transform="matrix(1 0 0 -1 0 842)" d="M439.25 690.49L435.25 690.49L435.25 690.49L435.25 689.49L435.25 689.49L439.25 689.49L439.25 689.49L440.25 689.99L440.25 689.99L439.25 690.49z" stroke="none" fill="#000000" fill-rule="evenodd" /><path transform="matrix(1 0 0 -1 0 842)" d="M432.75 413.79L432.75 407.79L432.75 407.79L437.75 410.29L437.75 410.29L433.75 410.29L433.75 410.29L433.75 411.29L433.75 411.29L437.75 411.29L437.75 411.29L432.75 413.79z" stroke="none" fill="#000000" fill-rule="evenodd" /><path transform="matrix(1 0 0 -1 0 842)" d="M150.75 410.29L432.75 410.29L432.75 410.29L432.75 411.29L432.75 411.29L150.75 411.29z" stroke="none" fill="#000000" fill-rule="evenodd" /><path transform="matrix(1 0 0 -1 0 842)" d="M437.75 411.29L433.75 411.29L433.75 411.29L433.75 410.29L433.75 410.29L437.75 410.29L437.75 410.29L438.75 410.79L438.75 410.79L437.75 411.29z" stroke="none" fill="#000000" fill-rule="evenodd" /><path transform="matrix(1 0 0 -1 0 842)" d="M138.02 504.79L156.98 504.79L156.98 504.79L156.98 505.27L156.98 505.27L138.02 505.27z" stroke="none" fill="#C35454" fill-rule="evenodd" /><path transform="matrix(1 0 0 -1 0 842)" d="M359.11 504.79L395.59 504.79L395.59 504.79L395.59 505.27L395.59 505.27L359.11 505.27z" stroke="none" fill="#C35454" fill-rule="evenodd" /><path transform="matrix(1 0 0 -1 0 842)" d="M138.02 189.5L156.98 189.5L156.98 189.5L156.98 189.98L156.98 189.98L138.02 189.98z" stroke="none" fill="#C35454" fill-rule="evenodd" /><path transform="matrix(1 0 0 -1 0 842)" d="M249.53 189.5L337.034 189.5L337.034 189.5L337.034 189.98L337.034 189.98L249.53 189.98z" stroke="none" fill="#C35454" fill-rule="evenodd" /></g></g></g></svg>