<svg xmlns="http://www.w3.org/2000/svg" xmlns:xlink="http://www.w3.org/1999/xlink" id="body_144" preserveAspectRatio="xMinYMin meet" viewBox="0 0 793 1123"><defs><clipPath id="1"><path d="M0 842L0 -0.03997803L0 -0.03997803L595.32 -0.03997803L595.32 -0.03997803L595.32 842L595.32 842L0 842z" /></clipPath><clipPath id="2"><path d="M87.984 782.72L161.304 782.72L161.304 782.72L161.304 770.24L161.304 770.24L87.984 770.24z" /></clipPath><clipPath id="3"><path d="M87.984 782.72L161.304 782.72L161.304 782.72L161.304 770.24L161.304 770.24L87.984 770.24z" /></clipPath><clipPath id="4"><path d="M87.984 782.72L161.304 782.72L161.304 782.72L161.304 770.24L161.304 770.24L87.984 770.24z" /></clipPath><clipPath id="5"><path d="M87.984 782.72L161.304 782.72L161.304 782.72L161.304 770.24L161.304 770.24L87.984 770.24z" /></clipPath><clipPath id="6"><path d="M87.984 782.72L161.304 782.72L161.304 782.72L161.304 770.24L161.304 770.24L87.984 770.24z" /></clipPath><clipPath id="7"><path d="M87.984 782.72L161.304 782.72L161.304 782.72L161.304 770.24L161.304 770.24L87.984 770.24z" /></clipPath><clipPath id="8"><path d="M87.984 782.72L161.304 782.72L161.304 782.72L161.304 770.24L161.304 770.24L87.984 770.24z" /></clipPath></defs><g transform="matrix(1.333333 0 0 1.333333 0 0)"><g><g clip-path="url(#1)"><g clip-path="url(#2)"><g clip-path="url(#3)"></g><g clip-path="url(#4)"></g><g clip-path="url(#5)"></g><g clip-path="url(#6)"></g><g clip-path="url(#7)"></g><g clip-path="url(#8)"></g></g><path transform="matrix(1 0 0 -1 0 842)" d="M437.25 679.34L437.25 673.34L437.25 673.34L442.25 675.84L442.25 675.84L438.25 675.84L438.25 675.84L438.25 676.84L438.25 676.84L442.25 676.84L442.25 676.84L437.25 679.34z" stroke="none" fill="#000000" fill-rule="evenodd" /><path transform="matrix(1 0 0 -1 0 842)" d="M155.25 675.84L437.25 675.84L437.25 675.84L437.25 676.84L437.25 676.84L155.25 676.84z" stroke="none" fill="#000000" fill-rule="evenodd" /><path transform="matrix(1 0 0 -1 0 842)" d="M442.25 676.84L438.25 676.84L438.25 676.84L438.25 675.84L438.25 675.84L442.25 675.84L442.25 675.84L443.25 676.34L443.25 676.34L442.25 676.84z" stroke="none" fill="#000000" fill-rule="evenodd" /><path transform="matrix(1 0 0 -1 0 842)" d="M436.5 494.54L436.5 488.54L436.5 488.54L441.5 491.04L441.5 491.04L437.5 491.04L437.5 491.04L437.5 492.04L437.5 492.04L441.5 492.04L441.5 492.04L436.5 494.54z" stroke="none" fill="#000000" fill-rule="evenodd" /><path transform="matrix(1 0 0 -1 0 842)" d="M154.5 491.04L436.5 491.04L436.5 491.04L436.5 492.04L436.5 492.04L154.5 492.04z" stroke="none" fill="#000000" fill-rule="evenodd" /><path transform="matrix(1 0 0 -1 0 842)" d="M441.5 492.04L437.5 492.04L437.5 492.04L437.5 491.04L437.5 491.04L441.5 491.04L441.5 491.04L442.5 491.54L442.5 491.54L441.5 492.04z" stroke="none" fill="#000000" fill-rule="evenodd" /><path transform="matrix(1 0 0 -1 0 842)" d="M433.5 269.24L433.5 263.24L433.5 263.24L438.5 265.74L438.5 265.74L434.5 265.74L434.5 265.74L434.5 266.74L434.5 266.74L438.5 266.74L438.5 266.74L433.5 269.24z" stroke="none" fill="#000000" fill-rule="evenodd" /><path transform="matrix(1 0 0 -1 0 842)" d="M151.5 265.74L433.5 265.74L433.5 265.74L433.5 266.74L433.5 266.74L151.5 266.74z" stroke="none" fill="#000000" fill-rule="evenodd" /><path transform="matrix(1 0 0 -1 0 842)" d="M438.5 266.74L434.5 266.74L434.5 266.74L434.5 265.74L434.5 265.74L438.5 265.74L438.5 265.74L439.5 266.24L439.5 266.24L438.5 266.74z" stroke="none" fill="#000000" fill-rule="evenodd" /><path transform="matrix(1 0 0 -1 0 842)" d="M213.17 585.55L245.33 585.55L245.33 585.55L245.33 586.03L245.33 586.03L213.17 586.03z" stroke="none" fill="#C35454" fill-rule="evenodd" /><path transform="matrix(1 0 0 -1 0 842)" d="M214.37 360.17L223.97 360.17L223.97 360.17L223.97 360.65L223.97 360.65L214.37 360.65z" stroke="none" fill="#C35454" fill-rule="evenodd" /><path transform="matrix(1 0 0 -1 0 842)" d="M282.17 130.22L291.77 130.22L291.77 130.22L291.77 130.7L291.77 130.7L282.17 130.7z" stroke="none" fill="#C35454" fill-rule="evenodd" /><path transform="matrix(1 0 0 -1 0 842)" d="M329.11 130.22L346.99 130.22L346.99 130.22L346.99 130.7L346.99 130.7L329.11 130.7z" stroke="none" fill="#C35454" fill-rule="evenodd" /></g></g></g></svg>