<svg xmlns="http://www.w3.org/2000/svg" xmlns:xlink="http://www.w3.org/1999/xlink" id="body_337" preserveAspectRatio="xMinYMin meet" viewBox="0 0 1121 795"><defs><clipPath id="1"><path d="M0 596L0 -0.03997803L0 -0.03997803L841.92 -0.03997803L841.92 -0.03997803L841.92 596L841.92 596L0 596z" /></clipPath><clipPath id="2"><path d="M0 596.1201L842.04 596.1201L842.04 596.1201L842.04 -0.03991699L842.04 -0.03991699L0 -0.03991699z" /></clipPath><clipPath id="3"><path d="M0 596.1201L842.04 596.1201L842.04 596.1201L842.04 -0.03991699L842.04 -0.03991699L0 -0.03991699z" /></clipPath></defs><g transform="matrix(1.333333 0 0 1.333333 0 0)"><g><g clip-path="url(#1)"><g transform="matrix(0.9974441 0 0 0.9974026 243.05 173.96)"><g transform="matrix(1 0 0 1 0 0)"><image x="0" y="0" xlink:href="img_377.png" width="313" height="77" /></g></g><path transform="matrix(1 0 0 -1 0 596)" d="M244.05 436.19L665.35 436.19" stroke="#1F1C1C" stroke-width="2.4333" fill="none" /><path transform="matrix(1 0 0 -1 0 596)" d="M156.05 512.04L164.05 512.04L164.05 512.04L164.05 563.04L164.05 563.04L156.05 563.04z" stroke="none" fill="#87696E" fill-rule="evenodd" /><g transform="matrix(1 0 0 1 156.05 32.96002)"><g transform="matrix(1 0 0 1 0 0)"><image x="0" y="0" xlink:href="img_261.png" width="8" height="51" /></g></g><g transform="matrix(0.9993671 0 0 1 275.05 14.46002)"><g transform="matrix(1 0 0 1 0 0)"><image x="0" y="0" xlink:href="img_378.png" width="158" height="39" /></g></g><g transform="matrix(0.9995763 0 0 1 275.05 86.60999)"><g transform="matrix(1 0 0 1 0 0)"><image x="0" y="0" xlink:href="img_379.png" width="118" height="39" /></g></g><g clip-path="url(#2)"><g transform="matrix(0.5022222 0 0 0.5029762 52.1 160.51)"><g transform="matrix(1 0 0 1 0 0)"><image x="0" y="0" xlink:href="img_264.png" width="90" height="168" /></g></g></g><g clip-path="url(#3)"><g transform="matrix(0.5035715 0 0 0.5032609 172.1 268.51)"><g transform="matrix(1 0 0 1 0 0)"><image x="0" y="0" xlink:href="img_265.png" width="14" height="46" /></g></g></g></g></g></g></svg>