<svg xmlns="http://www.w3.org/2000/svg" xmlns:xlink="http://www.w3.org/1999/xlink" id="body_263" preserveAspectRatio="xMinYMin meet" viewBox="0 0 793 1123"><defs><clipPath id="1"><path d="M0 842L0 -0.03997803L0 -0.03997803L595.32 -0.03997803L595.32 -0.03997803L595.32 842L595.32 842L0 842z" /></clipPath><clipPath id="2"><path d="M487.78 782.72L507.46 782.72L507.46 782.72L507.46 770.24L507.46 770.24L487.78 770.24z" /></clipPath><clipPath id="3"><path d="M487.78 782.72L507.46 782.72L507.46 782.72L507.46 770.24L507.46 770.24L487.78 770.24z" /></clipPath><clipPath id="4"><path d="M487.78 782.72L507.46 782.72L507.46 782.72L507.46 770.24L507.46 770.24L487.78 770.24z" /></clipPath></defs><g transform="matrix(1.333333 0 0 1.333333 0 0)"><g><g clip-path="url(#1)"><g clip-path="url(#2)"><g clip-path="url(#3)"></g><g clip-path="url(#4)"></g></g><path transform="matrix(1 0 0 -1 0 842)" d="M132.02 665.62L210.044 665.62L210.044 665.62L210.044 666.1L210.044 666.1L132.02 666.1z" stroke="none" fill="#C35454" fill-rule="evenodd" /><path transform="matrix(1 0 0 -1 0 842)" d="M280.01 665.62L307.034 665.62L307.034 665.62L307.034 666.1L307.034 666.1L280.01 666.1z" stroke="none" fill="#C35454" fill-rule="evenodd" /><path transform="matrix(1 0 0 -1 0 842)" d="M173.9 528.91L227.324 528.91L227.324 528.91L227.324 529.39L227.324 529.39L173.9 529.39z" stroke="none" fill="#C35454" fill-rule="evenodd" /><path transform="matrix(1 0 0 -1 0 842)" d="M301.15 528.91L448.53 528.91L448.53 528.91L448.53 529.39L448.53 529.39L301.15 529.39z" stroke="none" fill="#C35454" fill-rule="evenodd" /><path transform="matrix(1 0 0 -1 0 842)" d="M132.02 338.21L211.724 338.21L211.724 338.21L211.724 338.69L211.724 338.69L132.02 338.69z" stroke="none" fill="#C35454" fill-rule="evenodd" /><path transform="matrix(1 0 0 -1 0 842)" d="M217.01 338.21L292.874 338.21L292.874 338.21L292.874 338.69L292.874 338.69L217.01 338.69z" stroke="none" fill="#C35454" fill-rule="evenodd" /><path transform="matrix(1 0 0 -1 0 842)" d="M158.06 255.53L174.02 255.53L174.02 255.53L174.02 256.01L174.02 256.01L158.06 256.01z" stroke="none" fill="#C35454" fill-rule="evenodd" /><path transform="matrix(1 0 0 -1 0 842)" d="M286.73 255.53L385.634 255.53L385.634 255.53L385.634 256.01L385.634 256.01L286.73 256.01z" stroke="none" fill="#C35454" fill-rule="evenodd" /><path transform="matrix(1 0 0 -1 0 842)" d="M132.02 168.38L236.32 168.38L236.32 168.38L236.32 168.86L236.32 168.86L132.02 168.86z" stroke="none" fill="#C35454" fill-rule="evenodd" /><path transform="matrix(1 0 0 -1 0 842)" d="M257.21 168.38L314.114 168.38L314.114 168.38L314.114 168.86L314.114 168.86L257.21 168.86z" stroke="none" fill="#C35454" fill-rule="evenodd" /></g></g></g></svg>